<svg xmlns="http://www.w3.org/2000/svg" viewBox="0 -0.5 56 40" shape-rendering="crispEdges">
<metadata>Made with Pixels to Svg https://codepen.io/shshaw/pen/XbxvNj</metadata>
<path stroke="#46465e" d="M3 1h5M10 1h2M15 1h2M20 1h16M39 1h2M43 1h3M48 1h5M23 4h1M32 4h1M3 5h1M23 6h1M32 6h1M51 6h2M3 7h1M23 7h1M32 7h1M52 7h1M3 8h1M23 8h1M32 8h1M52 8h1M3 9h1M23 9h1M32 9h1M52 9h1M3 10h1M23 10h1M32 10h1M51 10h2M3 11h1M23 11h1M32 11h1M52 11h1M3 12h1M23 12h1M32 12h1M52 12h1M3 13h1M23 13h1M32 13h1M52 13h1M3 14h1M23 14h1M32 14h1M52 14h1M3 15h1M21 15h1M34 15h1M52 15h1M3 16h1M52 16h1M3 17h1M21 17h1M34 17h1M51 17h2M3 18h1M21 18h1M34 18h1M52 18h1M3 19h1M21 19h1M34 19h1M52 19h1M3 20h1M20 20h1M35 20h1M51 20h2M3 21h1M51 21h2M19 22h1M36 22h1M18 23h1M37 23h1M17 24h1M38 24h1M16 25h1M39 25h1M16 26h1M16 27h1M15 28h2M40 28h1M51 28h2M3 29h1M16 29h1M39 29h1M51 29h2M3 30h1M17 30h1M38 30h2M52 30h1M3 31h1M16 31h2M38 31h2M52 31h1M3 32h1M52 32h1M3 33h1M17 33h22M51 33h2M3 34h1M16 34h2M38 34h2M52 34h1M3 35h1M17 35h1M38 35h1M52 35h1M17 36h1M38 36h1M51 36h1M4 37h1M16 37h1M39 37h1M51 37h1M39 38h1M51 38h1M5 39h11M40 39h11" />
<path stroke="#3a3a50" d="M8 1h1M13 1h1M18 1h1M37 1h1M42 1h1M47 1h1M8 2h1M13 2h1M18 2h1M23 2h1M32 2h1M37 2h1M42 2h1M47 2h1M24 4h8M51 4h1M51 7h1M51 8h1M51 9h1M51 12h1M51 15h1M51 18h1M51 31h1M51 34h1" />
<path stroke="#3e3e55" d="M9 1h1M52 22h1" />
<path stroke="#44445c" d="M12 1h1" />
<path stroke="#424259" d="M14 1h1M3 22h1" />
<path stroke="#414159" d="M17 1h1M51 32h1M5 38h1M15 38h1M40 38h1M50 38h1" />
<path stroke="#45455d" d="M19 1h1M51 14h1" />
<path stroke="#43435b" d="M36 1h1M51 5h1M51 13h1" />
<path stroke="#43435a" d="M38 1h1M51 11h1" />
<path stroke="#404057" d="M41 1h1" />
<path stroke="#3d3d54" d="M46 1h1M23 3h1M32 3h1" />
<path stroke="#9796b3" d="M3 2h1" />
<path stroke="#8686a6" d="M4 2h1" />
<path stroke="#565972" d="M5 2h3M10 2h2M15 2h2M20 2h2M34 2h2M39 2h2M44 2h2M48 2h3M51 23h1M51 26h1M16 33h1M39 33h1M16 36h1M39 36h1" />
<path stroke="#44455c" d="M9 2h1" />
<path stroke="#52556e" d="M12 2h1" />
<path stroke="#4c4e65" d="M14 2h1" />
<path stroke="#4b4d65" d="M17 2h1" />
<path stroke="#53566f" d="M19 2h1" />
<path stroke="#43445c" d="M22 2h1" />
<path stroke="#989ebe" d="M24 2h1" />
<path stroke="#a3a5c3" d="M25 2h1" />
<path stroke="#b2aecb" d="M26 2h1" />
<path stroke="#e7e0ef" d="M27 2h1" />
<path stroke="#ebe4f2" d="M28 2h2M24 9h1M24 18h1M32 18h1M23 20h1M31 20h1M18 25h1" />
<path stroke="#ded6e6" d="M30 2h1M22 22h1" />
<path stroke="#d8d0e0" d="M31 2h1M31 7h1M31 8h1M31 9h1M24 10h1M31 10h1M24 11h1M31 11h1M24 12h1M31 12h1M24 13h1M31 13h1M24 14h1M31 14h1M23 15h2M31 15h2M23 16h1M31 16h1M23 17h1M31 17h1M24 20h1M32 20h3M24 21h1M32 21h3M23 22h2M31 22h4M21 23h4M31 23h5M21 24h4M31 24h5M20 25h5M31 25h7M18 26h7M31 26h7" />
<path stroke="#47485f" d="M33 2h1" />
<path stroke="#50526b" d="M36 2h1M51 27h1" />
<path stroke="#4e5068" d="M38 2h1" />
<path stroke="#494a62" d="M41 2h1" />
<path stroke="#565871" d="M43 2h1" />
<path stroke="#414259" d="M46 2h1" />
<path stroke="#8b8bab" d="M51 2h1M51 25h1" />
<path stroke="#9594b3" d="M52 2h1" />
<path stroke="#84839f" d="M3 3h1" />
<path stroke="#777592" d="M4 3h1" />
<path stroke="#816b7e" d="M5 3h3M10 3h2M34 3h2M39 3h2" />
<path stroke="#523e57" d="M8 3h1M13 3h1M18 3h1M37 3h1M42 3h1M47 3h1" />
<path stroke="#634f65" d="M9 3h1" />
<path stroke="#7b6579" d="M12 3h1" />
<path stroke="#695267" d="M14 3h1" />
<path stroke="#765d6f" d="M15 3h2M44 3h2" />
<path stroke="#685166" d="M17 3h1" />
<path stroke="#6c576f" d="M19 3h1" />
<path stroke="#6f5a72" d="M20 3h2M48 3h3" />
<path stroke="#4e475e" d="M22 3h1" />
<path stroke="#8085a2" d="M24 3h1" />
<path stroke="#888aa6" d="M25 3h1" />
<path stroke="#9390ac" d="M26 3h1" />
<path stroke="#bbb6c7" d="M27 3h1" />
<path stroke="#beb9c9" d="M28 3h2" />
<path stroke="#b4afc0" d="M30 3h1" />
<path stroke="#b0aabb" d="M31 3h1" />
<path stroke="#5b5266" d="M33 3h1" />
<path stroke="#776175" d="M36 3h1" />
<path stroke="#735e73" d="M38 3h1" />
<path stroke="#6b566b" d="M41 3h1" />
<path stroke="#765c6f" d="M43 3h1" />
<path stroke="#5b465d" d="M46 3h1" />
<path stroke="#767694" d="M51 3h1" />
<path stroke="#8484a2" d="M52 3h1" />
<path stroke="#4d4d64" d="M3 4h1" />
<path stroke="#4c4457" d="M4 4h1" />
<path stroke="#ffa0a0" d="M5 4h3M10 4h2M34 4h2M39 4h2" />
<path stroke="#994b6c" d="M8 4h1M13 4h1M18 4h1M37 4h1M42 4h1M47 4h1M50 23h1M50 26h1" />
<path stroke="#be6a7f" d="M9 4h1" />
<path stroke="#f29599" d="M12 4h1" />
<path stroke="#bf5d69" d="M14 4h1" />
<path stroke="#d56868" d="M15 4h2M44 4h2M16 5h1M45 5h1M7 6h1M16 6h1M39 6h1M45 6h1M7 7h1M16 7h1M34 7h1M39 7h1M45 7h1M7 8h1M16 8h1M34 8h1M39 8h1M45 8h1M7 9h1M16 9h1M34 9h1M39 9h1M45 9h1M7 10h1M16 10h1M34 10h1M39 10h1M45 10h1M7 11h1M16 11h1M34 11h1M39 11h1M45 11h1M7 12h1M16 12h1M34 12h1M39 12h1M45 12h1M7 13h1M16 13h1M34 13h1M39 13h1M45 13h1M7 14h1M45 14h1M7 15h1M15 15h1M40 15h1M45 15h1M7 16h1M15 16h1M40 16h1M45 16h1M5 17h3M15 17h1M40 17h1M45 17h1M5 18h1M10 18h1M15 18h1M40 18h1M45 18h3M5 19h1M47 19h1M5 20h1M13 20h1M37 20h1M42 20h1M47 20h1M5 21h1M13 21h1M37 21h1M42 21h1M47 21h1M7 22h1M7 23h1M39 23h1M43 23h1M43 24h1M43 25h1M5 28h1M5 29h1M5 30h1M8 30h3M40 30h1M45 30h3M5 31h1M8 31h3M40 31h1M45 31h3M5 32h1M8 32h3M40 32h1M45 32h3M5 33h1M8 33h3M40 33h1M45 33h3M5 34h1M8 34h3M40 34h1M45 34h3M5 35h1M8 35h1M40 35h1M47 35h1M5 36h1M8 36h1M40 36h1M47 36h1" />
<path stroke="#be5d6a" d="M17 4h1" />
<path stroke="#b65b71" d="M19 4h1" />
<path stroke="#b95d72" d="M20 4h2M48 4h3M20 5h2M48 5h1M8 6h1M20 6h2M43 6h1M48 6h1M8 7h1M37 7h1M43 7h1M48 7h1M8 8h1M37 8h1M43 8h1M48 8h1M8 9h1M37 9h1M43 9h1M48 9h1M8 10h1M37 10h1M43 10h1M48 10h1M8 11h1M37 11h1M43 11h1M48 11h1M8 12h1M37 12h1M43 12h1M48 12h1M8 13h1M37 13h1M43 13h1M48 13h1M8 14h1M48 14h1M8 15h1M18 15h1M39 15h1M48 15h1M8 16h1M18 16h1M39 16h1M48 16h1M8 17h1M18 17h1M39 17h1M48 17h1M7 18h1M18 18h1M39 18h1M7 19h1M7 20h1M16 20h1M40 20h1M16 21h1M40 21h1M15 23h1M42 23h1M15 24h1M42 24h1M8 25h1M15 25h1M42 25h1M47 25h1M7 26h1M48 26h1M8 28h4M45 28h3M13 31h1M13 32h1M13 33h1M13 34h1M13 35h1M13 36h1M13 37h1" />
<path stroke="#6d4e65" d="M22 4h1" />
<path stroke="#996e7c" d="M33 4h1" />
<path stroke="#e98e95" d="M36 4h1" />
<path stroke="#e28891" d="M38 4h1" />
<path stroke="#ce7787" d="M41 4h1" />
<path stroke="#d46868" d="M43 4h1" />
<path stroke="#a8526b" d="M46 4h1" />
<path stroke="#53556d" d="M52 4h1" />
<path stroke="#53485e" d="M4 5h1" />
<path stroke="#e77b7b" d="M5 5h1M10 5h1M34 5h2M40 5h1" />
<path stroke="#e27878" d="M6 5h1" />
<path stroke="#df7575" d="M7 5h1M39 5h1" />
<path stroke="#b15971" d="M8 5h1" />
<path stroke="#c56574" d="M9 5h1" />
<path stroke="#e07676" d="M11 5h1" />
<path stroke="#d87174" d="M12 5h1" />
<path stroke="#ab526a" d="M13 5h1M18 5h1M37 5h1M42 5h1M47 5h1" />
<path stroke="#cb646c" d="M14 5h1" />
<path stroke="#dd6e6e" d="M15 5h1M38 20h1M38 21h1M12 22h1" />
<path stroke="#c45f69" d="M17 5h1" />
<path stroke="#b85c71" d="M19 5h1M19 6h1M19 7h2M19 8h2M19 9h2M19 10h2M19 11h2M19 12h2M19 13h2M19 14h1M43 14h1M16 22h1" />
<path stroke="#75576f" d="M22 5h1M22 10h1" />
<path stroke="#52546d" d="M23 5h1M32 5h1" />
<path stroke="#98674e" d="M24 5h8" />
<path stroke="#956673" d="M33 5h1" />
<path stroke="#db7378" d="M36 5h1" />
<path stroke="#d06b72" d="M38 5h1" />
<path stroke="#ca6873" d="M41 5h1" />
<path stroke="#bf5f70" d="M43 5h1" />
<path stroke="#c5626e" d="M44 5h1" />
<path stroke="#b55769" d="M46 5h1M11 18h1M11 30h1M11 31h1M11 32h1M11 33h1M11 34h1" />
<path stroke="#b65a6f" d="M49 5h1M18 19h1M14 23h1M14 24h1M14 25h1" />
<path stroke="#b2566b" d="M50 5h1" />
<path stroke="#47475f" d="M52 5h1" />
<path stroke="#544a60" d="M3 6h1M4 10h1M4 22h1" />
<path stroke="#544a5f" d="M4 6h1" />
<path stroke="#e07070" d="M5 6h1M10 6h1M15 6h1M34 6h2M40 6h1M5 7h1M10 7h1M15 7h1M40 7h1M5 8h1M10 8h1M15 8h1M40 8h1M5 9h1M10 9h1M15 9h1M40 9h1M5 10h1M10 10h1M15 10h1M40 10h1M5 11h1M10 11h1M15 11h1M40 11h1M5 12h1M10 12h1M15 12h1M40 12h1M5 13h1M10 13h1M15 13h1M40 13h1M5 14h1M10 14h1M5 15h1M10 15h1M13 15h1M37 15h1M42 15h1M10 16h1M13 16h1M37 16h1M42 16h1M10 17h1M13 17h1M37 17h1M42 17h1M8 18h1M13 18h1M37 18h1M42 18h1M8 19h1M8 20h1M39 20h1M43 20h1M39 21h1M43 21h1M10 23h1M40 23h1M45 23h1M48 23h1M10 24h1M40 24h1M45 24h1M10 25h1M40 25h1M45 25h1M7 28h1M42 28h1M48 28h1M7 29h1M42 29h1M48 29h1M7 30h1M42 30h1M48 30h1M7 31h1M42 31h1M48 31h1M7 32h1M42 32h1M48 32h1M7 33h1M42 33h1M48 33h1M7 34h1M42 34h1M48 34h1M7 35h1M42 35h1M48 35h1M7 36h1M42 36h1M48 36h1M7 37h1M42 37h1M48 37h1" />
<path stroke="#d96b6b" d="M6 6h1M6 7h1M6 8h1M6 9h1M6 10h1M6 11h1M6 12h1M6 13h1M6 14h1M6 15h1M14 15h1M14 16h1M14 17h1M14 18h1" />
<path stroke="#c76471" d="M9 6h1M9 7h1M9 8h1M9 9h1M9 10h1M9 11h1M9 12h1M9 13h1M9 14h1M9 15h1M9 16h1M9 17h1M9 25h1M7 27h1M48 27h1" />
<path stroke="#d66969" d="M11 6h1M11 7h1M11 8h1M11 9h1M11 10h1M11 11h1M11 12h1M11 13h1M11 23h1M11 24h1M11 25h1" />
<path stroke="#d06568" d="M12 6h1M12 7h1M12 8h1M12 9h1M12 10h1M12 11h1M12 12h1M12 13h1M12 23h1M12 24h1M12 25h1M9 35h1" />
<path stroke="#b05469" d="M13 6h1M18 6h1M37 6h1M42 6h1M47 6h1M50 6h1M13 7h1M18 7h1M21 7h1M42 7h1M47 7h1M50 7h1M13 8h1M18 8h1M21 8h1M42 8h1M47 8h1M50 8h1M13 9h1M18 9h1M21 9h1M42 9h1M47 9h1M50 9h1M13 10h1M18 10h1M21 10h1M42 10h1M47 10h1M50 10h1M13 11h1M18 11h1M21 11h1M42 11h1M47 11h1M50 11h1M13 12h1M18 12h1M21 12h1M42 12h1M47 12h1M50 12h1M13 13h1M18 13h1M21 13h1M42 13h1M47 13h1M50 13h1M18 14h1M47 14h1M50 14h1M16 15h1M47 15h1M50 15h1M16 16h1M47 16h1M50 16h1M16 17h1M47 17h1M50 17h1M16 18h1M48 18h3M48 19h3M10 20h1M15 20h1M18 20h1M45 20h1M48 20h3M10 21h1M15 21h1M18 21h1M45 21h1M50 21h1M5 23h1M8 23h1M13 23h1M16 23h1M47 23h1M13 24h1M13 25h1M5 26h1M50 28h1M50 29h1M15 30h1M50 30h1M15 31h1M50 31h1M15 32h1M50 32h1M15 33h1M50 33h1M15 34h1M50 34h1M15 35h1M50 35h1M10 36h2M15 36h1M45 36h1M50 36h1M10 37h2M45 37h1" />
<path stroke="#ce666d" d="M14 6h1M14 7h1M14 8h1M14 9h1M14 10h1M14 11h1M14 12h1M14 13h1" />
<path stroke="#c76068" d="M17 6h1M17 7h1M17 8h1M17 9h1M17 10h1M17 11h1M17 12h1M17 13h1M10 35h1M45 35h1" />
<path stroke="#775a72" d="M22 6h1" />
<path stroke="#b67750" d="M24 6h1" />
<path stroke="#b5764e" d="M25 6h1" />
<path stroke="#b5754d" d="M26 6h4M26 7h2M26 20h1M26 21h1M26 22h2M26 23h2M26 24h2M26 25h2M26 26h2M26 27h2M17 28h23M18 31h20" />
<path stroke="#b5764f" d="M30 6h1" />
<path stroke="#b6764f" d="M31 6h1" />
<path stroke="#946371" d="M33 6h1" />
<path stroke="#d66a6f" d="M36 6h1" />
<path stroke="#ca6268" d="M38 6h1M46 22h1" />
<path stroke="#c9636d" d="M41 6h1M41 7h1M41 8h1M41 9h1M41 10h1M41 11h1M41 12h1M41 13h1" />
<path stroke="#c06070" d="M44 6h1M44 7h1M44 8h1M44 9h1M44 10h1M44 11h1M44 12h1M44 13h1M44 31h1M44 32h1M44 33h1M44 34h1" />
<path stroke="#b95969" d="M46 6h1M46 7h1M46 8h1M46 9h1M46 10h1M46 11h1M46 12h1M46 13h1M46 14h1M44 15h1M46 15h1M44 16h1M46 16h1M44 17h1M46 17h1M44 18h1" />
<path stroke="#b4586d" d="M49 6h1M49 7h1M49 8h1M49 9h1M49 10h1M49 11h1M49 12h1M49 13h1M49 14h1M49 15h1M49 16h1M49 17h1M17 19h1M49 21h1" />
<path stroke="#4a3f53" d="M4 7h1M4 8h1M4 9h1M4 12h1M4 15h1" />
<path stroke="#6a4b62" d="M22 7h1M22 8h1M22 9h1M22 12h1" />
<path stroke="#f8f8f8" d="M24 7h1M24 17h1M32 17h1M23 18h1M31 18h1M21 20h1M39 26h1" />
<path stroke="#dcc1b0" d="M25 7h1" />
<path stroke="#b3714c" d="M28 7h1M28 8h1M28 9h1M28 10h1M28 11h1M28 12h1M28 13h1M28 22h1M28 23h1M28 24h1M28 25h1M28 26h1" />
<path stroke="#a85f46" d="M29 7h1M29 8h1M29 9h1M29 10h1M29 11h1M29 12h1M29 13h1M29 20h1M29 21h1M29 22h1M29 23h1M29 24h1M29 25h1M29 26h1" />
<path stroke="#c9adb0" d="M30 7h1M30 8h1M30 9h1M30 10h1M30 11h1M30 12h1M30 13h1M30 22h1M30 23h1M30 24h1M30 25h1M30 26h1" />
<path stroke="#865562" d="M33 7h1M33 8h1M33 9h1M33 12h1" />
<path stroke="#df7070" d="M35 7h1M35 8h1M35 9h1M35 10h1M35 11h1M35 12h1M35 13h1M15 14h1M40 14h1" />
<path stroke="#d86c70" d="M36 7h1M36 8h1M36 9h1M36 10h1M36 11h1M36 12h1M36 13h1M36 14h1" />
<path stroke="#cd656b" d="M38 7h1M38 8h1M38 9h1M38 10h1M38 11h1M38 12h1M38 13h1" />
<path stroke="#f1eef5" d="M24 8h1" />
<path stroke="#dcc0b1" d="M25 8h1" />
<path stroke="#be8153" d="M26 8h1" />
<path stroke="#b6764d" d="M27 8h1" />
<path stroke="#dcbfb2" d="M25 9h1" />
<path stroke="#c78c59" d="M26 9h1M26 10h1M26 11h1M26 12h1M26 13h1" />
<path stroke="#b6774e" d="M27 9h1M27 10h1M27 11h1M27 12h1M27 13h1" />
<path stroke="#d1b4a8" d="M25 10h1M25 11h1M25 12h1M25 13h1" />
<path stroke="#8f606e" d="M33 10h1" />
<path stroke="#51475c" d="M4 11h1" />
<path stroke="#72546b" d="M22 11h1" />
<path stroke="#8d5d6a" d="M33 11h1" />
<path stroke="#52485d" d="M4 13h1" />
<path stroke="#72556c" d="M22 13h1" />
<path stroke="#8d5e6b" d="M33 13h1" />
<path stroke="#54495f" d="M4 14h1" />
<path stroke="#d56869" d="M11 14h1" />
<path stroke="#cf6568" d="M12 14h1" />
<path stroke="#b25569" d="M13 14h1M42 14h1" />
<path stroke="#cf666d" d="M14 14h1M9 20h1" />
<path stroke="#d36768" d="M16 14h1" />
<path stroke="#c66069" d="M17 14h1" />
<path stroke="#b65b70" d="M20 14h1" />
<path stroke="#ab5368" d="M21 14h1" />
<path stroke="#775b72" d="M22 14h1" />
<path stroke="#d0b4a9" d="M25 14h1" />
<path stroke="#c58c5c" d="M26 14h1" />
<path stroke="#b37650" d="M27 14h1" />
<path stroke="#b0714f" d="M28 14h1" />
<path stroke="#a7614a" d="M29 14h1" />
<path stroke="#c9adb1" d="M30 14h1" />
<path stroke="#906270" d="M33 14h1" />
<path stroke="#ce6668" d="M34 14h1" />
<path stroke="#de6f6f" d="M35 14h1" />
<path stroke="#bb5e72" d="M37 14h1" />
<path stroke="#cc656b" d="M38 14h1" />
<path stroke="#d46768" d="M39 14h1M6 22h1" />
<path stroke="#ca636d" d="M41 14h1" />
<path stroke="#bf5f6f" d="M44 14h1" />
<path stroke="#b6586a" d="M11 15h1M11 16h1M11 17h1" />
<path stroke="#b6576a" d="M12 15h1M12 16h1M12 17h1M12 18h1" />
<path stroke="#b3576d" d="M17 15h1M17 16h1M17 17h1M17 18h1" />
<path stroke="#b1556a" d="M19 15h1M19 16h1M19 17h1M19 18h1M15 22h1M12 31h1M12 32h1M12 33h1M12 34h1M12 35h1M12 36h1M12 37h1" />
<path stroke="#a05267" d="M20 15h1M20 18h1" />
<path stroke="#a6a1b4" d="M22 15h1" />
<path stroke="#bfb5c2" d="M25 15h1" />
<path stroke="#9d8f98" d="M26 15h1M29 15h1" />
<path stroke="#707086" d="M27 15h1" />
<path stroke="#757488" d="M28 15h1" />
<path stroke="#c6bcc9" d="M30 15h1" />
<path stroke="#9692a6" d="M33 15h1" />
<path stroke="#cf6768" d="M35 15h1M35 16h1M35 17h1M35 18h1" />
<path stroke="#d76a6a" d="M36 15h1M36 16h1M36 17h1M36 18h1" />
<path stroke="#c46271" d="M38 15h1M38 16h1M38 17h1M38 18h1" />
<path stroke="#da6c6c" d="M41 15h1M5 16h1M41 16h1M41 17h1M41 18h1M41 30h1M41 31h1M41 32h1M41 33h1M41 34h1M41 35h1M41 36h1" />
<path stroke="#b15469" d="M43 15h1M43 16h1M43 17h1M43 18h1" />
<path stroke="#4f455a" d="M4 16h1M4 32h1" />
<path stroke="#d76969" d="M6 16h1M8 21h1" />
<path stroke="#a15369" d="M20 16h1" />
<path stroke="#4f5069" d="M21 16h1M34 16h1" />
<path stroke="#a9a5b8" d="M22 16h1" />
<path stroke="#eae6ed" d="M24 16h1M32 16h1" />
<path stroke="#bebac5" d="M25 16h1" />
<path stroke="#827d8d" d="M26 16h1M29 16h1" />
<path stroke="#62647c" d="M27 16h1" />
<path stroke="#66677e" d="M28 16h1" />
<path stroke="#bdb6c6" d="M30 16h1" />
<path stroke="#a4a3b2" d="M33 16h1" />
<path stroke="#414158" d="M51 16h1M3 28h1" />
<path stroke="#53495f" d="M4 17h1M4 20h1M4 21h1M4 28h1M4 29h1M4 33h1M4 36h1" />
<path stroke="#a2556a" d="M20 17h1" />
<path stroke="#aca8bb" d="M22 17h1" />
<path stroke="#bdbec8" d="M25 17h1" />
<path stroke="#6c6e85" d="M26 17h1M29 17h1" />
<path stroke="#585b73" d="M27 17h1" />
<path stroke="#5a5d75" d="M28 17h1" />
<path stroke="#b6b1c4" d="M30 17h1" />
<path stroke="#afb1bc" d="M33 17h1" />
<path stroke="#493e52" d="M4 18h1M4 31h1M4 34h1" />
<path stroke="#c4616e" d="M6 18h1M6 19h1M6 20h1" />
<path stroke="#dc6d6d" d="M9 18h1M6 28h1M6 29h1M6 30h1M6 31h1M6 32h1M6 33h1M6 34h1M6 35h1M6 36h1" />
<path stroke="#bbbbc4" d="M22 18h1" />
<path stroke="#c6b6bf" d="M25 18h1" />
<path stroke="#937678" d="M26 18h1M29 18h1" />
<path stroke="#5b5b72" d="M27 18h1" />
<path stroke="#615e73" d="M28 18h1" />
<path stroke="#d8cfd0" d="M30 18h1" />
<path stroke="#a19daf" d="M33 18h1" />
<path stroke="#4c4256" d="M4 19h1" />
<path stroke="#d86b6d" d="M9 19h1" />
<path stroke="#c96268" d="M10 19h1M15 19h1M45 19h1" />
<path stroke="#c15e6b" d="M11 19h1" />
<path stroke="#c35f6b" d="M12 19h1" />
<path stroke="#dd6d6d" d="M13 19h1M37 19h1M42 19h1" />
<path stroke="#d0666a" d="M14 19h1M7 21h1" />
<path stroke="#b3576c" d="M16 19h1M14 31h1M14 32h1M14 33h1M14 34h1M14 35h1M14 36h1" />
<path stroke="#97566c" d="M19 19h1" />
<path stroke="#905c71" d="M20 19h1" />
<path stroke="#cccbd3" d="M22 19h1" />
<path stroke="#f4f2f6" d="M23 19h1M31 19h1" />
<path stroke="#e5deec" d="M24 19h1M32 19h1" />
<path stroke="#c7b2b6" d="M25 19h1" />
<path stroke="#9e766a" d="M26 19h1" />
<path stroke="#5b5b71" d="M27 19h1" />
<path stroke="#625d70" d="M28 19h1" />
<path stroke="#9a6f68" d="M29 19h1" />
<path stroke="#d8c9ca" d="M30 19h1" />
<path stroke="#b2adbf" d="M33 19h1" />
<path stroke="#aa646c" d="M35 19h1" />
<path stroke="#b7656c" d="M36 19h1" />
<path stroke="#cc6670" d="M38 19h1" />
<path stroke="#c56371" d="M39 19h1" />
<path stroke="#cc646b" d="M40 19h1" />
<path stroke="#d4696c" d="M41 19h1" />
<path stroke="#c05d6b" d="M43 19h1" />
<path stroke="#c25e6b" d="M44 19h1" />
<path stroke="#d26668" d="M46 19h1M5 22h1M8 22h1M13 22h1M47 22h1" />
<path stroke="#3e3e54" d="M51 19h1" />
<path stroke="#da6c6f" d="M11 20h1M11 21h1M11 22h1" />
<path stroke="#df6f6f" d="M12 20h1M12 21h1M39 22h1M43 22h1" />
<path stroke="#be5b69" d="M14 20h1M14 21h1" />
<path stroke="#b5596e" d="M17 20h1M17 21h1M8 24h1M47 24h1M6 26h1" />
<path stroke="#5f5871" d="M19 20h1" />
<path stroke="#efebf4" d="M22 20h1" />
<path stroke="#c9aaa3" d="M25 20h1M25 21h1M25 22h1M25 23h1M25 24h1M25 25h1M25 26h1" />
<path stroke="#5d5b6f" d="M27 20h1" />
<path stroke="#655a6a" d="M28 20h1" />
<path stroke="#d6babc" d="M30 20h1" />
<path stroke="#715c70" d="M36 20h1" />
<path stroke="#c6626d" d="M41 20h1M41 21h1" />
<path stroke="#d5696e" d="M44 20h1M44 21h1M44 22h1" />
<path stroke="#cc6368" d="M46 20h1M46 21h1M46 36h1" />
<path stroke="#d26769" d="M6 21h1" />
<path stroke="#c96269" d="M9 21h1" />
<path stroke="#534a62" d="M19 21h1" />
<path stroke="#626178" d="M20 21h1" />
<path stroke="#ede7f3" d="M21 21h1" />
<path stroke="#e1dae9" d="M22 21h1" />
<path stroke="#dbd3e3" d="M23 21h1M31 21h1M19 24h1" />
<path stroke="#a57053" d="M27 21h1" />
<path stroke="#a56d51" d="M28 21h1" />
<path stroke="#cbafb2" d="M30 21h1" />
<path stroke="#4f4f67" d="M35 21h1" />
<path stroke="#665063" d="M36 21h1" />
<path stroke="#b75b70" d="M48 21h1M44 36h1M44 37h1" />
<path stroke="#c76069" d="M9 22h1" />
<path stroke="#b4566a" d="M10 22h1M45 22h1" />
<path stroke="#bd5b69" d="M14 22h1M5 27h1" />
<path stroke="#b2596e" d="M17 22h1" />
<path stroke="#a9546a" d="M18 22h1" />
<path stroke="#6a687e" d="M20 22h1" />
<path stroke="#e9e2f1" d="M21 22h1" />
<path stroke="#57566d" d="M35 22h1" />
<path stroke="#cb6769" d="M37 22h1" />
<path stroke="#d96d6e" d="M38 22h1" />
<path stroke="#bc5e72" d="M40 22h1M48 22h1" />
<path stroke="#c7636e" d="M41 22h1" />
<path stroke="#d36769" d="M42 22h1" />
<path stroke="#b5596d" d="M49 22h1" />
<path stroke="#ae5369" d="M50 22h1" />
<path stroke="#474760" d="M51 22h1" />
<path stroke="#4e5169" d="M3 23h1M3 26h1" />
<path stroke="#5e5971" d="M4 23h1M4 26h1" />
<path stroke="#c66068" d="M6 23h1" />
<path stroke="#c15e6c" d="M9 23h1" />
<path stroke="#8d566d" d="M17 23h1" />
<path stroke="#dcd6e5" d="M19 23h1" />
<path stroke="#e8e1ef" d="M20 23h1" />
<path stroke="#bdb7c9" d="M36 23h1" />
<path stroke="#b1646b" d="M38 23h1" />
<path stroke="#cd6771" d="M41 23h1M41 24h1M41 25h1" />
<path stroke="#d86a6a" d="M44 23h1M44 24h1M44 25h1" />
<path stroke="#bc5b6b" d="M46 23h1" />
<path stroke="#bc5d6e" d="M49 23h1" />
<path stroke="#494b63" d="M52 23h1M52 26h1M3 27h1" />
<path stroke="#686985" d="M3 24h1" />
<path stroke="#75748f" d="M4 24h1" />
<path stroke="#776364" d="M5 24h1" />
<path stroke="#806864" d="M6 24h1" />
<path stroke="#866c64" d="M7 24h1" />
<path stroke="#c5616f" d="M9 24h1" />
<path stroke="#724c63" d="M16 24h1" />
<path stroke="#adaabd" d="M18 24h1" />
<path stroke="#dfd7e6" d="M20 24h1" />
<path stroke="#cdc6d7" d="M36 24h1" />
<path stroke="#a29fb2" d="M37 24h1" />
<path stroke="#815462" d="M39 24h1" />
<path stroke="#c05f6f" d="M46 24h1" />
<path stroke="#8a6f67" d="M48 24h1" />
<path stroke="#7c6766" d="M49 24h1" />
<path stroke="#6d6066" d="M50 24h1" />
<path stroke="#757693" d="M51 24h1" />
<path stroke="#60617b" d="M52 24h1" />
<path stroke="#7b7b99" d="M3 25h1" />
<path stroke="#8588a4" d="M4 25h1" />
<path stroke="#4e6e61" d="M5 25h3M48 25h3M8 26h1M15 26h1M40 26h1M47 26h1" />
<path stroke="#868498" d="M17 25h1" />
<path stroke="#dad2e2" d="M19 25h1" />
<path stroke="#706d83" d="M38 25h1" />
<path stroke="#c36271" d="M46 25h1" />
<path stroke="#70708c" d="M52 25h1" />
<path stroke="#517961" d="M9 26h1" />
<path stroke="#568d61" d="M10 26h1M42 26h1M13 28h1M13 29h1" />
<path stroke="#92bb49" d="M11 26h1" />
<path stroke="#9bc246" d="M12 26h2M44 26h2" />
<path stroke="#6a8d57" d="M14 26h1" />
<path stroke="#e4dceb" d="M17 26h1" />
<path stroke="#efedf1" d="M38 26h1" />
<path stroke="#527d61" d="M41 26h1" />
<path stroke="#9ac146" d="M43 26h1" />
<path stroke="#61835a" d="M46 26h1" />
<path stroke="#a9546f" d="M49 26h1" />
<path stroke="#5b536b" d="M4 27h1" />
<path stroke="#c3606e" d="M6 27h1" />
<path stroke="#736867" d="M8 27h1M47 27h1" />
<path stroke="#756f67" d="M9 27h1" />
<path stroke="#787c67" d="M10 27h1" />
<path stroke="#9f9a58" d="M11 27h1" />
<path stroke="#a1a155" d="M12 27h1" />
<path stroke="#83b04f" d="M13 27h1" />
<path stroke="#607d5a" d="M14 27h1" />
<path stroke="#4b6060" d="M15 27h1M40 27h1" />
<path stroke="#d3b8b4" d="M17 27h1" />
<path stroke="#ccb0ad" d="M18 27h7M31 27h7" />
<path stroke="#c29785" d="M25 27h1" />
<path stroke="#b3724c" d="M28 27h1" />
<path stroke="#ad6748" d="M29 27h1" />
<path stroke="#c2998e" d="M30 27h1" />
<path stroke="#dbc3b8" d="M38 27h1" />
<path stroke="#e1cabd" d="M39 27h1" />
<path stroke="#677163" d="M41 27h1" />
<path stroke="#868366" d="M42 27h1" />
<path stroke="#83af50" d="M43 27h1" />
<path stroke="#8bac51" d="M44 27h1" />
<path stroke="#a59f55" d="M45 27h1" />
<path stroke="#807662" d="M46 27h1" />
<path stroke="#b4596e" d="M49 27h1" />
<path stroke="#a14e6b" d="M50 27h1" />
<path stroke="#45465e" d="M52 27h1" />
<path stroke="#ad6370" d="M12 28h1" />
<path stroke="#4c605f" d="M14 28h1" />
<path stroke="#8f5a67" d="M41 28h1" />
<path stroke="#588d61" d="M43 28h1M43 29h1" />
<path stroke="#6e8265" d="M44 28h1" />
<path stroke="#c8626c" d="M49 28h1M49 29h1M49 30h1M49 31h1M49 32h1M49 33h1M49 34h1M49 35h1M49 36h1" />
<path stroke="#d16669" d="M8 29h3M45 29h3" />
<path stroke="#b5576a" d="M11 29h1" />
<path stroke="#a65c69" d="M12 29h1" />
<path stroke="#856865" d="M14 29h1" />
<path stroke="#a15267" d="M15 29h1M8 38h4M45 38h3" />
<path stroke="#8a6e64" d="M17 29h1" />
<path stroke="#c48957" d="M18 29h1M21 29h17" />
<path stroke="#d8ab69" d="M19 29h1M20 30h1" />
<path stroke="#d7a968" d="M20 29h1" />
<path stroke="#7f6967" d="M38 29h1" />
<path stroke="#c06367" d="M40 29h1" />
<path stroke="#d0696b" d="M41 29h1" />
<path stroke="#738463" d="M44 29h1" />
<path stroke="#52485e" d="M4 30h1" />
<path stroke="#a65a68" d="M12 30h1" />
<path stroke="#618863" d="M13 30h1" />
<path stroke="#936767" d="M14 30h1" />
<path stroke="#545770" d="M16 30h1" />
<path stroke="#c58958" d="M18 30h1M21 30h17" />
<path stroke="#d9ad6a" d="M19 30h1" />
<path stroke="#638763" d="M43 30h1" />
<path stroke="#7c8064" d="M44 30h1" />
<path stroke="#45455c" d="M51 30h1" />
<path stroke="#ba5d72" d="M43 31h1M43 32h1M43 33h1M43 34h1M43 35h1M43 36h1M43 37h1" />
<path stroke="#50526a" d="M16 32h1M39 32h1" />
<path stroke="#5c5463" d="M17 32h1" />
<path stroke="#705857" d="M18 32h20" />
<path stroke="#595365" d="M38 32h1" />
<path stroke="#4d4257" d="M4 35h1" />
<path stroke="#b35669" d="M11 35h1M46 37h1" />
<path stroke="#4c4d66" d="M16 35h1M39 35h1" />
<path stroke="#bc5e70" d="M44 35h1" />
<path stroke="#d16668" d="M46 35h1" />
<path stroke="#3f3f55" d="M51 35h1" />
<path stroke="#c86168" d="M9 36h1" />
<path stroke="#564a5f" d="M5 37h1M40 37h1" />
<path stroke="#a96169" d="M6 37h1" />
<path stroke="#b45669" d="M8 37h1M47 37h1" />
<path stroke="#b35569" d="M9 37h1" />
<path stroke="#784f66" d="M14 37h1" />
<path stroke="#52485f" d="M15 37h1M50 37h1" />
<path stroke="#985c67" d="M41 37h1" />
<path stroke="#995c68" d="M49 37h1" />
<path stroke="#945a65" d="M6 38h1" />
<path stroke="#ca6a6d" d="M7 38h1M42 38h1M48 38h1" />
<path stroke="#a25368" d="M12 38h1" />
<path stroke="#a95a6f" d="M13 38h1M43 38h1" />
<path stroke="#674a61" d="M14 38h1" />
<path stroke="#835563" d="M41 38h1" />
<path stroke="#a7586d" d="M44 38h1" />
<path stroke="#855663" d="M49 38h1" />
</svg>