<svg xmlns="http://www.w3.org/2000/svg" viewBox="0 -0.5 26 43" shape-rendering="crispEdges">
<metadata>Made with Pixels to Svg https://codepen.io/shshaw/pen/XbxvNj</metadata>
<path stroke="rgba(12,8,12,0.25098039215686274)" d="M11 3h1M14 3h1M18 5h1" />
<path stroke="rgba(12,10,12,0.4980392156862745)" d="M12 3h2" />
<path stroke="rgba(8,8,8,0.12549019607843137)" d="M8 4h1M17 4h1" />
<path stroke="rgba(13,11,13,0.6274509803921569)" d="M9 4h1" />
<path stroke="rgba(14,10,14,0.8745098039215686)" d="M10 4h1M15 4h1" />
<path stroke="rgba(19,15,20,0.9372549019607843)" d="M11 4h1" />
<path stroke="#171118" d="M12 4h1" />
<path stroke="#151016" d="M13 4h1" />
<path stroke="rgba(15,13,17,0.9372549019607843)" d="M14 4h1" />
<path stroke="rgba(11,10,13,0.6235294117647059)" d="M16 4h1M20 8h1" />
<path stroke="rgba(13,13,13,0.3137254901960784)" d="M7 5h1" />
<path stroke="#110e12" d="M8 5h1M13 10h1" />
<path stroke="#18131a" d="M9 5h1" />
<path stroke="#201923" d="M10 5h1" />
<path stroke="#211b24" d="M11 5h1" />
<path stroke="#26202b" d="M12 5h1" />
<path stroke="#27212d" d="M13 5h2" />
<path stroke="#1b151d" d="M15 5h1M8 12h1" />
<path stroke="#110c12" d="M16 5h1" />
<path stroke="#100c11" d="M17 5h1M6 10h1" />
<path stroke="rgba(13,10,13,0.3137254901960784)" d="M6 6h1M19 6h1" />
<path stroke="rgba(13,10,15,0.8745098039215686)" d="M7 6h1" />
<path stroke="#1b141d" d="M8 6h1M7 30h1" />
<path stroke="#27212c" d="M9 6h1M16 7h1" />
<path stroke="#302837" d="M10 6h1" />
<path stroke="#26202a" d="M11 6h1" />
<path stroke="#2e2635" d="M12 6h1" />
<path stroke="#322a3a" d="M13 6h2M11 7h1M8 8h1M11 8h1" />
<path stroke="#221c26" d="M15 6h1" />
<path stroke="#1d161f" d="M16 6h1M12 9h1M15 31h1" />
<path stroke="#19131b" d="M17 6h1" />
<path stroke="rgba(17,13,17,0.9372549019607843)" d="M18 6h1" />
<path stroke="rgba(16,16,16,0.06274509803921569)" d="M5 7h1M23 21h1" />
<path stroke="rgba(11,10,11,0.6235294117647059)" d="M6 7h1" />
<path stroke="#0e0c11" d="M7 7h1" />
<path stroke="#2a2330" d="M8 7h1" />
<path stroke="#342b40" d="M9 7h1" />
<path stroke="#332b3d" d="M10 7h1" />
<path stroke="#2e2736" d="M12 7h1" />
<path stroke="#27202c" d="M13 7h1M17 7h1" />
<path stroke="#32293d" d="M14 7h1" />
<path stroke="#2f2736" d="M15 7h1" />
<path stroke="#171119" d="M18 7h1" />
<path stroke="#0d0b0f" d="M19 7h1M7 13h1" />
<path stroke="rgba(12,8,12,0.24705882352941178)" d="M20 7h1" />
<path stroke="rgba(12,12,12,0.25098039215686274)" d="M5 8h1M5 9h1M5 10h1M5 11h1" />
<path stroke="#0c0a0d" d="M6 8h1M20 10h1M18 13h1M17 14h1" />
<path stroke="#150f16" d="M7 8h1M18 12h1" />
<path stroke="#3c3255" d="M9 8h1M9 9h1" />
<path stroke="#342b3f" d="M10 8h1" />
<path stroke="#251e29" d="M12 8h1M8 10h1M8 11h1" />
<path stroke="#261e30" d="M13 8h1" />
<path stroke="#322944" d="M14 8h1" />
<path stroke="#2f2735" d="M15 8h1" />
<path stroke="#29222f" d="M16 8h2" />
<path stroke="#1e1821" d="M18 8h1M18 9h1M18 10h1M18 11h1" />
<path stroke="#120d13" d="M19 8h1" />
<path stroke="#100d11" d="M6 9h1" />
<path stroke="#1c161f" d="M7 9h1" />
<path stroke="#2a222f" d="M8 9h1" />
<path stroke="#2a2333" d="M10 9h1" />
<path stroke="#2b2431" d="M11 9h1" />
<path stroke="#19151d" d="M13 9h1" />
<path stroke="#272030" d="M14 9h1" />
<path stroke="#2f2838" d="M15 9h1" />
<path stroke="#342b47" d="M16 9h1" />
<path stroke="#2b2432" d="M17 9h1" />
<path stroke="#151017" d="M19 9h1" />
<path stroke="#0d0b0e" d="M20 9h1" />
<path stroke="#1a131b" d="M7 10h1" />
<path stroke="#231c26" d="M9 10h1" />
<path stroke="#17111a" d="M10 10h1" />
<path stroke="#1e1922" d="M11 10h1" />
<path stroke="#584b45" d="M12 10h1" />
<path stroke="#1a141c" d="M14 10h1" />
<path stroke="#201924" d="M15 10h1" />
<path stroke="#2e243e" d="M16 10h1" />
<path stroke="#231c28" d="M17 10h1" />
<path stroke="#120d14" d="M19 10h1" />
<path stroke="#0c0a0e" d="M6 11h1" />
<path stroke="#1c171f" d="M7 11h1" />
<path stroke="#140f16" d="M9 11h1" />
<path stroke="#0f0c10" d="M10 11h1" />
<path stroke="#130f14" d="M11 11h1M14 11h1" />
<path stroke="#bea38f" d="M12 11h1M10 12h1" />
<path stroke="#100c10" d="M13 11h1" />
<path stroke="#120e13" d="M15 11h1" />
<path stroke="#211a24" d="M16 11h1" />
<path stroke="#1d1720" d="M17 11h1" />
<path stroke="#110d12" d="M19 11h1" />
<path stroke="#0c0a0c" d="M20 11h1M18 14h1" />
<path stroke="rgba(45,26,26,0.3137254901960784)" d="M5 12h1" />
<path stroke="#150e10" d="M6 12h1" />
<path stroke="#130f15" d="M7 12h1" />
<path stroke="#927d70" d="M9 12h1" />
<path stroke="#75635b" d="M11 12h1" />
<path stroke="#ebc8af" d="M12 12h1M9 17h1M16 17h1" />
<path stroke="#a08979" d="M13 12h1" />
<path stroke="#746359" d="M14 12h1" />
<path stroke="#bea38e" d="M15 12h1" />
<path stroke="#110d11" d="M16 12h1" />
<path stroke="#1c161e" d="M17 12h1" />
<path stroke="#160e12" d="M19 12h1" />
<path stroke="#100c0e" d="M20 12h1" />
<path stroke="#503637" d="M5 13h1" />
<path stroke="#6a4b43" d="M6 13h1M19 13h1" />
<path stroke="#382926" d="M8 13h1" />
<path stroke="#c9ad9c" d="M9 13h1" />
<path stroke="#ead2c2" d="M10 13h1M15 13h1" />
<path stroke="#bea28e" d="M11 13h1M14 13h1" />
<path stroke="#f9d5ba" d="M12 13h1M12 14h2M12 16h2M12 17h2M11 18h4" />
<path stroke="#dbbba4" d="M13 13h1" />
<path stroke="#575151" d="M16 13h1" />
<path stroke="#100c12" d="M17 13h1" />
<path stroke="#4f3536" d="M20 13h1" />
<path stroke="#5c4847" d="M5 14h1" />
<path stroke="#d3a98d" d="M6 14h1" />
<path stroke="#352724" d="M7 14h1" />
<path stroke="#573d30" d="M8 14h1" />
<path stroke="#bf7e6c" d="M9 14h1" />
<path stroke="#b67168" d="M10 14h1" />
<path stroke="#f1c2a3" d="M11 14h1M14 14h1" />
<path stroke="#ba786f" d="M15 14h1" />
<path stroke="#70423f" d="M16 14h1" />
<path stroke="#827063" d="M19 14h1" />
<path stroke="#5b4846" d="M20 14h1" />
<path stroke="rgba(87,69,68,0.8117647058823529)" d="M5 15h1" />
<path stroke="#debda7" d="M6 15h1M19 15h1" />
<path stroke="#6b5448" d="M7 15h1" />
<path stroke="#b9b6a5" d="M8 15h1" />
<path stroke="#4c626c" d="M9 15h1" />
<path stroke="#364554" d="M10 15h1" />
<path stroke="#b3c4ba" d="M11 15h1M14 15h1" />
<path stroke="#f5ccaf" d="M12 15h1" />
<path stroke="#f5ccae" d="M13 15h1" />
<path stroke="#404754" d="M15 15h1" />
<path stroke="#43606b" d="M16 15h1" />
<path stroke="#566c6d" d="M17 15h1" />
<path stroke="#d79a7a" d="M18 15h1" />
<path stroke="rgba(86,68,67,0.8117647058823529)" d="M20 15h1" />
<path stroke="rgba(40,24,32,0.12549019607843137)" d="M5 16h1M20 16h1" />
<path stroke="rgba(105,85,83,0.7490196078431373)" d="M6 16h1" />
<path stroke="#7a564c" d="M7 16h1" />
<path stroke="#ebbd9f" d="M8 16h1" />
<path stroke="#757072" d="M9 16h1" />
<path stroke="#536d82" d="M10 16h1M15 16h1" />
<path stroke="#f5e6d9" d="M11 16h1M14 16h1" />
<path stroke="#767172" d="M16 16h1" />
<path stroke="#ebbd9e" d="M17 16h1" />
<path stroke="#7f5a4d" d="M18 16h1" />
<path stroke="rgba(109,88,83,0.7490196078431373)" d="M19 16h1" />
<path stroke="rgba(32,16,32,0.06274509803921569)" d="M4 17h1" />
<path stroke="rgba(32,23,33,0.8745098039215686)" d="M5 17h1" />
<path stroke="rgba(32,22,33,0.9372549019607843)" d="M6 17h1" />
<path stroke="#211722" d="M7 17h1M19 18h1" />
<path stroke="#d29b7e" d="M8 17h1" />
<path stroke="#dfc2ac" d="M10 17h1M15 17h1" />
<path stroke="#f8d7be" d="M11 17h1M14 17h1" />
<path stroke="#d99e7f" d="M17 17h1" />
<path stroke="rgba(37,23,32,0.8117647058823529)" d="M18 17h1" />
<path stroke="rgba(32,21,32,0.18823529411764706)" d="M19 17h1" />
<path stroke="rgba(32,24,32,0.12549019607843137)" d="M3 18h1" />
<path stroke="rgba(44,36,45,0.7490196078431373)" d="M4 18h1" />
<path stroke="#3b333c" d="M5 18h1" />
<path stroke="#342b35" d="M6 18h1M8 24h1M10 28h1" />
<path stroke="#3e353e" d="M7 18h1" />
<path stroke="#563f3c" d="M8 18h1" />
<path stroke="#c08b77" d="M9 18h1" />
<path stroke="#edbfa3" d="M10 18h1" />
<path stroke="#edbfa2" d="M15 18h1" />
<path stroke="#d0917b" d="M16 18h1" />
<path stroke="#8c4f44" d="M17 18h1" />
<path stroke="#1d131e" d="M18 18h1M6 24h2M18 26h1" />
<path stroke="rgba(30,20,32,0.5607843137254902)" d="M20 18h1" />
<path stroke="rgba(27,19,29,0.3764705882352941)" d="M3 19h1" />
<path stroke="#332a34" d="M4 19h1" />
<path stroke="#322933" d="M5 19h1M18 19h1M5 21h1M15 22h1M18 23h1M15 28h1" />
<path stroke="#2f262f" d="M6 19h1" />
<path stroke="#3c333c" d="M7 19h1M10 23h1" />
<path stroke="#2f2630" d="M8 19h1M19 19h1M17 20h1M9 23h1" />
<path stroke="#3c1f25" d="M9 19h1" />
<path stroke="#aa6052" d="M10 19h1" />
<path stroke="#bd786b" d="M11 19h4" />
<path stroke="#ab6253" d="M15 19h1" />
<path stroke="#563034" d="M16 19h1" />
<path stroke="#37242c" d="M17 19h1" />
<path stroke="#281f2a" d="M20 19h1M7 23h1M16 31h2" />
<path stroke="rgba(30,19,30,0.37254901960784315)" d="M21 19h1" />
<path stroke="rgba(32,16,32,0.12549019607843137)" d="M2 20h1M2 21h1" />
<path stroke="#251c26" d="M3 20h1" />
<path stroke="#372e38" d="M4 20h1" />
<path stroke="#362d37" d="M5 20h1M21 22h1M21 23h1M21 24h1M21 25h1M9 26h1M21 26h1" />
<path stroke="#261d28" d="M6 20h1M6 21h1M6 22h1" />
<path stroke="#1e141f" d="M7 20h1M18 22h1M14 28h1" />
<path stroke="#2d242e" d="M8 20h1M5 22h1" />
<path stroke="#3c343c" d="M9 20h1" />
<path stroke="#40383d" d="M10 20h1" />
<path stroke="#a1978d" d="M11 20h1" />
<path stroke="#4f4a4a" d="M12 20h1" />
<path stroke="#4c4848" d="M13 20h1" />
<path stroke="#b3a79c" d="M14 20h1" />
<path stroke="#c9c7af" d="M15 20h1" />
<path stroke="#1f1520" d="M16 20h1M3 24h1M18 25h1" />
<path stroke="#3d353d" d="M18 20h1" />
<path stroke="#322932" d="M19 20h1" />
<path stroke="#3c343d" d="M20 20h1" />
<path stroke="#2d252f" d="M21 20h1" />
<path stroke="rgba(27,19,30,0.37254901960784315)" d="M22 20h1" />
<path stroke="#271e28" d="M3 21h1M8 22h1M17 23h1M15 27h1" />
<path stroke="#3a313a" d="M4 21h1M4 22h1M9 22h1M17 22h1M16 23h1M20 23h1M10 24h1M20 24h1M20 25h1M8 26h1M8 27h2M17 27h1M8 28h2M16 28h2M16 29h2" />
<path stroke="#2c232d" d="M7 21h1M19 25h1" />
<path stroke="#312832" d="M8 21h1M16 21h1M3 22h1M16 27h1" />
<path stroke="#3f373f" d="M9 21h1" />
<path stroke="#3f3740" d="M10 21h1M20 26h1" />
<path stroke="#272028" d="M11 21h1" />
<path stroke="#4a494a" d="M12 21h1" />
<path stroke="#5d5d5a" d="M13 21h1" />
<path stroke="#a9a494" d="M14 21h1" />
<path stroke="#7f7971" d="M15 21h1" />
<path stroke="#312731" d="M17 21h1" />
<path stroke="#2e252f" d="M18 21h1M18 24h1M16 25h1M15 30h1" />
<path stroke="#2e242f" d="M19 21h1" />
<path stroke="#352c36" d="M20 21h1M8 29h2" />
<path stroke="#383039" d="M21 21h1" />
<path stroke="rgba(34,23,35,0.6862745098039216)" d="M22 21h1" />
<path stroke="rgba(31,20,32,0.6862745098039216)" d="M2 22h1" />
<path stroke="#382f38" d="M7 22h1M15 29h1" />
<path stroke="#3e363f" d="M10 22h1" />
<path stroke="#403b41" d="M11 22h1" />
<path stroke="#323232" d="M12 22h1M8 36h2" />
<path stroke="#5b5b59" d="M13 22h1" />
<path stroke="#5d5a56" d="M14 22h1" />
<path stroke="#423a43" d="M16 22h1" />
<path stroke="#2d232e" d="M19 22h1" />
<path stroke="#393039" d="M20 22h1M8 25h1M16 30h2" />
<path stroke="#241a25" d="M22 22h1M22 23h1M22 24h1M22 25h1M22 26h1M22 27h1" />
<path stroke="rgba(33,16,33,0.12156862745098039)" d="M23 22h1M23 23h1M23 24h1M23 25h1M23 26h1M23 27h1" />
<path stroke="rgba(31,21,32,0.8745098039215686)" d="M2 23h1" />
<path stroke="#2d242f" d="M3 23h1" />
<path stroke="#322934" d="M4 23h1" />
<path stroke="#2b222d" d="M5 23h1" />
<path stroke="#231924" d="M6 23h1M5 24h1" />
<path stroke="#2b222c" d="M8 23h1M19 23h1M19 24h1" />
<path stroke="#474347" d="M11 23h1" />
<path stroke="#3f3f3f" d="M12 23h1" />
<path stroke="#555555" d="M13 23h1" />
<path stroke="#423e42" d="M14 23h1" />
<path stroke="#433b44" d="M15 23h1" />
<path stroke="rgba(35,23,32,0.8745098039215686)" d="M2 24h1" />
<path stroke="#241b26" d="M4 24h1" />
<path stroke="#29202a" d="M9 24h1M18 27h1" />
<path stroke="#514f51" d="M11 24h1" />
<path stroke="#5a5a5a" d="M12 24h1" />
<path stroke="#595959" d="M13 24h1" />
<path stroke="#4c4a4c" d="M14 24h1" />
<path stroke="#3b333b" d="M15 24h1M15 25h1" />
<path stroke="#332933" d="M16 24h1" />
<path stroke="#271e29" d="M17 24h1" />
<path stroke="rgba(65,45,46,0.8745098039215686)" d="M2 25h1" />
<path stroke="#ca906f" d="M3 25h1" />
<path stroke="#cb9271" d="M4 25h1" />
<path stroke="#bc7d63" d="M5 25h1" />
<path stroke="#5b2e2f" d="M6 25h1" />
<path stroke="#211721" d="M7 25h1" />
<path stroke="#281f29" d="M9 25h1M19 26h1M10 29h1" />
<path stroke="#342c34" d="M10 25h1" />
<path stroke="#575757" d="M11 25h1" />
<path stroke="#5f5f5f" d="M12 25h1" />
<path stroke="#5b5b5b" d="M13 25h1" />
<path stroke="#4f4f4f" d="M14 25h1" />
<path stroke="#302730" d="M17 25h1" />
<path stroke="rgba(58,35,39,0.8745098039215686)" d="M2 26h1" />
<path stroke="#c57c61" d="M3 26h1" />
<path stroke="#e4a47c" d="M4 26h1" />
<path stroke="#bb6f59" d="M5 26h1" />
<path stroke="#6d3e38" d="M6 26h1" />
<path stroke="#2e242e" d="M7 26h1M7 27h1" />
<path stroke="#2a202b" d="M10 26h1" />
<path stroke="#434144" d="M11 26h1" />
<path stroke="#606060" d="M12 26h1" />
<path stroke="#585858" d="M13 26h1" />
<path stroke="#474447" d="M14 26h1" />
<path stroke="#372e37" d="M15 26h1" />
<path stroke="#261d27" d="M16 26h1" />
<path stroke="#382f39" d="M17 26h1" />
<path stroke="rgba(61,32,39,0.30980392156862746)" d="M2 27h1" />
<path stroke="#764b40" d="M3 27h1" />
<path stroke="#e5b090" d="M4 27h1" />
<path stroke="#b78c7d" d="M5 27h1" />
<path stroke="#311c22" d="M6 27h1" />
<path stroke="#362d36" d="M10 27h1" />
<path stroke="#28202a" d="M11 27h1" />
<path stroke="#444144" d="M12 27h1" />
<path stroke="#403e40" d="M13 27h1" />
<path stroke="#302831" d="M14 27h1" />
<path stroke="#6b4c42" d="M19 27h1" />
<path stroke="#4a3738" d="M20 27h1" />
<path stroke="#281e29" d="M21 27h1" />
<path stroke="rgba(39,26,32,0.30980392156862746)" d="M3 28h1" />
<path stroke="rgba(39,24,32,0.7490196078431373)" d="M4 28h1" />
<path stroke="rgba(36,24,32,0.7490196078431373)" d="M5 28h1" />
<path stroke="rgba(32,22,33,0.8745098039215686)" d="M6 28h1" />
<path stroke="#2c232e" d="M7 28h1" />
<path stroke="#2d2733" d="M11 28h1" />
<path stroke="#3d3a4a" d="M12 28h1" />
<path stroke="#34303d" d="M13 28h1" />
<path stroke="#4f3438" d="M18 28h1" />
<path stroke="#d39883" d="M19 28h1" />
<path stroke="#f9d9c2" d="M20 28h1" />
<path stroke="#b39585" d="M21 28h1" />
<path stroke="#37262a" d="M22 28h1" />
<path stroke="rgba(33,25,33,0.12156862745098039)" d="M23 28h1M23 29h1M23 30h1" />
<path stroke="rgba(54,40,40,0.07450980392156863)" d="M5 29h1" />
<path stroke="rgba(40,29,39,0.6470588235294118)" d="M6 29h1" />
<path stroke="#2e2530" d="M7 29h1" />
<path stroke="#1f1d24" d="M11 29h1" />
<path stroke="#1b1b20" d="M12 29h2" />
<path stroke="#211c24" d="M14 29h1" />
<path stroke="#443439" d="M18 29h1" />
<path stroke="#a57364" d="M19 29h1" />
<path stroke="#edcbbb" d="M20 29h1" />
<path stroke="#ecbd9e" d="M21 29h1" />
<path stroke="#69473e" d="M22 29h1" />
<path stroke="rgba(51,26,26,0.0392156862745098)" d="M3 30h1M2 31h1M2 36h1" />
<path stroke="rgba(48,32,32,0.37254901960784315)" d="M4 30h1M3 31h1" />
<path stroke="rgba(46,33,33,0.5215686274509804)" d="M5 30h1M2 33h1M2 34h1M2 35h1M19 38h1" />
<path stroke="rgba(26,20,23,0.796078431372549)" d="M6 30h1" />
<path stroke="#211822" d="M8 30h2" />
<path stroke="#1c1b21" d="M10 30h1" />
<path stroke="#202127" d="M11 30h1" />
<path stroke="#25262d" d="M12 30h2" />
<path stroke="#211d25" d="M14 30h1" />
<path stroke="#2f2631" d="M18 30h1" />
<path stroke="#2b1e27" d="M19 30h1" />
<path stroke="#caa895" d="M20 30h1" />
<path stroke="#ce9a86" d="M21 30h1" />
<path stroke="rgba(80,43,44,0.9372549019607843)" d="M22 30h1" />
<path stroke="rgba(47,32,32,0.596078431372549)" d="M4 31h1M3 32h2M22 32h1M3 33h2M21 33h2M3 34h2M21 34h2M3 35h2M21 35h2M4 36h1M21 36h1M20 37h1" />
<path stroke="rgba(46,32,32,0.6274509803921569)" d="M5 31h1" />
<path stroke="rgba(26,20,21,0.8431372549019608)" d="M6 31h1" />
<path stroke="#17181c" d="M7 31h1M7 32h1" />
<path stroke="#292a31" d="M8 31h1" />
<path stroke="#2c2d34" d="M9 31h1M8 32h1" />
<path stroke="#27282f" d="M10 31h1" />
<path stroke="#111214" d="M11 31h1M7 33h1M18 33h1" />
<path stroke="rgba(22,19,20,0.9450980392156862)" d="M12 31h1" />
<path stroke="rgba(20,18,19,0.9568627450980393)" d="M13 31h1" />
<path stroke="#101113" d="M14 31h1M14 32h1M11 33h1" />
<path stroke="#281d27" d="M18 31h1" />
<path stroke="#1f141e" d="M19 31h1" />
<path stroke="#806a63" d="M20 31h1" />
<path stroke="rgba(104,68,59,0.9490196078431372)" d="M21 31h1" />
<path stroke="rgba(44,27,32,0.4745098039215686)" d="M22 31h1" />
<path stroke="rgba(26,26,26,0.0392156862745098)" d="M23 31h1M23 36h1M4 38h1M21 38h1" />
<path stroke="rgba(46,32,32,0.37254901960784315)" d="M2 32h1M23 32h1" />
<path stroke="rgba(46,32,32,0.7607843137254902)" d="M5 32h1" />
<path stroke="rgba(27,22,23,0.9176470588235294)" d="M6 32h1" />
<path stroke="#33343d" d="M9 32h1" />
<path stroke="#282930" d="M10 32h1" />
<path stroke="#131417" d="M11 32h1" />
<path stroke="rgba(37,27,27,0.8745098039215686)" d="M12 32h1M12 33h1" />
<path stroke="rgba(35,26,27,0.8784313725490196)" d="M13 32h1M13 33h1" />
<path stroke="#1a1a1f" d="M15 32h1" />
<path stroke="#1a1820" d="M16 32h2" />
<path stroke="#151215" d="M18 32h1" />
<path stroke="rgba(31,22,26,0.9490196078431372)" d="M19 32h1" />
<path stroke="rgba(41,27,31,0.7764705882352941)" d="M20 32h1" />
<path stroke="rgba(43,29,32,0.6980392156862745)" d="M21 32h1" />
<path stroke="rgba(45,32,32,0.8352941176470589)" d="M5 33h1M5 34h1M13 36h2M13 37h5M13 38h2" />
<path stroke="rgba(28,23,23,0.9176470588235294)" d="M6 33h1" />
<path stroke="#2d2f36" d="M8 33h1" />
<path stroke="#34353e" d="M9 33h1M9 34h1" />
<path stroke="#28292f" d="M10 33h1" />
<path stroke="#0d0d0f" d="M14 33h1M7 34h1M7 35h1" />
<path stroke="#16171a" d="M15 33h1M9 35h1" />
<path stroke="#16171c" d="M16 33h2" />
<path stroke="rgba(26,21,21,0.9372549019607843)" d="M19 33h1" />
<path stroke="rgba(44,30,30,0.6666666666666666)" d="M20 33h1" />
<path stroke="rgba(46,31,31,0.5215686274509804)" d="M23 33h1M23 34h1M23 35h1" />
<path stroke="rgba(29,23,23,0.9176470588235294)" d="M6 34h1" />
<path stroke="#292a30" d="M8 34h1" />
<path stroke="#212228" d="M10 34h1" />
<path stroke="rgba(22,19,21,0.9568627450980393)" d="M11 34h1" />
<path stroke="rgba(41,29,30,0.8549019607843137)" d="M12 34h1" />
<path stroke="rgba(36,27,27,0.8784313725490196)" d="M13 34h1" />
<path stroke="#141415" d="M14 34h1" />
<path stroke="#1e1e1f" d="M15 34h1" />
<path stroke="#1f1f20" d="M16 34h3" />
<path stroke="#171718" d="M19 34h1" />
<path stroke="rgba(36,26,26,0.6941176470588235)" d="M20 34h1M20 35h1" />
<path stroke="rgba(38,29,29,0.8666666666666667)" d="M5 35h1" />
<path stroke="rgba(17,16,17,0.9803921568627451)" d="M6 35h1M11 35h1" />
<path stroke="#131317" d="M8 35h1" />
<path stroke="#0f0f12" d="M10 35h1" />
<path stroke="rgba(39,29,29,0.8627450980392157)" d="M12 35h1" />
<path stroke="rgba(42,31,31,0.8470588235294118)" d="M13 35h1" />
<path stroke="rgba(29,25,25,0.9372549019607843)" d="M14 35h1" />
<path stroke="#2d2d2d" d="M15 35h1M10 36h1" />
<path stroke="#343434" d="M16 35h2" />
<path stroke="#2f2f2f" d="M18 35h1" />
<path stroke="#1d1d1d" d="M19 35h1" />
<path stroke="rgba(47,31,31,0.4470588235294118)" d="M3 36h1M4 37h1M21 37h1" />
<path stroke="rgba(37,27,27,0.8196078431372549)" d="M5 36h1" />
<path stroke="#151515" d="M6 36h1M6 37h1" />
<path stroke="#262626" d="M7 36h1" />
<path stroke="#101010" d="M11 36h1M11 37h1" />
<path stroke="rgba(38,27,27,0.8745098039215686)" d="M12 36h1M12 37h1" />
<path stroke="rgba(28,23,23,0.9254901960784314)" d="M15 36h1" />
<path stroke="rgba(27,21,21,0.9372549019607843)" d="M16 36h3" />
<path stroke="rgba(34,26,26,0.8431372549019608)" d="M19 36h1" />
<path stroke="rgba(45,31,31,0.6392156862745098)" d="M20 36h1M19 37h1" />
<path stroke="rgba(47,29,29,0.4470588235294118)" d="M22 36h1" />
<path stroke="rgba(40,27,27,0.07450980392156863)" d="M3 37h1M22 37h1" />
<path stroke="rgba(36,26,26,0.6980392156862745)" d="M5 37h1" />
<path stroke="#1b1b1b" d="M7 37h1M10 37h1" />
<path stroke="#1f1f1f" d="M8 37h2" />
<path stroke="rgba(46,33,33,0.788235294117647)" d="M18 37h1" />
<path stroke="rgba(48,32,32,0.18823529411764706)" d="M5 38h1" />
<path stroke="rgba(25,21,21,0.7215686274509804)" d="M6 38h1" />
<path stroke="rgba(16,16,16,0.8745098039215686)" d="M7 38h1" />
<path stroke="rgba(16,16,16,0.9137254901960784)" d="M8 38h1" />
<path stroke="rgba(18,18,18,0.9490196078431372)" d="M9 38h1" />
<path stroke="rgba(19,17,17,0.9803921568627451)" d="M10 38h1" />
<path stroke="rgba(30,24,24,0.9137254901960784)" d="M11 38h1" />
<path stroke="rgba(44,31,31,0.8431372549019608)" d="M12 38h1" />
<path stroke="rgba(46,32,32,0.803921568627451)" d="M15 38h2" />
<path stroke="rgba(46,33,33,0.7686274509803922)" d="M17 38h1" />
<path stroke="rgba(47,33,33,0.5529411764705883)" d="M18 38h1" />
<path stroke="rgba(43,33,33,0.1843137254901961)" d="M20 38h1" />
<path stroke="rgba(55,36,36,0.10980392156862745)" d="M8 39h1" />
<path stroke="rgba(47,30,30,0.2980392156862745)" d="M9 39h1M16 39h1" />
<path stroke="rgba(45,30,30,0.4)" d="M10 39h1" />
<path stroke="rgba(46,31,31,0.41568627450980394)" d="M11 39h4" />
<path stroke="rgba(48,32,32,0.3137254901960784)" d="M15 39h1" />
<path stroke="rgba(46,36,36,0.10980392156862745)" d="M17 39h1" />
</svg>