<svg xmlns="http://www.w3.org/2000/svg" viewBox="0 -0.5 26 43" shape-rendering="crispEdges">
<metadata>Made with Pixels to Svg https://codepen.io/shshaw/pen/XbxvNj</metadata>
<path stroke="rgba(11,9,11,0.43529411764705883)" d="M10 3h1M15 3h1" />
<path stroke="rgba(12,10,12,0.4980392156862745)" d="M11 3h2" />
<path stroke="rgba(12,10,16,0.4980392156862745)" d="M13 3h2" />
<path stroke="rgba(13,11,13,0.3764705882352941)" d="M8 4h1M19 15h1" />
<path stroke="rgba(14,10,14,0.8745098039215686)" d="M9 4h1" />
<path stroke="#110d13" d="M10 4h1" />
<path stroke="#171118" d="M11 4h2" />
<path stroke="#161018" d="M13 4h1" />
<path stroke="#130e15" d="M14 4h1M17 11h1" />
<path stroke="#0d0b10" d="M15 4h1M19 11h1M18 14h1" />
<path stroke="rgba(13,10,13,0.8745098039215686)" d="M16 4h1M20 12h1" />
<path stroke="rgba(11,11,13,0.3764705882352941)" d="M17 4h1" />
<path stroke="rgba(13,13,13,0.3137254901960784)" d="M7 5h1" />
<path stroke="#140f15" d="M8 5h1" />
<path stroke="#1b141d" d="M9 5h1" />
<path stroke="#201a23" d="M10 5h1M7 8h1" />
<path stroke="#241e28" d="M11 5h1M10 8h1" />
<path stroke="#221c25" d="M12 5h1" />
<path stroke="#201923" d="M13 5h1" />
<path stroke="#211b24" d="M14 5h1" />
<path stroke="#1b151d" d="M15 5h1" />
<path stroke="#171119" d="M16 5h1M17 6h1" />
<path stroke="#0d0b0f" d="M17 5h1M17 12h1" />
<path stroke="rgba(12,8,12,0.25098039215686274)" d="M18 5h1" />
<path stroke="rgba(13,10,13,0.3137254901960784)" d="M6 6h1M19 6h1" />
<path stroke="rgba(18,14,19,0.8745098039215686)" d="M7 6h1" />
<path stroke="#1f1821" d="M8 6h1" />
<path stroke="#27212c" d="M9 6h1" />
<path stroke="#231d27" d="M10 6h1" />
<path stroke="#2f2735" d="M11 6h1" />
<path stroke="#2d2634" d="M12 6h1" />
<path stroke="#29222f" d="M13 6h1" />
<path stroke="#2b2432" d="M14 6h1" />
<path stroke="#2a2330" d="M15 6h1" />
<path stroke="#1f1922" d="M16 6h1M16 8h1" />
<path stroke="rgba(12,10,14,0.9372549019607843)" d="M18 6h1M18 15h1" />
<path stroke="rgba(16,16,16,0.06274509803921569)" d="M5 7h1" />
<path stroke="rgba(14,11,14,0.6235294117647059)" d="M6 7h1" />
<path stroke="#1d171f" d="M7 7h1" />
<path stroke="#322a3a" d="M8 7h1M8 8h1" />
<path stroke="#2a222f" d="M9 7h1" />
<path stroke="#2e2634" d="M10 7h1" />
<path stroke="#342b40" d="M11 7h1" />
<path stroke="#3c3255" d="M12 7h1" />
<path stroke="#302839" d="M13 7h1" />
<path stroke="#32293d" d="M14 7h1" />
<path stroke="#27212d" d="M15 7h1" />
<path stroke="#28212d" d="M16 7h1" />
<path stroke="#1b141c" d="M17 7h1M17 9h1" />
<path stroke="#140e16" d="M18 7h1M18 8h1M18 11h1" />
<path stroke="#0c0a0e" d="M19 7h1M19 8h1M19 13h1M19 14h1" />
<path stroke="rgba(12,8,12,0.24705882352941178)" d="M20 7h1M20 8h1M20 13h1M20 14h1" />
<path stroke="rgba(12,12,12,0.25098039215686274)" d="M5 8h1M5 9h1M5 10h1M5 11h1" />
<path stroke="#141015" d="M6 8h1" />
<path stroke="#2d2533" d="M9 8h1" />
<path stroke="#3a3050" d="M11 8h1" />
<path stroke="#2f273c" d="M12 8h1" />
<path stroke="#28212f" d="M13 8h1" />
<path stroke="#32293f" d="M14 8h1" />
<path stroke="#2f2736" d="M15 8h1" />
<path stroke="#1c151e" d="M17 8h1" />
<path stroke="#130f14" d="M6 9h1" />
<path stroke="#201922" d="M7 9h1" />
<path stroke="#231c27" d="M8 9h1" />
<path stroke="#151117" d="M9 9h1" />
<path stroke="#141117" d="M10 9h1" />
<path stroke="#2e2537" d="M11 9h1" />
<path stroke="#201925" d="M12 9h1" />
<path stroke="#251f2a" d="M13 9h1" />
<path stroke="#382e4b" d="M14 9h1" />
<path stroke="#332a3e" d="M15 9h1" />
<path stroke="#29232f" d="M16 9h1" />
<path stroke="#161017" d="M18 9h1" />
<path stroke="#100d11" d="M19 9h1" />
<path stroke="rgba(12,10,12,0.8117647058823529)" d="M20 9h1" />
<path stroke="#110d12" d="M6 10h1" />
<path stroke="#0f0b11" d="M7 10h1" />
<path stroke="#2e2628" d="M8 10h1" />
<path stroke="#bea28f" d="M9 10h1" />
<path stroke="#66574e" d="M10 10h1" />
<path stroke="#181219" d="M11 10h1" />
<path stroke="#100e13" d="M12 10h1" />
<path stroke="#110e14" d="M13 10h1" />
<path stroke="#2c243a" d="M14 10h1" />
<path stroke="#231d28" d="M15 10h1" />
<path stroke="#1d161f" d="M16 10h1" />
<path stroke="#19131b" d="M17 10h1M15 31h1" />
<path stroke="#110c13" d="M18 10h1M19 12h1M18 13h1" />
<path stroke="#100c11" d="M19 10h1" />
<path stroke="#0c0a0c" d="M20 10h1" />
<path stroke="#0e0a0e" d="M6 11h1" />
<path stroke="#847164" d="M7 11h1M12 11h1" />
<path stroke="#65574e" d="M8 11h1" />
<path stroke="#f9d5ba" d="M9 11h1M9 12h2M8 13h2M8 14h2M16 14h1M8 15h2M9 16h1M11 17h2M20 28h1" />
<path stroke="#eac8af" d="M10 11h1" />
<path stroke="#584b44" d="M11 11h1" />
<path stroke="#77655c" d="M13 11h1" />
<path stroke="#241d29" d="M14 11h1" />
<path stroke="#1c151f" d="M15 11h1" />
<path stroke="#130d14" d="M16 11h1" />
<path stroke="#0c0a0d" d="M20 11h1" />
<path stroke="rgba(32,21,27,0.5607843137254902)" d="M6 12h1" />
<path stroke="#c3a592" d="M7 12h1" />
<path stroke="#ebc8af" d="M8 12h1M12 12h1" />
<path stroke="#ebcbb5" d="M11 12h1" />
<path stroke="#ccaf99" d="M13 12h1" />
<path stroke="#272025" d="M14 12h1" />
<path stroke="#100d13" d="M15 12h1" />
<path stroke="#191213" d="M16 12h1" />
<path stroke="#160f17" d="M18 12h1" />
<path stroke="rgba(38,24,32,0.4980392156862745)" d="M6 13h1M6 26h1M6 27h1M6 28h1" />
<path stroke="#bd947c" d="M7 13h1" />
<path stroke="#ebba9d" d="M10 13h1" />
<path stroke="#c99791" d="M11 13h1" />
<path stroke="#dca88f" d="M12 13h1" />
<path stroke="#f1c3a3" d="M13 13h1" />
<path stroke="#be9a85" d="M14 13h1" />
<path stroke="#876351" d="M15 13h1" />
<path stroke="#be957e" d="M16 13h1" />
<path stroke="#38302d" d="M17 13h1" />
<path stroke="rgba(40,24,32,0.12549019607843137)" d="M6 14h1" />
<path stroke="rgba(81,57,53,0.8117647058823529)" d="M7 14h1" />
<path stroke="#6c4d46" d="M10 14h1" />
<path stroke="#566771" d="M11 14h1" />
<path stroke="#71b8c1" d="M12 14h1" />
<path stroke="#e9b08c" d="M13 14h1" />
<path stroke="#eebc9b" d="M14 14h1M14 16h1" />
<path stroke="#f3c6a7" d="M15 14h1" />
<path stroke="#64564d" d="M17 14h1" />
<path stroke="rgba(39,25,32,0.7490196078431373)" d="M7 15h1M7 16h1" />
<path stroke="#5c748a" d="M10 15h1" />
<path stroke="#8d8c91" d="M11 15h1" />
<path stroke="#f3f0ec" d="M12 15h1" />
<path stroke="#f8d2b6" d="M13 15h1M13 17h1" />
<path stroke="#ebb693" d="M14 15h1" />
<path stroke="#e7aa84" d="M15 15h1" />
<path stroke="#d3977f" d="M16 15h1" />
<path stroke="#51322a" d="M17 15h1" />
<path stroke="#f3c6a6" d="M8 16h1" />
<path stroke="#9e9288" d="M10 16h1" />
<path stroke="#c3b7ad" d="M11 16h1" />
<path stroke="#f8d9c1" d="M12 16h1" />
<path stroke="#f6cfb2" d="M13 16h1" />
<path stroke="#df9f7a" d="M15 16h1" />
<path stroke="#935043" d="M16 16h1" />
<path stroke="#3c2025" d="M17 16h1" />
<path stroke="rgba(11,8,11,0.37254901960784315)" d="M18 16h1" />
<path stroke="rgba(32,16,32,0.06274509803921569)" d="M7 17h1M6 25h1M23 29h1M22 30h1" />
<path stroke="rgba(109,76,66,0.9372549019607843)" d="M8 17h1" />
<path stroke="#daac93" d="M9 17h1" />
<path stroke="#f6ceb2" d="M10 17h1" />
<path stroke="#edbb9a" d="M14 17h1" />
<path stroke="#b5765c" d="M15 17h1" />
<path stroke="#281a22" d="M16 17h1" />
<path stroke="#1f151f" d="M17 17h1" />
<path stroke="rgba(34,24,35,0.8745098039215686)" d="M18 17h2" />
<path stroke="rgba(29,19,29,0.30980392156862746)" d="M20 17h1" />
<path stroke="rgba(32,21,30,0.6235294117647059)" d="M8 18h1" />
<path stroke="#774f4a" d="M9 18h1" />
<path stroke="#c7836a" d="M10 18h1" />
<path stroke="#d59e8b" d="M11 18h2" />
<path stroke="#d29882" d="M13 18h1" />
<path stroke="#c0755d" d="M14 18h1" />
<path stroke="#6f3635" d="M15 18h1" />
<path stroke="#2a212b" d="M16 18h2M8 21h1M8 26h1M13 26h1" />
<path stroke="#352c36" d="M18 18h1" />
<path stroke="#3f3740" d="M19 18h1" />
<path stroke="#29202b" d="M20 18h1M9 27h1" />
<path stroke="rgba(28,20,32,0.25098039215686274)" d="M21 18h1" />
<path stroke="rgba(28,20,30,0.5019607843137255)" d="M7 19h1" />
<path stroke="#241b26" d="M8 19h1M8 25h1" />
<path stroke="#928a7d" d="M9 19h1" />
<path stroke="#a57d77" d="M10 19h1" />
<path stroke="#533331" d="M11 19h1" />
<path stroke="#976b68" d="M12 19h1" />
<path stroke="#c9a892" d="M13 19h1" />
<path stroke="#8a665e" d="M14 19h1" />
<path stroke="#372932" d="M15 19h1" />
<path stroke="#403841" d="M16 19h1" />
<path stroke="#2e252f" d="M17 19h1" />
<path stroke="#332a34" d="M18 19h1M18 20h1" />
<path stroke="#3d353d" d="M19 19h1" />
<path stroke="#342c36" d="M20 19h1" />
<path stroke="rgba(29,18,30,0.6235294117647059)" d="M21 19h1" />
<path stroke="rgba(29,19,31,0.7490196078431373)" d="M7 20h1M7 21h1M7 22h1M7 23h1M7 24h1" />
<path stroke="#2a212c" d="M8 20h1M8 28h1" />
<path stroke="#67565b" d="M9 20h1" />
<path stroke="#5d5a55" d="M10 20h1" />
<path stroke="#585858" d="M11 20h1M11 23h1" />
<path stroke="#565650" d="M12 20h1" />
<path stroke="#8f8b7f" d="M13 20h1" />
<path stroke="#241a25" d="M14 20h1M22 24h1M17 25h1M22 25h1M17 26h1M22 26h1M22 27h1M9 29h1" />
<path stroke="#332a33" d="M15 20h2M15 24h1" />
<path stroke="#271d28" d="M17 20h1M15 23h1" />
<path stroke="#3a313a" d="M19 20h1M19 21h1M19 22h2M13 23h1M19 23h2M13 24h1M20 24h1M15 26h1M15 27h1M13 28h3M14 29h1" />
<path stroke="#322934" d="M20 20h1" />
<path stroke="#211722" d="M21 20h1M9 21h1M16 21h1" />
<path stroke="rgba(27,19,30,0.37254901960784315)" d="M22 20h1M22 21h1M22 22h1" />
<path stroke="#79786e" d="M10 21h1" />
<path stroke="#363636" d="M11 21h1" />
<path stroke="#6f6b63" d="M12 21h1" />
<path stroke="#312832" d="M13 21h1" />
<path stroke="#3e363e" d="M14 21h1" />
<path stroke="#2b212c" d="M15 21h1" />
<path stroke="#2c232e" d="M17 21h1" />
<path stroke="#2b222d" d="M18 21h1M21 23h1M18 25h1" />
<path stroke="#362d37" d="M20 21h1M21 25h1M16 26h1M16 27h1M16 28h1M13 29h1" />
<path stroke="#281f2a" d="M21 21h1M21 22h1M8 24h1M17 24h1" />
<path stroke="#302732" d="M8 22h1M17 22h1M8 23h1M17 23h1M16 24h1M21 27h1M17 28h1M8 29h1M17 29h1" />
<path stroke="#302631" d="M9 22h1" />
<path stroke="#424042" d="M10 22h1" />
<path stroke="#4f4f4f" d="M11 22h1" />
<path stroke="#372f37" d="M12 22h1" />
<path stroke="#443c45" d="M13 22h1" />
<path stroke="#3c333c" d="M14 22h1" />
<path stroke="#271e28" d="M15 22h1" />
<path stroke="#332933" d="M16 22h1" />
<path stroke="#241b25" d="M18 22h1M18 23h1" />
<path stroke="#383239" d="M9 23h1" />
<path stroke="#505050" d="M10 23h1" />
<path stroke="#484448" d="M12 23h1" />
<path stroke="#342b34" d="M14 23h1" />
<path stroke="#332a35" d="M16 23h1M21 24h1M21 26h1M16 29h1" />
<path stroke="#201621" d="M22 23h1M9 28h1" />
<path stroke="rgba(33,16,33,0.12156862745098039)" d="M23 23h1M23 24h1M23 25h1M23 26h1M23 27h1" />
<path stroke="#3c393c" d="M9 24h1M9 25h1" />
<path stroke="#646464" d="M10 24h1" />
<path stroke="#5b5b5b" d="M11 24h1" />
<path stroke="#494949" d="M12 24h1" />
<path stroke="#2b222c" d="M14 24h1" />
<path stroke="#271e29" d="M18 24h1M14 25h1M19 25h1" />
<path stroke="#312731" d="M19 24h1" />
<path stroke="rgba(57,32,37,0.7490196078431373)" d="M7 25h1" />
<path stroke="#626262" d="M10 25h1" />
<path stroke="#5a5a5a" d="M11 25h1" />
<path stroke="#474747" d="M12 25h1" />
<path stroke="#322933" d="M13 25h1" />
<path stroke="#372e38" d="M15 25h1M20 25h1" />
<path stroke="#312833" d="M16 25h1" />
<path stroke="#905144" d="M7 26h1" />
<path stroke="#322c33" d="M9 26h1" />
<path stroke="#4c4c4d" d="M10 26h1" />
<path stroke="#403d40" d="M11 26h1" />
<path stroke="#383038" d="M12 26h1" />
<path stroke="#302731" d="M14 26h1" />
<path stroke="#2c222d" d="M18 26h1" />
<path stroke="#241923" d="M19 26h1" />
<path stroke="#2e2530" d="M20 26h1" />
<path stroke="#4b3537" d="M7 27h1" />
<path stroke="#2f2630" d="M8 27h1" />
<path stroke="#2c252d" d="M10 27h1" />
<path stroke="#332e3a" d="M11 27h1" />
<path stroke="#221823" d="M12 27h1" />
<path stroke="#2f2530" d="M13 27h1" />
<path stroke="#382f39" d="M14 27h1" />
<path stroke="#2d242f" d="M17 27h1" />
<path stroke="#4c3535" d="M18 27h1" />
<path stroke="#bb937c" d="M19 27h1" />
<path stroke="#4a3b3f" d="M20 27h1" />
<path stroke="#2a202a" d="M7 28h1" />
<path stroke="#564f58" d="M10 28h1" />
<path stroke="#6c5a54" d="M11 28h1" />
<path stroke="#261e28" d="M12 28h1" />
<path stroke="#513633" d="M18 28h1" />
<path stroke="#e5b093" d="M19 28h1" />
<path stroke="#513e40" d="M21 28h1" />
<path stroke="#342227" d="M22 28h1" />
<path stroke="rgba(33,25,33,0.12156862745098039)" d="M23 28h1" />
<path stroke="rgba(40,24,32,0.25098039215686274)" d="M6 29h1" />
<path stroke="rgba(31,21,31,0.8745098039215686)" d="M7 29h1" />
<path stroke="#1f1f24" d="M10 29h1" />
<path stroke="#1a1a1f" d="M11 29h1" />
<path stroke="#1b131d" d="M12 29h1" />
<path stroke="#393039" d="M15 29h1" />
<path stroke="#442327" d="M18 29h1" />
<path stroke="#c47f6b" d="M19 29h1" />
<path stroke="#f7cfb2" d="M20 29h1" />
<path stroke="#bb8a73" d="M21 29h1" />
<path stroke="rgba(83,54,51,0.6862745098039216)" d="M22 29h1" />
<path stroke="rgba(54,27,27,0.07450980392156863)" d="M5 30h1M23 33h1M23 34h1M23 35h1M5 38h1" />
<path stroke="rgba(47,34,34,0.2980392156862745)" d="M6 30h1" />
<path stroke="rgba(46,31,31,0.5843137254901961)" d="M7 30h1" />
<path stroke="rgba(33,22,33,0.9490196078431372)" d="M8 30h1" />
<path stroke="rgba(22,17,23,0.9725490196078431)" d="M9 30h1" />
<path stroke="#141518" d="M10 30h1" />
<path stroke="#23242b" d="M11 30h1" />
<path stroke="#282930" d="M12 30h1" />
<path stroke="#251c27" d="M13 30h1" />
<path stroke="#2f2631" d="M14 30h2" />
<path stroke="#291f2a" d="M16 30h1" />
<path stroke="rgba(40,27,34,0.7725490196078432)" d="M17 30h1" />
<path stroke="rgba(44,29,32,0.7215686274509804)" d="M18 30h1" />
<path stroke="rgba(59,37,39,0.9490196078431372)" d="M19 30h1" />
<path stroke="rgba(65,46,47,0.9490196078431372)" d="M20 30h1" />
<path stroke="rgba(56,35,38,0.6235294117647059)" d="M21 30h1" />
<path stroke="rgba(47,34,34,0.14901960784313725)" d="M4 31h1M21 31h1M3 32h1M3 36h1M4 37h1" />
<path stroke="rgba(47,32,32,0.596078431372549)" d="M5 31h3M18 31h3M5 32h2M19 32h2M4 33h1M21 33h2M4 34h1M21 34h2M4 35h1M21 35h2M21 36h1M5 37h1M20 37h1" />
<path stroke="rgba(47,32,32,0.6862745098039216)" d="M8 31h1" />
<path stroke="rgba(23,18,19,0.8784313725490196)" d="M9 31h1" />
<path stroke="#17181b" d="M10 31h1M10 32h1" />
<path stroke="#30313a" d="M11 31h1" />
<path stroke="#34353e" d="M12 31h1M11 32h2M11 33h1" />
<path stroke="#2b2a32" d="M13 31h1" />
<path stroke="#19131c" d="M14 31h1" />
<path stroke="#1a141b" d="M16 31h1" />
<path stroke="rgba(38,27,30,0.807843137254902)" d="M17 31h1" />
<path stroke="rgba(48,33,33,0.5215686274509804)" d="M4 32h1M21 32h1" />
<path stroke="rgba(46,32,32,0.7137254901960784)" d="M7 32h1" />
<path stroke="rgba(45,32,32,0.8352941176470589)" d="M8 32h1M7 33h2M6 34h2M19 34h1M6 35h1M19 35h1M18 36h1M17 37h1M13 38h3" />
<path stroke="rgba(23,19,20,0.9372549019607843)" d="M9 32h1M9 33h1" />
<path stroke="#1b1c21" d="M13 32h1" />
<path stroke="#111114" d="M14 32h1" />
<path stroke="#131417" d="M15 32h1M15 34h1" />
<path stroke="#111214" d="M16 32h1M13 33h1" />
<path stroke="rgba(21,18,19,0.9568627450980393)" d="M17 32h1" />
<path stroke="rgba(46,32,32,0.6980392156862745)" d="M18 32h1" />
<path stroke="rgba(47,27,27,0.14901960784313725)" d="M22 32h1" />
<path stroke="rgba(45,31,31,0.2235294117647059)" d="M3 33h1M3 34h1M3 35h1" />
<path stroke="rgba(47,33,33,0.611764705882353)" d="M5 33h1M20 33h1" />
<path stroke="rgba(46,32,32,0.7450980392156863)" d="M6 33h1M19 33h1" />
<path stroke="#1c1d22" d="M10 33h1" />
<path stroke="#282a30" d="M12 33h1" />
<path stroke="#101113" d="M14 33h1" />
<path stroke="#191a1f" d="M15 33h1" />
<path stroke="#121316" d="M16 33h1" />
<path stroke="#121212" d="M17 33h1M17 34h1" />
<path stroke="rgba(23,20,20,0.9568627450980393)" d="M18 33h1M18 34h1" />
<path stroke="rgba(47,32,32,0.6549019607843137)" d="M5 34h1M5 35h1" />
<path stroke="rgba(38,29,29,0.8666666666666667)" d="M8 34h1" />
<path stroke="rgba(19,15,17,0.9686274509803922)" d="M9 34h1" />
<path stroke="#212228" d="M10 34h1" />
<path stroke="#31323b" d="M11 34h1" />
<path stroke="#1d1e23" d="M12 34h1" />
<path stroke="#0d0d0f" d="M13 34h1M13 35h1" />
<path stroke="#121215" d="M14 34h1" />
<path stroke="#101010" d="M16 34h1M13 36h3" />
<path stroke="rgba(46,32,32,0.6549019607843137)" d="M20 34h1M20 35h1" />
<path stroke="rgba(28,22,22,0.9254901960784314)" d="M7 35h1" />
<path stroke="rgba(20,19,19,0.9803921568627451)" d="M8 35h1" />
<path stroke="#0f0f10" d="M9 35h1" />
<path stroke="#151518" d="M10 35h1" />
<path stroke="#151519" d="M11 35h1" />
<path stroke="#101012" d="M12 35h1M14 35h1" />
<path stroke="#101011" d="M15 35h1" />
<path stroke="#111111" d="M16 35h2" />
<path stroke="rgba(39,29,29,0.8666666666666667)" d="M18 35h1" />
<path stroke="rgba(46,31,31,0.5215686274509804)" d="M4 36h1" />
<path stroke="rgba(46,32,32,0.6274509803921569)" d="M5 36h1" />
<path stroke="rgba(45,33,33,0.792156862745098)" d="M6 36h1M19 36h1" />
<path stroke="rgba(22,19,19,0.9607843137254902)" d="M7 36h1" />
<path stroke="#2e2e2e" d="M8 36h1" />
<path stroke="#323232" d="M9 36h2" />
<path stroke="#2f2f2f" d="M11 36h1" />
<path stroke="#262626" d="M12 36h1" />
<path stroke="rgba(20,19,19,0.9764705882352941)" d="M16 36h1" />
<path stroke="rgba(27,21,21,0.9372549019607843)" d="M17 36h1" />
<path stroke="rgba(45,31,31,0.6392156862745098)" d="M20 36h1M6 37h1M19 37h1" />
<path stroke="rgba(47,29,29,0.4470588235294118)" d="M22 36h1" />
<path stroke="rgba(26,26,26,0.0392156862745098)" d="M23 36h1M21 38h1" />
<path stroke="rgba(37,27,27,0.8470588235294118)" d="M7 37h1" />
<path stroke="#1a1a1a" d="M8 37h1M11 37h1" />
<path stroke="#1d1d1d" d="M9 37h2" />
<path stroke="#131313" d="M12 37h1" />
<path stroke="rgba(33,24,24,0.8980392156862745)" d="M13 37h3" />
<path stroke="rgba(37,27,27,0.8745098039215686)" d="M16 37h1" />
<path stroke="rgba(46,33,33,0.788235294117647)" d="M18 37h1" />
<path stroke="rgba(47,31,31,0.4470588235294118)" d="M21 37h1" />
<path stroke="rgba(40,27,27,0.07450980392156863)" d="M22 37h1" />
<path stroke="rgba(47,30,30,0.2980392156862745)" d="M6 38h1M16 39h1" />
<path stroke="rgba(47,32,32,0.5333333333333333)" d="M7 38h1" />
<path stroke="rgba(41,29,29,0.788235294117647)" d="M8 38h1" />
<path stroke="rgba(41,30,30,0.8392156862745098)" d="M9 38h1" />
<path stroke="rgba(42,30,30,0.8549019607843137)" d="M10 38h3" />
<path stroke="rgba(46,32,32,0.803921568627451)" d="M16 38h1" />
<path stroke="rgba(46,33,33,0.7686274509803922)" d="M17 38h1" />
<path stroke="rgba(47,33,33,0.5529411764705883)" d="M18 38h1" />
<path stroke="rgba(46,33,33,0.5215686274509804)" d="M19 38h1" />
<path stroke="rgba(43,33,33,0.1843137254901961)" d="M20 38h1" />
<path stroke="rgba(55,36,36,0.10980392156862745)" d="M8 39h1" />
<path stroke="rgba(46,32,32,0.37254901960784315)" d="M9 39h1" />
<path stroke="rgba(46,31,31,0.41568627450980394)" d="M10 39h5" />
<path stroke="rgba(45,30,30,0.4)" d="M15 39h1" />
<path stroke="rgba(46,36,36,0.10980392156862745)" d="M17 39h1" />
</svg>