<svg xmlns="http://www.w3.org/2000/svg" viewBox="0 -0.5 26 43" shape-rendering="crispEdges">
<metadata>Made with Pixels to Svg https://codepen.io/shshaw/pen/XbxvNj</metadata>
<path stroke="rgba(11,5,11,0.18823529411764706)" d="M11 3h1M18 5h1M19 6h1" />
<path stroke="rgba(13,11,16,0.3764705882352941)" d="M12 3h2" />
<path stroke="rgba(8,8,8,0.12549019607843137)" d="M14 3h1" />
<path stroke="rgba(11,9,11,0.43529411764705883)" d="M9 4h1" />
<path stroke="rgba(12,11,13,0.7490196078431373)" d="M10 4h1" />
<path stroke="rgba(13,10,16,0.8745098039215686)" d="M11 4h1" />
<path stroke="#130d14" d="M12 4h1" />
<path stroke="#0d0b10" d="M13 4h1M15 15h2M15 16h1" />
<path stroke="rgba(12,11,16,0.8117647058823529)" d="M14 4h1" />
<path stroke="rgba(12,11,12,0.7490196078431373)" d="M15 4h1" />
<path stroke="rgba(11,8,11,0.37254901960784315)" d="M16 4h1" />
<path stroke="rgba(13,13,13,0.3137254901960784)" d="M7 5h1" />
<path stroke="#0d0b0d" d="M8 5h1" />
<path stroke="#100d12" d="M9 5h1" />
<path stroke="#1a131b" d="M10 5h2" />
<path stroke="#231d28" d="M12 5h1" />
<path stroke="#1c151e" d="M13 5h1M15 6h2M15 14h1M19 31h1" />
<path stroke="#181119" d="M14 5h1M17 12h1" />
<path stroke="#120e15" d="M15 5h1" />
<path stroke="#140f15" d="M16 5h1" />
<path stroke="rgba(13,10,14,0.8745098039215686)" d="M17 5h1" />
<path stroke="rgba(12,8,12,0.25098039215686274)" d="M6 6h1" />
<path stroke="rgba(13,11,15,0.9372549019607843)" d="M7 6h1" />
<path stroke="#130e15" d="M8 6h1M18 7h1" />
<path stroke="#1d1720" d="M9 6h1M7 10h1M14 12h1M11 14h1" />
<path stroke="#27202c" d="M10 6h1" />
<path stroke="#251f29" d="M11 6h1" />
<path stroke="#2e2735" d="M12 6h1" />
<path stroke="#221b24" d="M13 6h1" />
<path stroke="#211a24" d="M14 6h1" />
<path stroke="#130f15" d="M17 6h1" />
<path stroke="rgba(12,11,14,0.8117647058823529)" d="M18 6h1" />
<path stroke="rgba(16,16,16,0.06274509803921569)" d="M5 7h1M22 18h1" />
<path stroke="rgba(12,11,12,0.5607843137254902)" d="M6 7h1" />
<path stroke="#110d13" d="M7 7h1" />
<path stroke="#1b141d" d="M8 7h1M13 13h1M15 13h1" />
<path stroke="#2a2330" d="M9 7h1M11 7h1" />
<path stroke="#2f2736" d="M10 7h1M12 11h1" />
<path stroke="#3a3052" d="M12 7h1" />
<path stroke="#27212c" d="M13 7h1M13 8h1M8 9h1M8 10h1M8 11h1" />
<path stroke="#28212e" d="M14 7h1M13 10h1" />
<path stroke="#2d2533" d="M15 7h1M16 8h1M16 9h1" />
<path stroke="#221c25" d="M16 7h1" />
<path stroke="#1d161f" d="M17 7h1M18 10h1M13 12h1M10 14h1" />
<path stroke="rgba(12,10,14,0.9372549019607843)" d="M19 7h1" />
<path stroke="rgba(8,8,8,0.12156862745098039)" d="M20 7h1M20 8h1M20 9h1M20 10h1" />
<path stroke="rgba(12,12,12,0.25098039215686274)" d="M5 8h1M5 9h1M5 10h1" />
<path stroke="#0e0b0f" d="M6 8h1" />
<path stroke="#1f1a22" d="M7 8h1" />
<path stroke="#231d27" d="M8 8h1M10 13h1" />
<path stroke="#2e2635" d="M9 8h1" />
<path stroke="#322a3a" d="M10 8h2M15 8h1M9 9h2M15 9h1M10 10h1M9 11h2" />
<path stroke="#3c3257" d="M12 8h1" />
<path stroke="#362d46" d="M14 8h1M12 9h1" />
<path stroke="#2c2433" d="M17 8h1" />
<path stroke="#171119" d="M18 8h1M8 13h1M9 14h1" />
<path stroke="#0d0b0e" d="M19 8h1" />
<path stroke="#110d12" d="M6 9h1" />
<path stroke="#201a23" d="M7 9h1M9 13h1" />
<path stroke="#372e48" d="M11 9h1" />
<path stroke="#29222f" d="M13 9h1M11 12h1" />
<path stroke="#392f4f" d="M14 9h1" />
<path stroke="#2f2735" d="M17 9h1" />
<path stroke="#231c27" d="M18 9h1" />
<path stroke="#100c10" d="M19 9h1M19 10h1M13 17h1M15 18h1" />
<path stroke="#0c0a0e" d="M6 10h1M15 17h1" />
<path stroke="#3a304f" d="M9 10h1" />
<path stroke="#382f4a" d="M11 10h1" />
<path stroke="#332b3d" d="M12 10h1" />
<path stroke="#342b47" d="M14 10h1" />
<path stroke="#2a2234" d="M15 10h1" />
<path stroke="#322944" d="M16 10h1" />
<path stroke="#211b24" d="M17 10h1" />
<path stroke="rgba(27,18,24,0.6235294117647059)" d="M5 11h1" />
<path stroke="#0c0a0d" d="M6 11h1M8 15h1M17 15h1M9 17h1M16 17h1M13 18h1" />
<path stroke="#1a141d" d="M7 11h1" />
<path stroke="#2e2634" d="M11 11h1" />
<path stroke="#1f1922" d="M13 11h1M17 11h1M12 14h1" />
<path stroke="#251e28" d="M14 11h1" />
<path stroke="#28212f" d="M15 11h1" />
<path stroke="#2b2337" d="M16 11h1" />
<path stroke="#181219" d="M18 11h1" />
<path stroke="#3a1c1d" d="M19 11h1" />
<path stroke="rgba(51,28,34,0.43529411764705883)" d="M20 11h1" />
<path stroke="#48292b" d="M5 12h1" />
<path stroke="#5a302b" d="M6 12h1" />
<path stroke="#151017" d="M7 12h1" />
<path stroke="#201924" d="M8 12h1" />
<path stroke="#27202b" d="M9 12h1" />
<path stroke="#312939" d="M10 12h1" />
<path stroke="#2b2431" d="M12 12h1" />
<path stroke="#1e1721" d="M15 12h1" />
<path stroke="#231c28" d="M16 12h1" />
<path stroke="#231b1f" d="M18 12h1" />
<path stroke="#753b34" d="M19 12h1" />
<path stroke="rgba(57,31,36,0.7490196078431373)" d="M20 12h1" />
<path stroke="#59423f" d="M5 13h1" />
<path stroke="#e1a481" d="M6 13h1" />
<path stroke="#261c1a" d="M7 13h1" />
<path stroke="#26202a" d="M11 13h1" />
<path stroke="#201922" d="M12 13h1" />
<path stroke="#18121b" d="M14 13h1" />
<path stroke="#1a141c" d="M16 13h1M14 15h1" />
<path stroke="#0f0b12" d="M17 13h1" />
<path stroke="#573d30" d="M18 13h1" />
<path stroke="#e4a986" d="M19 13h1" />
<path stroke="rgba(72,52,52,0.7490196078431373)" d="M20 13h1M20 14h1" />
<path stroke="#573f3b" d="M5 14h1" />
<path stroke="#eebc9b" d="M6 14h1M19 14h1" />
<path stroke="#28201e" d="M7 14h1" />
<path stroke="#0f0b11" d="M8 14h1M11 17h1" />
<path stroke="#18121a" d="M13 14h1" />
<path stroke="#110e14" d="M14 14h1" />
<path stroke="#17121a" d="M16 14h1" />
<path stroke="#0e0b10" d="M17 14h1M13 16h1" />
<path stroke="#625046" d="M18 14h1" />
<path stroke="rgba(37,27,32,0.18823529411764706)" d="M5 15h1M4 27h1" />
<path stroke="rgba(129,105,97,0.8745098039215686)" d="M6 15h1" />
<path stroke="#372221" d="M7 15h1" />
<path stroke="#0d0b0f" d="M9 15h1M16 16h1M10 17h1" />
<path stroke="#171018" d="M10 15h2" />
<path stroke="#19141c" d="M12 15h1" />
<path stroke="#110c13" d="M13 15h1" />
<path stroke="#72554d" d="M18 15h1" />
<path stroke="rgba(99,78,75,0.8745098039215686)" d="M19 15h1" />
<path stroke="rgba(32,16,32,0.06274509803921569)" d="M20 15h1M21 17h1M2 26h1" />
<path stroke="rgba(40,24,32,0.25098039215686274)" d="M6 16h1M23 29h1" />
<path stroke="rgba(81,39,41,0.9372549019607843)" d="M7 16h1" />
<path stroke="#0c0a0c" d="M8 16h1M12 18h1M14 18h1M13 19h1" />
<path stroke="#0c0a0f" d="M9 16h1M12 17h1M11 18h1" />
<path stroke="#120d14" d="M10 16h1" />
<path stroke="#140f16" d="M11 16h1" />
<path stroke="#0e0c10" d="M12 16h1" />
<path stroke="#0f0c11" d="M14 16h1" />
<path stroke="#170f10" d="M17 16h1" />
<path stroke="rgba(84,41,43,0.8117647058823529)" d="M18 16h1" />
<path stroke="rgba(37,21,32,0.18823529411764706)" d="M19 16h1" />
<path stroke="rgba(32,16,32,0.12549019607843137)" d="M4 17h1M2 20h1M2 21h1" />
<path stroke="rgba(32,21,33,0.7490196078431373)" d="M5 17h1" />
<path stroke="rgba(31,21,32,0.7490196078431373)" d="M6 17h1M19 17h1" />
<path stroke="#1c131c" d="M7 17h1" />
<path stroke="#0f0c0f" d="M8 17h1" />
<path stroke="#0f0b10" d="M14 17h1" />
<path stroke="#151114" d="M17 17h1" />
<path stroke="rgba(31,19,31,0.8745098039215686)" d="M18 17h1" />
<path stroke="rgba(30,21,32,0.6235294117647059)" d="M20 17h1" />
<path stroke="rgba(32,24,32,0.12549019607843137)" d="M3 18h1" />
<path stroke="rgba(36,27,38,0.8117647058823529)" d="M4 18h1" />
<path stroke="#383039" d="M5 18h1" />
<path stroke="#2e252f" d="M6 18h1M15 20h1M15 25h1M15 26h1M14 28h1" />
<path stroke="#271e28" d="M7 18h1M18 19h1M14 29h1" />
<path stroke="#2f272f" d="M8 18h1" />
<path stroke="#120f12" d="M9 18h1" />
<path stroke="#100c11" d="M10 18h1" />
<path stroke="#151215" d="M16 18h1" />
<path stroke="#2e262e" d="M17 18h1" />
<path stroke="#211722" d="M18 18h1M6 24h1" />
<path stroke="#2f2630" d="M19 18h1M21 19h1M7 20h1M18 21h1M18 27h1M18 28h1" />
<path stroke="#332a34" d="M20 18h1M7 19h1" />
<path stroke="rgba(34,25,35,0.6862745098039216)" d="M21 18h1" />
<path stroke="rgba(27,19,29,0.3764705882352941)" d="M3 19h1" />
<path stroke="#39313a" d="M4 19h1" />
<path stroke="#3f373f" d="M5 19h1" />
<path stroke="#3a313a" d="M6 19h1M8 19h1M19 19h1M5 20h2M20 20h1M5 21h1M20 21h1M4 22h1M8 22h2M16 22h2M21 22h1M4 23h1M8 23h10M21 23h1M4 24h1M8 24h10M21 24h1M8 26h1M17 26h1M8 27h2M15 27h3M8 28h2M12 28h2M15 28h3M8 29h2M12 29h2M16 29h2M8 30h2" />
<path stroke="#2e272e" d="M9 19h1" />
<path stroke="#251d26" d="M10 19h1" />
<path stroke="#1a161a" d="M11 19h1" />
<path stroke="#262026" d="M12 19h1" />
<path stroke="#1d191d" d="M14 19h1" />
<path stroke="#2e252e" d="M15 19h1" />
<path stroke="#312931" d="M16 19h1" />
<path stroke="#362d36" d="M17 19h1M20 23h1M20 24h1" />
<path stroke="#413941" d="M20 19h1" />
<path stroke="rgba(28,16,28,0.24705882352941178)" d="M22 19h1" />
<path stroke="rgba(35,26,37,0.9372549019607843)" d="M3 20h1" />
<path stroke="#372f38" d="M4 20h1" />
<path stroke="#241b26" d="M8 20h2M16 20h2" />
<path stroke="#332a33" d="M10 20h1M12 20h1M19 21h1M10 25h2M14 25h1M21 25h1" />
<path stroke="#302730" d="M11 20h1M14 20h1" />
<path stroke="#2d252d" d="M13 20h1" />
<path stroke="#2b212c" d="M18 20h1" />
<path stroke="#393039" d="M19 20h1M4 21h1M7 22h1M20 22h1M7 23h1M17 25h1M7 30h1M16 30h2" />
<path stroke="#352c36" d="M21 20h1M7 21h3M16 21h2M11 27h1M14 27h1M11 28h1M11 29h1M8 31h2" />
<path stroke="rgba(33,23,34,0.8117647058823529)" d="M22 20h1" />
<path stroke="#261d27" d="M3 21h1" />
<path stroke="#372e38" d="M6 21h1M21 21h1M8 25h1M16 26h1M10 28h1M10 29h1" />
<path stroke="#261d28" d="M10 21h5M6 23h1M16 31h3" />
<path stroke="#2a212c" d="M15 21h1" />
<path stroke="rgba(35,25,37,0.8745098039215686)" d="M22 21h1" />
<path stroke="rgba(31,20,32,0.6862745098039216)" d="M2 22h1" />
<path stroke="#312832" d="M3 22h1M15 30h1" />
<path stroke="#342b34" d="M5 22h1M18 26h1M7 29h1" />
<path stroke="#2a202b" d="M6 22h1M9 25h1" />
<path stroke="#382f38" d="M10 22h5M13 25h1" />
<path stroke="#382f39" d="M15 22h1M10 27h1" />
<path stroke="#302731" d="M18 22h1" />
<path stroke="#2b222c" d="M19 22h1M10 26h1" />
<path stroke="rgba(47,37,48,0.9372549019607843)" d="M22 22h1" />
<path stroke="rgba(28,18,28,0.5019607843137255)" d="M23 22h1" />
<path stroke="rgba(32,22,33,0.8745098039215686)" d="M2 23h1M2 24h1" />
<path stroke="#342b35" d="M3 23h1M3 24h1M18 29h1M7 31h1" />
<path stroke="#322933" d="M5 23h1M12 27h1M10 30h1" />
<path stroke="#362d37" d="M18 23h1M18 24h1M18 25h1M9 26h1M15 29h1" />
<path stroke="#241a25" d="M19 23h1M19 24h1M7 25h1" />
<path stroke="#302732" d="M22 23h1M22 24h1" />
<path stroke="rgba(29,18,30,0.6235294117647059)" d="M23 23h1M23 24h1M23 25h1M23 26h1M23 27h1" />
<path stroke="#251c26" d="M5 24h1M19 25h1" />
<path stroke="#332934" d="M7 24h1" />
<path stroke="rgba(32,23,33,0.6901960784313725)" d="M2 25h1" />
<path stroke="#271e29" d="M3 25h1M11 30h1" />
<path stroke="#382028" d="M4 25h1" />
<path stroke="#c28f7b" d="M5 25h1" />
<path stroke="#6f4940" d="M6 25h1" />
<path stroke="#392f39" d="M12 25h1" />
<path stroke="#2d232e" d="M16 25h1" />
<path stroke="#271d27" d="M20 25h1" />
<path stroke="#2e242f" d="M22 25h1" />
<path stroke="rgba(32,20,32,0.4980392156862745)" d="M3 26h1" />
<path stroke="rgba(88,42,45,0.8745098039215686)" d="M4 26h1" />
<path stroke="#602d2e" d="M5 26h1" />
<path stroke="#432327" d="M6 26h1" />
<path stroke="#221822" d="M7 26h1" />
<path stroke="#29202a" d="M11 26h1" />
<path stroke="#2a212b" d="M12 26h3" />
<path stroke="#261a23" d="M19 26h1" />
<path stroke="#7b5b50" d="M20 26h1" />
<path stroke="#8b746c" d="M21 26h1" />
<path stroke="#3e3138" d="M22 26h1" />
<path stroke="rgba(36,24,32,0.24705882352941178)" d="M5 27h1" />
<path stroke="rgba(38,24,32,0.6235294117647059)" d="M6 27h1M23 28h1" />
<path stroke="#2c232d" d="M7 27h1" />
<path stroke="#352c35" d="M13 27h1" />
<path stroke="#56292c" d="M19 27h1" />
<path stroke="#eabea7" d="M20 27h1" />
<path stroke="#fae6dc" d="M21 27h1" />
<path stroke="#b8907c" d="M22 27h1" />
<path stroke="rgba(28,18,30,0.4980392156862745)" d="M6 28h1" />
<path stroke="#2f2631" d="M7 28h1M12 30h2" />
<path stroke="#9f7a68" d="M19 28h1" />
<path stroke="#f8d2b6" d="M20 28h1" />
<path stroke="#f9d5ba" d="M21 28h1" />
<path stroke="#b67b66" d="M22 28h1" />
<path stroke="rgba(32,21,32,0.18823529411764706)" d="M5 29h1" />
<path stroke="rgba(30,18,30,0.8117647058823529)" d="M6 29h1" />
<path stroke="#59484a" d="M19 29h1" />
<path stroke="#998076" d="M20 29h1" />
<path stroke="#ebbca0" d="M21 29h1" />
<path stroke="rgba(111,73,67,0.9372549019607843)" d="M22 29h1" />
<path stroke="rgba(51,26,26,0.0392156862745098)" d="M3 30h1M2 31h1M2 36h1" />
<path stroke="rgba(49,32,32,0.4117647058823529)" d="M4 30h1" />
<path stroke="rgba(31,21,32,0.8745098039215686)" d="M5 30h1" />
<path stroke="#271d28" d="M6 30h1" />
<path stroke="#231a24" d="M14 30h1" />
<path stroke="#352c37" d="M18 30h1" />
<path stroke="#2e2530" d="M19 30h1" />
<path stroke="rgba(34,24,33,0.9725490196078431)" d="M20 30h1" />
<path stroke="rgba(64,44,46,0.9490196078431372)" d="M21 30h1" />
<path stroke="rgba(71,45,45,0.30980392156862746)" d="M22 30h1" />
<path stroke="rgba(49,32,32,0.40784313725490196)" d="M3 31h1M2 32h1M3 36h1" />
<path stroke="rgba(47,32,32,0.596078431372549)" d="M4 31h1M21 31h1M3 32h2M21 32h1M3 33h2M21 33h2M3 34h2M21 34h2M3 35h2M21 35h2M4 36h1M21 36h1M20 37h1" />
<path stroke="#201621" d="M5 31h1" />
<path stroke="#2b222d" d="M6 31h1" />
<path stroke="#221923" d="M10 31h1" />
<path stroke="rgba(28,20,26,0.9568627450980393)" d="M11 31h1" />
<path stroke="rgba(36,25,31,0.9176470588235294)" d="M12 31h2" />
<path stroke="rgba(24,20,24,0.9686274509803922)" d="M14 31h1" />
<path stroke="#1e1921" d="M15 31h1" />
<path stroke="rgba(35,25,30,0.7725490196078432)" d="M20 31h1" />
<path stroke="rgba(45,30,30,0.3333333333333333)" d="M22 31h1M22 36h1" />
<path stroke="rgba(41,28,31,0.8784313725490196)" d="M5 32h1" />
<path stroke="rgba(37,27,33,0.9372549019607843)" d="M6 32h1" />
<path stroke="#221823" d="M7 32h3" />
<path stroke="#1f1e25" d="M10 32h1" />
<path stroke="rgba(27,22,23,0.9176470588235294)" d="M11 32h1M11 33h1M11 34h1" />
<path stroke="rgba(45,32,32,0.8352941176470589)" d="M12 32h2M5 33h1M12 33h2M12 34h2M12 35h2M12 36h7M12 37h6M11 38h4" />
<path stroke="rgba(23,19,20,0.9372549019607843)" d="M14 32h1" />
<path stroke="#1d1e23" d="M15 32h1" />
<path stroke="#26242c" d="M16 32h1" />
<path stroke="#161419" d="M17 32h1" />
<path stroke="#131114" d="M18 32h1" />
<path stroke="#121112" d="M19 32h1" />
<path stroke="rgba(42,28,28,0.6470588235294118)" d="M20 32h1M20 33h1" />
<path stroke="rgba(47,32,32,0.5568627450980392)" d="M22 32h1" />
<path stroke="rgba(47,30,30,0.2980392156862745)" d="M23 32h1" />
<path stroke="rgba(46,33,33,0.5215686274509804)" d="M2 33h1M2 34h1" />
<path stroke="rgba(38,29,29,0.8666666666666667)" d="M6 33h1M5 34h1" />
<path stroke="rgba(18,17,20,0.9882352941176471)" d="M7 33h1" />
<path stroke="#2d2e36" d="M8 33h1" />
<path stroke="#2d2e35" d="M9 33h1" />
<path stroke="#16171b" d="M10 33h1M10 34h1" />
<path stroke="rgba(25,20,21,0.9372549019607843)" d="M14 33h1" />
<path stroke="#131314" d="M15 33h1" />
<path stroke="#1c1c1d" d="M16 33h1" />
<path stroke="#242425" d="M17 33h1" />
<path stroke="#171717" d="M18 33h1M18 34h1" />
<path stroke="#111111" d="M19 33h1M6 35h1" />
<path stroke="rgba(48,30,30,0.37254901960784315)" d="M23 33h1M23 34h1" />
<path stroke="rgba(22,20,20,0.9686274509803922)" d="M6 34h1" />
<path stroke="#0f0f11" d="M7 34h1M10 35h1" />
<path stroke="#1b1c21" d="M8 34h1" />
<path stroke="#212228" d="M9 34h1" />
<path stroke="rgba(26,21,21,0.9372549019607843)" d="M14 34h1M19 34h1" />
<path stroke="#181818" d="M15 34h1" />
<path stroke="#2f2f2f" d="M16 34h1M9 36h1" />
<path stroke="#2e2e2e" d="M17 34h1" />
<path stroke="rgba(44,30,30,0.6352941176470588)" d="M20 34h1" />
<path stroke="rgba(47,31,31,0.4470588235294118)" d="M2 35h1M6 38h1M18 38h2" />
<path stroke="rgba(36,27,27,0.8784313725490196)" d="M5 35h1" />
<path stroke="#101011" d="M7 35h1" />
<path stroke="#131315" d="M8 35h1" />
<path stroke="#141416" d="M9 35h1" />
<path stroke="rgba(28,23,23,0.9176470588235294)" d="M11 35h1" />
<path stroke="rgba(44,31,31,0.8431372549019608)" d="M14 35h1M19 35h1" />
<path stroke="rgba(20,18,18,0.9803921568627451)" d="M15 35h1" />
<path stroke="rgba(22,20,20,0.9803921568627451)" d="M16 35h1" />
<path stroke="rgba(23,21,21,0.9803921568627451)" d="M17 35h1" />
<path stroke="rgba(26,21,21,0.9333333333333333)" d="M18 35h1" />
<path stroke="rgba(47,32,32,0.6235294117647059)" d="M20 35h1" />
<path stroke="rgba(44,30,30,0.33725490196078434)" d="M23 35h1" />
<path stroke="rgba(36,27,27,0.788235294117647)" d="M5 36h1" />
<path stroke="#101010" d="M6 36h1M10 36h1" />
<path stroke="#1d1d1d" d="M7 36h1" />
<path stroke="#323232" d="M8 36h1" />
<path stroke="rgba(29,23,23,0.9176470588235294)" d="M11 36h1M11 37h1" />
<path stroke="rgba(45,32,32,0.7607843137254902)" d="M19 36h1" />
<path stroke="rgba(47,33,33,0.611764705882353)" d="M20 36h1M19 37h1" />
<path stroke="rgba(40,27,27,0.07450980392156863)" d="M3 37h1M8 39h1M17 39h1" />
<path stroke="rgba(47,31,31,0.48627450980392156)" d="M4 37h1" />
<path stroke="rgba(43,30,30,0.6235294117647059)" d="M5 37h1" />
<path stroke="rgba(24,20,20,0.8470588235294118)" d="M6 37h1" />
<path stroke="#1a1a1a" d="M7 37h1" />
<path stroke="#2a2a2a" d="M8 37h1" />
<path stroke="#1e1e1e" d="M9 37h1" />
<path stroke="#121212" d="M10 37h1" />
<path stroke="rgba(45,32,32,0.7764705882352941)" d="M18 37h1" />
<path stroke="rgba(46,30,30,0.37254901960784315)" d="M21 37h1" />
<path stroke="rgba(26,26,26,0.0392156862745098)" d="M22 37h1M20 38h1" />
<path stroke="rgba(53,35,35,0.11372549019607843)" d="M5 38h1" />
<path stroke="rgba(18,17,17,0.7254901960784313)" d="M7 38h1" />
<path stroke="rgba(18,17,17,0.7843137254901961)" d="M8 38h1" />
<path stroke="rgba(21,19,19,0.8980392156862745)" d="M9 38h1" />
<path stroke="rgba(28,22,22,0.9254901960784314)" d="M10 38h1" />
<path stroke="rgba(45,32,32,0.7725490196078432)" d="M15 38h2" />
<path stroke="rgba(46,32,32,0.6313725490196078)" d="M17 38h1" />
<path stroke="rgba(45,31,31,0.2235294117647059)" d="M9 39h1M15 39h2" />
<path stroke="rgba(45,29,29,0.3137254901960784)" d="M10 39h5" />
</svg>