<svg xmlns="http://www.w3.org/2000/svg" viewBox="0 -0.5 26 43" shape-rendering="crispEdges">
<metadata>Made with Pixels to Svg https://codepen.io/shshaw/pen/XbxvNj</metadata>
<path stroke="rgba(16,16,16,0.06274509803921569)" d="M8 4h1M17 4h1M20 7h1" />
<path stroke="rgba(8,8,8,0.12549019607843137)" d="M9 4h1M16 4h1" />
<path stroke="rgba(12,11,13,0.7490196078431373)" d="M10 4h1M15 4h1" />
<path stroke="rgba(14,10,14,0.8745098039215686)" d="M11 4h2" />
<path stroke="rgba(14,11,17,0.8745098039215686)" d="M13 4h2" />
<path stroke="rgba(14,11,14,0.6235294117647059)" d="M8 5h1" />
<path stroke="#100c11" d="M9 5h1M16 12h1" />
<path stroke="#151017" d="M10 5h1" />
<path stroke="#1b141d" d="M11 5h2M16 11h1" />
<path stroke="#18121a" d="M13 5h1" />
<path stroke="#18131a" d="M14 5h1" />
<path stroke="#110d14" d="M15 5h1" />
<path stroke="#0f0c0f" d="M16 5h1" />
<path stroke="rgba(11,10,13,0.6235294117647059)" d="M17 5h1M19 7h1M20 13h1" />
<path stroke="rgba(12,10,12,0.5019607843137255)" d="M7 6h1" />
<path stroke="#171118" d="M8 6h1" />
<path stroke="#1d161f" d="M9 6h1" />
<path stroke="#201a23" d="M10 6h1M7 9h1" />
<path stroke="#26202a" d="M11 6h1" />
<path stroke="#231d26" d="M12 6h1" />
<path stroke="#251e2a" d="M13 6h1" />
<path stroke="#211b24" d="M14 6h1" />
<path stroke="#1e1720" d="M15 6h1" />
<path stroke="#1a131c" d="M16 6h1" />
<path stroke="#0f0c11" d="M17 6h1M19 13h1M18 14h1" />
<path stroke="rgba(11,9,11,0.43529411764705883)" d="M18 6h1" />
<path stroke="rgba(12,10,12,0.4980392156862745)" d="M6 7h1" />
<path stroke="#161117" d="M7 7h1" />
<path stroke="#251f2a" d="M8 7h1" />
<path stroke="#2b2432" d="M9 7h1" />
<path stroke="#27212d" d="M10 7h1" />
<path stroke="#322a3a" d="M11 7h1M14 7h1M8 8h1M8 9h1" />
<path stroke="#352c42" d="M12 7h1" />
<path stroke="#28212e" d="M13 7h1" />
<path stroke="#2c2533" d="M15 7h1" />
<path stroke="#241e28" d="M16 7h1" />
<path stroke="#1b141c" d="M17 7h1M17 10h1" />
<path stroke="#0e0b11" d="M18 7h1" />
<path stroke="rgba(16,8,16,0.12549019607843137)" d="M5 8h1" />
<path stroke="rgba(16,12,16,0.7490196078431373)" d="M6 8h1" />
<path stroke="#1d1820" d="M7 8h1" />
<path stroke="#2d2533" d="M9 8h1" />
<path stroke="#2a2330" d="M10 8h1M9 9h1" />
<path stroke="#362d45" d="M11 8h1" />
<path stroke="#3a3050" d="M12 8h1M11 9h1" />
<path stroke="#2e2637" d="M13 8h1" />
<path stroke="#32293f" d="M14 8h1" />
<path stroke="#29222f" d="M15 8h1" />
<path stroke="#241d28" d="M16 8h1M11 10h1" />
<path stroke="#1c151e" d="M17 8h1M17 9h1" />
<path stroke="#140e16" d="M18 8h1M18 9h1M18 10h1" />
<path stroke="#0c0a0e" d="M19 8h1M19 9h1M19 14h1" />
<path stroke="rgba(12,8,12,0.24705882352941178)" d="M20 8h1M20 9h1M20 14h1" />
<path stroke="rgba(12,12,12,0.25098039215686274)" d="M5 9h1M5 10h1M5 11h1" />
<path stroke="#151116" d="M6 9h1" />
<path stroke="#231d27" d="M10 9h1" />
<path stroke="#2c2538" d="M12 9h1" />
<path stroke="#27202d" d="M13 9h1" />
<path stroke="#322a3c" d="M14 9h1" />
<path stroke="#302837" d="M15 9h1" />
<path stroke="#1f1922" d="M16 9h1" />
<path stroke="#110d12" d="M6 10h1M19 10h1M6 11h1" />
<path stroke="#18131b" d="M7 10h1M15 12h1" />
<path stroke="#19131b" d="M8 10h1" />
<path stroke="#4a3f3b" d="M9 10h1" />
<path stroke="#1d181b" d="M10 10h1" />
<path stroke="#19141c" d="M12 10h1" />
<path stroke="#1e1922" d="M13 10h1" />
<path stroke="#372e4b" d="M14 10h1" />
<path stroke="#2e2638" d="M15 10h1" />
<path stroke="#27202c" d="M16 10h1" />
<path stroke="#0c0a0c" d="M20 10h1M20 11h1" />
<path stroke="#0f0b0f" d="M7 11h1" />
<path stroke="#4b3e3c" d="M8 11h1" />
<path stroke="#dcbca4" d="M9 11h1" />
<path stroke="#a18a7a" d="M10 11h1" />
<path stroke="#161017" d="M11 11h1" />
<path stroke="#100d12" d="M12 11h1" />
<path stroke="#100d13" d="M13 11h1" />
<path stroke="#292233" d="M14 11h1" />
<path stroke="#231d28" d="M15 11h1" />
<path stroke="#181119" d="M17 11h1" />
<path stroke="#120d14" d="M18 11h1" />
<path stroke="#0e0b10" d="M19 11h1" />
<path stroke="rgba(11,11,11,0.18823529411764706)" d="M5 12h1" />
<path stroke="rgba(15,12,14,0.9372549019607843)" d="M6 12h1" />
<path stroke="#b09684" d="M7 12h1M12 12h1" />
<path stroke="#746359" d="M8 12h1" />
<path stroke="#f9d5ba" d="M9 12h2M8 13h2M8 14h2M8 15h2M8 16h2M13 17h1M11 18h2" />
<path stroke="#837064" d="M11 12h1" />
<path stroke="#a28a7c" d="M13 12h1" />
<path stroke="#221c27" d="M14 12h1" />
<path stroke="#100c12" d="M17 12h1" />
<path stroke="#150e16" d="M18 12h1" />
<path stroke="#0e0c11" d="M19 12h1" />
<path stroke="#0c0a0d" d="M20 12h1" />
<path stroke="rgba(38,24,32,0.4980392156862745)" d="M6 13h1M6 14h1M19 28h1M19 29h1" />
<path stroke="#c5a694" d="M7 13h1" />
<path stroke="#f9d7bd" d="M10 13h1" />
<path stroke="#f9e0d0" d="M11 13h1" />
<path stroke="#f9d8bf" d="M12 13h1" />
<path stroke="#dbbba4" d="M13 13h1" />
<path stroke="#524543" d="M14 13h1" />
<path stroke="#1b1517" d="M15 13h1" />
<path stroke="#483027" d="M16 13h1" />
<path stroke="#0c0a0f" d="M17 13h1" />
<path stroke="#150f17" d="M18 13h1" />
<path stroke="#b98b71" d="M7 14h1" />
<path stroke="#e7b192" d="M10 14h1" />
<path stroke="#b16c66" d="M11 14h1" />
<path stroke="#ce8e75" d="M12 14h1" />
<path stroke="#edb997" d="M13 14h1" />
<path stroke="#d6ab90" d="M14 14h1" />
<path stroke="#bb896a" d="M15 14h1" />
<path stroke="#d6b29a" d="M16 14h1" />
<path stroke="#564a43" d="M17 14h1" />
<path stroke="rgba(39,25,32,0.7490196078431373)" d="M7 15h1M7 16h1" />
<path stroke="#4a454e" d="M10 15h1" />
<path stroke="#527985" d="M11 15h1" />
<path stroke="#7ed8e9" d="M12 15h1" />
<path stroke="#edba97" d="M13 15h1" />
<path stroke="#eebc9b" d="M14 15h1" />
<path stroke="#f2c5a7" d="M15 15h1" />
<path stroke="#f6d0b5" d="M16 15h1M9 17h1" />
<path stroke="#5e4d43" d="M17 15h1" />
<path stroke="#0d0b0f" d="M18 15h1" />
<path stroke="rgba(13,10,14,0.8745098039215686)" d="M19 15h1" />
<path stroke="rgba(11,5,11,0.1843137254901961)" d="M20 15h1" />
<path stroke="#54687a" d="M10 16h1" />
<path stroke="#8d9196" d="M11 16h1" />
<path stroke="#f5eae0" d="M12 16h1" />
<path stroke="#f6cfb2" d="M13 16h1M13 18h1" />
<path stroke="#e9b08b" d="M14 16h1" />
<path stroke="#e0a17c" d="M15 16h1" />
<path stroke="#c17c6b" d="M16 16h1" />
<path stroke="#53302c" d="M17 16h1" />
<path stroke="rgba(11,10,14,0.8745098039215686)" d="M18 16h1" />
<path stroke="rgba(12,8,12,0.25098039215686274)" d="M19 16h1" />
<path stroke="rgba(38,24,32,0.6235294117647059)" d="M7 17h1M4 26h1M4 27h1M4 28h1" />
<path stroke="#deac8c" d="M8 17h1" />
<path stroke="#dfc2ac" d="M10 17h1" />
<path stroke="#ecceb7" d="M11 17h1" />
<path stroke="#f8d7be" d="M12 17h1" />
<path stroke="#f5ccaf" d="M14 17h1" />
<path stroke="#e0a27d" d="M15 17h1" />
<path stroke="#865445" d="M16 17h1" />
<path stroke="#2c1a21" d="M17 17h1" />
<path stroke="rgba(20,16,20,0.25098039215686274)" d="M18 17h1" />
<path stroke="rgba(32,16,32,0.06274509803921569)" d="M19 17h1M4 25h1" />
<path stroke="#503431" d="M8 18h1" />
<path stroke="#bb8472" d="M9 18h1" />
<path stroke="#edbfa3" d="M10 18h1" />
<path stroke="#e5ad8b" d="M14 18h1" />
<path stroke="#ab6853" d="M15 18h1" />
<path stroke="#1d131e" d="M16 18h1" />
<path stroke="#221924" d="M17 18h1" />
<path stroke="#241b26" d="M18 18h1M17 25h1" />
<path stroke="rgba(34,25,35,0.6862745098039216)" d="M19 18h1" />
<path stroke="rgba(27,19,29,0.3764705882352941)" d="M20 18h1" />
<path stroke="#21151e" d="M8 19h1" />
<path stroke="#7c5c56" d="M9 19h1" />
<path stroke="#b46b5a" d="M10 19h1" />
<path stroke="#bd786b" d="M11 19h2" />
<path stroke="#bc7567" d="M13 19h1" />
<path stroke="#b0614f" d="M14 19h1M7 27h1" />
<path stroke="#502a2d" d="M15 19h1" />
<path stroke="#332b34" d="M16 19h1" />
<path stroke="#2d242f" d="M17 19h1M23 27h1" />
<path stroke="#362d37" d="M18 19h1M16 23h1M21 23h1M21 26h1M16 27h1M16 28h1M16 29h1" />
<path stroke="#3d353e" d="M19 19h1" />
<path stroke="#2c232d" d="M20 19h1M8 21h1" />
<path stroke="rgba(30,19,30,0.37254901960784315)" d="M21 19h1" />
<path stroke="rgba(29,19,31,0.7490196078431373)" d="M7 20h1M7 21h1M7 22h1M7 23h1" />
<path stroke="#281f2a" d="M8 20h1M21 21h1M14 31h2" />
<path stroke="#938d81" d="M9 20h1" />
<path stroke="#897a78" d="M10 20h1" />
<path stroke="#383838" d="M11 20h1" />
<path stroke="#796b6b" d="M12 20h1" />
<path stroke="#d8d9bd" d="M13 20h1" />
<path stroke="#68625d" d="M14 20h1" />
<path stroke="#362d36" d="M15 20h1M12 27h1" />
<path stroke="#3f373f" d="M16 20h1" />
<path stroke="#2c232c" d="M17 20h1" />
<path stroke="#332a34" d="M18 20h1M18 21h1M14 27h1" />
<path stroke="#3a313a" d="M19 20h1M19 21h2M19 22h2M14 23h1M13 24h1M21 25h1M22 26h1M15 27h1M14 28h2M13 29h3" />
<path stroke="#443c44" d="M20 20h1" />
<path stroke="rgba(34,23,35,0.6862745098039216)" d="M21 20h1" />
<path stroke="rgba(32,24,32,0.12549019607843137)" d="M22 20h1" />
<path stroke="#4b3d44" d="M9 21h1" />
<path stroke="#7d7c70" d="M10 21h1" />
<path stroke="#4d4d4d" d="M11 21h1" />
<path stroke="#76776b" d="M12 21h1" />
<path stroke="#6b6560" d="M13 21h1" />
<path stroke="#2b222c" d="M14 21h3" />
<path stroke="#281f29" d="M17 21h1M18 22h1" />
<path stroke="rgba(27,19,30,0.37254901960784315)" d="M22 21h1" />
<path stroke="#251c26" d="M8 22h1" />
<path stroke="#231a25" d="M9 22h1" />
<path stroke="#5b5a56" d="M10 22h1" />
<path stroke="#363636" d="M11 22h1" />
<path stroke="#4a4545" d="M12 22h1" />
<path stroke="#382f38" d="M13 22h1M20 24h1M13 25h1" />
<path stroke="#403841" d="M14 22h1" />
<path stroke="#312731" d="M15 22h1M14 24h1" />
<path stroke="#221823" d="M16 22h1" />
<path stroke="#2f2631" d="M17 22h1M16 30h1" />
<path stroke="#332933" d="M21 22h1" />
<path stroke="rgba(36,27,38,0.8117647058823529)" d="M22 22h1" />
<path stroke="rgba(33,16,33,0.12156862745098039)" d="M23 22h1M23 23h1" />
<path stroke="#322934" d="M8 23h1M16 24h1M22 27h1" />
<path stroke="#352c36" d="M9 23h1" />
<path stroke="#474547" d="M10 23h1M10 27h1" />
<path stroke="#575757" d="M11 23h1" />
<path stroke="#413b42" d="M12 23h1" />
<path stroke="#423a42" d="M13 23h1" />
<path stroke="#241b25" d="M15 23h1" />
<path stroke="#302732" d="M17 23h1M8 24h1M17 24h1M16 25h1M17 28h1M17 29h1" />
<path stroke="#201621" d="M18 23h1" />
<path stroke="#2f2630" d="M19 23h1" />
<path stroke="#393039" d="M20 23h1M14 30h1" />
<path stroke="#241a25" d="M22 23h1M17 26h1" />
<path stroke="rgba(38,22,32,0.3137254901960784)" d="M6 24h1" />
<path stroke="rgba(31,21,31,0.8745098039215686)" d="M7 24h1" />
<path stroke="#3a343a" d="M9 24h1" />
<path stroke="#5b5a5b" d="M10 24h1" />
<path stroke="#5a5a5a" d="M11 24h1" />
<path stroke="#484648" d="M12 24h1" />
<path stroke="#2b222d" d="M15 24h1M20 26h1" />
<path stroke="rgba(28,18,30,0.8117647058823529)" d="M18 24h1" />
<path stroke="rgba(42,34,44,0.6862745098039216)" d="M19 24h1" />
<path stroke="#382f39" d="M21 24h1M15 26h1" />
<path stroke="#2e242f" d="M22 24h1" />
<path stroke="rgba(30,21,32,0.6235294117647059)" d="M23 24h1" />
<path stroke="rgba(64,43,43,0.8745098039215686)" d="M5 25h1" />
<path stroke="rgba(108,58,53,0.9372549019607843)" d="M6 25h1" />
<path stroke="#4e2e30" d="M7 25h1" />
<path stroke="#251c27" d="M8 25h1M13 27h1" />
<path stroke="#3c393c" d="M9 25h1M9 26h1" />
<path stroke="#646464" d="M10 25h1" />
<path stroke="#5b5b5b" d="M11 25h1" />
<path stroke="#494949" d="M12 25h1" />
<path stroke="#2a212b" d="M14 25h1" />
<path stroke="#342b35" d="M15 25h1M13 28h1" />
<path stroke="rgba(45,35,47,0.6862745098039216)" d="M18 25h1" />
<path stroke="rgba(30,20,32,0.4980392156862745)" d="M19 25h1M24 28h1" />
<path stroke="#332a33" d="M20 25h1" />
<path stroke="#342b36" d="M22 25h1" />
<path stroke="rgba(34,25,35,0.8745098039215686)" d="M23 25h1" />
<path stroke="#e1a079" d="M5 26h1" />
<path stroke="#cb8466" d="M6 26h1" />
<path stroke="#db9874" d="M7 26h1" />
<path stroke="#4a292f" d="M8 26h1" />
<path stroke="#5e5e5e" d="M10 26h1" />
<path stroke="#555555" d="M11 26h1" />
<path stroke="#423f42" d="M12 26h1" />
<path stroke="#322933" d="M13 26h1M13 30h1" />
<path stroke="#29202a" d="M14 26h1" />
<path stroke="#332a35" d="M16 26h1" />
<path stroke="rgba(28,18,30,0.4980392156862745)" d="M19 26h1M24 27h1" />
<path stroke="rgba(48,39,49,0.9372549019607843)" d="M23 26h1" />
<path stroke="rgba(28,20,28,0.25098039215686274)" d="M24 26h1" />
<path stroke="#df9e77" d="M5 27h1" />
<path stroke="#c98163" d="M6 27h1" />
<path stroke="#6d3333" d="M8 27h1" />
<path stroke="#2d262f" d="M9 27h1" />
<path stroke="#383438" d="M11 27h1" />
<path stroke="rgba(41,30,43,0.5607843137254902)" d="M17 27h1" />
<path stroke="rgba(36,24,32,0.4980392156862745)" d="M19 27h1" />
<path stroke="#221822" d="M20 27h1" />
<path stroke="#312833" d="M21 27h1" />
<path stroke="#cc8665" d="M5 28h2" />
<path stroke="#904b40" d="M7 28h1" />
<path stroke="#251a23" d="M8 28h1" />
<path stroke="#261d28" d="M9 28h1" />
<path stroke="#2e2633" d="M10 28h1" />
<path stroke="#3f2d39" d="M11 28h1" />
<path stroke="#211722" d="M12 28h1M9 29h1" />
<path stroke="#a76f59" d="M20 28h1" />
<path stroke="#544445" d="M21 28h2" />
<path stroke="#2a1f28" d="M23 28h1" />
<path stroke="rgba(38,26,32,0.3137254901960784)" d="M4 29h1" />
<path stroke="#795042" d="M5 29h2" />
<path stroke="#382428" d="M7 29h1" />
<path stroke="#2c232e" d="M8 29h1" />
<path stroke="#322b34" d="M10 29h1" />
<path stroke="#341c1e" d="M11 29h1" />
<path stroke="#221a24" d="M12 29h1" />
<path stroke="#7d3835" d="M20 29h1" />
<path stroke="#f3c6a6" d="M21 29h1" />
<path stroke="#ebbc9f" d="M22 29h1" />
<path stroke="rgba(60,42,46,0.9372549019607843)" d="M23 29h1" />
<path stroke="rgba(40,24,32,0.25098039215686274)" d="M24 29h1" />
<path stroke="rgba(41,25,31,0.19607843137254902)" d="M5 30h1" />
<path stroke="rgba(43,29,31,0.4196078431372549)" d="M6 30h1" />
<path stroke="rgba(33,22,30,0.8745098039215686)" d="M7 30h1" />
<path stroke="#2e2530" d="M8 30h1M17 30h1" />
<path stroke="#211823" d="M9 30h1" />
<path stroke="#151519" d="M10 30h1M13 32h1" />
<path stroke="#19191e" d="M11 30h1" />
<path stroke="#1d171f" d="M12 30h1" />
<path stroke="#372e38" d="M15 30h1" />
<path stroke="rgba(46,33,33,0.5215686274509804)" d="M18 30h1" />
<path stroke="rgba(44,30,30,0.3607843137254902)" d="M19 30h1" />
<path stroke="rgba(49,29,34,0.7607843137254902)" d="M20 30h1" />
<path stroke="rgba(67,48,49,0.8745098039215686)" d="M21 30h1" />
<path stroke="rgba(66,46,48,0.8745098039215686)" d="M22 30h1" />
<path stroke="rgba(36,24,32,0.24705882352941178)" d="M23 30h1" />
<path stroke="rgba(47,34,34,0.14901960784313725)" d="M4 31h1M3 32h1M3 36h1M4 37h1" />
<path stroke="rgba(47,32,32,0.596078431372549)" d="M5 31h3M18 31h3M5 32h1M19 32h3M4 33h1M21 33h2M4 34h1M21 34h2M4 35h1M21 35h2M21 36h2" />
<path stroke="#1d141c" d="M8 31h1" />
<path stroke="#131014" d="M9 31h1" />
<path stroke="#1c1d21" d="M10 31h1" />
<path stroke="#30313a" d="M11 31h1" />
<path stroke="#2f3138" d="M12 31h1" />
<path stroke="#1f1821" d="M13 31h1" />
<path stroke="#221923" d="M16 31h1" />
<path stroke="#21161d" d="M17 31h1" />
<path stroke="rgba(45,31,31,0.2235294117647059)" d="M21 31h1M3 33h1M3 34h1M3 35h1M22 37h1" />
<path stroke="rgba(54,40,40,0.07450980392156863)" d="M22 31h1" />
<path stroke="rgba(48,33,33,0.5215686274509804)" d="M4 32h1" />
<path stroke="rgba(46,33,33,0.6705882352941176)" d="M6 32h1" />
<path stroke="rgba(46,32,32,0.7450980392156863)" d="M7 32h1" />
<path stroke="#1d1419" d="M8 32h1" />
<path stroke="#141418" d="M9 32h1M14 34h1" />
<path stroke="#2d2f37" d="M10 32h1" />
<path stroke="#34353e" d="M11 32h1" />
<path stroke="#2e2f38" d="M12 32h1" />
<path stroke="#17141a" d="M14 32h1" />
<path stroke="#1a171f" d="M15 32h1" />
<path stroke="#151318" d="M16 32h1" />
<path stroke="#151215" d="M17 32h1" />
<path stroke="rgba(46,32,32,0.6980392156862745)" d="M18 32h1M5 33h1" />
<path stroke="rgba(47,31,31,0.4470588235294118)" d="M22 32h1M21 37h1" />
<path stroke="rgba(26,26,26,0.0392156862745098)" d="M23 32h1M23 37h1M21 38h1" />
<path stroke="rgba(45,32,32,0.8352941176470589)" d="M6 33h2M5 34h2M20 34h1M5 35h1M20 35h1M19 36h2M18 37h2M12 38h5" />
<path stroke="#0f1012" d="M8 33h1" />
<path stroke="#22232a" d="M9 33h1" />
<path stroke="#33343d" d="M10 33h1M10 34h1" />
<path stroke="#2d2e35" d="M11 33h1" />
<path stroke="#17181b" d="M12 33h1" />
<path stroke="#0f0f11" d="M13 33h1" />
<path stroke="#17181c" d="M14 33h1" />
<path stroke="#1a1b20" d="M15 33h1" />
<path stroke="#18191d" d="M16 33h1" />
<path stroke="#101113" d="M17 33h1" />
<path stroke="rgba(22,20,20,0.9686274509803922)" d="M18 33h1" />
<path stroke="rgba(41,30,30,0.8549019607843137)" d="M19 33h1M12 37h1M17 37h1" />
<path stroke="rgba(46,33,33,0.6980392156862745)" d="M20 33h1" />
<path stroke="rgba(46,31,31,0.5215686274509804)" d="M23 33h1M23 34h1M23 35h1M4 36h1" />
<path stroke="rgba(32,24,24,0.8980392156862745)" d="M7 34h1" />
<path stroke="#141417" d="M8 34h1" />
<path stroke="#2c2d34" d="M9 34h1" />
<path stroke="#212227" d="M11 34h1" />
<path stroke="#0e0e11" d="M12 34h1" />
<path stroke="#0e0e10" d="M13 34h1" />
<path stroke="#141518" d="M15 34h1" />
<path stroke="#131417" d="M16 34h1" />
<path stroke="#101013" d="M17 34h1M8 35h1M11 35h1" />
<path stroke="#111111" d="M18 34h1M17 35h1M13 36h1M16 36h1" />
<path stroke="rgba(29,23,23,0.9176470588235294)" d="M19 34h1M19 35h1" />
<path stroke="rgba(32,26,26,0.8980392156862745)" d="M6 35h1" />
<path stroke="rgba(19,19,19,0.9921568627450981)" d="M7 35h1" />
<path stroke="#16161a" d="M9 35h1" />
<path stroke="#161719" d="M10 35h1" />
<path stroke="#0d0d0f" d="M12 35h1" />
<path stroke="#101011" d="M13 35h1M15 35h2" />
<path stroke="#131314" d="M14 35h1" />
<path stroke="#101010" d="M18 35h1" />
<path stroke="rgba(36,27,27,0.8784313725490196)" d="M5 36h1" />
<path stroke="#1f1f1f" d="M6 36h1M11 36h1" />
<path stroke="#303030" d="M7 36h1M10 36h1" />
<path stroke="#323232" d="M8 36h2" />
<path stroke="rgba(38,27,27,0.8745098039215686)" d="M12 36h1" />
<path stroke="#131313" d="M14 36h2" />
<path stroke="rgba(23,20,20,0.9568627450980393)" d="M17 36h1" />
<path stroke="rgba(30,23,23,0.9137254901960784)" d="M18 36h1" />
<path stroke="rgba(46,32,32,0.37254901960784315)" d="M23 36h1" />
<path stroke="rgba(43,31,31,0.7411764705882353)" d="M5 37h1" />
<path stroke="rgba(28,24,24,0.9490196078431372)" d="M6 37h1M11 37h1" />
<path stroke="#1b1b1b" d="M7 37h1" />
<path stroke="#1e1e1e" d="M8 37h2" />
<path stroke="#1c1c1c" d="M10 37h1" />
<path stroke="rgba(33,24,24,0.8980392156862745)" d="M13 37h4" />
<path stroke="rgba(45,32,32,0.7176470588235294)" d="M20 37h1" />
<path stroke="rgba(54,27,27,0.07450980392156863)" d="M5 38h1" />
<path stroke="rgba(42,28,28,0.4235294117647059)" d="M6 38h1" />
<path stroke="rgba(41,29,29,0.7490196078431373)" d="M7 38h1" />
<path stroke="rgba(41,29,29,0.803921568627451)" d="M8 38h1" />
<path stroke="rgba(42,30,30,0.8549019607843137)" d="M9 38h2" />
<path stroke="rgba(44,31,31,0.8431372549019608)" d="M11 38h1" />
<path stroke="rgba(46,32,32,0.7843137254901961)" d="M17 38h1" />
<path stroke="rgba(47,32,32,0.6862745098039216)" d="M18 38h1" />
<path stroke="rgba(47,33,33,0.5529411764705883)" d="M19 38h1" />
<path stroke="rgba(45,30,30,0.2)" d="M20 38h1" />
<path stroke="rgba(45,38,38,0.1568627450980392)" d="M8 39h1" />
<path stroke="rgba(46,31,31,0.41568627450980394)" d="M9 39h8" />
<path stroke="rgba(45,32,32,0.1568627450980392)" d="M17 39h1" />
</svg>