<svg xmlns="http://www.w3.org/2000/svg" viewBox="0 -0.5 26 43" shape-rendering="crispEdges">
<metadata>Made with Pixels to Svg https://codepen.io/shshaw/pen/XbxvNj</metadata>
<path stroke="rgba(0,0,0,0.023529411764705882)" d="M10 3h1" />
<path stroke="rgba(7,0,0,0.5764705882352941)" d="M11 3h1" />
<path stroke="rgba(14,2,0,0.5764705882352941)" d="M12 3h1M15 3h1" />
<path stroke="rgba(17,2,0,0.5764705882352941)" d="M13 3h1" />
<path stroke="rgba(23,3,0,0.5764705882352941)" d="M14 3h1" />
<path stroke="rgba(0,0,0,0.3803921568627451)" d="M16 3h1" />
<path stroke="rgba(2,0,0,0.6274509803921569)" d="M9 4h1" />
<path stroke="rgba(1,0,0,0.9647058823529412)" d="M10 4h1M17 4h1" />
<path stroke="#0e0100" d="M11 4h3M19 17h1M6 18h1" />
<path stroke="#2a0800" d="M14 4h1M14 6h1M10 7h1" />
<path stroke="#5b1800" d="M15 4h1M18 7h1" />
<path stroke="rgba(41,9,0,0.9882352941176471)" d="M16 4h1" />
<path stroke="rgba(4,0,0,0.5215686274509804)" d="M8 5h1" />
<path stroke="#0b0100" d="M9 5h1M9 11h1" />
<path stroke="#160300" d="M10 5h1M14 5h1M9 7h1M7 8h2M20 13h1" />
<path stroke="#280700" d="M11 5h1" />
<path stroke="#3e0f00" d="M12 5h1" />
<path stroke="#300a00" d="M13 5h1M7 13h1" />
<path stroke="#2d0900" d="M15 5h1" />
<path stroke="#471100" d="M16 5h1M19 8h1" />
<path stroke="#330a00" d="M17 5h1" />
<path stroke="rgba(13,2,0,0.9215686274509803)" d="M18 5h1" />
<path stroke="rgba(0,0,0,0.17254901960784313)" d="M19 5h1" />
<path stroke="rgba(2,0,0,0.6431372549019608)" d="M7 6h1" />
<path stroke="#100200" d="M8 6h1M6 11h1" />
<path stroke="#1e0500" d="M9 6h1M7 11h1" />
<path stroke="#250600" d="M10 6h1" />
<path stroke="#451000" d="M11 6h1" />
<path stroke="#631b00" d="M12 6h1" />
<path stroke="#400f00" d="M13 6h1" />
<path stroke="#551600" d="M15 6h1" />
<path stroke="#3b0d00" d="M16 6h1" />
<path stroke="#511400" d="M17 6h1M15 8h1M18 8h1" />
<path stroke="#350b00" d="M18 6h1M8 10h1" />
<path stroke="rgba(16,2,0,0.8666666666666667)" d="M19 6h1" />
<path stroke="rgba(0,0,0,0.08627450980392157)" d="M20 6h1" />
<path stroke="rgba(0,0,0,0.058823529411764705)" d="M6 7h1" />
<path stroke="rgba(2,0,0,0.8980392156862745)" d="M7 7h1" />
<path stroke="#150300" d="M8 7h1" />
<path stroke="#6b1d00" d="M11 7h1M19 9h1" />
<path stroke="#772201" d="M12 7h1" />
<path stroke="#4d1300" d="M13 7h1" />
<path stroke="#200500" d="M14 7h1" />
<path stroke="#591700" d="M15 7h1M19 10h1" />
<path stroke="#661c01" d="M16 7h1" />
<path stroke="#6a1d01" d="M17 7h1" />
<path stroke="#230700" d="M19 7h1" />
<path stroke="rgba(5,0,0,0.2196078431372549)" d="M20 7h1" />
<path stroke="rgba(0,0,0,0.4980392156862745)" d="M6 8h1M6 9h1" />
<path stroke="#260700" d="M9 8h1" />
<path stroke="#4f1300" d="M10 8h1" />
<path stroke="#4f1400" d="M11 8h1M11 10h1" />
<path stroke="#5c1800" d="M12 8h1" />
<path stroke="#4a1200" d="M13 8h1" />
<path stroke="#541600" d="M14 8h1" />
<path stroke="#501500" d="M16 8h1" />
<path stroke="#6d1e00" d="M17 8h1" />
<path stroke="#070100" d="M20 8h1M18 14h1" />
<path stroke="#0f0100" d="M7 9h1" />
<path stroke="#1a0400" d="M8 9h1" />
<path stroke="#501400" d="M9 9h1" />
<path stroke="#160400" d="M10 9h1" />
<path stroke="#2a0a00" d="M11 9h1" />
<path stroke="#722001" d="M12 9h1" />
<path stroke="#240700" d="M13 9h1" />
<path stroke="#1e0600" d="M14 9h1" />
<path stroke="#742101" d="M15 9h1" />
<path stroke="#2f0900" d="M16 9h1" />
<path stroke="#5a1700" d="M17 9h1M10 12h1" />
<path stroke="#712001" d="M18 9h1" />
<path stroke="#0e0400" d="M20 9h1" />
<path stroke="rgba(0,0,0,0.03137254901960784)" d="M5 10h1" />
<path stroke="rgba(8,2,0,0.6313725490196078)" d="M6 10h1" />
<path stroke="#190400" d="M7 10h1M9 12h1M21 19h1" />
<path stroke="#2f0a00" d="M9 10h1" />
<path stroke="#030100" d="M10 10h1" />
<path stroke="#2a0900" d="M12 10h1" />
<path stroke="#67574c" d="M13 10h1" />
<path stroke="#6f5a4e" d="M14 10h1" />
<path stroke="#5f1a01" d="M15 10h1" />
<path stroke="#340b00" d="M16 10h1" />
<path stroke="#310a00" d="M17 10h1M18 11h1M19 12h1" />
<path stroke="#551500" d="M18 10h1" />
<path stroke="#1c0700" d="M20 10h1" />
<path stroke="rgba(0,0,0,0.19607843137254902)" d="M21 10h1" />
<path stroke="rgba(3,0,0,0.6941176470588235)" d="M5 11h1" />
<path stroke="#270700" d="M8 11h1" />
<path stroke="#2d0a00" d="M10 11h1" />
<path stroke="#461200" d="M11 11h1" />
<path stroke="#897263" d="M12 11h1" />
<path stroke="#f9d5ba" d="M13 11h1M13 12h2M13 13h2M13 14h1M13 15h2M13 16h2M12 17h4M5 25h1M5 26h1M5 27h1M20 27h1" />
<path stroke="#c8ab95" d="M14 11h1" />
<path stroke="#130805" d="M15 11h1" />
<path stroke="#2e0900" d="M16 11h1" />
<path stroke="#1c0400" d="M17 11h1" />
<path stroke="#501300" d="M19 11h1" />
<path stroke="#541500" d="M20 11h1" />
<path stroke="rgba(20,3,0,0.9058823529411765)" d="M21 11h1" />
<path stroke="rgba(0,0,0,0.22745098039215686)" d="M22 11h1" />
<path stroke="rgba(34,26,34,0.11764705882352941)" d="M5 12h1" />
<path stroke="#140c0f" d="M6 12h1" />
<path stroke="#030000" d="M7 12h1" />
<path stroke="#020000" d="M8 12h1M19 14h1" />
<path stroke="#180602" d="M11 12h1" />
<path stroke="#cbae97" d="M12 12h1" />
<path stroke="#f8d3b8" d="M15 12h1" />
<path stroke="#1c0805" d="M16 12h1" />
<path stroke="#0b0200" d="M17 12h1" />
<path stroke="#100100" d="M18 12h1" />
<path stroke="#090200" d="M20 12h1" />
<path stroke="rgba(1,0,0,0.7411764705882353)" d="M21 12h1" />
<path stroke="rgba(0,0,0,0.011764705882352941)" d="M22 12h1M22 30h1" />
<path stroke="rgba(17,8,17,0.11764705882352941)" d="M5 13h1M20 16h1" />
<path stroke="#130707" d="M6 13h1" />
<path stroke="#300900" d="M8 13h1" />
<path stroke="#290900" d="M9 13h1" />
<path stroke="#170401" d="M10 13h1" />
<path stroke="#865543" d="M11 13h1" />
<path stroke="#f5ccae" d="M12 13h1" />
<path stroke="#e5a67e" d="M15 13h1" />
<path stroke="#a26d60" d="M16 13h1" />
<path stroke="#270a07" d="M17 13h1" />
<path stroke="#0f0200" d="M18 13h1" />
<path stroke="#120200" d="M19 13h1" />
<path stroke="rgba(15,9,11,0.8862745098039215)" d="M21 13h1" />
<path stroke="rgba(0,0,0,0.2)" d="M22 13h1" />
<path stroke="rgba(42,42,42,0.023529411764705882)" d="M5 14h1" />
<path stroke="rgba(34,22,27,0.596078431372549)" d="M6 14h1" />
<path stroke="#0a0303" d="M7 14h1" />
<path stroke="#0d0300" d="M8 14h1" />
<path stroke="#2f717c" d="M9 14h1" />
<path stroke="#21151a" d="M10 14h1" />
<path stroke="#516870" d="M11 14h1" />
<path stroke="#d0b397" d="M12 14h1" />
<path stroke="#efbe9d" d="M14 14h1" />
<path stroke="#71cad4" d="M15 14h1" />
<path stroke="#3d2125" d="M16 14h1" />
<path stroke="#418695" d="M17 14h1" />
<path stroke="#010000" d="M20 14h1" />
<path stroke="rgba(35,21,28,0.1411764705882353)" d="M21 14h1" />
<path stroke="rgba(40,25,32,0.403921568627451)" d="M6 15h1" />
<path stroke="rgba(177,127,99,0.9764705882352941)" d="M7 15h1" />
<path stroke="#995246" d="M8 15h1" />
<path stroke="#e9cfc1" d="M9 15h1" />
<path stroke="#29232d" d="M10 15h1" />
<path stroke="#90aec5" d="M11 15h1" />
<path stroke="#f8dbc6" d="M12 15h1" />
<path stroke="#f2f6f6" d="M15 15h1" />
<path stroke="#3e5a76" d="M16 15h1" />
<path stroke="#bcb8b7" d="M17 15h1" />
<path stroke="#cc8769" d="M18 15h1" />
<path stroke="#a16250" d="M19 15h1" />
<path stroke="rgba(28,19,14,0.8313725490196079)" d="M20 15h1" />
<path stroke="rgba(2,0,0,0.5882352941176471)" d="M21 15h1" />
<path stroke="rgba(17,10,14,0.8823529411764706)" d="M7 16h1" />
<path stroke="#331616" d="M8 16h1" />
<path stroke="#b98771" d="M9 16h1" />
<path stroke="#a1958b" d="M10 16h1M16 16h1" />
<path stroke="#c5b6aa" d="M11 16h1" />
<path stroke="#f8d8bf" d="M12 16h1" />
<path stroke="#f6e3d3" d="M15 16h1" />
<path stroke="#d9af93" d="M17 16h1" />
<path stroke="#502728" d="M18 16h1" />
<path stroke="#150b0d" d="M19 16h1" />
<path stroke="rgba(0,0,0,0.4823529411764706)" d="M6 17h1" />
<path stroke="rgba(31,5,0,0.996078431372549)" d="M7 17h1" />
<path stroke="#150809" d="M8 17h1" />
<path stroke="#733634" d="M9 17h1" />
<path stroke="#cf8a69" d="M10 17h1" />
<path stroke="#edba98" d="M11 17h1" />
<path stroke="#dd9c77" d="M16 17h1" />
<path stroke="#a9584a" d="M17 17h1" />
<path stroke="#24161c" d="M18 17h1" />
<path stroke="rgba(2,0,0,0.9647058823529412)" d="M20 17h1" />
<path stroke="rgba(2,0,0,0.42745098039215684)" d="M5 18h1" />
<path stroke="#3a131d" d="M7 18h1" />
<path stroke="#4d243f" d="M8 18h1" />
<path stroke="#4a243e" d="M9 18h1" />
<path stroke="#a54651" d="M10 18h1" />
<path stroke="#8e4b42" d="M11 18h1" />
<path stroke="#c77e63" d="M12 18h1" />
<path stroke="#d8a28e" d="M13 18h1" />
<path stroke="#d08f77" d="M14 18h1" />
<path stroke="#bb6f57" d="M15 18h1" />
<path stroke="#81393e" d="M16 18h1" />
<path stroke="#6a3046" d="M17 18h1" />
<path stroke="#542742" d="M18 18h1" />
<path stroke="#502236" d="M19 18h1" />
<path stroke="#1c0605" d="M20 18h1" />
<path stroke="rgba(5,0,0,0.8235294117647058)" d="M21 18h1" />
<path stroke="rgba(9,0,0,0.34901960784313724)" d="M22 18h1" />
<path stroke="rgba(0,0,0,0.33725490196078434)" d="M23 18h1" />
<path stroke="rgba(3,0,0,0.3568627450980392)" d="M5 19h1" />
<path stroke="#4e1f2d" d="M6 19h1" />
<path stroke="#c75c7c" d="M7 19h1" />
<path stroke="#e87a90" d="M8 19h1" />
<path stroke="#a34f72" d="M9 19h1" />
<path stroke="#dc6585" d="M10 19h1" />
<path stroke="#674441" d="M11 19h1" />
<path stroke="#c2785d" d="M12 19h1M7 23h1" />
<path stroke="#be745a" d="M13 19h2" />
<path stroke="#cf896a" d="M15 19h1" />
<path stroke="#602f46" d="M16 19h1" />
<path stroke="#ca577f" d="M17 19h1M17 23h1M13 27h1" />
<path stroke="#c6567e" d="M18 19h1" />
<path stroke="#ee7c92" d="M19 19h1" />
<path stroke="#bf596d" d="M20 19h1" />
<path stroke="#070000" d="M22 19h1" />
<path stroke="rgba(0,0,0,0.25882352941176473)" d="M23 19h1" />
<path stroke="#25152a" d="M5 20h1" />
<path stroke="#9e446e" d="M6 20h1" />
<path stroke="#e66a8a" d="M7 20h1M11 21h1" />
<path stroke="#f57a92" d="M8 20h1" />
<path stroke="#d66486" d="M9 20h1" />
<path stroke="#ee708d" d="M10 20h1" />
<path stroke="#934063" d="M11 20h1" />
<path stroke="#b77f6a" d="M12 20h1" />
<path stroke="#cf8968" d="M13 20h1" />
<path stroke="#d0906f" d="M14 20h1" />
<path stroke="#522842" d="M15 20h1" />
<path stroke="#d55f83" d="M16 20h1" />
<path stroke="#ce5a80" d="M17 20h1M17 21h1M17 22h1" />
<path stroke="#ed718e" d="M18 20h1" />
<path stroke="#fe8a9a" d="M19 20h1" />
<path stroke="#fd8999" d="M20 20h1" />
<path stroke="#160a0d" d="M21 20h1" />
<path stroke="rgba(3,3,3,0.34901960784313724)" d="M22 20h1" />
<path stroke="rgba(43,23,45,0.5568627450980392)" d="M5 21h1" />
<path stroke="#83395d" d="M6 21h1" />
<path stroke="#bc4f79" d="M7 21h1" />
<path stroke="#d36785" d="M8 21h1" />
<path stroke="#bb5179" d="M9 21h1" />
<path stroke="#f0718e" d="M10 21h1M16 21h1M20 21h1M13 23h2M13 24h1M13 25h2M13 26h1" />
<path stroke="#5b2a47" d="M12 21h1" />
<path stroke="#eebc9b" d="M13 21h1" />
<path stroke="#886062" d="M14 21h1" />
<path stroke="#d25e81" d="M15 21h1" />
<path stroke="#a44971" d="M18 21h1" />
<path stroke="#f47891" d="M19 21h1" />
<path stroke="rgba(117,58,80,0.8627450980392157)" d="M21 21h1" />
<path stroke="rgba(28,17,34,0.17647058823529413)" d="M22 21h1" />
<path stroke="rgba(51,29,36,0.8980392156862745)" d="M5 22h1" />
<path stroke="#672e3b" d="M6 22h1" />
<path stroke="#4b233f" d="M7 22h1" />
<path stroke="#692f4f" d="M8 22h1" />
<path stroke="#be507a" d="M9 22h1" />
<path stroke="#f0728e" d="M10 22h1" />
<path stroke="#f87f95" d="M11 22h1" />
<path stroke="#df6986" d="M12 22h1" />
<path stroke="#533347" d="M13 22h1" />
<path stroke="#a2516b" d="M14 22h1" />
<path stroke="#ef718e" d="M15 22h1" />
<path stroke="#f98095" d="M16 22h1" />
<path stroke="#ac4971" d="M18 22h1" />
<path stroke="#522742" d="M19 22h2" />
<path stroke="rgba(114,52,51,0.9686274509803922)" d="M21 22h1" />
<path stroke="rgba(39,26,32,0.30980392156862746)" d="M22 22h1" />
<path stroke="rgba(41,25,31,0.19607843137254902)" d="M4 23h1" />
<path stroke="#624139" d="M5 23h1" />
<path stroke="#d89570" d="M6 23h1" />
<path stroke="#572745" d="M8 23h1" />
<path stroke="#b54c75" d="M9 23h1" />
<path stroke="#e46989" d="M10 23h1" />
<path stroke="#fb8597" d="M11 23h1" />
<path stroke="#f27590" d="M12 23h1" />
<path stroke="#fb8497" d="M15 23h1" />
<path stroke="#f37b92" d="M16 23h1" />
<path stroke="#923f63" d="M18 23h1" />
<path stroke="#84514e" d="M19 23h1" />
<path stroke="#e1a079" d="M20 23h1" />
<path stroke="#a46e57" d="M21 23h1" />
<path stroke="rgba(40,26,32,0.34901960784313724)" d="M22 23h1M22 24h1M3 25h1M3 26h1M3 27h1" />
<path stroke="rgba(38,25,32,0.7294117647058823)" d="M4 24h1" />
<path stroke="#e9b798" d="M5 24h1" />
<path stroke="#c77f63" d="M6 24h1" />
<path stroke="#9b453e" d="M7 24h1" />
<path stroke="#2c1929" d="M8 24h1" />
<path stroke="#532642" d="M9 24h1" />
<path stroke="#8d3e68" d="M10 24h1" />
<path stroke="#9d496e" d="M11 24h1" />
<path stroke="#c7587e" d="M12 24h1" />
<path stroke="#de6587" d="M14 24h1" />
<path stroke="#9f496f" d="M15 24h1" />
<path stroke="#97456c" d="M16 24h1" />
<path stroke="#743356" d="M17 24h1" />
<path stroke="#27162a" d="M18 24h1" />
<path stroke="#6d3a39" d="M19 24h1" />
<path stroke="#dd9b76" d="M20 24h1" />
<path stroke="#bb9681" d="M21 24h1" />
<path stroke="#a16b55" d="M4 25h1" />
<path stroke="#e3af91" d="M6 25h1" />
<path stroke="#a14d43" d="M7 25h1" />
<path stroke="#231721" d="M8 25h1" />
<path stroke="#311931" d="M9 25h1" />
<path stroke="#bb4f79" d="M10 25h1" />
<path stroke="#93406a" d="M11 25h1" />
<path stroke="#e66b8a" d="M12 25h1" />
<path stroke="#c0517b" d="M15 25h1" />
<path stroke="#8e3e68" d="M16 25h1" />
<path stroke="#602b4a" d="M17 25h1" />
<path stroke="#1c1223" d="M18 25h1" />
<path stroke="#612f2f" d="M19 25h1" />
<path stroke="#dc9b78" d="M20 25h1" />
<path stroke="#e0af9a" d="M21 25h1" />
<path stroke="#4f282a" d="M22 25h1" />
<path stroke="#c0a290" d="M4 26h1" />
<path stroke="#e5b69f" d="M6 26h1" />
<path stroke="#d59371" d="M7 26h1" />
<path stroke="#1e1117" d="M8 26h1" />
<path stroke="#27162b" d="M9 26h1" />
<path stroke="#512647" d="M10 26h1" />
<path stroke="#9f446e" d="M11 26h1" />
<path stroke="#c85a7e" d="M12 26h1" />
<path stroke="#e56989" d="M14 26h1" />
<path stroke="#75355f" d="M15 26h1" />
<path stroke="#984168" d="M16 26h1" />
<path stroke="#361b35" d="M17 26h1" />
<path stroke="#261723" d="M18 26h1" />
<path stroke="#a27161" d="M19 26h1" />
<path stroke="#f8decd" d="M20 26h1" />
<path stroke="#f0d4c7" d="M21 26h1" />
<path stroke="#64433b" d="M22 26h1" />
<path stroke="#884c46" d="M4 27h1" />
<path stroke="#c98b7b" d="M6 27h1" />
<path stroke="#a65247" d="M7 27h1" />
<path stroke="#140703" d="M8 27h1" />
<path stroke="#150907" d="M9 27h1" />
<path stroke="#b88469" d="M10 27h1" />
<path stroke="#331b31" d="M11 27h1" />
<path stroke="#a4466c" d="M12 27h1" />
<path stroke="#c5547d" d="M14 27h1" />
<path stroke="#301a31" d="M15 27h1" />
<path stroke="#684247" d="M16 27h1" />
<path stroke="#432b22" d="M17 27h1" />
<path stroke="#392427" d="M18 27h1" />
<path stroke="#dea78b" d="M19 27h1" />
<path stroke="#f9e3d8" d="M21 27h1" />
<path stroke="#6f5751" d="M22 27h1" />
<path stroke="rgba(39,26,32,0.5882352941176471)" d="M4 28h1" />
<path stroke="#b17960" d="M5 28h1" />
<path stroke="#c89d84" d="M6 28h1" />
<path stroke="#28160d" d="M7 28h1" />
<path stroke="#3c1605" d="M8 28h1" />
<path stroke="#5a2108" d="M9 28h1" />
<path stroke="#270e03" d="M10 28h1" />
<path stroke="#190701" d="M11 28h1" />
<path stroke="#1c0e17" d="M12 28h1" />
<path stroke="#2a161e" d="M13 28h1" />
<path stroke="#1e111d" d="M14 28h1" />
<path stroke="#1b0602" d="M15 28h1" />
<path stroke="#190901" d="M16 28h1M15 32h1" />
<path stroke="#3e1605" d="M17 28h1" />
<path stroke="#362025" d="M18 28h1" />
<path stroke="#a04b42" d="M19 28h1" />
<path stroke="#eec4ab" d="M20 28h1" />
<path stroke="#eabca1" d="M21 28h1" />
<path stroke="#5d3a35" d="M22 28h1" />
<path stroke="rgba(38,26,31,0.4235294117647059)" d="M5 29h2" />
<path stroke="rgba(21,8,2,0.9333333333333333)" d="M7 29h1" />
<path stroke="#6a2c11" d="M8 29h1" />
<path stroke="#3b1504" d="M9 29h1" />
<path stroke="#762c0c" d="M10 29h1" />
<path stroke="#360701" d="M11 29h1" />
<path stroke="#2d0a02" d="M12 29h1" />
<path stroke="#702a0b" d="M13 29h1" />
<path stroke="#351304" d="M14 29h1M16 30h1M11 31h1" />
<path stroke="#380000" d="M15 29h1" />
<path stroke="#2f1003" d="M16 29h1" />
<path stroke="#2d1003" d="M17 29h1" />
<path stroke="#382326" d="M18 29h1" />
<path stroke="#be735c" d="M19 29h1" />
<path stroke="#f3caaf" d="M20 29h1" />
<path stroke="#ba8670" d="M21 29h1" />
<path stroke="rgba(66,36,39,0.6196078431372549)" d="M22 29h1" />
<path stroke="rgba(45,31,31,0.28627450980392155)" d="M6 30h1M6 38h1" />
<path stroke="rgba(22,8,3,0.9490196078431372)" d="M7 30h1" />
<path stroke="#873b1a" d="M8 30h1" />
<path stroke="#2f1103" d="M9 30h1" />
<path stroke="#9a4520" d="M10 30h1" />
<path stroke="#3d0701" d="M11 30h1" />
<path stroke="#300a02" d="M12 30h1" />
<path stroke="#722a0b" d="M13 30h1" />
<path stroke="#381404" d="M14 30h1" />
<path stroke="#5a0000" d="M15 30h1" />
<path stroke="#311103" d="M17 30h1" />
<path stroke="#6d2a0f" d="M18 30h1" />
<path stroke="#2d1d22" d="M19 30h1" />
<path stroke="#2f2026" d="M20 30h1" />
<path stroke="rgba(45,28,35,0.7411764705882353)" d="M21 30h1" />
<path stroke="rgba(47,34,34,0.14901960784313725)" d="M4 31h1" />
<path stroke="rgba(47,32,32,0.596078431372549)" d="M5 31h1M21 31h1M21 32h2M3 33h2M22 33h2M3 34h2M22 34h2M3 35h2M22 35h2M21 36h2M5 37h1M21 37h1" />
<path stroke="rgba(47,31,31,0.6352941176470588)" d="M6 31h1M6 37h1" />
<path stroke="rgba(22,9,3,0.9607843137254902)" d="M7 31h1" />
<path stroke="#524605" d="M8 31h1" />
<path stroke="#6a2d12" d="M9 31h1" />
<path stroke="#7e4b0b" d="M10 31h1" />
<path stroke="#883d1c" d="M12 31h1" />
<path stroke="#7a450b" d="M13 31h1" />
<path stroke="#4e1c07" d="M14 31h1" />
<path stroke="#260d02" d="M15 31h1" />
<path stroke="#844014" d="M16 31h1" />
<path stroke="#4b2306" d="M17 31h1M16 32h1" />
<path stroke="#271502" d="M18 31h1" />
<path stroke="#3c3204" d="M19 31h1" />
<path stroke="rgba(42,28,26,0.6431372549019608)" d="M20 31h1" />
<path stroke="rgba(47,32,32,0.3411764705882353)" d="M22 31h1M22 37h1" />
<path stroke="rgba(46,33,33,0.15294117647058825)" d="M3 32h1M3 36h1M4 37h1" />
<path stroke="rgba(47,33,33,0.5529411764705883)" d="M4 32h1M4 36h1" />
<path stroke="rgba(47,32,32,0.615686274509804)" d="M5 32h1M5 36h1" />
<path stroke="rgba(46,32,32,0.803921568627451)" d="M6 32h1M6 36h1" />
<path stroke="rgba(39,25,24,0.8745098039215686)" d="M7 32h1" />
<path stroke="rgba(24,11,6,0.9686274509803922)" d="M8 32h1" />
<path stroke="rgba(44,20,10,0.9568627450980393)" d="M9 32h1" />
<path stroke="#603907" d="M10 32h1" />
<path stroke="#1d0a02" d="M11 32h1" />
<path stroke="#331508" d="M12 32h1" />
<path stroke="#783f0b" d="M13 32h1" />
<path stroke="#3a1505" d="M14 32h1" />
<path stroke="#3a1b04" d="M17 32h1" />
<path stroke="rgba(36,22,20,0.8941176470588236)" d="M18 32h1" />
<path stroke="rgba(29,15,12,0.9411764705882353)" d="M19 32h1" />
<path stroke="rgba(45,31,31,0.7843137254901961)" d="M20 32h1" />
<path stroke="rgba(48,31,31,0.4196078431372549)" d="M23 32h1M23 36h1" />
<path stroke="rgba(45,32,32,0.8352941176470589)" d="M5 33h4M19 33h2M5 34h3M20 34h1M5 35h3M20 35h1M7 36h1M14 38h2" />
<path stroke="rgba(41,28,32,0.9411764705882353)" d="M9 33h1" />
<path stroke="#331e13" d="M10 33h1" />
<path stroke="#e3a37b" d="M11 33h1" />
<path stroke="#4b3331" d="M12 33h1" />
<path stroke="rgba(22,9,4,0.984313725490196)" d="M13 33h1" />
<path stroke="#652e27" d="M14 33h1" />
<path stroke="#e1a07a" d="M15 33h1" />
<path stroke="#a6795d" d="M16 33h1" />
<path stroke="#a36d52" d="M17 33h1" />
<path stroke="rgba(40,26,32,0.9803921568627451)" d="M18 33h1" />
<path stroke="rgba(45,32,32,0.7725490196078432)" d="M21 33h1M21 34h1M21 35h1" />
<path stroke="rgba(46,32,32,0.34509803921568627)" d="M24 33h1M24 34h1M24 35h1M16 39h2" />
<path stroke="rgba(44,31,33,0.8588235294117647)" d="M8 34h1" />
<path stroke="rgba(96,63,56,0.9725490196078431)" d="M9 34h1" />
<path stroke="#e4a47c" d="M10 34h1" />
<path stroke="#da9772" d="M11 34h1" />
<path stroke="#753f39" d="M12 34h1" />
<path stroke="rgba(42,28,32,0.9333333333333333)" d="M13 34h1" />
<path stroke="#8d614f" d="M14 34h1" />
<path stroke="#9b7a65" d="M15 34h1" />
<path stroke="#a39183" d="M16 34h1" />
<path stroke="#9b7f6d" d="M17 34h1" />
<path stroke="rgba(58,51,54,0.9921568627450981)" d="M18 34h1" />
<path stroke="rgba(55,45,45,0.8745098039215686)" d="M19 34h1" />
<path stroke="rgba(73,72,72,0.984313725490196)" d="M8 35h1" />
<path stroke="#726c69" d="M9 35h1" />
<path stroke="#8a827e" d="M10 35h1" />
<path stroke="#89817d" d="M11 35h1" />
<path stroke="#827977" d="M12 35h1" />
<path stroke="#271920" d="M13 35h1" />
<path stroke="#473d3d" d="M14 35h1" />
<path stroke="#4e4d4d" d="M15 35h1" />
<path stroke="#4d4d4d" d="M16 35h3M15 36h1" />
<path stroke="rgba(62,57,57,0.9176470588235294)" d="M19 35h1" />
<path stroke="#474747" d="M8 36h1" />
<path stroke="#747474" d="M9 36h1" />
<path stroke="#a4a4a4" d="M10 36h2" />
<path stroke="#8e8e8e" d="M12 36h1" />
<path stroke="rgba(71,69,69,0.9686274509803922)" d="M13 36h1" />
<path stroke="rgba(60,55,55,0.9294117647058824)" d="M14 36h1" />
<path stroke="#717171" d="M16 36h2" />
<path stroke="#4c4c4c" d="M18 36h1" />
<path stroke="rgba(58,52,52,0.9176470588235294)" d="M19 36h1" />
<path stroke="rgba(46,32,32,0.7764705882352941)" d="M20 36h1" />
<path stroke="rgba(45,32,32,0.8156862745098039)" d="M7 37h1" />
<path stroke="#313131" d="M8 37h1" />
<path stroke="#6f6f6f" d="M9 37h1" />
<path stroke="#8b8b8b" d="M10 37h3" />
<path stroke="rgba(55,53,53,0.9686274509803922)" d="M13 37h1" />
<path stroke="rgba(46,36,36,0.8666666666666667)" d="M14 37h1" />
<path stroke="rgba(56,56,56,0.996078431372549)" d="M15 37h1" />
<path stroke="#393939" d="M16 37h2" />
<path stroke="rgba(56,55,55,0.9882352941176471)" d="M18 37h1" />
<path stroke="rgba(46,36,36,0.7843137254901961)" d="M19 37h1" />
<path stroke="rgba(46,31,31,0.6039215686274509)" d="M20 37h1" />
<path stroke="rgba(47,31,31,0.5764705882352941)" d="M7 38h1M18 38h3" />
<path stroke="rgba(47,37,37,0.6823529411764706)" d="M8 38h1" />
<path stroke="rgba(46,46,46,0.9882352941176471)" d="M9 38h1" />
<path stroke="#2e2e2e" d="M10 38h3" />
<path stroke="rgba(46,44,44,0.9647058823529412)" d="M13 38h1" />
<path stroke="rgba(46,33,33,0.8274509803921568)" d="M16 38h2" />
<path stroke="rgba(45,45,45,0.3803921568627451)" d="M9 39h1" />
<path stroke="rgba(47,47,47,0.5764705882352941)" d="M10 39h3" />
<path stroke="rgba(46,33,33,0.4823529411764706)" d="M13 39h3" />
</svg>