<svg xmlns="http://www.w3.org/2000/svg" viewBox="0 -0.5 26 43" shape-rendering="crispEdges">
<metadata>Made with Pixels to Svg https://codepen.io/shshaw/pen/XbxvNj</metadata>
<path stroke="rgba(1,0,0,0.9647058823529412)" d="M10 4h1M15 4h1" />
<path stroke="rgba(15,1,0,0.9647058823529412)" d="M11 4h2M14 4h1" />
<path stroke="rgba(32,5,0,0.9647058823529412)" d="M13 4h1" />
<path stroke="rgba(4,0,0,0.5215686274509804)" d="M8 5h1" />
<path stroke="#050000" d="M9 5h1M18 14h1" />
<path stroke="#160300" d="M10 5h4" />
<path stroke="#420f00" d="M14 5h1M18 12h1" />
<path stroke="#4b1200" d="M15 5h1" />
<path stroke="#130400" d="M16 5h1" />
<path stroke="rgba(8,2,0,0.5215686274509804)" d="M17 5h1" />
<path stroke="rgba(2,0,0,0.6431372549019608)" d="M7 6h1M18 6h1" />
<path stroke="#0b0100" d="M8 6h1M8 12h1" />
<path stroke="#180300" d="M9 6h1" />
<path stroke="#250600" d="M10 6h1" />
<path stroke="#4a1200" d="M11 6h1M14 8h1M8 10h1" />
<path stroke="#531500" d="M12 6h1" />
<path stroke="#0f0100" d="M13 6h1" />
<path stroke="#290800" d="M14 6h1M9 8h1M20 12h1" />
<path stroke="#340b00" d="M15 6h1" />
<path stroke="#3d0d00" d="M16 6h1" />
<path stroke="#230600" d="M17 6h1M8 7h2M18 7h1" />
<path stroke="rgba(0,0,0,0.4980392156862745)" d="M6 7h1M19 7h1" />
<path stroke="#0c0100" d="M7 7h1" />
<path stroke="#451000" d="M10 7h1" />
<path stroke="#621a00" d="M11 7h1M16 8h1" />
<path stroke="#491100" d="M12 7h1" />
<path stroke="#270700" d="M13 7h1" />
<path stroke="#501400" d="M14 7h1" />
<path stroke="#481100" d="M15 7h1M13 9h1" />
<path stroke="#4c1200" d="M16 7h2" />
<path stroke="rgba(0,0,0,0.058823529411764705)" d="M5 8h1M20 8h1" />
<path stroke="rgba(5,0,0,0.7490196078431373)" d="M6 8h1" />
<path stroke="#170300" d="M7 8h1M16 13h1" />
<path stroke="#190300" d="M8 8h1" />
<path stroke="#6c1e00" d="M10 8h2" />
<path stroke="#551500" d="M12 8h1" />
<path stroke="#210600" d="M13 8h1" />
<path stroke="#6b1e00" d="M15 8h1M17 10h1" />
<path stroke="#631a00" d="M17 8h1" />
<path stroke="#3b0d00" d="M18 8h1" />
<path stroke="rgba(12,1,0,0.7490196078431373)" d="M19 8h1" />
<path stroke="rgba(0,0,0,0.11764705882352941)" d="M5 9h1M20 9h1M5 10h1M20 10h1" />
<path stroke="#110300" d="M6 9h1M7 13h1" />
<path stroke="#130200" d="M7 9h1M7 10h1" />
<path stroke="#1b0400" d="M8 9h1" />
<path stroke="#511400" d="M9 9h1M17 9h1" />
<path stroke="#2f0a00" d="M10 9h1M8 11h1" />
<path stroke="#4f1300" d="M11 9h1" />
<path stroke="#5c1800" d="M12 9h1" />
<path stroke="#671c00" d="M14 9h1" />
<path stroke="#2d0900" d="M15 9h1" />
<path stroke="#691d00" d="M16 9h1" />
<path stroke="#6d1e01" d="M18 9h1" />
<path stroke="#1f0600" d="M19 9h1" />
<path stroke="#070000" d="M6 10h1" />
<path stroke="#220700" d="M9 10h1M19 13h1" />
<path stroke="#0e0300" d="M10 10h1" />
<path stroke="#651b00" d="M11 10h1" />
<path stroke="#280900" d="M12 10h1M14 11h1" />
<path stroke="#3d2f29" d="M13 10h1" />
<path stroke="#531601" d="M14 10h1" />
<path stroke="#2f0900" d="M15 10h1" />
<path stroke="#430f00" d="M16 10h1M17 11h1" />
<path stroke="#5b1800" d="M18 10h1" />
<path stroke="#3d1100" d="M19 10h1" />
<path stroke="rgba(4,0,0,0.6941176470588235)" d="M5 11h1" />
<path stroke="#230700" d="M6 11h1" />
<path stroke="#350b00" d="M7 11h1" />
<path stroke="#080100" d="M9 11h1" />
<path stroke="#5c1901" d="M10 11h1" />
<path stroke="#360d00" d="M11 11h1" />
<path stroke="#877263" d="M12 11h1" />
<path stroke="#caac96" d="M13 11h1" />
<path stroke="#400e00" d="M15 11h1" />
<path stroke="#1e0500" d="M16 11h1M18 13h1" />
<path stroke="#541500" d="M18 11h1" />
<path stroke="#3f0f00" d="M19 11h1" />
<path stroke="rgba(9,1,0,0.6941176470588235)" d="M20 11h1" />
<path stroke="rgba(1,0,0,0.7019607843137254)" d="M4 12h1M21 12h1" />
<path stroke="#0f0201" d="M5 12h1" />
<path stroke="#0d0100" d="M6 12h1M19 14h1M5 19h1M20 19h1" />
<path stroke="#200500" d="M7 12h1" />
<path stroke="#2b0900" d="M9 12h1" />
<path stroke="#591700" d="M10 12h1" />
<path stroke="#6a5a4e" d="M11 12h1" />
<path stroke="#f9d5ba" d="M12 12h2M12 13h2M12 14h2M12 16h2M12 17h2M6 28h1" />
<path stroke="#6f5f53" d="M14 12h1" />
<path stroke="#220600" d="M15 12h1" />
<path stroke="#2e0900" d="M16 12h1" />
<path stroke="#1d0400" d="M17 12h1" />
<path stroke="#5d1800" d="M19 12h1" />
<path stroke="#160d10" d="M5 13h1" />
<path stroke="#160400" d="M6 13h1" />
<path stroke="#180400" d="M8 13h1" />
<path stroke="#3f0e00" d="M9 13h1" />
<path stroke="#180602" d="M10 13h1" />
<path stroke="#a1826c" d="M11 13h1" />
<path stroke="#f4c9ab" d="M14 13h1" />
<path stroke="#765f52" d="M15 13h1" />
<path stroke="#0a0100" d="M17 13h1M19 18h1" />
<path stroke="#030000" d="M20 13h1" />
<path stroke="rgba(0,0,0,0.30980392156862746)" d="M21 13h1M22 20h1" />
<path stroke="#1d1217" d="M5 14h1M20 14h1" />
<path stroke="#190400" d="M6 14h1" />
<path stroke="#390c00" d="M7 14h1" />
<path stroke="#2e0a00" d="M8 14h1" />
<path stroke="#0a0200" d="M9 14h1" />
<path stroke="#803a33" d="M10 14h1" />
<path stroke="#edb996" d="M11 14h1M14 14h1" />
<path stroke="#ae6156" d="M15 14h1" />
<path stroke="#592420" d="M16 14h1" />
<path stroke="#1a0400" d="M17 14h1" />
<path stroke="rgba(0,0,0,0.1411764705882353)" d="M21 14h1" />
<path stroke="rgba(42,26,34,0.11764705882352941)" d="M5 15h1" />
<path stroke="#2a1d1c" d="M6 15h1" />
<path stroke="#200f0d" d="M7 15h1M18 15h1" />
<path stroke="#3e5252" d="M8 15h1M17 15h1" />
<path stroke="#405c68" d="M9 15h1M16 15h1" />
<path stroke="#323543" d="M10 15h1M15 15h1" />
<path stroke="#a2c8c3" d="M11 15h1M14 15h1" />
<path stroke="#f6cdb0" d="M12 15h2" />
<path stroke="#160f0c" d="M19 15h1" />
<path stroke="rgba(0,0,0,0.28627450980392155)" d="M20 15h1" />
<path stroke="rgba(39,20,39,0.050980392156862744)" d="M5 16h1" />
<path stroke="rgba(96,66,59,0.7098039215686275)" d="M6 16h1" />
<path stroke="#5b2f2f" d="M7 16h1M18 16h1" />
<path stroke="#c98c79" d="M8 16h1M17 16h1" />
<path stroke="#706d6f" d="M9 16h1M16 16h1" />
<path stroke="#41627c" d="M10 16h1M15 16h1" />
<path stroke="#f5e9de" d="M11 16h1M14 16h1" />
<path stroke="rgba(85,59,49,0.7098039215686275)" d="M19 16h1" />
<path stroke="rgba(0,0,0,0.4235294117647059)" d="M20 16h1" />
<path stroke="rgba(2,0,2,0.4980392156862745)" d="M6 17h1M19 17h1" />
<path stroke="#200601" d="M7 17h1" />
<path stroke="#5d403a" d="M8 17h1M17 17h1" />
<path stroke="#ecc0a2" d="M9 17h1M16 17h1" />
<path stroke="#f1cfb6" d="M10 17h1M15 17h1" />
<path stroke="#f9d6bb" d="M11 17h1M14 17h1" />
<path stroke="#0d0201" d="M18 17h1" />
<path stroke="rgba(2,0,0,0.42745098039215684)" d="M5 18h1M20 18h1" />
<path stroke="#150300" d="M6 18h1" />
<path stroke="#14060b" d="M7 18h1" />
<path stroke="#361d26" d="M8 18h1M17 18h1" />
<path stroke="#9f594a" d="M9 18h1M16 18h1" />
<path stroke="#cb8468" d="M10 18h1M15 18h1" />
<path stroke="#edbea0" d="M11 18h1M14 18h1" />
<path stroke="#f8d2b6" d="M12 18h2" />
<path stroke="#12060b" d="M18 18h1" />
<path stroke="rgba(0,0,0,0.5333333333333333)" d="M4 19h1" />
<path stroke="#5b212d" d="M6 19h1" />
<path stroke="#943f62" d="M7 19h1M18 19h1" />
<path stroke="#944063" d="M8 19h1" />
<path stroke="#aa4868" d="M9 19h1M16 19h1" />
<path stroke="#40202b" d="M10 19h1M15 19h1" />
<path stroke="#a9584a" d="M11 19h1M14 19h1" />
<path stroke="#b2675b" d="M12 19h2" />
<path stroke="#693053" d="M17 19h1" />
<path stroke="#57202d" d="M19 19h1" />
<path stroke="rgba(4,0,0,0.7294117647058823)" d="M21 19h1" />
<path stroke="rgba(5,0,0,0.7294117647058823)" d="M22 19h1" />
<path stroke="rgba(23,12,35,0.08627450980392157)" d="M4 20h1M4 22h1M21 22h1" />
<path stroke="#2c131b" d="M5 20h1" />
<path stroke="#e4728d" d="M6 20h1" />
<path stroke="#ff8c9b" d="M7 20h1" />
<path stroke="#e36889" d="M8 20h1M8 21h1" />
<path stroke="#e06687" d="M9 20h1M16 20h1M9 21h1M16 21h1M9 22h1M16 22h1M9 23h1M16 23h1" />
<path stroke="#341d30" d="M10 20h1M15 20h1" />
<path stroke="#d0906f" d="M11 20h1M14 20h1" />
<path stroke="#cd8766" d="M12 20h2" />
<path stroke="#ee7c92" d="M17 20h1" />
<path stroke="#fd8999" d="M18 20h1" />
<path stroke="#e3708c" d="M19 20h1" />
<path stroke="#340f0f" d="M20 20h1" />
<path stroke="rgba(9,1,0,0.9686274509803922)" d="M21 20h1" />
<path stroke="rgba(26,16,36,0.7294117647058823)" d="M4 21h1" />
<path stroke="#c7567e" d="M5 21h1" />
<path stroke="#f77e94" d="M6 21h1" />
<path stroke="#fe8a9a" d="M7 21h1" />
<path stroke="#d55f83" d="M10 21h1M15 21h1" />
<path stroke="#86485a" d="M11 21h1M14 21h1" />
<path stroke="#cb8b6c" d="M12 21h1" />
<path stroke="#ca8b6c" d="M13 21h1" />
<path stroke="#e9728e" d="M17 21h1" />
<path stroke="#ed6f8d" d="M18 21h1" />
<path stroke="#e8708c" d="M19 21h1" />
<path stroke="#733348" d="M20 21h1" />
<path stroke="rgba(14,8,18,0.7294117647058823)" d="M21 21h1" />
<path stroke="#3f2037" d="M5 22h1" />
<path stroke="#db6386" d="M6 22h1" />
<path stroke="#f1748f" d="M7 22h1" />
<path stroke="#914069" d="M8 22h1M17 22h1" />
<path stroke="#f0718e" d="M10 22h1M15 22h1M12 24h2M12 26h2" />
<path stroke="#a14b68" d="M11 22h1M14 22h1" />
<path stroke="#d3ad9b" d="M12 22h2" />
<path stroke="#ea6d8c" d="M18 22h1" />
<path stroke="#a0466f" d="M19 22h1" />
<path stroke="#371c33" d="M20 22h1" />
<path stroke="#2f1e25" d="M5 23h1" />
<path stroke="#6a414a" d="M6 23h1" />
<path stroke="#42213a" d="M7 23h1" />
<path stroke="#c1517b" d="M8 23h1M17 23h1" />
<path stroke="#ff8b9b" d="M10 23h1M15 23h1" />
<path stroke="#f27590" d="M11 23h1M14 23h1" />
<path stroke="#863f5b" d="M12 23h2" />
<path stroke="#401e38" d="M18 23h1" />
<path stroke="#5d303f" d="M19 23h1" />
<path stroke="#9f5147" d="M20 23h1" />
<path stroke="rgba(38,25,32,0.7294117647058823)" d="M21 23h1M21 24h1M4 25h1M4 26h1M4 27h1M4 28h1" />
<path stroke="rgba(40,25,31,0.47843137254901963)" d="M4 24h1" />
<path stroke="#9e6c57" d="M5 24h1" />
<path stroke="#ebb490" d="M6 24h1" />
<path stroke="#512d40" d="M7 24h1" />
<path stroke="#82385b" d="M8 24h1M17 24h1" />
<path stroke="#cc587f" d="M9 24h1M16 24h1" />
<path stroke="#f57a92" d="M10 24h1M15 24h1" />
<path stroke="#f37691" d="M11 24h1M14 24h1" />
<path stroke="#3f1e36" d="M18 24h1" />
<path stroke="#8e5747" d="M19 24h1" />
<path stroke="#cc8665" d="M20 24h1" />
<path stroke="#e6aa83" d="M5 25h1M10 33h1" />
<path stroke="#efbd9c" d="M6 25h1" />
<path stroke="#432d2d" d="M7 25h1" />
<path stroke="#3c1d37" d="M8 25h1" />
<path stroke="#612c51" d="M9 25h1M16 25h1" />
<path stroke="#71335d" d="M10 25h1M15 25h1" />
<path stroke="#95416b" d="M11 25h1M14 25h1" />
<path stroke="#e76b8a" d="M12 25h2" />
<path stroke="#231429" d="M17 25h1M17 26h1" />
<path stroke="#3a2628" d="M18 25h1" />
<path stroke="#d89671" d="M19 25h1" />
<path stroke="#e4a47c" d="M20 25h1M15 33h1" />
<path stroke="#a06953" d="M21 25h1" />
<path stroke="rgba(40,26,32,0.34901960784313724)" d="M22 25h1M22 26h1M22 27h1" />
<path stroke="#eebd9d" d="M5 26h1" />
<path stroke="#f9dfcd" d="M6 26h1" />
<path stroke="#da9c7a" d="M7 26h1" />
<path stroke="#5d3b39" d="M8 26h1" />
<path stroke="#7a3658" d="M9 26h1" />
<path stroke="#93406a" d="M10 26h1M15 26h1" />
<path stroke="#c1577c" d="M11 26h1M14 26h1" />
<path stroke="#7d375b" d="M16 26h1" />
<path stroke="#36231f" d="M18 26h1" />
<path stroke="#e8ae89" d="M19 26h1" />
<path stroke="#e5a67f" d="M20 26h1" />
<path stroke="#b17f63" d="M21 26h1" />
<path stroke="#f9d8bf" d="M5 27h1" />
<path stroke="#fae3d5" d="M6 27h1" />
<path stroke="#b16457" d="M7 27h1" />
<path stroke="#81403a" d="M8 27h1" />
<path stroke="#291829" d="M9 27h1" />
<path stroke="#be507a" d="M10 27h1M15 27h1" />
<path stroke="#97426b" d="M11 27h1M14 27h1" />
<path stroke="#e96c8b" d="M12 27h2" />
<path stroke="#27162c" d="M16 27h1" />
<path stroke="#1c1224" d="M17 27h1" />
<path stroke="#251009" d="M18 27h1" />
<path stroke="#d09581" d="M19 27h1" />
<path stroke="#f5cdb0" d="M20 27h1" />
<path stroke="#85453d" d="M21 27h1" />
<path stroke="#da9978" d="M5 28h1" />
<path stroke="#b16455" d="M7 28h1" />
<path stroke="#9f6952" d="M8 28h1" />
<path stroke="#27120d" d="M9 28h1" />
<path stroke="#1c101d" d="M10 28h1M15 28h1" />
<path stroke="#56253d" d="M11 28h1M14 28h1" />
<path stroke="#a1456a" d="M12 28h2" />
<path stroke="#2c1003" d="M16 28h1" />
<path stroke="#461906" d="M17 28h1" />
<path stroke="#230c02" d="M18 28h1" />
<path stroke="#6a4835" d="M19 28h1" />
<path stroke="#af745a" d="M20 28h1" />
<path stroke="rgba(39,26,32,0.5882352941176471)" d="M21 28h1" />
<path stroke="rgba(39,26,32,0.30980392156862746)" d="M4 29h1" />
<path stroke="#673937" d="M5 29h1" />
<path stroke="#e6b08f" d="M6 29h1" />
<path stroke="#d99773" d="M7 29h1" />
<path stroke="#5a3931" d="M8 29h1" />
<path stroke="#5c240d" d="M9 29h1" />
<path stroke="#270c02" d="M10 29h1M10 30h1M15 30h1" />
<path stroke="#3b0607" d="M11 29h1" />
<path stroke="#481e15" d="M12 29h1" />
<path stroke="#361712" d="M13 29h1" />
<path stroke="#2f0607" d="M14 29h1" />
<path stroke="#260c02" d="M15 29h1" />
<path stroke="#371304" d="M16 29h1" />
<path stroke="#572008" d="M17 29h1" />
<path stroke="#311103" d="M18 29h1M14 31h1" />
<path stroke="rgba(29,16,15,0.8823529411764706)" d="M19 29h1" />
<path stroke="rgba(39,26,32,0.4627450980392157)" d="M20 29h1" />
<path stroke="rgba(48,31,31,0.4196078431372549)" d="M4 30h1M21 30h1M2 32h1M23 32h1" />
<path stroke="rgba(46,30,32,0.6588235294117647)" d="M5 30h1" />
<path stroke="#2e1e23" d="M6 30h1" />
<path stroke="#2e1d23" d="M7 30h1" />
<path stroke="#261618" d="M8 30h1" />
<path stroke="#743316" d="M9 30h1" />
<path stroke="#460501" d="M11 30h1" />
<path stroke="#69270a" d="M12 30h1" />
<path stroke="#4a1b06" d="M13 30h1" />
<path stroke="#450501" d="M14 30h1" />
<path stroke="#421805" d="M16 30h1" />
<path stroke="#622409" d="M17 30h1" />
<path stroke="#4b1b06" d="M18 30h1" />
<path stroke="rgba(30,16,13,0.796078431372549)" d="M19 30h1M19 31h1" />
<path stroke="rgba(47,31,31,0.5764705882352941)" d="M20 30h1M6 38h1M18 38h2" />
<path stroke="rgba(47,32,32,0.3411764705882353)" d="M3 31h1M22 31h1" />
<path stroke="rgba(47,32,32,0.596078431372549)" d="M4 31h1M20 31h2M3 32h2M21 32h2M3 33h2M21 33h2M3 34h2M21 34h2M3 35h2M21 35h2M4 36h1M21 36h1M20 37h1" />
<path stroke="rgba(46,31,31,0.6039215686274509)" d="M5 31h1M5 37h1" />
<path stroke="rgba(31,17,13,0.8392156862745098)" d="M6 31h1" />
<path stroke="#5b5206" d="M7 31h1M18 31h1" />
<path stroke="#3e1908" d="M8 31h1" />
<path stroke="#864810" d="M9 31h1" />
<path stroke="#401705" d="M10 31h1" />
<path stroke="#592610" d="M11 31h1" />
<path stroke="#864c0f" d="M12 31h1" />
<path stroke="#5a2108" d="M13 31h1" />
<path stroke="#8e3d19" d="M15 31h1" />
<path stroke="#5a3307" d="M16 31h1" />
<path stroke="#280e03" d="M17 31h1" />
<path stroke="rgba(46,32,32,0.7764705882352941)" d="M5 32h1M5 36h1" />
<path stroke="rgba(42,28,28,0.8588235294117647)" d="M6 32h1" />
<path stroke="rgba(22,9,3,0.984313725490196)" d="M7 32h1M18 32h1" />
<path stroke="#261312" d="M8 32h1" />
<path stroke="#512c06" d="M9 32h1" />
<path stroke="#200b02" d="M10 32h1" />
<path stroke="#260f05" d="M11 32h1" />
<path stroke="#713d0b" d="M12 32h1" />
<path stroke="#511e07" d="M13 32h1" />
<path stroke="#1c0a02" d="M14 32h1" />
<path stroke="#2e1104" d="M15 32h1" />
<path stroke="#5e3108" d="M16 32h1" />
<path stroke="rgba(36,21,16,0.9098039215686274)" d="M17 32h1" />
<path stroke="rgba(41,28,27,0.8274509803921568)" d="M19 32h1" />
<path stroke="rgba(47,32,32,0.615686274509804)" d="M20 32h1M20 36h1" />
<path stroke="rgba(47,31,31,0.5725490196078431)" d="M2 33h1M23 33h1M2 34h1M23 34h1M2 35h1M23 35h1" />
<path stroke="rgba(45,32,32,0.8352941176470589)" d="M5 33h2M18 33h2M5 34h2M18 34h2M5 35h2M18 35h2M6 36h1M7 37h1M12 37h1M10 38h3" />
<path stroke="rgba(45,32,32,0.8509803921568627)" d="M7 33h1" />
<path stroke="#67473e" d="M8 33h1" />
<path stroke="#6d4d39" d="M9 33h1" />
<path stroke="#dc9c77" d="M11 33h1" />
<path stroke="#392217" d="M12 33h1" />
<path stroke="rgba(25,12,9,0.984313725490196)" d="M13 33h1" />
<path stroke="#936754" d="M14 33h1" />
<path stroke="#2a1915" d="M16 33h1" />
<path stroke="rgba(43,30,32,0.8784313725490196)" d="M17 33h1" />
<path stroke="rgba(47,32,32,0.6235294117647059)" d="M20 33h1M20 34h1M20 35h1" />
<path stroke="rgba(57,49,52,0.9803921568627451)" d="M7 34h1" />
<path stroke="#906d5c" d="M8 34h1" />
<path stroke="#9f8879" d="M9 34h1" />
<path stroke="#a69486" d="M10 34h1" />
<path stroke="#f0c0a0" d="M11 34h1" />
<path stroke="#4b3432" d="M12 34h1" />
<path stroke="rgba(54,32,35,0.9333333333333333)" d="M13 34h1" />
<path stroke="#a56954" d="M14 34h1" />
<path stroke="#e3a37c" d="M15 34h1" />
<path stroke="#bf8768" d="M16 34h1" />
<path stroke="rgba(65,42,41,0.9411764705882353)" d="M17 34h1" />
<path stroke="rgba(73,72,72,0.9803921568627451)" d="M7 35h1M18 36h1" />
<path stroke="#4d4d4d" d="M8 35h2" />
<path stroke="#4e4e4d" d="M10 35h1" />
<path stroke="#605a57" d="M11 35h1" />
<path stroke="rgba(56,43,43,0.8823529411764706)" d="M12 35h1" />
<path stroke="#60514c" d="M13 35h1" />
<path stroke="#d79470" d="M14 35h1" />
<path stroke="#f6ceb0" d="M15 35h1" />
<path stroke="#efbf9f" d="M16 35h1" />
<path stroke="#593e38" d="M17 35h1" />
<path stroke="rgba(47,33,33,0.49019607843137253)" d="M3 36h1M22 36h1M4 37h1M21 37h1" />
<path stroke="rgba(46,41,41,0.9411764705882353)" d="M7 36h1" />
<path stroke="#454545" d="M8 36h3" />
<path stroke="rgba(59,58,58,0.9803921568627451)" d="M11 36h1" />
<path stroke="rgba(45,35,35,0.8588235294117647)" d="M12 36h1" />
<path stroke="#4f4f4f" d="M13 36h1" />
<path stroke="#757575" d="M14 36h1" />
<path stroke="#888888" d="M15 36h2M17 37h1" />
<path stroke="#676767" d="M17 36h1" />
<path stroke="rgba(46,32,32,0.803921568627451)" d="M19 36h1" />
<path stroke="rgba(43,28,28,0.07058823529411765)" d="M3 37h1M22 37h1" />
<path stroke="rgba(46,32,32,0.7568627450980392)" d="M6 37h1" />
<path stroke="rgba(46,38,38,0.8941176470588236)" d="M8 37h3" />
<path stroke="rgba(46,36,36,0.8666666666666667)" d="M11 37h1" />
<path stroke="#565656" d="M13 37h1" />
<path stroke="#949494" d="M14 37h1" />
<path stroke="#a4a4a4" d="M15 37h2" />
<path stroke="rgba(56,55,55,0.9607843137254902)" d="M18 37h1" />
<path stroke="rgba(47,31,31,0.6392156862745098)" d="M19 37h1" />
<path stroke="rgba(45,30,30,0.06666666666666667)" d="M5 38h1M20 38h1" />
<path stroke="rgba(45,32,32,0.7803921568627451)" d="M7 38h1" />
<path stroke="rgba(46,32,32,0.8117647058823529)" d="M8 38h1" />
<path stroke="rgba(46,33,33,0.8274509803921568)" d="M9 38h1" />
<path stroke="rgba(60,60,60,0.996078431372549)" d="M13 38h1" />
<path stroke="#7b7b7b" d="M14 38h1" />
<path stroke="#9e9e9e" d="M15 38h1" />
<path stroke="#939393" d="M16 38h1" />
<path stroke="rgba(68,68,68,0.9725490196078431)" d="M17 38h1" />
<path stroke="rgba(42,32,32,0.09411764705882353)" d="M8 39h1" />
<path stroke="rgba(46,32,32,0.34509803921568627)" d="M9 39h1" />
<path stroke="rgba(46,33,33,0.4823529411764706)" d="M10 39h3" />
<path stroke="rgba(46,36,36,0.5019607843137255)" d="M13 39h1" />
<path stroke="rgba(47,47,47,0.5764705882352941)" d="M14 39h3" />
<path stroke="rgba(45,45,45,0.1568627450980392)" d="M17 39h1" />
</svg>