<svg xmlns="http://www.w3.org/2000/svg" viewBox="0 -0.5 26 43" shape-rendering="crispEdges">
<metadata>Made with Pixels to Svg https://codepen.io/shshaw/pen/XbxvNj</metadata>
<path stroke="rgba(0,0,0,0.40784313725490196)" d="M11 4h1" />
<path stroke="rgba(1,0,0,0.9647058823529412)" d="M12 4h3" />
<path stroke="rgba(0,0,0,0.0392156862745098)" d="M15 4h1" />
<path stroke="rgba(0,0,0,0.09411764705882353)" d="M8 5h1" />
<path stroke="rgba(0,0,0,0.34901960784313724)" d="M9 5h1M17 5h1" />
<path stroke="#210900" d="M10 5h1" />
<path stroke="#310c00" d="M11 5h1" />
<path stroke="#3c0d00" d="M12 5h2" />
<path stroke="#2e0900" d="M14 5h1" />
<path stroke="#0e0200" d="M15 5h1M5 10h1" />
<path stroke="rgba(5,0,0,0.7725490196078432)" d="M16 5h1" />
<path stroke="rgba(16,4,0,0.803921568627451)" d="M8 6h1" />
<path stroke="#3e0f00" d="M9 6h1" />
<path stroke="#471100" d="M10 6h1" />
<path stroke="#340b00" d="M11 6h1" />
<path stroke="#4c1300" d="M12 6h1" />
<path stroke="#571600" d="M13 6h1" />
<path stroke="#4a1100" d="M14 6h1" />
<path stroke="#390c00" d="M15 6h1" />
<path stroke="#170300" d="M16 6h1M17 7h1M18 8h1" />
<path stroke="#0a0100" d="M17 6h1M19 10h1" />
<path stroke="rgba(2,0,0,0.6431372549019608)" d="M18 6h1" />
<path stroke="rgba(0,0,0,0.058823529411764705)" d="M6 7h1M20 8h1" />
<path stroke="rgba(4,1,0,0.8980392156862745)" d="M7 7h1" />
<path stroke="#350b00" d="M8 7h1" />
<path stroke="#390d00" d="M9 7h1" />
<path stroke="#471000" d="M10 7h1M13 11h1" />
<path stroke="#4f1300" d="M11 7h1" />
<path stroke="#5c1800" d="M12 7h1" />
<path stroke="#732001" d="M13 7h1M15 9h1" />
<path stroke="#5e1900" d="M14 7h1" />
<path stroke="#451000" d="M15 7h1" />
<path stroke="#3a0c00" d="M16 7h1" />
<path stroke="#0c0100" d="M18 7h1M13 12h1" />
<path stroke="rgba(0,0,0,0.4980392156862745)" d="M19 7h1M6 8h1M19 19h1" />
<path stroke="#2c0900" d="M7 8h1M16 10h1M11 11h1" />
<path stroke="#531500" d="M8 8h1" />
<path stroke="#410f00" d="M9 8h1M19 17h1" />
<path stroke="#792301" d="M10 8h1" />
<path stroke="#671c00" d="M11 8h1" />
<path stroke="#521500" d="M12 8h1" />
<path stroke="#551500" d="M13 8h1" />
<path stroke="#631b00" d="M14 8h1M12 9h1" />
<path stroke="#501400" d="M15 8h1" />
<path stroke="#5a1700" d="M16 8h1" />
<path stroke="#300a00" d="M17 8h1" />
<path stroke="rgba(5,0,0,0.7490196078431373)" d="M19 8h1" />
<path stroke="rgba(0,0,0,0.10588235294117647)" d="M5 9h1" />
<path stroke="rgba(17,3,0,0.9411764705882353)" d="M6 9h1" />
<path stroke="#541600" d="M7 9h1" />
<path stroke="#712001" d="M8 9h1" />
<path stroke="#4a1200" d="M9 9h1" />
<path stroke="#491100" d="M10 9h1" />
<path stroke="#792201" d="M11 9h1" />
<path stroke="#240600" d="M13 9h1M15 12h1" />
<path stroke="#421100" d="M14 9h1" />
<path stroke="#1e0500" d="M16 9h1" />
<path stroke="#380c00" d="M17 9h1" />
<path stroke="#210500" d="M18 9h1" />
<path stroke="#070000" d="M19 9h1M19 12h1M19 13h1M19 14h1" />
<path stroke="rgba(0,0,0,0.11764705882352941)" d="M20 9h1M20 10h1M20 11h1M20 12h1M20 13h1M20 14h1M20 16h1" />
<path stroke="rgba(0,0,0,0.19607843137254902)" d="M4 10h1M21 19h1" />
<path stroke="#360b00" d="M6 10h1" />
<path stroke="#651c01" d="M7 10h1" />
<path stroke="#310a00" d="M8 10h1" />
<path stroke="#3d2821" d="M9 10h1" />
<path stroke="#491200" d="M10 10h1M20 18h1" />
<path stroke="#511500" d="M11 10h1M13 10h1" />
<path stroke="#6f1f01" d="M12 10h1" />
<path stroke="#260700" d="M14 10h1" />
<path stroke="#551600" d="M15 10h1" />
<path stroke="#1b0400" d="M17 10h1M17 11h1" />
<path stroke="#1d0400" d="M18 10h1" />
<path stroke="rgba(0,0,0,0.25098039215686274)" d="M4 11h1" />
<path stroke="#130300" d="M5 11h1" />
<path stroke="#400e00" d="M6 11h1" />
<path stroke="#1c0600" d="M7 11h1" />
<path stroke="#3d2721" d="M8 11h1" />
<path stroke="#ddbba3" d="M9 11h1" />
<path stroke="#a38775" d="M10 11h1" />
<path stroke="#2b0900" d="M12 11h1" />
<path stroke="#270700" d="M14 11h1" />
<path stroke="#1f0500" d="M15 11h1M18 16h1" />
<path stroke="#160300" d="M16 11h1" />
<path stroke="#110200" d="M18 11h1" />
<path stroke="#120300" d="M19 11h1M6 12h1" />
<path stroke="rgba(0,0,0,0.15294117647058825)" d="M5 12h1" />
<path stroke="#0e0807" d="M7 12h1" />
<path stroke="#f9d5ba" d="M8 12h3M8 13h2M8 14h2M8 15h2M8 16h2M9 17h1M12 17h1M11 18h1M17 25h1M16 27h1M16 28h1M15 29h1" />
<path stroke="#9a7f6e" d="M11 12h1" />
<path stroke="#360d01" d="M12 12h1" />
<path stroke="#240800" d="M14 12h1" />
<path stroke="#150704" d="M16 12h1" />
<path stroke="#250701" d="M17 12h1" />
<path stroke="#0f0100" d="M18 12h1" />
<path stroke="rgba(5,0,0,0.6274509803921569)" d="M5 13h1" />
<path stroke="#130707" d="M6 13h1" />
<path stroke="#debda6" d="M7 13h1" />
<path stroke="#f0c1a1" d="M10 13h1" />
<path stroke="#f5ccaf" d="M11 13h1" />
<path stroke="#836d5e" d="M12 13h1" />
<path stroke="#150300" d="M13 13h1" />
<path stroke="#46352d" d="M14 13h1" />
<path stroke="#614635" d="M15 13h1" />
<path stroke="#d39272" d="M16 13h1" />
<path stroke="#7b5644" d="M17 13h1" />
<path stroke="#140300" d="M18 13h1" />
<path stroke="rgba(0,0,0,0.023529411764705882)" d="M5 14h1M20 15h1" />
<path stroke="rgba(34,20,27,0.596078431372549)" d="M6 14h1" />
<path stroke="#d19c7c" d="M7 14h1" />
<path stroke="#cf8a69" d="M10 14h1" />
<path stroke="#aa5a4f" d="M11 14h1M14 28h1" />
<path stroke="#cc896d" d="M12 14h1" />
<path stroke="#bc8c6e" d="M13 14h1" />
<path stroke="#dbad8e" d="M14 14h1" />
<path stroke="#e4a47c" d="M15 14h1M15 16h1M15 17h1M10 33h1M17 33h1" />
<path stroke="#f3cbaf" d="M16 14h1" />
<path stroke="#d89b7c" d="M17 14h1" />
<path stroke="#020000" d="M18 14h1" />
<path stroke="rgba(40,25,32,0.403921568627451)" d="M6 15h1" />
<path stroke="rgba(123,55,52,0.9764705882352941)" d="M7 15h1" />
<path stroke="#2f2d3b" d="M10 15h1" />
<path stroke="#466b77" d="M11 15h1" />
<path stroke="#6fdbee" d="M12 15h1" />
<path stroke="#ebb592" d="M13 15h1" />
<path stroke="#edb996" d="M14 15h1" />
<path stroke="#f4caac" d="M15 15h1" />
<path stroke="#f6d0b4" d="M16 15h1" />
<path stroke="#b98469" d="M17 15h1" />
<path stroke="#050000" d="M18 15h1" />
<path stroke="rgba(12,0,0,0.596078431372549)" d="M19 15h1" />
<path stroke="rgba(39,25,32,0.8823529411764706)" d="M7 16h1M7 17h1M18 27h1" />
<path stroke="#395a75" d="M10 16h1" />
<path stroke="#7d838a" d="M11 16h1" />
<path stroke="#f5e7db" d="M12 16h1" />
<path stroke="#f7d0b3" d="M13 16h1" />
<path stroke="#e8ad87" d="M14 16h1" />
<path stroke="#bb7464" d="M16 16h1" />
<path stroke="#301915" d="M17 16h1" />
<path stroke="#1f0700" d="M19 16h1" />
<path stroke="#eab28e" d="M8 17h1" />
<path stroke="#f1cfb6" d="M10 17h1" />
<path stroke="#f4d2b8" d="M11 17h1" />
<path stroke="#f9d5b9" d="M13 17h1" />
<path stroke="#edb895" d="M14 17h1" />
<path stroke="#662c28" d="M16 17h1" />
<path stroke="#030101" d="M17 17h1" />
<path stroke="#0d0300" d="M18 17h1" />
<path stroke="rgba(5,1,0,0.9647058823529412)" d="M20 17h1" />
<path stroke="rgba(78,51,48,0.7450980392156863)" d="M8 18h1" />
<path stroke="#cb9a81" d="M9 18h1" />
<path stroke="#f2c4a5" d="M10 18h1" />
<path stroke="#f3c7a9" d="M12 18h1" />
<path stroke="#e3af92" d="M13 18h1" />
<path stroke="#c1775d" d="M14 18h1" />
<path stroke="#9a443d" d="M15 18h1" />
<path stroke="#1a101a" d="M16 18h1" />
<path stroke="#030203" d="M17 18h1" />
<path stroke="rgba(0,0,0,0.38823529411764707)" d="M18 18h1" />
<path stroke="rgba(37,10,0,0.8274509803921568)" d="M19 18h1" />
<path stroke="rgba(20,3,0,0.9058823529411765)" d="M21 18h1" />
<path stroke="rgba(0,0,0,0.22745098039215686)" d="M22 18h1" />
<path stroke="rgba(30,18,33,0.27058823529411763)" d="M8 19h1" />
<path stroke="#3a262e" d="M9 19h1" />
<path stroke="#ad5d4e" d="M10 19h1" />
<path stroke="#b36a5e" d="M11 19h1" />
<path stroke="#ae5f50" d="M12 19h1" />
<path stroke="#974c44" d="M13 19h1" />
<path stroke="#562739" d="M14 19h1" />
<path stroke="#b34c68" d="M15 19h1" />
<path stroke="#b65771" d="M16 19h1" />
<path stroke="#b1546a" d="M17 19h1" />
<path stroke="rgba(1,0,0,0.9686274509803922)" d="M18 19h1" />
<path stroke="rgba(33,4,0,0.27058823529411763)" d="M20 19h1" />
<path stroke="rgba(64,31,56,0.3568627450980392)" d="M8 20h1" />
<path stroke="#8e3d61" d="M9 20h1" />
<path stroke="#35232d" d="M10 20h1" />
<path stroke="#cd8766" d="M11 20h1" />
<path stroke="#cd9170" d="M12 20h1" />
<path stroke="#4b243d" d="M13 20h1" />
<path stroke="#c3537c" d="M14 20h1" />
<path stroke="#ee708d" d="M15 20h1M10 25h1" />
<path stroke="#f1728f" d="M16 20h1" />
<path stroke="#fb8698" d="M17 20h1" />
<path stroke="#f78396" d="M18 20h1" />
<path stroke="#763654" d="M19 20h1" />
<path stroke="rgba(32,18,41,0.2196078431372549)" d="M20 20h1" />
<path stroke="rgba(25,16,34,0.44313725490196076)" d="M7 21h1" />
<path stroke="#8a3e5d" d="M8 21h1" />
<path stroke="#733553" d="M9 21h1" />
<path stroke="#d5926f" d="M10 21h1" />
<path stroke="#8a5853" d="M11 21h1" />
<path stroke="#884759" d="M12 21h1" />
<path stroke="#dd6486" d="M13 21h1" />
<path stroke="#d55e83" d="M14 21h1" />
<path stroke="#d86084" d="M15 21h1" />
<path stroke="#f77e94" d="M16 21h1" />
<path stroke="#fd8899" d="M17 21h1M12 23h1" />
<path stroke="#dc6486" d="M18 21h1" />
<path stroke="#c86080" d="M19 21h1" />
<path stroke="#29172c" d="M20 21h1" />
<path stroke="rgba(26,17,35,0.8823529411764706)" d="M7 22h1M7 23h1" />
<path stroke="#f68095" d="M8 22h1" />
<path stroke="#e26a87" d="M9 22h1" />
<path stroke="#562f43" d="M10 22h1" />
<path stroke="#db6784" d="M11 22h1" />
<path stroke="#ec6f8c" d="M12 22h1" />
<path stroke="#f37f94" d="M13 22h1" />
<path stroke="#db6386" d="M14 22h1" />
<path stroke="#7f3962" d="M15 22h1" />
<path stroke="#af4e75" d="M16 22h1" />
<path stroke="#d36583" d="M17 22h1" />
<path stroke="#e66a8a" d="M18 22h1" />
<path stroke="#7a3755" d="M19 22h1" />
<path stroke="rgba(36,23,41,0.2196078431372549)" d="M20 22h1" />
<path stroke="#f38095" d="M8 23h1" />
<path stroke="#ed758f" d="M9 23h1" />
<path stroke="#e46989" d="M10 23h1" />
<path stroke="#f2748f" d="M11 23h1" />
<path stroke="#f38195" d="M13 23h1" />
<path stroke="#dc6386" d="M14 23h1" />
<path stroke="#c3527c" d="M15 23h1" />
<path stroke="#5d303f" d="M16 23h1" />
<path stroke="#6a414a" d="M17 23h1" />
<path stroke="#613c46" d="M18 23h1" />
<path stroke="rgba(30,20,34,0.4980392156862745)" d="M19 23h1" />
<path stroke="rgba(26,16,36,0.30980392156862746)" d="M7 24h1" />
<path stroke="#773854" d="M8 24h1" />
<path stroke="#c8587f" d="M9 24h1" />
<path stroke="#c1517b" d="M10 24h1M15 24h1M11 25h1" />
<path stroke="#e4708c" d="M11 24h1" />
<path stroke="#ff8c9b" d="M12 24h1" />
<path stroke="#eb728e" d="M13 24h1" />
<path stroke="#ca577f" d="M14 24h1M12 27h1" />
<path stroke="#825346" d="M16 24h1" />
<path stroke="#eebb9a" d="M17 24h1" />
<path stroke="#ce9471" d="M18 24h1" />
<path stroke="rgba(38,24,32,0.4980392156862745)" d="M19 24h1M19 25h1" />
<path stroke="rgba(26,18,33,0.27058823529411763)" d="M8 25h1M8 26h1M8 27h1" />
<path stroke="#a65069" d="M9 25h1" />
<path stroke="#bc4f79" d="M12 25h1" />
<path stroke="#bc4f78" d="M13 25h1" />
<path stroke="#763355" d="M14 25h1" />
<path stroke="#b64d75" d="M15 25h1" />
<path stroke="#745d57" d="M16 25h1" />
<path stroke="#b7775b" d="M18 25h1" />
<path stroke="#833f5b" d="M9 26h1" />
<path stroke="#f0718e" d="M10 26h1M10 27h2" />
<path stroke="#d16282" d="M11 26h1" />
<path stroke="#7e385a" d="M12 26h1" />
<path stroke="#853e5b" d="M13 26h1" />
<path stroke="#7c3755" d="M14 26h1" />
<path stroke="#592b2e" d="M15 26h1" />
<path stroke="#e8b79a" d="M16 26h1" />
<path stroke="#ebbda0" d="M17 26h1" />
<path stroke="rgba(100,47,47,0.9490196078431372)" d="M18 26h1" />
<path stroke="rgba(38,24,31,0.2901960784313726)" d="M19 26h1" />
<path stroke="#25152a" d="M9 27h1" />
<path stroke="#cf627c" d="M13 27h1" />
<path stroke="#978085" d="M14 27h1" />
<path stroke="#e7cbc6" d="M15 27h1" />
<path stroke="#ba7364" d="M17 27h1" />
<path stroke="rgba(24,10,2,0.4117647058823529)" d="M8 28h1" />
<path stroke="#311103" d="M9 28h1" />
<path stroke="#21121d" d="M10 28h1" />
<path stroke="#1e111d" d="M11 28h1" />
<path stroke="#1d111d" d="M12 28h1" />
<path stroke="#3f2428" d="M13 28h1" />
<path stroke="#f7e2d9" d="M15 28h1" />
<path stroke="#604c49" d="M17 28h1" />
<path stroke="#290f03" d="M8 29h1" />
<path stroke="#3a1504" d="M9 29h1" />
<path stroke="#401705" d="M10 29h1" />
<path stroke="#351304" d="M11 29h1" />
<path stroke="#2c1003" d="M12 29h1" />
<path stroke="#81473f" d="M13 29h1" />
<path stroke="#f0c0a0" d="M14 29h1" />
<path stroke="#f0c5a9" d="M16 29h1" />
<path stroke="#593f3c" d="M17 29h1" />
<path stroke="#1a0901" d="M8 30h1" />
<path stroke="#685b06" d="M9 30h1" />
<path stroke="#501d07" d="M10 30h1" />
<path stroke="#381404" d="M11 30h1" />
<path stroke="#2e1003" d="M12 30h1" />
<path stroke="#6c0f0e" d="M13 30h1" />
<path stroke="#c67d63" d="M14 30h1" />
<path stroke="#f8d3b8" d="M15 30h1M10 35h1" />
<path stroke="#966350" d="M16 30h1" />
<path stroke="#27120c" d="M17 30h1" />
<path stroke="rgba(20,7,1,0.8470588235294118)" d="M18 30h1" />
<path stroke="rgba(49,29,29,0.20392156862745098)" d="M5 31h1M20 31h1" />
<path stroke="rgba(47,32,32,0.4)" d="M6 31h1M19 31h1" />
<path stroke="rgba(47,32,32,0.596078431372549)" d="M7 31h1M5 32h2M20 32h1M4 33h1M21 33h1M3 34h2M21 34h2M3 35h2M21 35h2M5 37h1M20 37h1" />
<path stroke="rgba(28,14,8,0.9568627450980393)" d="M8 31h1" />
<path stroke="#431906" d="M9 31h1" />
<path stroke="#220d02" d="M10 31h1" />
<path stroke="#794911" d="M11 31h1" />
<path stroke="#4e2706" d="M12 31h1" />
<path stroke="#3c180b" d="M13 31h1" />
<path stroke="#612c23" d="M14 31h1" />
<path stroke="#301817" d="M15 31h1" />
<path stroke="#241416" d="M16 31h1" />
<path stroke="#5d4d0b" d="M17 31h1" />
<path stroke="rgba(22,8,3,0.9529411764705882)" d="M18 31h1" />
<path stroke="rgba(47,31,31,0.3176470588235294)" d="M4 32h1M21 32h1" />
<path stroke="rgba(45,32,32,0.7490196078431373)" d="M7 32h1" />
<path stroke="rgba(42,28,30,0.8784313725490196)" d="M8 32h1" />
<path stroke="#7c5643" d="M9 32h1" />
<path stroke="#ab795a" d="M10 32h1" />
<path stroke="#6d412c" d="M11 32h1" />
<path stroke="#230c02" d="M12 32h1M15 32h1" />
<path stroke="#1f0c03" d="M13 32h1" />
<path stroke="#58220a" d="M14 32h1" />
<path stroke="#4c3020" d="M16 32h1" />
<path stroke="#45291a" d="M17 32h1" />
<path stroke="rgba(109,48,43,0.9882352941176471)" d="M18 32h1" />
<path stroke="rgba(43,28,32,0.7411764705882353)" d="M19 32h1" />
<path stroke="rgba(48,32,32,0.25098039215686274)" d="M3 33h1M22 33h1" />
<path stroke="rgba(47,32,32,0.6)" d="M5 33h1M20 33h1" />
<path stroke="rgba(45,32,32,0.7294117647058823)" d="M6 33h1" />
<path stroke="rgba(45,32,32,0.8352941176470589)" d="M7 33h1M6 34h1M13 34h1M10 38h6" />
<path stroke="rgba(43,30,32,0.8784313725490196)" d="M8 33h1" />
<path stroke="#a0715a" d="M9 33h1" />
<path stroke="#946955" d="M11 33h1" />
<path stroke="rgba(40,25,33,0.984313725490196)" d="M12 33h1" />
<path stroke="rgba(40,26,32,0.9803921568627451)" d="M13 33h1" />
<path stroke="rgba(29,16,16,0.9921568627450981)" d="M14 33h1" />
<path stroke="#94403a" d="M15 33h1" />
<path stroke="#e2a27a" d="M16 33h1" />
<path stroke="#bb7c5f" d="M18 33h1" />
<path stroke="rgba(42,27,32,0.8117647058823529)" d="M19 33h1" />
<path stroke="rgba(47,32,32,0.6235294117647059)" d="M5 34h1M20 34h1M5 35h1M20 35h1" />
<path stroke="rgba(60,54,54,0.9098039215686274)" d="M7 34h1M6 35h1" />
<path stroke="rgba(62,55,56,0.9411764705882353)" d="M8 34h1" />
<path stroke="#996955" d="M9 34h1" />
<path stroke="#eebc9a" d="M10 34h1" />
<path stroke="#b78064" d="M11 34h1" />
<path stroke="rgba(58,39,39,0.9333333333333333)" d="M12 34h1" />
<path stroke="rgba(42,28,32,0.9294117647058824)" d="M14 34h1" />
<path stroke="#c38777" d="M15 34h1" />
<path stroke="#e7b393" d="M16 34h1" />
<path stroke="#e7aa84" d="M17 34h1" />
<path stroke="#8c6f5d" d="M18 34h1" />
<path stroke="rgba(44,34,36,0.9176470588235294)" d="M19 34h1" />
<path stroke="rgba(145,145,145,0.996078431372549)" d="M7 35h1" />
<path stroke="#9a9a9a" d="M8 35h1M15 36h1" />
<path stroke="#726c6a" d="M9 35h1" />
<path stroke="#e3a27b" d="M11 35h1" />
<path stroke="#4b3331" d="M12 35h1" />
<path stroke="rgba(52,41,41,0.8627450980392157)" d="M13 35h1" />
<path stroke="rgba(73,72,72,0.9921568627450981)" d="M14 35h1" />
<path stroke="#605c59" d="M15 35h1" />
<path stroke="#615d5a" d="M16 35h1" />
<path stroke="#5f5954" d="M17 35h1" />
<path stroke="#707070" d="M18 35h1" />
<path stroke="rgba(46,39,39,0.9176470588235294)" d="M19 35h1" />
<path stroke="rgba(46,33,33,0.15294117647058825)" d="M3 36h1M22 36h1M4 37h1M21 37h1" />
<path stroke="rgba(47,33,33,0.5529411764705883)" d="M4 36h1M21 36h1" />
<path stroke="rgba(47,32,32,0.615686274509804)" d="M5 36h1M20 36h1" />
<path stroke="rgba(63,58,58,0.8862745098039215)" d="M6 36h1" />
<path stroke="#919191" d="M7 36h1" />
<path stroke="#7e7e7e" d="M8 36h2" />
<path stroke="#5a5a5a" d="M10 36h1" />
<path stroke="#6c514f" d="M11 36h1" />
<path stroke="#412d30" d="M12 36h1" />
<path stroke="rgba(52,43,43,0.8666666666666667)" d="M13 36h1" />
<path stroke="#797979" d="M14 36h1" />
<path stroke="#909090" d="M16 36h1" />
<path stroke="#6e6e6e" d="M17 36h1" />
<path stroke="rgba(46,41,41,0.9411764705882353)" d="M18 36h1" />
<path stroke="rgba(46,32,32,0.803921568627451)" d="M19 36h1" />
<path stroke="rgba(53,48,48,0.796078431372549)" d="M6 37h1" />
<path stroke="#484848" d="M7 37h1" />
<path stroke="#4a4a4a" d="M8 37h3M15 37h2" />
<path stroke="#424242" d="M11 37h1M14 37h1" />
<path stroke="#393939" d="M12 37h1" />
<path stroke="rgba(48,38,38,0.8666666666666667)" d="M13 37h1" />
<path stroke="rgba(54,48,48,0.9215686274509803)" d="M17 37h1" />
<path stroke="rgba(45,32,32,0.8156862745098039)" d="M18 37h1" />
<path stroke="rgba(47,31,31,0.6392156862745098)" d="M19 37h1" />
<path stroke="rgba(45,31,31,0.28627450980392155)" d="M6 38h1" />
<path stroke="rgba(47,31,31,0.5764705882352941)" d="M7 38h1M18 38h1" />
<path stroke="rgba(46,32,32,0.8117647058823529)" d="M8 38h1M17 38h1" />
<path stroke="rgba(46,32,32,0.8313725490196079)" d="M9 38h1" />
<path stroke="rgba(46,33,33,0.8274509803921568)" d="M16 38h1" />
<path stroke="rgba(48,31,31,0.2901960784313726)" d="M19 38h1" />
<path stroke="rgba(42,32,32,0.09411764705882353)" d="M8 39h1M17 39h1" />
<path stroke="rgba(46,32,32,0.43529411764705883)" d="M9 39h1" />
<path stroke="rgba(46,33,33,0.4823529411764706)" d="M10 39h6" />
<path stroke="rgba(46,32,32,0.34509803921568627)" d="M16 39h1" />
</svg>