<svg xmlns="http://www.w3.org/2000/svg" viewBox="0 -0.5 26 43" shape-rendering="crispEdges">
<metadata>Made with Pixels to Svg https://codepen.io/shshaw/pen/XbxvNj</metadata>
<path stroke="rgba(1,0,0,0.7803921568627451)" d="M12 4h1" />
<path stroke="rgba(1,0,0,0.9647058823529412)" d="M13 4h3" />
<path stroke="rgba(0,0,0,0.22745098039215686)" d="M9 5h1" />
<path stroke="rgba(3,0,0,0.3764705882352941)" d="M10 5h1" />
<path stroke="#1d0700" d="M11 5h1" />
<path stroke="#481200" d="M12 5h1" />
<path stroke="#380c00" d="M13 5h1" />
<path stroke="#350b00" d="M14 5h1M10 8h1M13 12h1" />
<path stroke="#2e0900" d="M15 5h1M12 11h1" />
<path stroke="#0a0100" d="M16 5h1" />
<path stroke="rgba(4,0,0,0.5215686274509804)" d="M17 5h1" />
<path stroke="rgba(0,0,0,0.30980392156862746)" d="M18 5h1" />
<path stroke="rgba(0,0,0,0.19607843137254902)" d="M8 6h1" />
<path stroke="rgba(34,8,0,0.9058823529411765)" d="M9 6h1" />
<path stroke="#461200" d="M10 6h1" />
<path stroke="#3c0d00" d="M11 6h2" />
<path stroke="#501400" d="M13 6h1" />
<path stroke="#571600" d="M14 6h1" />
<path stroke="#410e00" d="M15 6h1" />
<path stroke="#2f0900" d="M16 6h1M17 7h1" />
<path stroke="#100200" d="M17 6h1M19 8h1" />
<path stroke="rgba(9,1,0,0.9686274509803922)" d="M18 6h1" />
<path stroke="rgba(0,0,0,0.36470588235294116)" d="M19 6h1" />
<path stroke="rgba(0,0,0,0.10196078431372549)" d="M7 7h1" />
<path stroke="#0e0200" d="M8 7h1" />
<path stroke="#491200" d="M9 7h1M11 10h1" />
<path stroke="#280700" d="M10 7h1" />
<path stroke="#451000" d="M11 7h1" />
<path stroke="#5a1700" d="M12 7h1" />
<path stroke="#611a00" d="M13 7h1M12 8h1" />
<path stroke="#6b1d00" d="M14 7h1" />
<path stroke="#5c1800" d="M15 7h1M11 9h1" />
<path stroke="#440f00" d="M16 7h1" />
<path stroke="#100100" d="M18 7h1" />
<path stroke="#070000" d="M19 7h1M19 14h1" />
<path stroke="rgba(0,0,0,0.11764705882352941)" d="M20 7h1" />
<path stroke="rgba(1,0,0,0.8823529411764706)" d="M7 8h1" />
<path stroke="#3a0d00" d="M8 8h1" />
<path stroke="#581700" d="M9 8h1" />
<path stroke="#742101" d="M11 8h1" />
<path stroke="#4f1300" d="M13 8h1" />
<path stroke="#601a00" d="M14 8h1" />
<path stroke="#5e1900" d="M15 8h1" />
<path stroke="#551500" d="M16 8h1" />
<path stroke="#541500" d="M17 8h1" />
<path stroke="#230600" d="M18 8h1" />
<path stroke="rgba(2,0,0,0.5568627450980392)" d="M20 8h1" />
<path stroke="rgba(0,0,0,0.4470588235294118)" d="M6 9h1" />
<path stroke="rgba(28,5,0,0.9882352941176471)" d="M7 9h1" />
<path stroke="#631a00" d="M8 9h1" />
<path stroke="#691d00" d="M9 9h1" />
<path stroke="#3d0d00" d="M10 9h1" />
<path stroke="#782201" d="M12 9h1" />
<path stroke="#541600" d="M13 9h1" />
<path stroke="#1e0500" d="M14 9h1M17 10h2" />
<path stroke="#5f1900" d="M15 9h1" />
<path stroke="#531701" d="M16 9h1" />
<path stroke="#250700" d="M17 9h1" />
<path stroke="#3a0c00" d="M18 9h1" />
<path stroke="#190300" d="M19 9h1M19 10h1M19 11h1" />
<path stroke="#020000" d="M20 9h1M20 12h1M20 13h1M20 14h1" />
<path stroke="rgba(3,0,0,0.3568627450980392)" d="M5 10h1" />
<path stroke="#1b0500" d="M6 10h1" />
<path stroke="#3e0d00" d="M7 10h1" />
<path stroke="#5d1900" d="M8 10h1" />
<path stroke="#270700" d="M9 10h1" />
<path stroke="#4d3830" d="M10 10h1" />
<path stroke="#591801" d="M12 10h1" />
<path stroke="#6f1f01" d="M13 10h1" />
<path stroke="#340c00" d="M14 10h1" />
<path stroke="#310a00" d="M15 10h1" />
<path stroke="#4c1200" d="M16 10h1" />
<path stroke="#030000" d="M20 10h1" />
<path stroke="rgba(5,0,0,0.4235294117647059)" d="M5 11h1" />
<path stroke="#260800" d="M6 11h1" />
<path stroke="#400e00" d="M7 11h1" />
<path stroke="#160400" d="M8 11h1" />
<path stroke="#765d50" d="M9 11h1" />
<path stroke="#f6d2b8" d="M10 11h1" />
<path stroke="#735546" d="M11 11h1" />
<path stroke="#300b00" d="M13 11h1" />
<path stroke="#3f0e00" d="M14 11h1" />
<path stroke="#1d0500" d="M15 11h1" />
<path stroke="#1c0400" d="M16 11h1" />
<path stroke="#160300" d="M17 11h1" />
<path stroke="#1b0400" d="M18 11h1" />
<path stroke="#050100" d="M20 11h1" />
<path stroke="rgba(0,0,0,0.00392156862745098)" d="M5 12h1" />
<path stroke="rgba(2,0,0,0.5176470588235295)" d="M6 12h1" />
<path stroke="#1f0500" d="M7 12h1" />
<path stroke="#4b3f37" d="M8 12h1" />
<path stroke="#f9d5ba" d="M9 12h3M8 13h2M9 14h1M9 15h1M9 16h1M10 17h1M13 17h1M12 18h1M20 25h1M20 26h1M21 28h1" />
<path stroke="#423029" d="M12 12h1" />
<path stroke="#080100" d="M14 12h1" />
<path stroke="#3b0d00" d="M15 12h1" />
<path stroke="#190501" d="M16 12h1" />
<path stroke="#210904" d="M17 12h1" />
<path stroke="#200500" d="M18 12h1" />
<path stroke="#0e0100" d="M19 12h1" />
<path stroke="rgba(0,0,0,0.06666666666666667)" d="M5 13h1" />
<path stroke="rgba(14,3,0,0.788235294117647)" d="M6 13h1" />
<path stroke="#110a0c" d="M7 13h1" />
<path stroke="#f9d4b9" d="M10 13h1" />
<path stroke="#f4c9ab" d="M11 13h1" />
<path stroke="#f2c4a5" d="M12 13h1M14 15h1M14 16h1M9 17h1" />
<path stroke="#59493f" d="M13 13h1" />
<path stroke="#150300" d="M14 13h1" />
<path stroke="#67574c" d="M15 13h1" />
<path stroke="#865b45" d="M16 13h1" />
<path stroke="#da9e7f" d="M17 13h1" />
<path stroke="#4f3225" d="M18 13h1" />
<path stroke="#120200" d="M19 13h1" />
<path stroke="rgba(0,0,0,0.09411764705882353)" d="M6 14h1M22 19h1" />
<path stroke="rgba(38,24,31,0.9058823529411765)" d="M7 14h1" />
<path stroke="#edb895" d="M8 14h1" />
<path stroke="#f7d2b7" d="M10 14h1" />
<path stroke="#c17960" d="M11 14h1" />
<path stroke="#a8564a" d="M12 14h1" />
<path stroke="#d09272" d="M13 14h1" />
<path stroke="#c29c81" d="M14 14h1" />
<path stroke="#e7ad88" d="M15 14h1" />
<path stroke="#e8b08c" d="M16 14h1" />
<path stroke="#f7d1b6" d="M17 14h1" />
<path stroke="#b47659" d="M18 14h1" />
<path stroke="rgba(39,25,32,0.7137254901960784)" d="M7 15h1" />
<path stroke="#a3645a" d="M8 15h1" />
<path stroke="#f1cfb5" d="M10 15h1" />
<path stroke="#2c2530" d="M11 15h1" />
<path stroke="#61b6c7" d="M12 15h1" />
<path stroke="#86d2db" d="M13 15h1" />
<path stroke="#e5a67e" d="M15 15h1M15 17h1" />
<path stroke="#f6cfb2" d="M16 15h1" />
<path stroke="#f3caae" d="M17 15h1" />
<path stroke="#926048" d="M18 15h1" />
<path stroke="#090100" d="M19 15h1" />
<path stroke="rgba(7,0,0,0.28627450980392155)" d="M20 15h1" />
<path stroke="#604c49" d="M8 16h1" />
<path stroke="#f1d0b7" d="M10 16h1" />
<path stroke="#32485c" d="M11 16h1" />
<path stroke="#cbd0d3" d="M12 16h1" />
<path stroke="#f7e0cf" d="M13 16h1" />
<path stroke="#e4a57d" d="M15 16h1" />
<path stroke="#d89878" d="M16 16h1" />
<path stroke="#b46857" d="M17 16h1" />
<path stroke="#040000" d="M18 16h1" />
<path stroke="#2c0900" d="M19 16h1" />
<path stroke="#080200" d="M20 16h1" />
<path stroke="#5a3f3a" d="M8 17h1" />
<path stroke="#f1cfb6" d="M11 17h1" />
<path stroke="#f7d5bb" d="M12 17h1" />
<path stroke="#f8d4b9" d="M14 17h1" />
<path stroke="#ca8266" d="M16 17h1" />
<path stroke="#2e1412" d="M17 17h1" />
<path stroke="#010000" d="M18 17h1" />
<path stroke="#310d00" d="M19 17h1" />
<path stroke="#2a0800" d="M20 17h1" />
<path stroke="rgba(1,0,0,0.7019607843137254)" d="M21 17h1" />
<path stroke="rgba(40,23,34,0.17647058823529413)" d="M8 18h1" />
<path stroke="rgba(120,77,65,0.8784313725490196)" d="M9 18h1" />
<path stroke="#eaba9d" d="M10 18h1" />
<path stroke="#f5cbae" d="M11 18h1" />
<path stroke="#f0c2a3" d="M13 18h1" />
<path stroke="#d7997d" d="M14 18h1" />
<path stroke="#bb6f57" d="M15 18h1" />
<path stroke="#7f3936" d="M16 18h1" />
<path stroke="#251219" d="M17 18h1" />
<path stroke="rgba(1,0,0,0.9215686274509803)" d="M18 18h1" />
<path stroke="rgba(7,4,9,0.6705882352941176)" d="M19 18h1" />
<path stroke="#380f01" d="M20 18h1" />
<path stroke="#3d0e00" d="M21 18h1" />
<path stroke="rgba(12,1,0,0.7725490196078432)" d="M22 18h1" />
<path stroke="rgba(29,18,34,0.6509803921568628)" d="M9 19h1" />
<path stroke="#4e3236" d="M10 19h1" />
<path stroke="#b06254" d="M11 19h1" />
<path stroke="#b36a5e" d="M12 19h1" />
<path stroke="#ac5b4c" d="M13 19h1" />
<path stroke="#9f4a41" d="M14 19h1" />
<path stroke="#582839" d="M15 19h1" />
<path stroke="#77344a" d="M16 19h1" />
<path stroke="#bd5773" d="M17 19h1" />
<path stroke="#9b495c" d="M18 19h1" />
<path stroke="#040205" d="M19 19h1" />
<path stroke="#120b18" d="M20 19h1" />
<path stroke="rgba(26,4,0,0.27058823529411763)" d="M21 19h1" />
<path stroke="rgba(32,0,32,0.03137254901960784)" d="M8 20h1" />
<path stroke="rgba(74,35,62,0.6901960784313725)" d="M9 20h1" />
<path stroke="#c0517b" d="M10 20h1" />
<path stroke="#7b3855" d="M11 20h1" />
<path stroke="#ae725a" d="M12 20h1" />
<path stroke="#ce8b69" d="M13 20h1" />
<path stroke="#704c4a" d="M14 20h1" />
<path stroke="#c0527a" d="M15 20h1" />
<path stroke="#d15c82" d="M16 20h1" />
<path stroke="#f0718e" d="M17 20h1M11 25h1M11 26h2M11 27h2" />
<path stroke="#f37791" d="M18 20h1" />
<path stroke="#fe8a9a" d="M19 20h1" />
<path stroke="#ce5d82" d="M20 20h1" />
<path stroke="rgba(35,21,42,0.7607843137254902)" d="M21 20h1" />
<path stroke="rgba(26,26,26,0.0392156862745098)" d="M22 20h1M22 22h1" />
<path stroke="rgba(62,30,54,0.6313725490196078)" d="M8 21h1" />
<path stroke="#b35072" d="M9 21h1" />
<path stroke="#d25e81" d="M10 21h1" />
<path stroke="#7e5050" d="M11 21h1" />
<path stroke="#945e55" d="M12 21h1" />
<path stroke="#8f5b5a" d="M13 21h1" />
<path stroke="#b55372" d="M14 21h1" />
<path stroke="#ef708e" d="M15 21h1" />
<path stroke="#c9567e" d="M16 21h1" />
<path stroke="#ef7790" d="M17 21h1" />
<path stroke="#f88095" d="M18 21h1" />
<path stroke="#ec7690" d="M19 21h1" />
<path stroke="#f47b93" d="M20 21h1" />
<path stroke="#773558" d="M21 21h1" />
<path stroke="rgba(26,17,34,0.34901960784313724)" d="M22 21h1" />
<path stroke="#563042" d="M8 22h1" />
<path stroke="#fb8899" d="M9 22h1" />
<path stroke="#ef718e" d="M10 22h1" />
<path stroke="#a14f67" d="M11 22h1" />
<path stroke="#c15c77" d="M12 22h1" />
<path stroke="#df6986" d="M13 22h1" />
<path stroke="#f87f95" d="M14 22h1" />
<path stroke="#c9577e" d="M15 22h1" />
<path stroke="#c35a7d" d="M16 22h1" />
<path stroke="#b34f77" d="M17 22h1" />
<path stroke="#8d4168" d="M18 22h1" />
<path stroke="#ee718e" d="M19 22h1" />
<path stroke="#cb577f" d="M20 22h1" />
<path stroke="rgba(45,24,45,0.7607843137254902)" d="M21 22h1" />
<path stroke="#532e41" d="M8 23h1" />
<path stroke="#f98698" d="M9 23h1" />
<path stroke="#fe8b9a" d="M10 23h1" />
<path stroke="#e36889" d="M11 23h1" />
<path stroke="#ee6f8d" d="M12 23h1" />
<path stroke="#f67c93" d="M13 23h1" />
<path stroke="#ff8c9b" d="M14 23h1M13 24h1" />
<path stroke="#c3537c" d="M15 23h1M15 24h1" />
<path stroke="#e06687" d="M16 23h1" />
<path stroke="#6b2f51" d="M17 23h1" />
<path stroke="#582a3b" d="M18 23h1" />
<path stroke="#6a414a" d="M19 23h1" />
<path stroke="#643a45" d="M20 23h1" />
<path stroke="rgba(38,25,32,0.7294117647058823)" d="M21 23h1" />
<path stroke="rgba(56,29,52,0.5215686274509804)" d="M8 24h1" />
<path stroke="#874361" d="M9 24h1" />
<path stroke="#d66586" d="M10 24h1" />
<path stroke="#c1517b" d="M11 24h1" />
<path stroke="#ce5a80" d="M12 24h1" />
<path stroke="#f98296" d="M14 24h1" />
<path stroke="#cc587f" d="M16 24h1" />
<path stroke="#873b65" d="M17 24h1" />
<path stroke="#5e3432" d="M18 24h1" />
<path stroke="#dc9a75" d="M19 24h1" />
<path stroke="#dd9b75" d="M20 24h1" />
<path stroke="rgba(99,46,46,0.9058823529411765)" d="M21 24h1" />
<path stroke="rgba(40,26,31,0.22745098039215686)" d="M22 24h1" />
<path stroke="#281920" d="M8 25h1" />
<path stroke="#201422" d="M9 25h1" />
<path stroke="#261629" d="M10 25h1" />
<path stroke="#cb587f" d="M12 25h1" />
<path stroke="#bd507a" d="M13 25h1" />
<path stroke="#bc4f78" d="M14 25h2" />
<path stroke="#6e3051" d="M16 25h1" />
<path stroke="#612b4a" d="M17 25h1" />
<path stroke="#271920" d="M18 25h1M11 34h1" />
<path stroke="#90776d" d="M19 25h1M19 26h1" />
<path stroke="#b38065" d="M21 25h1" />
<path stroke="rgba(42,27,32,0.3764705882352941)" d="M22 25h1" />
<path stroke="rgba(38,24,32,0.37254901960784315)" d="M7 26h1" />
<path stroke="#79463d" d="M8 26h1" />
<path stroke="#46222c" d="M9 26h1M9 27h1" />
<path stroke="#76355f" d="M10 26h1" />
<path stroke="#9d486c" d="M13 26h1" />
<path stroke="#803b59" d="M14 26h1" />
<path stroke="#753355" d="M15 26h1" />
<path stroke="#ad4971" d="M16 26h1" />
<path stroke="#47213c" d="M17 26h1" />
<path stroke="rgba(40,26,32,0.6274509803921569)" d="M18 26h1" />
<path stroke="#e8b89f" d="M21 26h1" />
<path stroke="#79413b" d="M22 26h1" />
<path stroke="rgba(39,25,32,0.40784313725490196)" d="M23 26h1M6 27h1M23 29h1" />
<path stroke="rgba(160,104,83,0.9764705882352941)" d="M7 27h1" />
<path stroke="#a04c42" d="M8 27h1" />
<path stroke="#321b32" d="M10 27h1" />
<path stroke="#e76b8a" d="M13 27h1" />
<path stroke="#dc6386" d="M14 27h1" />
<path stroke="#412037" d="M15 27h1" />
<path stroke="#311a2f" d="M16 27h1" />
<path stroke="#1c1224" d="M17 27h1" />
<path stroke="rgba(42,26,34,0.11764705882352941)" d="M18 27h1" />
<path stroke="#876354" d="M19 27h1" />
<path stroke="#f7d0b4" d="M20 27h1" />
<path stroke="#f8d2b7" d="M21 27h1" />
<path stroke="#e0a585" d="M22 27h1" />
<path stroke="rgba(39,25,32,0.9607843137254902)" d="M23 27h1M23 28h1" />
<path stroke="rgba(38,24,32,0.4980392156862745)" d="M6 28h1M6 29h1" />
<path stroke="#ca8f6d" d="M7 28h1" />
<path stroke="#d08a6b" d="M8 28h1" />
<path stroke="#421b15" d="M9 28h1" />
<path stroke="#3b1505" d="M10 28h1" />
<path stroke="#1f111d" d="M11 28h1" />
<path stroke="#20121d" d="M12 28h1" />
<path stroke="#1d101d" d="M13 28h1" />
<path stroke="#1e0f1d" d="M14 28h1" />
<path stroke="#1d0a03" d="M15 28h1" />
<path stroke="#190901" d="M16 28h2" />
<path stroke="rgba(28,14,14,0.28627450980392155)" d="M18 28h1" />
<path stroke="#7e5548" d="M19 28h1" />
<path stroke="#de9d77" d="M20 28h1" />
<path stroke="#d5997d" d="M22 28h1" />
<path stroke="#9f5648" d="M7 29h1" />
<path stroke="#b17458" d="M8 29h1" />
<path stroke="#4e1e0e" d="M9 29h1" />
<path stroke="#260d02" d="M10 29h1" />
<path stroke="#351304" d="M11 29h1M16 30h1" />
<path stroke="#441805" d="M12 29h1" />
<path stroke="#290a02" d="M13 29h1" />
<path stroke="#2d0701" d="M14 29h1" />
<path stroke="#4a1a06" d="M15 29h1" />
<path stroke="#2f1003" d="M16 29h1" />
<path stroke="#381404" d="M17 29h1" />
<path stroke="#1f0c05" d="M18 29h1" />
<path stroke="#602d2e" d="M19 29h1" />
<path stroke="#dda68c" d="M20 29h1" />
<path stroke="#f2c9ad" d="M21 29h1" />
<path stroke="#86564c" d="M22 29h1" />
<path stroke="rgba(51,0,51,0.0196078431372549)" d="M6 30h1" />
<path stroke="rgba(44,27,33,0.8862745098039215)" d="M7 30h1" />
<path stroke="#26171a" d="M8 30h1" />
<path stroke="#210c02" d="M9 30h1" />
<path stroke="#888009" d="M10 30h1" />
<path stroke="#3f1705" d="M11 30h1" />
<path stroke="#4a1b06" d="M12 30h1" />
<path stroke="#300a02" d="M13 30h1" />
<path stroke="#3c0701" d="M14 30h1" />
<path stroke="#511d07" d="M15 30h1" />
<path stroke="#461905" d="M17 30h1" />
<path stroke="#230c02" d="M18 30h1" />
<path stroke="#201112" d="M19 30h1" />
<path stroke="#2f2025" d="M20 30h1" />
<path stroke="#2f1f25" d="M21 30h1" />
<path stroke="rgba(45,29,35,0.3764705882352941)" d="M22 30h1" />
<path stroke="rgba(48,32,32,0.25098039215686274)" d="M5 31h1" />
<path stroke="rgba(47,32,32,0.596078431372549)" d="M6 31h2M20 31h1M5 32h3M20 32h2M5 33h1M21 33h2M5 34h1M21 34h2M5 35h1M21 35h2M5 36h1M21 36h2M6 37h1M21 37h1" />
<path stroke="rgba(40,24,24,0.7058823529411765)" d="M8 31h1" />
<path stroke="#1e0c05" d="M9 31h1" />
<path stroke="#541f08" d="M10 31h1" />
<path stroke="#411b0b" d="M11 31h1" />
<path stroke="#825f0c" d="M12 31h1" />
<path stroke="#3c1504" d="M13 31h1" />
<path stroke="#6c2f14" d="M14 31h1" />
<path stroke="#7b6309" d="M15 31h1" />
<path stroke="#371304" d="M16 31h1" />
<path stroke="#371404" d="M17 31h1" />
<path stroke="#685707" d="M18 31h1" />
<path stroke="rgba(30,16,13,0.796078431372549)" d="M19 31h1" />
<path stroke="rgba(47,33,33,0.49019607843137253)" d="M21 31h1M22 32h1" />
<path stroke="rgba(43,28,28,0.07058823529411765)" d="M22 31h1" />
<path stroke="rgba(47,31,31,0.3176470588235294)" d="M4 32h1M4 36h1" />
<path stroke="rgba(43,30,32,0.8313725490196079)" d="M8 32h1" />
<path stroke="#5a2928" d="M9 32h1" />
<path stroke="#9a644a" d="M10 32h1" />
<path stroke="#674235" d="M11 32h1" />
<path stroke="#2d1208" d="M12 32h1" />
<path stroke="#1f0b02" d="M13 32h1" />
<path stroke="#2c1206" d="M14 32h1" />
<path stroke="#6d280b" d="M15 32h1" />
<path stroke="#1d0a02" d="M16 32h1" />
<path stroke="rgba(34,20,16,0.9098039215686274)" d="M17 32h1" />
<path stroke="rgba(33,13,4,0.984313725490196)" d="M18 32h1" />
<path stroke="rgba(42,27,26,0.7372549019607844)" d="M19 32h1" />
<path stroke="rgba(46,32,32,0.43529411764705883)" d="M4 33h1M4 34h1M4 35h1M16 39h1" />
<path stroke="rgba(47,31,31,0.611764705882353)" d="M6 33h1" />
<path stroke="rgba(46,32,32,0.8117647058823529)" d="M7 33h1" />
<path stroke="rgba(45,32,32,0.8352941176470589)" d="M8 33h1M18 33h2M7 34h3M18 34h3M7 35h3M18 35h3M8 36h1M18 36h2M8 37h1M17 37h2" />
<path stroke="rgba(42,28,32,0.9294117647058824)" d="M9 33h1" />
<path stroke="rgba(44,28,33,0.9803921568627451)" d="M10 33h1" />
<path stroke="#612e2e" d="M11 33h1" />
<path stroke="#793634" d="M12 33h1" />
<path stroke="#e4a47c" d="M13 33h1M13 34h1" />
<path stroke="#e2a27a" d="M14 33h1" />
<path stroke="#1e0f09" d="M15 33h1" />
<path stroke="#773b37" d="M16 33h1" />
<path stroke="rgba(43,30,32,0.8784313725490196)" d="M17 33h1" />
<path stroke="rgba(46,32,32,0.6470588235294118)" d="M20 33h1" />
<path stroke="rgba(47,31,31,0.5725490196078431)" d="M23 33h1M23 34h1M23 35h1" />
<path stroke="rgba(46,32,32,0.7137254901960784)" d="M6 34h1M6 35h1" />
<path stroke="rgba(45,32,32,0.8431372549019608)" d="M10 34h1" />
<path stroke="#6a453c" d="M12 34h1" />
<path stroke="#d6936f" d="M14 34h1M14 35h1" />
<path stroke="#2d1d23" d="M15 34h1M15 35h1" />
<path stroke="#9c6e57" d="M16 34h1" />
<path stroke="rgba(44,33,34,0.8784313725490196)" d="M17 34h1" />
<path stroke="rgba(73,72,72,0.9803921568627451)" d="M10 35h1" />
<path stroke="#816759" d="M11 35h1" />
<path stroke="#ecc1a4" d="M12 35h1" />
<path stroke="#f3c7a8" d="M13 35h1" />
<path stroke="#3a3532" d="M16 35h1" />
<path stroke="rgba(46,36,36,0.8784313725490196)" d="M17 35h1" />
<path stroke="rgba(47,32,32,0.6823529411764706)" d="M6 36h1" />
<path stroke="rgba(46,33,33,0.8274509803921568)" d="M7 36h1M17 38h1" />
<path stroke="rgba(67,64,64,0.9411764705882353)" d="M9 36h1" />
<path stroke="#9a9a9a" d="M10 36h1" />
<path stroke="#7f7f7f" d="M11 36h1" />
<path stroke="#5a5a5a" d="M12 36h1" />
<path stroke="#cbb09d" d="M13 36h1" />
<path stroke="#a27267" d="M14 36h1" />
<path stroke="#34282d" d="M15 36h1" />
<path stroke="rgba(46,45,45,0.984313725490196)" d="M16 36h1" />
<path stroke="rgba(46,36,36,0.8666666666666667)" d="M17 36h1" />
<path stroke="rgba(46,32,32,0.7764705882352941)" d="M20 36h1" />
<path stroke="rgba(48,31,31,0.4196078431372549)" d="M23 36h1" />
<path stroke="rgba(47,31,31,0.2549019607843137)" d="M5 37h1" />
<path stroke="rgba(46,31,31,0.6705882352941176)" d="M7 37h1" />
<path stroke="rgba(53,49,49,0.9411764705882353)" d="M9 37h1" />
<path stroke="#7e7e7e" d="M10 37h3" />
<path stroke="#6d6d6d" d="M13 37h2" />
<path stroke="#3b3b3b" d="M15 37h1" />
<path stroke="rgba(46,35,35,0.8745098039215686)" d="M16 37h1" />
<path stroke="rgba(46,32,32,0.7568627450980392)" d="M19 37h1" />
<path stroke="rgba(46,31,31,0.6039215686274509)" d="M20 37h1" />
<path stroke="rgba(47,32,32,0.3411764705882353)" d="M22 37h1" />
<path stroke="rgba(47,32,32,0.5058823529411764)" d="M7 38h1" />
<path stroke="rgba(47,31,31,0.6392156862745098)" d="M8 38h1" />
<path stroke="rgba(45,32,32,0.8196078431372549)" d="M9 38h1" />
<path stroke="rgba(46,45,45,0.996078431372549)" d="M10 38h5" />
<path stroke="rgba(45,33,33,0.8431372549019608)" d="M15 38h1" />
<path stroke="rgba(46,32,32,0.8313725490196079)" d="M16 38h1" />
<path stroke="rgba(45,32,32,0.7803921568627451)" d="M18 38h1" />
<path stroke="rgba(47,31,31,0.5764705882352941)" d="M19 38h2" />
<path stroke="rgba(48,31,31,0.22745098039215686)" d="M9 39h1" />
<path stroke="rgba(46,33,33,0.4823529411764706)" d="M10 39h6" />
<path stroke="rgba(46,32,32,0.34509803921568627)" d="M17 39h1" />
</svg>