<svg xmlns="http://www.w3.org/2000/svg" viewBox="0 -0.5 26 43" shape-rendering="crispEdges">
<metadata>Made with Pixels to Svg https://codepen.io/shshaw/pen/XbxvNj</metadata>
<path stroke="rgba(0,0,0,0.0392156862745098)" d="M10 4h1" />
<path stroke="rgba(1,0,0,0.9647058823529412)" d="M11 4h3" />
<path stroke="rgba(0,0,0,0.40784313725490196)" d="M14 4h1" />
<path stroke="rgba(0,0,0,0.34901960784313724)" d="M8 5h1M16 5h1" />
<path stroke="rgba(5,0,0,0.7725490196078432)" d="M9 5h1" />
<path stroke="#0e0200" d="M10 5h1M20 10h1" />
<path stroke="#2e0900" d="M11 5h1" />
<path stroke="#3c0d00" d="M12 5h2" />
<path stroke="#310c00" d="M14 5h1" />
<path stroke="#210900" d="M15 5h1" />
<path stroke="rgba(0,0,0,0.09411764705882353)" d="M17 5h1" />
<path stroke="rgba(2,0,0,0.6431372549019608)" d="M7 6h1" />
<path stroke="#0a0100" d="M8 6h1M6 10h1" />
<path stroke="#170300" d="M9 6h1M8 7h1M7 8h1" />
<path stroke="#390c00" d="M10 6h1" />
<path stroke="#4a1100" d="M11 6h1" />
<path stroke="#571600" d="M12 6h1" />
<path stroke="#4c1300" d="M13 6h1" />
<path stroke="#340b00" d="M14 6h1" />
<path stroke="#471100" d="M15 6h1" />
<path stroke="#3e0f00" d="M16 6h1" />
<path stroke="rgba(16,4,0,0.803921568627451)" d="M17 6h1" />
<path stroke="rgba(0,0,0,0.4980392156862745)" d="M6 7h1M19 8h1" />
<path stroke="#0c0100" d="M7 7h1M12 12h1" />
<path stroke="#3a0c00" d="M9 7h1" />
<path stroke="#451000" d="M10 7h1" />
<path stroke="#5e1900" d="M11 7h1" />
<path stroke="#732001" d="M12 7h1M10 9h1" />
<path stroke="#5c1800" d="M13 7h1" />
<path stroke="#4f1300" d="M14 7h1" />
<path stroke="#471000" d="M15 7h1M12 11h1" />
<path stroke="#390d00" d="M16 7h1" />
<path stroke="#350b00" d="M17 7h1" />
<path stroke="rgba(4,1,0,0.8980392156862745)" d="M18 7h1" />
<path stroke="rgba(0,0,0,0.058823529411764705)" d="M19 7h1M5 8h1" />
<path stroke="rgba(5,0,0,0.7490196078431373)" d="M6 8h1" />
<path stroke="#300a00" d="M8 8h1" />
<path stroke="#5a1700" d="M9 8h1" />
<path stroke="#501400" d="M10 8h1" />
<path stroke="#631b00" d="M11 8h1M13 9h1" />
<path stroke="#551500" d="M12 8h1" />
<path stroke="#521400" d="M13 8h1" />
<path stroke="#671c00" d="M14 8h1" />
<path stroke="#792301" d="M15 8h1" />
<path stroke="#410f00" d="M16 8h1M6 17h1" />
<path stroke="#531500" d="M17 8h1" />
<path stroke="#2c0900" d="M18 8h1M9 10h1M14 11h1" />
<path stroke="rgba(0,0,0,0.11764705882352941)" d="M5 9h1M5 10h1M5 11h1M5 12h1M5 13h1M5 14h1M5 16h1" />
<path stroke="#070000" d="M6 9h1M6 12h1M6 13h1M6 14h1" />
<path stroke="#210500" d="M7 9h1" />
<path stroke="#380c00" d="M8 9h1" />
<path stroke="#1e0500" d="M9 9h1" />
<path stroke="#421100" d="M11 9h1" />
<path stroke="#240600" d="M12 9h1M10 12h1" />
<path stroke="#792201" d="M14 9h1" />
<path stroke="#491100" d="M15 9h1" />
<path stroke="#4a1200" d="M16 9h1" />
<path stroke="#712001" d="M17 9h1" />
<path stroke="#541600" d="M18 9h1" />
<path stroke="rgba(17,3,0,0.9450980392156862)" d="M19 9h1" />
<path stroke="rgba(0,0,0,0.10588235294117647)" d="M20 9h1" />
<path stroke="#1d0400" d="M7 10h1" />
<path stroke="#1b0400" d="M8 10h1M8 11h1" />
<path stroke="#551600" d="M10 10h1" />
<path stroke="#260700" d="M11 10h1" />
<path stroke="#511500" d="M12 10h1M14 10h1" />
<path stroke="#6f1f01" d="M13 10h1" />
<path stroke="#491200" d="M15 10h1M5 18h1" />
<path stroke="#3d2821" d="M16 10h1" />
<path stroke="#310a00" d="M17 10h1" />
<path stroke="#651c01" d="M18 10h1" />
<path stroke="#360b00" d="M19 10h1" />
<path stroke="rgba(0,0,0,0.19607843137254902)" d="M21 10h1M4 19h1" />
<path stroke="#120300" d="M6 11h1M19 12h1" />
<path stroke="#110200" d="M7 11h1" />
<path stroke="#160300" d="M9 11h1" />
<path stroke="#1f0500" d="M10 11h1M7 16h1" />
<path stroke="#270700" d="M11 11h1" />
<path stroke="#2b0900" d="M13 11h1" />
<path stroke="#a38775" d="M15 11h1" />
<path stroke="#ddbba3" d="M16 11h1" />
<path stroke="#3d2721" d="M17 11h1" />
<path stroke="#1c0600" d="M18 11h1" />
<path stroke="#400e00" d="M19 11h1" />
<path stroke="#130300" d="M20 11h1" />
<path stroke="rgba(0,0,0,0.25098039215686274)" d="M21 11h1" />
<path stroke="#0f0100" d="M7 12h1" />
<path stroke="#250701" d="M8 12h1" />
<path stroke="#150704" d="M9 12h1" />
<path stroke="#240800" d="M11 12h1" />
<path stroke="#360d01" d="M13 12h1" />
<path stroke="#9a7f6e" d="M14 12h1" />
<path stroke="#f9d5ba" d="M15 12h3M16 13h2M16 14h2M16 15h2M16 16h2M13 17h1M16 17h1M14 18h1M10 27h1M12 28h1" />
<path stroke="#0e0807" d="M18 12h1" />
<path stroke="rgba(0,0,0,0.15294117647058825)" d="M20 12h1" />
<path stroke="#140300" d="M7 13h1" />
<path stroke="#7b5644" d="M8 13h1" />
<path stroke="#d39272" d="M9 13h1" />
<path stroke="#614635" d="M10 13h1" />
<path stroke="#46352d" d="M11 13h1" />
<path stroke="#150300" d="M12 13h1" />
<path stroke="#836d5e" d="M13 13h1" />
<path stroke="#f5ccaf" d="M14 13h1" />
<path stroke="#f0c1a1" d="M15 13h1" />
<path stroke="#debda6" d="M18 13h1" />
<path stroke="#130707" d="M19 13h1" />
<path stroke="rgba(5,0,0,0.6274509803921569)" d="M20 13h1" />
<path stroke="#020000" d="M7 14h1" />
<path stroke="#d89b7c" d="M8 14h1" />
<path stroke="#f3cbaf" d="M9 14h1" />
<path stroke="#e4a47c" d="M10 14h1M10 16h1M10 17h1M8 33h1M16 33h1M16 34h1" />
<path stroke="#dbad8e" d="M11 14h1" />
<path stroke="#bc8c6e" d="M12 14h1" />
<path stroke="#cc896d" d="M13 14h1" />
<path stroke="#aa5a4f" d="M14 14h1" />
<path stroke="#cf8a69" d="M15 14h1" />
<path stroke="#d19c7c" d="M18 14h1" />
<path stroke="rgba(34,20,27,0.592156862745098)" d="M19 14h1" />
<path stroke="rgba(0,0,0,0.023529411764705882)" d="M20 14h1M5 15h1" />
<path stroke="rgba(12,0,0,0.592156862745098)" d="M6 15h1" />
<path stroke="#050000" d="M7 15h1" />
<path stroke="#b98469" d="M8 15h1" />
<path stroke="#f6d0b4" d="M9 15h1" />
<path stroke="#f4caac" d="M10 15h1M9 24h1" />
<path stroke="#edb996" d="M11 15h1" />
<path stroke="#ebb592" d="M12 15h1" />
<path stroke="#6fdbee" d="M13 15h1" />
<path stroke="#466b77" d="M14 15h1" />
<path stroke="#2f2d3b" d="M15 15h1" />
<path stroke="rgba(123,55,52,0.9764705882352941)" d="M18 15h1" />
<path stroke="rgba(39,25,32,0.40784313725490196)" d="M19 15h1" />
<path stroke="#1f0700" d="M6 16h1" />
<path stroke="#301915" d="M8 16h1" />
<path stroke="#bb7464" d="M9 16h1" />
<path stroke="#e8ad87" d="M11 16h1" />
<path stroke="#f7d0b3" d="M12 16h1" />
<path stroke="#f5e7db" d="M13 16h1" />
<path stroke="#7d838a" d="M14 16h1" />
<path stroke="#395a75" d="M15 16h1" />
<path stroke="rgba(39,25,32,0.8823529411764706)" d="M18 16h1M18 17h1" />
<path stroke="rgba(5,1,0,0.9647058823529412)" d="M5 17h1" />
<path stroke="#0d0300" d="M7 17h1" />
<path stroke="#030101" d="M8 17h1" />
<path stroke="#662c28" d="M9 17h1" />
<path stroke="#edb895" d="M11 17h1" />
<path stroke="#f9d5b9" d="M12 17h1" />
<path stroke="#f4d2b8" d="M14 17h1" />
<path stroke="#f1cfb6" d="M15 17h1" />
<path stroke="#eab28e" d="M17 17h1" />
<path stroke="rgba(0,0,0,0.22745098039215686)" d="M3 18h1" />
<path stroke="rgba(20,3,0,0.9058823529411765)" d="M4 18h1" />
<path stroke="rgba(39,10,0,0.8235294117647058)" d="M6 18h1" />
<path stroke="rgba(0,0,0,0.38823529411764707)" d="M7 18h1" />
<path stroke="#030203" d="M8 18h1" />
<path stroke="#1a101a" d="M9 18h1" />
<path stroke="#9a443d" d="M10 18h1" />
<path stroke="#c1775d" d="M11 18h1" />
<path stroke="#e3af92" d="M12 18h1" />
<path stroke="#f3c7a9" d="M13 18h1" />
<path stroke="#f2c4a5" d="M15 18h1" />
<path stroke="#cb9a81" d="M16 18h1" />
<path stroke="rgba(78,51,48,0.7450980392156863)" d="M17 18h1" />
<path stroke="rgba(33,4,0,0.27058823529411763)" d="M5 19h1" />
<path stroke="rgba(0,0,0,0.5019607843137255)" d="M6 19h1" />
<path stroke="rgba(1,0,0,0.9686274509803922)" d="M7 19h1" />
<path stroke="#b1546a" d="M8 19h1" />
<path stroke="#b65771" d="M9 19h1" />
<path stroke="#b34c68" d="M10 19h1" />
<path stroke="#562739" d="M11 19h1" />
<path stroke="#974c44" d="M12 19h1" />
<path stroke="#ae5f50" d="M13 19h1" />
<path stroke="#b36a5e" d="M14 19h1" />
<path stroke="#ad5d4e" d="M15 19h1" />
<path stroke="#3a262e" d="M16 19h1" />
<path stroke="rgba(30,18,33,0.27058823529411763)" d="M17 19h1" />
<path stroke="rgba(32,18,41,0.2196078431372549)" d="M5 20h1" />
<path stroke="#763654" d="M6 20h1" />
<path stroke="#f78396" d="M7 20h1" />
<path stroke="#fb8698" d="M8 20h1" />
<path stroke="#f1728f" d="M9 20h1" />
<path stroke="#ee708d" d="M10 20h1M15 25h1" />
<path stroke="#c3537c" d="M11 20h1" />
<path stroke="#4b243d" d="M12 20h1" />
<path stroke="#cd9170" d="M13 20h1" />
<path stroke="#cd8766" d="M14 20h1" />
<path stroke="#35232d" d="M15 20h1" />
<path stroke="#8e3d61" d="M16 20h1" />
<path stroke="rgba(64,31,56,0.3568627450980392)" d="M17 20h1" />
<path stroke="#29172c" d="M5 21h1" />
<path stroke="#c86080" d="M6 21h1" />
<path stroke="#dc6486" d="M7 21h1" />
<path stroke="#fd8899" d="M8 21h1M13 23h1" />
<path stroke="#f87f95" d="M9 21h1" />
<path stroke="#d86084" d="M10 21h1" />
<path stroke="#d55e83" d="M11 21h1" />
<path stroke="#dd6486" d="M12 21h1" />
<path stroke="#864758" d="M13 21h1" />
<path stroke="#8a5853" d="M14 21h1" />
<path stroke="#d5926f" d="M15 21h1" />
<path stroke="#733553" d="M16 21h1" />
<path stroke="#8b3e5e" d="M17 21h1" />
<path stroke="rgba(25,16,34,0.44313725490196076)" d="M18 21h1" />
<path stroke="rgba(36,23,41,0.2196078431372549)" d="M5 22h1" />
<path stroke="#7a3755" d="M6 22h1" />
<path stroke="#e66a8a" d="M7 22h1" />
<path stroke="#d36583" d="M8 22h1" />
<path stroke="#af4e75" d="M9 22h1" />
<path stroke="#7f3962" d="M10 22h1" />
<path stroke="#db6386" d="M11 22h1" />
<path stroke="#f37f94" d="M12 22h1" />
<path stroke="#ec6f8c" d="M13 22h1" />
<path stroke="#db6784" d="M14 22h1" />
<path stroke="#562f43" d="M15 22h1" />
<path stroke="#e26a87" d="M16 22h1" />
<path stroke="#f68095" d="M17 22h1" />
<path stroke="rgba(26,17,35,0.8823529411764706)" d="M18 22h1M18 23h1" />
<path stroke="rgba(30,20,34,0.4980392156862745)" d="M6 23h1" />
<path stroke="#4f2536" d="M7 23h1" />
<path stroke="#6c454f" d="M8 23h1" />
<path stroke="#6c4650" d="M9 23h1" />
<path stroke="#b84e6b" d="M10 23h1" />
<path stroke="#dc6386" d="M11 23h1" />
<path stroke="#f38195" d="M12 23h1" />
<path stroke="#f2748f" d="M14 23h1" />
<path stroke="#e46989" d="M15 23h1" />
<path stroke="#ed758f" d="M16 23h1" />
<path stroke="#f38095" d="M17 23h1" />
<path stroke="rgba(41,23,29,0.17254901960784313)" d="M6 24h1" />
<path stroke="rgba(77,39,41,0.9215686274509803)" d="M7 24h1" />
<path stroke="#eab18d" d="M8 24h1" />
<path stroke="#9b433f" d="M10 24h1" />
<path stroke="#ca577f" d="M11 24h1" />
<path stroke="#eb728e" d="M12 24h1" />
<path stroke="#ff8c9b" d="M13 24h1" />
<path stroke="#e4708c" d="M14 24h1" />
<path stroke="#c1517b" d="M15 24h1M14 25h1" />
<path stroke="#c8587f" d="M16 24h1" />
<path stroke="#773854" d="M17 24h1" />
<path stroke="rgba(26,16,36,0.30980392156862746)" d="M18 24h1" />
<path stroke="rgba(39,25,32,0.8470588235294118)" d="M7 25h1" />
<path stroke="#b06e68" d="M8 25h1" />
<path stroke="#f9ddca" d="M9 25h1" />
<path stroke="#dda07b" d="M10 25h1" />
<path stroke="#693247" d="M11 25h1" />
<path stroke="#bb4f77" d="M12 25h1" />
<path stroke="#bc4f78" d="M13 25h1" />
<path stroke="#a65069" d="M16 25h1" />
<path stroke="rgba(26,18,33,0.27058823529411763)" d="M17 25h1M17 26h1M17 27h1" />
<path stroke="#513331" d="M8 26h1" />
<path stroke="#e1b19b" d="M9 26h1" />
<path stroke="#f8d3b8" d="M10 26h1M13 28h1" />
<path stroke="#b3846d" d="M11 26h1" />
<path stroke="#7e6c6b" d="M12 26h1" />
<path stroke="#77646a" d="M13 26h1" />
<path stroke="#ad526e" d="M14 26h1" />
<path stroke="#f0718e" d="M15 26h1" />
<path stroke="#833f5b" d="M16 26h1" />
<path stroke="rgba(53,29,36,0.4117647058823529)" d="M8 27h1" />
<path stroke="#82433c" d="M9 27h1" />
<path stroke="#f7d1b5" d="M11 27h1" />
<path stroke="#f9e6dc" d="M12 27h1" />
<path stroke="#b37269" d="M13 27h1" />
<path stroke="#846260" d="M14 27h1" />
<path stroke="#ea6e8b" d="M15 27h1" />
<path stroke="#25152a" d="M16 27h1" />
<path stroke="rgba(20,0,0,0.050980392156862744)" d="M8 28h1" />
<path stroke="rgba(42,22,25,0.7176470588235294)" d="M9 28h1" />
<path stroke="#af745b" d="M10 28h1" />
<path stroke="#f4ccb1" d="M11 28h1M12 29h1" />
<path stroke="#8a695f" d="M14 28h1" />
<path stroke="#23131e" d="M15 28h1" />
<path stroke="#321203" d="M16 28h1" />
<path stroke="#230c02" d="M17 28h1M10 32h1" />
<path stroke="rgba(30,10,1,0.6901960784313725)" d="M8 29h1" />
<path stroke="#3a1504" d="M9 29h1" />
<path stroke="#381a12" d="M10 29h1M11 30h1" />
<path stroke="#9d705d" d="M11 29h1" />
<path stroke="#e3aa8a" d="M13 29h1" />
<path stroke="#7f4234" d="M14 29h1" />
<path stroke="#421706" d="M15 29h1" />
<path stroke="#421805" d="M16 29h1" />
<path stroke="#6a2d12" d="M17 29h1" />
<path stroke="rgba(20,8,0,0.5098039215686274)" d="M18 29h1" />
<path stroke="rgba(45,31,31,0.28627450980392155)" d="M6 30h1M19 30h1" />
<path stroke="rgba(47,31,31,0.5725490196078431)" d="M7 30h1" />
<path stroke="#200b02" d="M8 30h1" />
<path stroke="#4c1b06" d="M9 30h1" />
<path stroke="#270e02" d="M10 30h1" />
<path stroke="#2f2025" d="M12 30h1" />
<path stroke="#2e1e23" d="M13 30h1" />
<path stroke="#28130f" d="M14 30h1" />
<path stroke="#501d07" d="M15 30h1" />
<path stroke="#685b06" d="M16 30h1" />
<path stroke="#64250a" d="M17 30h1" />
<path stroke="rgba(22,8,3,0.9490196078431372)" d="M18 30h1" />
<path stroke="rgba(47,34,34,0.14901960784313725)" d="M4 31h1M21 31h1" />
<path stroke="rgba(47,32,32,0.596078431372549)" d="M5 31h2M19 31h2M5 32h1M19 32h2M4 33h1M21 33h1M3 34h2M21 34h2M3 35h2M21 35h2" />
<path stroke="rgba(22,8,3,0.9529411764705882)" d="M7 31h1" />
<path stroke="#654d07" d="M8 31h1" />
<path stroke="#2d1003" d="M9 31h1" />
<path stroke="#431a05" d="M10 31h1" />
<path stroke="#8a5813" d="M11 31h1" />
<path stroke="#3d1808" d="M12 31h1" />
<path stroke="#4e2706" d="M13 31h1" />
<path stroke="#8e5113" d="M14 31h1" />
<path stroke="#240d03" d="M15 31h1" />
<path stroke="#5a2108" d="M16 31h1" />
<path stroke="#471a06" d="M17 31h1" />
<path stroke="rgba(28,14,11,0.8313725490196079)" d="M18 31h1" />
<path stroke="rgba(46,33,33,0.15294117647058825)" d="M3 32h1M22 32h1M3 36h1M22 36h1M4 37h1M21 37h1" />
<path stroke="rgba(47,33,33,0.5529411764705883)" d="M4 32h1M21 32h1M4 36h1M21 36h1" />
<path stroke="rgba(47,32,32,0.6823529411764706)" d="M6 32h1" />
<path stroke="rgba(35,22,25,0.9725490196078431)" d="M7 32h1" />
<path stroke="#412315" d="M8 32h1" />
<path stroke="#46281b" d="M9 32h1" />
<path stroke="#58220a" d="M11 32h1" />
<path stroke="#1f0c03" d="M12 32h1" />
<path stroke="#311204" d="M13 32h1" />
<path stroke="#4e1d07" d="M14 32h1" />
<path stroke="#976147" d="M15 32h1" />
<path stroke="#5b3622" d="M16 32h1" />
<path stroke="#472f2a" d="M17 32h1" />
<path stroke="rgba(45,32,32,0.7490196078431373)" d="M18 32h1" />
<path stroke="rgba(48,32,32,0.25098039215686274)" d="M3 33h1M22 33h1" />
<path stroke="rgba(46,32,32,0.6509803921568628)" d="M5 33h1" />
<path stroke="rgba(49,30,33,0.9254901960784314)" d="M6 33h1" />
<path stroke="#bc7d60" d="M7 33h1" />
<path stroke="#ab6150" d="M9 33h1" />
<path stroke="#26181f" d="M10 33h1" />
<path stroke="rgba(32,19,15,0.9176470588235294)" d="M11 33h1" />
<path stroke="rgba(45,32,32,0.8352941176470589)" d="M12 33h1M11 34h3M11 35h4M12 36h3M12 37h3M12 38h5" />
<path stroke="rgba(41,28,27,0.8627450980392157)" d="M13 33h1" />
<path stroke="rgba(32,18,20,0.9921568627450981)" d="M14 33h1" />
<path stroke="#95403b" d="M15 33h1" />
<path stroke="#b16251" d="M17 33h1" />
<path stroke="#4e4e4e" d="M18 33h1" />
<path stroke="#575757" d="M19 33h1" />
<path stroke="rgba(58,48,48,0.6862745098039216)" d="M20 33h1" />
<path stroke="rgba(47,35,35,0.8549019607843137)" d="M5 34h1" />
<path stroke="#764b43" d="M6 34h1" />
<path stroke="#de9c77" d="M7 34h1" />
<path stroke="#e1a079" d="M8 34h1" />
<path stroke="#8a5245" d="M9 34h1" />
<path stroke="rgba(39,25,32,0.9921568627450981)" d="M10 34h1M10 35h1M15 35h1" />
<path stroke="rgba(43,29,32,0.8823529411764706)" d="M14 34h1" />
<path stroke="rgba(94,45,45,0.996078431372549)" d="M15 34h1" />
<path stroke="#e3ab8a" d="M17 34h1" />
<path stroke="#555555" d="M18 34h1M20 34h1" />
<path stroke="#919191" d="M19 34h1" />
<path stroke="rgba(50,39,39,0.8549019607843137)" d="M5 35h1" />
<path stroke="#977763" d="M6 35h1" />
<path stroke="#e4a37c" d="M7 35h1" />
<path stroke="#f6ceb2" d="M8 35h1" />
<path stroke="#e4aa89" d="M9 35h1" />
<path stroke="#d6936f" d="M16 35h1" />
<path stroke="#847063" d="M17 35h1" />
<path stroke="#797979" d="M18 35h1" />
<path stroke="#686868" d="M19 35h1" />
<path stroke="#363636" d="M20 35h1" />
<path stroke="rgba(49,37,37,0.8549019607843137)" d="M5 36h1" />
<path stroke="#494949" d="M6 36h1" />
<path stroke="#9f725c" d="M7 36h1" />
<path stroke="#515151" d="M8 36h1" />
<path stroke="#616161" d="M9 36h1" />
<path stroke="#636363" d="M10 36h1" />
<path stroke="rgba(66,60,60,0.9294117647058824)" d="M11 36h1M11 37h1" />
<path stroke="rgba(41,30,35,0.9921568627450981)" d="M15 36h1" />
<path stroke="#5a5a5a" d="M16 36h1" />
<path stroke="#6b6b6b" d="M17 36h1" />
<path stroke="#646464" d="M18 36h1" />
<path stroke="#393939" d="M19 36h1" />
<path stroke="rgba(46,43,43,0.9607843137254902)" d="M20 36h1" />
<path stroke="rgba(47,33,33,0.7058823529411765)" d="M5 37h1M20 37h1" />
<path stroke="rgba(52,48,48,0.9450980392156862)" d="M6 37h1" />
<path stroke="#4b4b4b" d="M7 37h1" />
<path stroke="#727272" d="M8 37h1" />
<path stroke="#878787" d="M9 37h1" />
<path stroke="#898989" d="M10 37h1" />
<path stroke="rgba(46,37,37,0.8901960784313725)" d="M15 37h1" />
<path stroke="#4a4a4a" d="M16 37h1" />
<path stroke="#3d3d3d" d="M17 37h1" />
<path stroke="#2e2e2e" d="M18 37h1" />
<path stroke="rgba(45,42,42,0.9450980392156862)" d="M19 37h1" />
<path stroke="rgba(45,32,32,0.4)" d="M6 38h1" />
<path stroke="rgba(45,44,44,0.9450980392156862)" d="M7 38h1" />
<path stroke="rgba(46,46,46,0.9725490196078431)" d="M8 38h1" />
<path stroke="rgba(46,45,45,0.996078431372549)" d="M9 38h2" />
<path stroke="rgba(45,41,41,0.9254901960784314)" d="M11 38h1" />
<path stroke="rgba(46,32,32,0.8117647058823529)" d="M17 38h1" />
<path stroke="rgba(45,32,32,0.7803921568627451)" d="M18 38h1" />
<path stroke="rgba(48,31,31,0.2901960784313726)" d="M19 38h1" />
<path stroke="rgba(46,31,31,0.12941176470588237)" d="M8 39h1M17 39h1" />
<path stroke="rgba(46,33,33,0.4823529411764706)" d="M9 39h8" />
</svg>