<svg xmlns="http://www.w3.org/2000/svg" viewBox="0 -0.5 26 43" shape-rendering="crispEdges">
<metadata>Made with Pixels to Svg https://codepen.io/shshaw/pen/XbxvNj</metadata>
<path stroke="rgba(0,0,0,0.023529411764705882)" d="M10 3h1M5 14h1" />
<path stroke="rgba(2,0,0,0.5764705882352941)" d="M11 3h3" />
<path stroke="rgba(0,0,0,0.24313725490196078)" d="M14 3h1" />
<path stroke="rgba(2,0,0,0.6274509803921569)" d="M9 4h1" />
<path stroke="rgba(2,0,0,0.9647058823529412)" d="M10 4h1" />
<path stroke="#230600" d="M11 4h1M18 7h1M12 12h1" />
<path stroke="#390c00" d="M12 4h1" />
<path stroke="#431000" d="M13 4h1" />
<path stroke="rgba(40,10,0,0.9803921568627451)" d="M14 4h1" />
<path stroke="rgba(1,0,0,0.9647058823529412)" d="M15 4h1" />
<path stroke="rgba(0,0,0,0.30980392156862746)" d="M7 5h1" />
<path stroke="#050000" d="M8 5h1" />
<path stroke="#100200" d="M9 5h1" />
<path stroke="#2e0900" d="M10 5h1M19 9h1" />
<path stroke="#451000" d="M11 5h1M14 6h1" />
<path stroke="#4b1200" d="M12 5h1" />
<path stroke="#3a0d00" d="M13 5h1" />
<path stroke="#3a0c00" d="M14 5h1" />
<path stroke="#531500" d="M15 5h1" />
<path stroke="#1e0700" d="M16 5h1" />
<path stroke="rgba(12,2,0,0.5215686274509804)" d="M17 5h1" />
<path stroke="rgba(0,0,0,0.3686274509803922)" d="M6 6h1" />
<path stroke="rgba(9,1,0,0.9686274509803922)" d="M7 6h1" />
<path stroke="#120200" d="M8 6h1" />
<path stroke="#2f0900" d="M9 6h1" />
<path stroke="#410e00" d="M10 6h1" />
<path stroke="#5a1700" d="M11 6h1M10 7h1" />
<path stroke="#6f1f01" d="M12 6h1" />
<path stroke="#5d1800" d="M13 6h1" />
<path stroke="#400e00" d="M15 6h1M16 7h1M19 10h1" />
<path stroke="#400f00" d="M16 6h1" />
<path stroke="#2b0900" d="M17 6h1" />
<path stroke="rgba(2,0,0,0.6431372549019608)" d="M18 6h1" />
<path stroke="rgba(0,0,0,0.01568627450980392)" d="M5 7h1" />
<path stroke="rgba(2,0,0,0.5568627450980392)" d="M6 7h1" />
<path stroke="#0f0100" d="M7 7h1M7 11h1" />
<path stroke="#2d0800" d="M8 7h1" />
<path stroke="#551600" d="M9 7h1" />
<path stroke="#5b1800" d="M11 7h1M5 17h1" />
<path stroke="#611a00" d="M12 7h1M14 7h1M10 9h1" />
<path stroke="#491100" d="M13 7h1" />
<path stroke="#792301" d="M15 7h1" />
<path stroke="#441000" d="M17 7h1" />
<path stroke="rgba(0,0,0,0.4980392156862745)" d="M19 7h1" />
<path stroke="rgba(0,0,0,0.11764705882352941)" d="M5 8h1M5 9h1M5 10h1M5 11h1M5 12h1M5 13h1M5 15h1" />
<path stroke="#070000" d="M6 8h1M6 9h1M6 12h1M6 13h1" />
<path stroke="#210500" d="M7 8h1M7 9h2" />
<path stroke="#360b00" d="M8 8h1" />
<path stroke="#3a0e00" d="M9 8h1M6 16h1" />
<path stroke="#5e1900" d="M10 8h1M15 8h1" />
<path stroke="#561700" d="M11 8h1" />
<path stroke="#330b00" d="M12 8h1" />
<path stroke="#621a00" d="M13 8h1" />
<path stroke="#742101" d="M14 8h1" />
<path stroke="#461100" d="M16 8h1" />
<path stroke="#6d1e00" d="M17 8h1" />
<path stroke="#481200" d="M18 8h1" />
<path stroke="rgba(12,1,0,0.7490196078431373)" d="M19 8h1" />
<path stroke="rgba(0,0,0,0.058823529411764705)" d="M20 8h1" />
<path stroke="#2c0900" d="M9 9h1M13 11h1" />
<path stroke="#2d0900" d="M11 9h1" />
<path stroke="#4a1300" d="M12 9h1" />
<path stroke="#782201" d="M13 9h1" />
<path stroke="#5c1800" d="M14 9h1" />
<path stroke="#5b1700" d="M15 9h1" />
<path stroke="#1c0400" d="M16 9h1" />
<path stroke="#3f0e00" d="M17 9h1" />
<path stroke="#701f01" d="M18 9h1" />
<path stroke="rgba(6,1,0,0.8980392156862745)" d="M20 9h1" />
<path stroke="#120300" d="M6 10h1" />
<path stroke="#110200" d="M7 10h1" />
<path stroke="#170300" d="M8 10h1" />
<path stroke="#1e0500" d="M9 10h1M11 10h1M12 11h1" />
<path stroke="#310a00" d="M10 10h1" />
<path stroke="#4e1300" d="M12 10h1" />
<path stroke="#401000" d="M13 10h1" />
<path stroke="#360d00" d="M14 10h1" />
<path stroke="#4d3830" d="M15 10h1" />
<path stroke="#bd9f8b" d="M16 10h1" />
<path stroke="#2b130e" d="M17 10h1" />
<path stroke="#310b00" d="M18 10h1" />
<path stroke="#1f0500" d="M20 10h1" />
<path stroke="rgba(0,0,0,0.5333333333333333)" d="M21 10h1" />
<path stroke="#0b0100" d="M6 11h1" />
<path stroke="#220500" d="M8 11h1" />
<path stroke="#0d0200" d="M9 11h1" />
<path stroke="#1d0500" d="M10 11h1" />
<path stroke="#290800" d="M11 11h1" />
<path stroke="#6e5346" d="M14 11h1" />
<path stroke="#f6d2b8" d="M15 11h1" />
<path stroke="#f9d5ba" d="M16 11h1M16 12h2M16 13h2M9 14h1M16 14h2M16 15h2M16 16h1M13 17h3M9 28h1" />
<path stroke="#bea08b" d="M17 11h1" />
<path stroke="#060100" d="M18 11h1" />
<path stroke="#220700" d="M19 11h1" />
<path stroke="rgba(7,0,0,0.4235294117647059)" d="M20 11h1" />
<path stroke="#200500" d="M7 12h1" />
<path stroke="#3e291f" d="M8 12h1" />
<path stroke="#cd8766" d="M9 12h1" />
<path stroke="#0a0605" d="M10 12h1" />
<path stroke="#150704" d="M11 12h1" />
<path stroke="#382f29" d="M13 12h1" />
<path stroke="#f9d4b9" d="M14 12h1" />
<path stroke="#f8d3b8" d="M15 12h1M12 15h1" />
<path stroke="#dcbca4" d="M18 12h1" />
<path stroke="#130301" d="M19 12h1" />
<path stroke="rgba(5,1,0,0.9647058823529412)" d="M20 12h1" />
<path stroke="#020000" d="M7 13h1M7 14h1" />
<path stroke="#d89b7c" d="M8 13h1M8 14h1" />
<path stroke="#e8b79a" d="M9 13h1" />
<path stroke="#e4a57d" d="M10 13h1" />
<path stroke="#b8967e" d="M11 13h1" />
<path stroke="#624939" d="M12 13h1" />
<path stroke="#dfa98c" d="M13 13h1" />
<path stroke="#cb8b76" d="M14 13h1" />
<path stroke="#da9773" d="M15 13h1" />
<path stroke="#d9ad91" d="M18 13h1" />
<path stroke="rgba(25,15,20,0.788235294117647)" d="M19 13h1" />
<path stroke="rgba(0,0,0,0.06666666666666667)" d="M20 13h1" />
<path stroke="rgba(12,0,0,0.596078431372549)" d="M6 14h1" />
<path stroke="#f4caac" d="M10 14h1" />
<path stroke="#edb996" d="M11 14h1" />
<path stroke="#e8ad88" d="M12 14h1" />
<path stroke="#66c3d1" d="M13 14h1" />
<path stroke="#4b606b" d="M14 14h1" />
<path stroke="#462d2d" d="M15 14h1" />
<path stroke="#984e43" d="M18 14h1" />
<path stroke="rgba(38,24,32,0.4980392156862745)" d="M19 14h1M6 26h1M6 27h1" />
<path stroke="#0f0300" d="M6 15h1" />
<path stroke="#140200" d="M7 15h1" />
<path stroke="#352119" d="M8 15h1" />
<path stroke="#daa38a" d="M9 15h1" />
<path stroke="#e4a47c" d="M10 15h1M10 16h1" />
<path stroke="#ebb591" d="M11 15h1" />
<path stroke="#f3f2ee" d="M13 15h1" />
<path stroke="#7d7b80" d="M14 15h1" />
<path stroke="#48759a" d="M15 15h1" />
<path stroke="rgba(39,25,32,0.8823529411764706)" d="M18 15h1M18 16h1M7 28h1" />
<path stroke="rgba(5,0,0,0.6274509803921569)" d="M5 16h1" />
<path stroke="#190500" d="M7 16h1" />
<path stroke="#120707" d="M8 16h1" />
<path stroke="#7b3530" d="M9 16h1" />
<path stroke="#e9b08b" d="M11 16h1" />
<path stroke="#f7d1b5" d="M12 16h1" />
<path stroke="#f8d8bf" d="M13 16h1" />
<path stroke="#c5b6aa" d="M14 16h1" />
<path stroke="#a1958b" d="M15 16h1" />
<path stroke="#f0c0a0" d="M17 16h1" />
<path stroke="rgba(0,0,0,0.33725490196078434)" d="M3 17h1" />
<path stroke="rgba(27,4,0,0.9607843137254902)" d="M4 17h1" />
<path stroke="#310d00" d="M6 17h1" />
<path stroke="rgba(0,0,0,0.15294117647058825)" d="M7 17h1" />
<path stroke="#010000" d="M8 17h1" />
<path stroke="#1d1116" d="M9 17h1" />
<path stroke="#9e4840" d="M10 17h1" />
<path stroke="#d79470" d="M11 17h1" />
<path stroke="#f5ccaf" d="M12 17h1" />
<path stroke="#eaba9d" d="M16 17h1" />
<path stroke="#593b36" d="M17 17h1" />
<path stroke="rgba(28,28,28,0.03529411764705882)" d="M18 17h1" />
<path stroke="rgba(0,0,0,0.47843137254901963)" d="M4 18h1" />
<path stroke="rgba(32,6,1,0.6901960784313725)" d="M5 18h1" />
<path stroke="#0d0811" d="M6 18h1" />
<path stroke="#030103" d="M7 18h1" />
<path stroke="#582a37" d="M8 18h1" />
<path stroke="#90404f" d="M9 18h1" />
<path stroke="#79353b" d="M10 18h1" />
<path stroke="#873b3b" d="M11 18h1" />
<path stroke="#b46652" d="M12 18h1" />
<path stroke="#cd886d" d="M13 18h1" />
<path stroke="#d8a28e" d="M14 18h1" />
<path stroke="#ca8367" d="M15 18h1" />
<path stroke="#69453e" d="M16 18h1" />
<path stroke="rgba(33,22,33,0.27058823529411763)" d="M17 18h1" />
<path stroke="rgba(45,24,45,0.7607843137254902)" d="M5 19h1" />
<path stroke="#a7536a" d="M6 19h1" />
<path stroke="#bb6671" d="M7 19h1" />
<path stroke="#f0718e" d="M8 19h1M13 22h1M14 25h2M13 26h3" />
<path stroke="#e86b8b" d="M9 19h1" />
<path stroke="#9d4369" d="M10 19h1" />
<path stroke="#7f3755" d="M11 19h1" />
<path stroke="#b87761" d="M12 19h1" />
<path stroke="#be745a" d="M13 19h1" />
<path stroke="#824747" d="M14 19h1" />
<path stroke="#b34c68" d="M15 19h1" />
<path stroke="#723252" d="M16 19h1" />
<path stroke="rgba(52,26,52,0.27058823529411763)" d="M17 19h1" />
<path stroke="rgba(26,16,36,0.7294117647058823)" d="M4 20h1" />
<path stroke="#8a4067" d="M5 20h1" />
<path stroke="#f47b93" d="M6 20h1M7 21h1" />
<path stroke="#fc8899" d="M7 20h1" />
<path stroke="#fa8397" d="M8 20h1" />
<path stroke="#ed708d" d="M9 20h1" />
<path stroke="#c3527c" d="M10 20h1" />
<path stroke="#df6587" d="M11 20h1" />
<path stroke="#68304d" d="M12 20h1" />
<path stroke="#cc8f70" d="M13 20h1" />
<path stroke="#c68364" d="M14 20h1" />
<path stroke="#43213a" d="M15 20h1" />
<path stroke="#c6557d" d="M16 20h1" />
<path stroke="#572943" d="M17 20h1" />
<path stroke="rgba(29,20,39,0.10196078431372549)" d="M18 20h1" />
<path stroke="rgba(25,16,36,0.36470588235294116)" d="M4 21h1" />
<path stroke="#7a3755" d="M5 21h1" />
<path stroke="#d86184" d="M6 21h1M10 21h1" />
<path stroke="#bd5a7b" d="M8 21h1" />
<path stroke="#b25177" d="M9 21h1" />
<path stroke="#e66d8b" d="M11 21h1" />
<path stroke="#f1738f" d="M12 21h1" />
<path stroke="#964763" d="M13 21h1" />
<path stroke="#93565e" d="M14 21h1" />
<path stroke="#964863" d="M15 21h1" />
<path stroke="#f37690" d="M16 21h1" />
<path stroke="#e6738e" d="M17 21h1" />
<path stroke="rgba(26,17,35,0.8823529411764706)" d="M18 21h1M18 22h1" />
<path stroke="rgba(36,23,41,0.2196078431372549)" d="M5 22h1" />
<path stroke="#402038" d="M6 22h1" />
<path stroke="#522742" d="M7 22h1" />
<path stroke="#46203d" d="M8 22h1" />
<path stroke="#923f64" d="M9 22h1" />
<path stroke="#ee708d" d="M10 22h1" />
<path stroke="#db6a88" d="M11 22h1" />
<path stroke="#fe899a" d="M12 22h1" />
<path stroke="#e46b88" d="M14 22h1" />
<path stroke="#ef718e" d="M15 22h1" />
<path stroke="#fe8a9a" d="M16 22h1" />
<path stroke="#ff8c9b" d="M17 22h1" />
<path stroke="rgba(42,26,34,0.11764705882352941)" d="M5 23h1M5 24h1" />
<path stroke="#825a4b" d="M6 23h1" />
<path stroke="#e3a37b" d="M7 23h1" />
<path stroke="#b17f63" d="M8 23h1M8 24h1" />
<path stroke="#8b3e5b" d="M9 23h1M9 24h1" />
<path stroke="#e26788" d="M10 23h1" />
<path stroke="#d96787" d="M11 23h1" />
<path stroke="#fe8b9a" d="M12 23h1" />
<path stroke="#fa8598" d="M13 23h1" />
<path stroke="#cf5b81" d="M14 23h1" />
<path stroke="#c1517b" d="M15 23h1" />
<path stroke="#e77990" d="M16 23h1" />
<path stroke="#a74e6e" d="M17 23h1" />
<path stroke="rgba(26,17,36,0.6431372549019608)" d="M18 23h1" />
<path stroke="#795042" d="M6 24h1" />
<path stroke="#edbd9d" d="M7 24h1" />
<path stroke="#6e3051" d="M10 24h1" />
<path stroke="#c8567e" d="M11 24h1" />
<path stroke="#d66485" d="M12 24h1" />
<path stroke="#d26284" d="M13 24h1" />
<path stroke="#d35d82" d="M14 24h1" />
<path stroke="#e06687" d="M15 24h1" />
<path stroke="#592947" d="M16 24h1" />
<path stroke="#281827" d="M17 24h1" />
<path stroke="rgba(35,26,35,0.11372549019607843)" d="M5 25h1" />
<path stroke="rgba(95,45,46,0.9803921568627451)" d="M6 25h1" />
<path stroke="#edc4ab" d="M7 25h1" />
<path stroke="#e0af99" d="M8 25h1" />
<path stroke="#532a2b" d="M9 25h1" />
<path stroke="#b64d75" d="M10 25h1" />
<path stroke="#43203b" d="M11 25h1" />
<path stroke="#421f3b" d="M12 25h1" />
<path stroke="#8d4168" d="M13 25h1" />
<path stroke="#532749" d="M16 25h1" />
<path stroke="rgba(26,18,33,0.27058823529411763)" d="M17 25h1" />
<path stroke="#d0a288" d="M7 26h1" />
<path stroke="#f6cdb0" d="M8 26h1" />
<path stroke="#cb866d" d="M9 26h1" />
<path stroke="#775347" d="M10 26h1" />
<path stroke="#af516d" d="M11 26h1" />
<path stroke="#ca577f" d="M12 26h1" />
<path stroke="#3b1e39" d="M16 26h1" />
<path stroke="rgba(33,21,33,0.5764705882352941)" d="M17 26h1" />
<path stroke="#944940" d="M7 27h1" />
<path stroke="#edb895" d="M8 27h1" />
<path stroke="#f6cfb2" d="M9 27h1" />
<path stroke="#f3cbad" d="M10 27h1" />
<path stroke="#9a7871" d="M11 27h1" />
<path stroke="#3e2034" d="M12 27h1" />
<path stroke="#432337" d="M13 27h3" />
<path stroke="#150907" d="M16 27h1" />
<path stroke="#221519" d="M17 27h1" />
<path stroke="#d19276" d="M8 28h1" />
<path stroke="#f6d0b5" d="M10 28h1" />
<path stroke="#6e3835" d="M11 28h1" />
<path stroke="#1d0907" d="M12 28h1" />
<path stroke="#180801" d="M13 28h1" />
<path stroke="#1a0901" d="M14 28h1" />
<path stroke="#1c0a02" d="M15 28h1" />
<path stroke="#3f1605" d="M16 28h1" />
<path stroke="#210c02" d="M17 28h1" />
<path stroke="rgba(38,24,32,0.37254901960784315)" d="M7 29h1" />
<path stroke="#74413e" d="M8 29h1" />
<path stroke="#e6b8a1" d="M9 29h1" />
<path stroke="#f8d4b9" d="M10 29h1" />
<path stroke="#957364" d="M11 29h1" />
<path stroke="#360506" d="M12 29h1" />
<path stroke="#2c1003" d="M13 29h1" />
<path stroke="#351304" d="M14 29h1M16 29h1" />
<path stroke="#401705" d="M15 29h1" />
<path stroke="#501d07" d="M17 29h1M15 30h1" />
<path stroke="rgba(20,8,0,0.5098039215686274)" d="M18 29h1" />
<path stroke="rgba(45,31,31,0.28627450980392155)" d="M6 30h1M19 30h1M6 38h1" />
<path stroke="rgba(22,9,3,0.9137254901960784)" d="M7 30h1" />
<path stroke="#3b180d" d="M8 30h1" />
<path stroke="#2e1f24" d="M9 30h1" />
<path stroke="#2f2026" d="M10 30h1" />
<path stroke="#2b1917" d="M11 30h1" />
<path stroke="#520301" d="M12 30h1" />
<path stroke="#2e1003" d="M13 30h1" />
<path stroke="#381404" d="M14 30h1" />
<path stroke="#675b06" d="M16 30h1" />
<path stroke="#481a06" d="M17 30h1" />
<path stroke="rgba(22,8,3,0.9490196078431372)" d="M18 30h1" />
<path stroke="rgba(47,34,34,0.14901960784313725)" d="M4 31h1M21 31h1" />
<path stroke="rgba(47,32,32,0.596078431372549)" d="M5 31h2M19 31h2M5 32h2M19 32h2M4 33h1M21 33h1M4 34h1M21 34h1M4 35h1M21 35h1M5 37h1M20 37h1" />
<path stroke="rgba(22,8,3,0.9529411764705882)" d="M7 31h1" />
<path stroke="#654d07" d="M8 31h1" />
<path stroke="#2d1003" d="M9 31h1" />
<path stroke="#431a05" d="M10 31h1" />
<path stroke="#8a5813" d="M11 31h1" />
<path stroke="#3d1808" d="M12 31h1" />
<path stroke="#4e2706" d="M13 31h1" />
<path stroke="#794911" d="M14 31h1" />
<path stroke="#220d02" d="M15 31h1" />
<path stroke="#431906" d="M16 31h1" />
<path stroke="#381710" d="M17 31h1" />
<path stroke="rgba(28,15,14,0.9529411764705882)" d="M18 31h1" />
<path stroke="rgba(46,33,33,0.15294117647058825)" d="M3 32h1M22 32h1M3 36h1M22 36h1M4 37h1M21 37h1" />
<path stroke="rgba(47,33,33,0.5529411764705883)" d="M4 32h1M21 32h1M4 36h1M21 36h1" />
<path stroke="rgba(38,25,24,0.8470588235294118)" d="M7 32h1" />
<path stroke="rgba(33,14,7,0.9686274509803922)" d="M8 32h1" />
<path stroke="rgba(29,14,8,0.9568627450980393)" d="M9 32h1" />
<path stroke="#230c02" d="M10 32h1M13 32h1" />
<path stroke="#58220a" d="M11 32h1" />
<path stroke="#1f0c03" d="M12 32h1" />
<path stroke="#6d412c" d="M14 32h1" />
<path stroke="#9a644a" d="M15 32h1" />
<path stroke="#8d5240" d="M16 32h1" />
<path stroke="#522829" d="M17 32h1" />
<path stroke="rgba(44,31,32,0.8470588235294118)" d="M18 32h1" />
<path stroke="rgba(48,34,34,0.20784313725490197)" d="M3 33h1M22 33h1M3 34h1M22 34h1M3 35h1M22 35h1" />
<path stroke="rgba(47,32,32,0.6)" d="M5 33h1M20 33h1" />
<path stroke="rgba(45,32,32,0.7294117647058823)" d="M6 33h1" />
<path stroke="rgba(45,32,32,0.8352941176470589)" d="M7 33h1M18 33h1M6 34h2M18 34h2M6 35h2M19 35h1M7 36h1M15 38h1" />
<path stroke="rgba(43,30,32,0.8784313725490196)" d="M8 33h1M17 33h1" />
<path stroke="#753935" d="M9 33h1M16 33h1" />
<path stroke="#dd9e78" d="M10 33h1" />
<path stroke="#764f3a" d="M11 33h1" />
<path stroke="#493130" d="M12 33h1" />
<path stroke="#3e2226" d="M13 33h1" />
<path stroke="#b96c56" d="M14 33h1" />
<path stroke="#cc8665" d="M15 33h1" />
<path stroke="rgba(47,32,32,0.7294117647058823)" d="M19 33h1" />
<path stroke="rgba(47,32,32,0.6235294117647059)" d="M5 34h1M20 34h1M5 35h1M20 35h1" />
<path stroke="rgba(65,44,42,0.9411764705882353)" d="M8 34h1" />
<path stroke="#b77d60" d="M9 34h1" />
<path stroke="#e3a37c" d="M10 34h1" />
<path stroke="#a56954" d="M11 34h1" />
<path stroke="#321d23" d="M12 34h1" />
<path stroke="#472e2d" d="M13 34h1" />
<path stroke="#d38f6c" d="M14 34h1" />
<path stroke="#d89570" d="M15 34h1" />
<path stroke="#a1735c" d="M16 34h1" />
<path stroke="rgba(62,55,56,0.9411764705882353)" d="M17 34h1" />
<path stroke="#533633" d="M8 35h1" />
<path stroke="#dc9a74" d="M9 35h1" />
<path stroke="#f6cfb3" d="M10 35h1" />
<path stroke="#e4b495" d="M11 35h1" />
<path stroke="#625550" d="M12 35h1" />
<path stroke="#4c4949" d="M13 35h1" />
<path stroke="#845049" d="M14 35h1" />
<path stroke="#615752" d="M15 35h1" />
<path stroke="#686360" d="M16 35h1" />
<path stroke="#787878" d="M17 35h1" />
<path stroke="rgba(70,68,68,0.9647058823529412)" d="M18 35h1" />
<path stroke="rgba(47,32,32,0.615686274509804)" d="M5 36h1M20 36h1" />
<path stroke="rgba(46,32,32,0.803921568627451)" d="M6 36h1M19 36h1" />
<path stroke="#472f32" d="M8 36h1" />
<path stroke="#b28b7d" d="M9 36h1" />
<path stroke="#c6ad9a" d="M10 36h1" />
<path stroke="#5a5a5a" d="M11 36h1" />
<path stroke="#8e8e8e" d="M12 36h1" />
<path stroke="#939393" d="M13 36h1" />
<path stroke="#484848" d="M14 36h1" />
<path stroke="#4d4d4d" d="M15 36h1" />
<path stroke="#717171" d="M16 36h2" />
<path stroke="rgba(66,65,65,0.9803921568627451)" d="M18 36h1" />
<path stroke="rgba(47,31,31,0.6352941176470588)" d="M6 37h1" />
<path stroke="rgba(45,32,32,0.8156862745098039)" d="M7 37h1" />
<path stroke="#474747" d="M8 37h1" />
<path stroke="#6d6d6d" d="M9 37h1" />
<path stroke="#6e6e6e" d="M10 37h1" />
<path stroke="#7e7e7e" d="M11 37h2" />
<path stroke="#7f7f7f" d="M13 37h1" />
<path stroke="#3b3b3b" d="M14 37h1" />
<path stroke="#383838" d="M15 37h1" />
<path stroke="#393939" d="M16 37h2" />
<path stroke="rgba(46,37,37,0.8666666666666667)" d="M18 37h1" />
<path stroke="rgba(47,31,31,0.6392156862745098)" d="M19 37h1" />
<path stroke="rgba(47,31,31,0.5764705882352941)" d="M7 38h1M18 38h1" />
<path stroke="rgba(46,36,36,0.8549019607843137)" d="M8 38h1" />
<path stroke="rgba(46,45,45,0.9921568627450981)" d="M9 38h1" />
<path stroke="rgba(46,45,45,0.996078431372549)" d="M10 38h4" />
<path stroke="rgba(45,39,39,0.9019607843137255)" d="M14 38h1" />
<path stroke="rgba(46,33,33,0.8274509803921568)" d="M16 38h1" />
<path stroke="rgba(46,32,32,0.8117647058823529)" d="M17 38h1" />
<path stroke="rgba(48,31,31,0.2901960784313726)" d="M19 38h1" />
<path stroke="rgba(42,32,32,0.09411764705882353)" d="M8 39h1M17 39h1" />
<path stroke="rgba(46,32,32,0.43529411764705883)" d="M9 39h1" />
<path stroke="rgba(46,33,33,0.4823529411764706)" d="M10 39h6" />
<path stroke="rgba(46,32,32,0.34509803921568627)" d="M16 39h1" />
</svg>