<svg xmlns="http://www.w3.org/2000/svg" viewBox="0 -0.5 26 43" shape-rendering="crispEdges">
<metadata>Made with Pixels to Svg https://codepen.io/shshaw/pen/XbxvNj</metadata>
<path stroke="rgba(0,0,0,0.40784313725490196)" d="M11 4h1" />
<path stroke="rgba(1,0,0,0.9647058823529412)" d="M12 4h3" />
<path stroke="rgba(0,0,0,0.0392156862745098)" d="M15 4h1" />
<path stroke="rgba(0,0,0,0.09411764705882353)" d="M8 5h1M22 10h1" />
<path stroke="rgba(0,0,0,0.34901960784313724)" d="M9 5h1M17 5h1" />
<path stroke="#060000" d="M10 5h1" />
<path stroke="#1b0500" d="M11 5h1M10 9h1" />
<path stroke="#2e0900" d="M12 5h1M20 10h1M11 12h1" />
<path stroke="#3e0d00" d="M13 5h1" />
<path stroke="#481100" d="M14 5h1" />
<path stroke="#190600" d="M15 5h1" />
<path stroke="rgba(28,8,0,0.7725490196078432)" d="M16 5h1" />
<path stroke="rgba(4,0,0,0.803921568627451)" d="M8 6h1" />
<path stroke="#0a0100" d="M9 6h1" />
<path stroke="#1f0500" d="M10 6h1M9 7h1" />
<path stroke="#3c0d00" d="M11 6h1M16 7h1" />
<path stroke="#521400" d="M12 6h1" />
<path stroke="#551600" d="M13 6h1M11 8h1M19 10h1" />
<path stroke="#461000" d="M14 6h1" />
<path stroke="#2c0800" d="M15 6h1" />
<path stroke="#471100" d="M16 6h1M11 10h1" />
<path stroke="#350c00" d="M17 6h1" />
<path stroke="rgba(2,0,0,0.6431372549019608)" d="M18 6h1" />
<path stroke="rgba(1,0,0,0.8823529411764706)" d="M7 7h1" />
<path stroke="#0f0100" d="M8 7h1" />
<path stroke="#440f00" d="M10 7h1" />
<path stroke="#4e1300" d="M11 7h1" />
<path stroke="#611a00" d="M12 7h1" />
<path stroke="#722001" d="M13 7h1" />
<path stroke="#5d1800" d="M14 7h1" />
<path stroke="#451000" d="M15 7h1" />
<path stroke="#4d1300" d="M17 7h1" />
<path stroke="#230600" d="M18 7h1" />
<path stroke="rgba(5,0,0,0.5568627450980392)" d="M19 7h1" />
<path stroke="rgba(0,0,0,0.01568627450980392)" d="M20 7h1" />
<path stroke="rgba(0,0,0,0.25098039215686274)" d="M6 8h1" />
<path stroke="rgba(7,0,0,0.9411764705882353)" d="M7 8h1" />
<path stroke="#1c0400" d="M8 8h1" />
<path stroke="#400f00" d="M9 8h1" />
<path stroke="#5e1900" d="M10 8h1" />
<path stroke="#691d00" d="M12 8h1" />
<path stroke="#501300" d="M13 8h1" />
<path stroke="#581700" d="M14 8h1M17 9h1M7 17h1" />
<path stroke="#6c1e00" d="M15 8h1" />
<path stroke="#611a01" d="M16 8h1" />
<path stroke="#521500" d="M17 8h1" />
<path stroke="#4c1200" d="M18 8h1" />
<path stroke="#190500" d="M19 8h1" />
<path stroke="rgba(0,0,0,0.11764705882352941)" d="M20 8h1" />
<path stroke="rgba(0,0,0,0.4980392156862745)" d="M6 9h1M6 10h1M6 11h1M6 12h1M6 13h1M6 14h1M6 16h1" />
<path stroke="#0c0100" d="M7 9h1M7 12h1M7 13h1M7 14h1" />
<path stroke="#2b0800" d="M8 9h1" />
<path stroke="#310a00" d="M9 9h1M12 11h1" />
<path stroke="#6c1e01" d="M11 9h1" />
<path stroke="#250800" d="M12 9h1" />
<path stroke="#320a00" d="M13 9h1" />
<path stroke="#6d1e00" d="M14 9h1" />
<path stroke="#7a2301" d="M15 9h1" />
<path stroke="#430f00" d="M16 9h1" />
<path stroke="#742101" d="M18 9h1" />
<path stroke="#3e0f00" d="M19 9h1" />
<path stroke="rgba(6,1,0,0.8980392156862745)" d="M20 9h1" />
<path stroke="#120200" d="M7 10h1M8 11h1" />
<path stroke="#1e0500" d="M8 10h1M11 11h1" />
<path stroke="#170300" d="M9 10h1" />
<path stroke="#3a0c00" d="M10 10h1" />
<path stroke="#1a0400" d="M12 10h1" />
<path stroke="#631a00" d="M13 10h1" />
<path stroke="#661d01" d="M14 10h1" />
<path stroke="#491100" d="M15 10h1" />
<path stroke="#4b2011" d="M16 10h1" />
<path stroke="#2b130e" d="M17 10h1" />
<path stroke="#3e0e00" d="M18 10h1" />
<path stroke="rgba(10,1,0,0.803921568627451)" d="M21 10h1" />
<path stroke="#200500" d="M7 11h1" />
<path stroke="#180300" d="M9 11h1M13 12h1" />
<path stroke="#160300" d="M10 11h1M18 11h1" />
<path stroke="#441000" d="M13 11h1" />
<path stroke="#2d0900" d="M14 11h1" />
<path stroke="#2a0900" d="M15 11h1" />
<path stroke="#c5a691" d="M16 11h1" />
<path stroke="#bea08b" d="M17 11h1" />
<path stroke="#2b0900" d="M19 11h1" />
<path stroke="#400e00" d="M20 11h1" />
<path stroke="rgba(12,1,0,0.8235294117647058)" d="M21 11h1" />
<path stroke="rgba(0,0,0,0.12156862745098039)" d="M22 11h1" />
<path stroke="#140200" d="M8 12h1" />
<path stroke="#280903" d="M9 12h1" />
<path stroke="#0a0504" d="M10 12h1" />
<path stroke="#0e0300" d="M12 12h1" />
<path stroke="#280b04" d="M14 12h1" />
<path stroke="#f0cdb3" d="M15 12h1" />
<path stroke="#f9d5ba" d="M16 12h2M17 13h2M17 14h1M17 15h1M17 16h1M13 17h1M17 17h1M15 18h1M7 25h1M6 26h2M6 27h1M5 28h1" />
<path stroke="#ddbda5" d="M18 12h1" />
<path stroke="#170704" d="M19 12h1" />
<path stroke="#060100" d="M20 12h1" />
<path stroke="rgba(0,0,0,0.027450980392156862)" d="M21 12h1" />
<path stroke="#27120b" d="M8 13h1" />
<path stroke="#b08168" d="M9 13h1" />
<path stroke="#c88363" d="M10 13h1" />
<path stroke="#644e3f" d="M11 13h1" />
<path stroke="#26140f" d="M12 13h2" />
<path stroke="#b8967e" d="M14 13h1" />
<path stroke="#f9d4b9" d="M15 13h1" />
<path stroke="#f3c8a9" d="M16 13h1" />
<path stroke="#857064" d="M19 13h1" />
<path stroke="#150402" d="M20 13h1" />
<path stroke="rgba(0,0,0,0.4235294117647059)" d="M21 13h1" />
<path stroke="#38241b" d="M8 14h1" />
<path stroke="#e9ba9c" d="M9 14h1" />
<path stroke="#f0c5a8" d="M10 14h1" />
<path stroke="#e6a881" d="M11 14h1" />
<path stroke="#cfac93" d="M12 14h1" />
<path stroke="#be8767" d="M13 14h1" />
<path stroke="#ba705b" d="M14 14h1" />
<path stroke="#ab5e54" d="M15 14h1" />
<path stroke="#dfa585" d="M16 14h1" />
<path stroke="#f7d0b4" d="M18 14h1" />
<path stroke="#886354" d="M19 14h1" />
<path stroke="rgba(17,10,14,0.28627450980392155)" d="M20 14h1" />
<path stroke="rgba(0,0,0,0.09803921568627451)" d="M6 15h1" />
<path stroke="rgba(13,1,0,0.9058823529411765)" d="M7 15h1" />
<path stroke="#2f1d16" d="M8 15h1" />
<path stroke="#d6a78b" d="M9 15h1" />
<path stroke="#f9d5b9" d="M10 15h1" />
<path stroke="#eebb99" d="M11 15h1" />
<path stroke="#f5ccae" d="M12 15h1" />
<path stroke="#d1b69c" d="M13 15h1" />
<path stroke="#6fdbee" d="M14 15h1" />
<path stroke="#2a2128" d="M15 15h1" />
<path stroke="#756868" d="M16 15h1" />
<path stroke="#ebc3ab" d="M18 15h1" />
<path stroke="rgba(90,43,44,0.9019607843137255)" d="M19 15h1" />
<path stroke="rgba(42,21,32,0.09411764705882353)" d="M20 15h1" />
<path stroke="#360d00" d="M7 16h1" />
<path stroke="#140300" d="M8 16h1" />
<path stroke="#723e32" d="M9 16h1" />
<path stroke="#c38172" d="M10 16h1" />
<path stroke="#e4a47c" d="M11 16h1M11 17h1M13 34h1" />
<path stroke="#ebb591" d="M12 16h1" />
<path stroke="#f8d8bf" d="M13 16h1" />
<path stroke="#f4efe9" d="M14 16h1" />
<path stroke="#303640" d="M15 16h1" />
<path stroke="#7c868e" d="M16 16h1" />
<path stroke="#e0bfa8" d="M18 16h1" />
<path stroke="rgba(38,24,32,0.4980392156862745)" d="M19 16h1M19 17h1M19 25h1" />
<path stroke="rgba(0,0,0,0.11372549019607843)" d="M5 17h1" />
<path stroke="rgba(18,3,0,0.9803921568627451)" d="M6 17h1" />
<path stroke="#020000" d="M8 17h1" />
<path stroke="#050202" d="M9 17h1" />
<path stroke="#9c463e" d="M10 17h1" />
<path stroke="#f4caac" d="M12 17h1" />
<path stroke="#f9d6bb" d="M14 17h1" />
<path stroke="#f1cfb6" d="M15 17h1" />
<path stroke="#f3d1b7" d="M16 17h1" />
<path stroke="#cf9573" d="M18 17h1" />
<path stroke="rgba(0,0,0,0.47843137254901963)" d="M4 18h1" />
<path stroke="#1e0600" d="M5 18h1" />
<path stroke="#441100" d="M6 18h1" />
<path stroke="#10070b" d="M7 18h1" />
<path stroke="rgba(0,0,0,0.5215686274509804)" d="M8 18h1" />
<path stroke="#070408" d="M9 18h1" />
<path stroke="#52282a" d="M10 18h1" />
<path stroke="#a75547" d="M11 18h1" />
<path stroke="#c77e63" d="M12 18h1" />
<path stroke="#ebbc9e" d="M13 18h1" />
<path stroke="#f6ceb1" d="M14 18h1" />
<path stroke="#efc0a2" d="M16 18h1" />
<path stroke="#aa7862" d="M17 18h1" />
<path stroke="rgba(38,24,31,0.5725490196078431)" d="M18 18h1" />
<path stroke="rgba(4,0,0,0.27058823529411763)" d="M5 19h1" />
<path stroke="rgba(24,11,20,0.6352941176470588)" d="M6 19h1" />
<path stroke="#09050b" d="M7 19h1" />
<path stroke="#30161c" d="M8 19h1" />
<path stroke="#b4556e" d="M9 19h1" />
<path stroke="#b34c68" d="M10 19h1" />
<path stroke="#562739" d="M11 19h1" />
<path stroke="#8c3d3b" d="M12 19h1" />
<path stroke="#a85648" d="M13 19h1" />
<path stroke="#b06457" d="M14 19h1" />
<path stroke="#b36a5e" d="M15 19h1" />
<path stroke="#8b4d45" d="M16 19h1" />
<path stroke="#2a1b27" d="M17 19h1" />
<path stroke="rgba(32,18,41,0.2196078431372549)" d="M5 20h1" />
<path stroke="#763654" d="M6 20h1" />
<path stroke="#f78396" d="M7 20h1" />
<path stroke="#fb8698" d="M8 20h1" />
<path stroke="#f1728f" d="M9 20h1" />
<path stroke="#ee708d" d="M10 20h1M15 25h1" />
<path stroke="#c3537c" d="M11 20h1" />
<path stroke="#4b243d" d="M12 20h1" />
<path stroke="#cd9170" d="M13 20h1" />
<path stroke="#cd8766" d="M14 20h1" />
<path stroke="#35232d" d="M15 20h1" />
<path stroke="#b74d76" d="M16 20h1" />
<path stroke="#6c2f50" d="M17 20h1" />
<path stroke="rgba(29,20,39,0.10196078431372549)" d="M18 20h1" />
<path stroke="#29172c" d="M5 21h1" />
<path stroke="#c86080" d="M6 21h1" />
<path stroke="#dc6486" d="M7 21h1" />
<path stroke="#fd8899" d="M8 21h1M13 23h1" />
<path stroke="#f87f95" d="M9 21h1" />
<path stroke="#d86084" d="M10 21h1" />
<path stroke="#d55e83" d="M11 21h1" />
<path stroke="#dd6486" d="M12 21h1" />
<path stroke="#864758" d="M13 21h1" />
<path stroke="#8a5853" d="M14 21h1" />
<path stroke="#d5926f" d="M15 21h1" />
<path stroke="#733553" d="M16 21h1" />
<path stroke="#d86184" d="M17 21h1" />
<path stroke="rgba(104,47,76,0.9411764705882353)" d="M18 21h1" />
<path stroke="rgba(24,16,36,0.25098039215686274)" d="M19 21h1" />
<path stroke="rgba(36,23,41,0.2196078431372549)" d="M5 22h1" />
<path stroke="#7a3755" d="M6 22h1" />
<path stroke="#e66a8a" d="M7 22h1" />
<path stroke="#d36583" d="M8 22h1" />
<path stroke="#af4e75" d="M9 22h1" />
<path stroke="#7f3962" d="M10 22h1" />
<path stroke="#db6386" d="M11 22h1" />
<path stroke="#f37f94" d="M12 22h1" />
<path stroke="#ec6f8c" d="M13 22h1" />
<path stroke="#db6784" d="M14 22h1" />
<path stroke="#562f43" d="M15 22h1" />
<path stroke="#e26a87" d="M16 22h1" />
<path stroke="#fa8296" d="M17 22h1" />
<path stroke="#de788a" d="M18 22h1" />
<path stroke="rgba(26,16,34,0.4980392156862745)" d="M19 22h1M19 23h1" />
<path stroke="rgba(42,26,34,0.11764705882352941)" d="M5 23h1" />
<path stroke="#462932" d="M6 23h1" />
<path stroke="#69404a" d="M7 23h1" />
<path stroke="#643a46" d="M8 23h1" />
<path stroke="#4f243f" d="M9 23h1" />
<path stroke="#c3527c" d="M10 23h1" />
<path stroke="#dc6386" d="M11 23h1" />
<path stroke="#f38195" d="M12 23h1" />
<path stroke="#f2748f" d="M14 23h1" />
<path stroke="#e46989" d="M15 23h1" />
<path stroke="#ed758f" d="M16 23h1" />
<path stroke="#ff8c9b" d="M17 23h1M13 24h1" />
<path stroke="#d57085" d="M18 23h1" />
<path stroke="rgba(52,29,35,0.6901960784313725)" d="M5 24h1" />
<path stroke="#a66753" d="M6 24h1" />
<path stroke="#e3a37b" d="M7 24h1" />
<path stroke="#b0745b" d="M8 24h1" />
<path stroke="#652f4b" d="M9 24h1" />
<path stroke="#c1517b" d="M10 24h1M15 24h1M14 25h1" />
<path stroke="#ca577f" d="M11 24h1M13 27h1" />
<path stroke="#eb728e" d="M12 24h1" />
<path stroke="#e4708c" d="M14 24h1" />
<path stroke="#c8587f" d="M16 24h1" />
<path stroke="#b05778" d="M17 24h1" />
<path stroke="rgba(81,38,64,0.9215686274509803)" d="M18 24h1" />
<path stroke="rgba(28,17,34,0.17647058823529413)" d="M19 24h1" />
<path stroke="rgba(36,36,36,0.027450980392156862)" d="M4 25h1M4 30h1" />
<path stroke="#412b2c" d="M5 25h1" />
<path stroke="#efbd9c" d="M6 25h1" />
<path stroke="#271920" d="M8 25h1" />
<path stroke="#351c30" d="M9 25h1" />
<path stroke="#bc4f78" d="M10 25h1M12 25h1" />
<path stroke="#763355" d="M11 25h1" />
<path stroke="#bc4f79" d="M13 25h1" />
<path stroke="#b25470" d="M16 25h1" />
<path stroke="#3d1d38" d="M17 25h1" />
<path stroke="#2b1a21" d="M18 25h1" />
<path stroke="rgba(40,27,34,0.14901960784313725)" d="M3 26h1M3 29h1" />
<path stroke="rgba(81,40,43,0.8431372549019608)" d="M4 26h1M4 29h1" />
<path stroke="#c07862" d="M5 26h1" />
<path stroke="rgba(39,25,32,0.8862745098039215)" d="M8 26h1" />
<path stroke="rgba(45,25,43,0.8509803921568627)" d="M9 26h1" />
<path stroke="#8b3c60" d="M10 26h1" />
<path stroke="#a1446b" d="M11 26h1" />
<path stroke="#853e5b" d="M12 26h1" />
<path stroke="#7e385a" d="M13 26h1" />
<path stroke="#d16282" d="M14 26h1" />
<path stroke="#f0718e" d="M15 26h1M14 27h2" />
<path stroke="#c45b7d" d="M16 26h1" />
<path stroke="#311a33" d="M17 26h1" />
<path stroke="#94433c" d="M18 26h1" />
<path stroke="rgba(89,58,52,0.7098039215686275)" d="M19 26h1" />
<path stroke="rgba(39,20,39,0.050980392156862744)" d="M20 26h1" />
<path stroke="rgba(40,26,32,0.34901960784313724)" d="M3 27h1M3 28h1" />
<path stroke="#a6715a" d="M4 27h1" />
<path stroke="#f5cdb0" d="M5 27h1" />
<path stroke="#eab28e" d="M7 27h1" />
<path stroke="rgba(38,25,32,0.7294117647058823)" d="M8 27h1M8 28h1" />
<path stroke="rgba(26,17,35,0.6509803921568628)" d="M9 27h1" />
<path stroke="#221428" d="M10 27h1" />
<path stroke="#3a1d34" d="M11 27h1" />
<path stroke="#cd617d" d="M12 27h1" />
<path stroke="#ab526d" d="M16 27h1" />
<path stroke="#1e1326" d="M17 27h1" />
<path stroke="#9a443d" d="M18 27h1" />
<path stroke="#a8604e" d="M19 27h1" />
<path stroke="rgba(58,37,40,0.8313725490196079)" d="M20 27h1" />
<path stroke="#985f4d" d="M4 28h1" />
<path stroke="#ecba99" d="M6 28h1" />
<path stroke="#d79371" d="M7 28h1" />
<path stroke="rgba(35,22,26,0.6509803921568628)" d="M9 28h1" />
<path stroke="#823a33" d="M10 28h1" />
<path stroke="#bc8664" d="M11 28h1" />
<path stroke="#38262a" d="M12 28h1" />
<path stroke="#190f1c" d="M13 28h3" />
<path stroke="#1a0d13" d="M16 28h1" />
<path stroke="#160801" d="M17 28h1" />
<path stroke="#a24d43" d="M18 28h1" />
<path stroke="#e2a17a" d="M19 28h1" />
<path stroke="#3d292a" d="M20 28h1" />
<path stroke="#e2ad8f" d="M5 29h1" />
<path stroke="#efc4a8" d="M6 29h1" />
<path stroke="#a24f46" d="M7 29h1" />
<path stroke="rgba(36,21,27,0.8862745098039215)" d="M8 29h1" />
<path stroke="rgba(27,9,1,0.8509803921568627)" d="M9 29h1" />
<path stroke="#2d1003" d="M10 29h1" />
<path stroke="#250d02" d="M11 29h1" />
<path stroke="#210c02" d="M12 29h1" />
<path stroke="#270401" d="M13 29h1" />
<path stroke="#270e03" d="M14 29h1" />
<path stroke="#1e0b02" d="M15 29h1" />
<path stroke="#2f1103" d="M16 29h1" />
<path stroke="#1c0a02" d="M17 29h1" />
<path stroke="#a04b42" d="M18 29h1" />
<path stroke="#c2795e" d="M19 29h1" />
<path stroke="#372125" d="M20 29h1" />
<path stroke="#2e1e23" d="M5 30h1" />
<path stroke="#2f2026" d="M6 30h1" />
<path stroke="#2c1b22" d="M7 30h1" />
<path stroke="#2c1b18" d="M8 30h1" />
<path stroke="#361304" d="M9 30h1" />
<path stroke="#401705" d="M10 30h1" />
<path stroke="#381404" d="M11 30h1" />
<path stroke="#2e1003" d="M12 30h1" />
<path stroke="#350200" d="M13 30h1" />
<path stroke="#3f1705" d="M14 30h1" />
<path stroke="#270e02" d="M15 30h1" />
<path stroke="#371304" d="M16 30h1" />
<path stroke="#602309" d="M17 30h1" />
<path stroke="#1c0c07" d="M18 30h1" />
<path stroke="#2c1c22" d="M19 30h1" />
<path stroke="rgba(39,26,33,0.15294117647058825)" d="M20 30h1" />
<path stroke="rgba(47,31,31,0.4235294117647059)" d="M5 31h1" />
<path stroke="#2f2020" d="M6 31h2M19 31h2M5 32h3M20 32h2M4 33h3M20 33h3M4 34h2M21 34h2M4 35h2M21 35h2M5 36h1M21 36h1M5 37h2M20 37h1" />
<path stroke="#221402" d="M8 31h1" />
<path stroke="#482405" d="M9 31h1" />
<path stroke="#421805" d="M10 31h1" />
<path stroke="#462605" d="M11 31h1" />
<path stroke="#54280c" d="M12 31h1" />
<path stroke="#450701" d="M13 31h1" />
<path stroke="#4f2e06" d="M14 31h1" />
<path stroke="#50220d" d="M15 31h1" />
<path stroke="#5b3407" d="M16 31h1" />
<path stroke="#3f2604" d="M17 31h1" />
<path stroke="#170a05" d="M18 31h1M10 33h1" />
<path stroke="rgba(47,32,32,0.8235294117647058)" d="M21 31h1M22 32h1M22 36h1M21 37h1" />
<path stroke="rgba(49,33,33,0.12156862745098039)" d="M22 31h1M22 37h1" />
<path stroke="rgba(47,32,32,0.5333333333333333)" d="M4 32h1" />
<path stroke="#261402" d="M8 32h1" />
<path stroke="#361b04" d="M9 32h1" />
<path stroke="#260d02" d="M10 32h1" />
<path stroke="#4f2606" d="M11 32h1" />
<path stroke="#94451d" d="M12 32h1" />
<path stroke="#2a0f03" d="M13 32h1" />
<path stroke="#653209" d="M14 32h1" />
<path stroke="#3c1a0a" d="M15 32h1" />
<path stroke="#200c02" d="M16 32h1" />
<path stroke="#1f0b02" d="M17 32h1" />
<path stroke="#231519" d="M18 32h1" />
<path stroke="#2e2020" d="M19 32h1M6 34h1M6 35h1M6 36h1M7 37h1M19 37h1" />
<path stroke="rgba(46,32,32,0.34901960784313724)" d="M3 33h1M3 34h1M3 35h1" />
<path stroke="#2d2020" d="M7 33h1M18 33h2M7 34h3M17 34h4M7 35h3M18 35h3M7 36h3M18 36h3M8 37h3M18 37h1M10 38h2" />
<path stroke="#271a19" d="M8 33h1" />
<path stroke="#251816" d="M9 33h1" />
<path stroke="#48200d" d="M11 33h1" />
<path stroke="#35190c" d="M12 33h1" />
<path stroke="#2c190f" d="M13 33h1" />
<path stroke="#1f1009" d="M14 33h1" />
<path stroke="#26181f" d="M15 33h1" />
<path stroke="#693130" d="M16 33h1" />
<path stroke="#281a20" d="M17 33h1" />
<path stroke="#31282a" d="M10 34h1" />
<path stroke="#895d48" d="M11 34h1" />
<path stroke="#ab6f55" d="M12 34h1" />
<path stroke="#a6735b" d="M14 34h1" />
<path stroke="#2a1b21" d="M15 34h1" />
<path stroke="#291b20" d="M16 34h1" />
<path stroke="#2f2e2e" d="M10 35h1" />
<path stroke="#362b2c" d="M11 35h1" />
<path stroke="#ac7158" d="M12 35h1" />
<path stroke="#e7ac86" d="M13 35h1" />
<path stroke="#f5cdb1" d="M14 35h1" />
<path stroke="#cf9674" d="M15 35h1" />
<path stroke="#494748" d="M16 35h1" />
<path stroke="#352b2b" d="M17 35h1" />
<path stroke="rgba(47,31,31,0.2549019607843137)" d="M3 36h1M4 37h1" />
<path stroke="rgba(46,32,32,0.9254901960784314)" d="M4 36h1" />
<path stroke="#2e2a2a" d="M10 36h1" />
<path stroke="#2f2b2d" d="M11 36h1" />
<path stroke="#743f3d" d="M12 36h1" />
<path stroke="#cbb09d" d="M13 36h1" />
<path stroke="#8a7f76" d="M14 36h1" />
<path stroke="#5a5a5a" d="M15 36h1" />
<path stroke="#9a9a9a" d="M16 36h1" />
<path stroke="#626262" d="M17 36h1" />
<path stroke="#322d2d" d="M11 37h1" />
<path stroke="#636363" d="M12 37h1" />
<path stroke="#6d6d6d" d="M13 37h1" />
<path stroke="#777777" d="M14 37h1" />
<path stroke="#7e7e7e" d="M15 37h2" />
<path stroke="#4b4b4b" d="M17 37h1" />
<path stroke="rgba(48,31,31,0.4823529411764706)" d="M6 38h1" />
<path stroke="rgba(47,32,32,0.9647058823529412)" d="M7 38h2M19 38h1" />
<path stroke="rgba(46,32,32,0.9882352941176471)" d="M9 38h1" />
<path stroke="#2e2b2b" d="M12 38h1" />
<path stroke="#2e2e2e" d="M13 38h4" />
<path stroke="#2d2424" d="M17 38h1" />
<path stroke="rgba(46,32,32,0.9647058823529412)" d="M18 38h1" />
<path stroke="rgba(44,35,35,0.11372549019607843)" d="M20 38h1" />
<path stroke="rgba(47,32,32,0.3803921568627451)" d="M9 39h1" />
<path stroke="rgba(45,31,31,0.5764705882352941)" d="M10 39h7" />
<path stroke="rgba(47,31,31,0.5764705882352941)" d="M17 39h1" />
</svg>