<svg xmlns="http://www.w3.org/2000/svg" viewBox="0 -0.5 26 43" shape-rendering="crispEdges">
<metadata>Made with Pixels to Svg https://codepen.io/shshaw/pen/XbxvNj</metadata>
<path stroke="rgba(0,0,0,0.24313725490196078)" d="M11 3h1" />
<path stroke="rgba(2,0,0,0.5764705882352941)" d="M12 3h3" />
<path stroke="rgba(0,0,0,0.023529411764705882)" d="M15 3h1" />
<path stroke="rgba(1,0,0,0.9647058823529412)" d="M10 4h1" />
<path stroke="rgba(15,2,0,0.9803921568627451)" d="M11 4h1" />
<path stroke="#230600" d="M12 4h1M20 9h1" />
<path stroke="#3e0e00" d="M13 4h1" />
<path stroke="#4f1400" d="M14 4h1" />
<path stroke="rgba(5,1,0,0.9647058823529412)" d="M15 4h1" />
<path stroke="rgba(2,0,0,0.6274509803921569)" d="M16 4h1" />
<path stroke="rgba(4,0,0,0.5215686274509804)" d="M8 5h1" />
<path stroke="#050000" d="M9 5h1" />
<path stroke="#170300" d="M10 5h1" />
<path stroke="#350b00" d="M11 5h1" />
<path stroke="#491100" d="M12 5h1M15 9h1" />
<path stroke="#471100" d="M13 5h1" />
<path stroke="#3d0d00" d="M14 5h1" />
<path stroke="#370b00" d="M15 5h1" />
<path stroke="#431100" d="M16 5h1" />
<path stroke="#1a0600" d="M17 5h1" />
<path stroke="rgba(0,0,0,0.30980392156862746)" d="M18 5h1" />
<path stroke="rgba(2,0,0,0.6431372549019608)" d="M7 6h1" />
<path stroke="#0b0100" d="M8 6h1" />
<path stroke="#180300" d="M9 6h1M9 9h1" />
<path stroke="#390c00" d="M10 6h1M9 7h1" />
<path stroke="#4a1100" d="M11 6h1" />
<path stroke="#5d1800" d="M12 6h1" />
<path stroke="#6f1f01" d="M13 6h1" />
<path stroke="#5a1700" d="M14 6h1M19 9h1" />
<path stroke="#3a0c00" d="M15 6h1" />
<path stroke="#3c0d00" d="M16 6h1M10 9h1" />
<path stroke="#4d1300" d="M17 6h1" />
<path stroke="rgba(24,4,0,0.9686274509803922)" d="M18 6h1" />
<path stroke="rgba(0,0,0,0.36470588235294116)" d="M19 6h1" />
<path stroke="rgba(0,0,0,0.058823529411764705)" d="M6 7h1" />
<path stroke="rgba(2,0,0,0.8980392156862745)" d="M7 7h1" />
<path stroke="#160300" d="M8 7h1" />
<path stroke="#5f1900" d="M10 7h1" />
<path stroke="#531500" d="M11 7h1M14 7h1" />
<path stroke="#6e1f01" d="M12 7h1" />
<path stroke="#571600" d="M13 7h1" />
<path stroke="#621a00" d="M15 7h1" />
<path stroke="#651b01" d="M16 7h1" />
<path stroke="#441000" d="M17 7h1" />
<path stroke="#400e00" d="M18 7h1M20 10h1" />
<path stroke="#140300" d="M19 7h1" />
<path stroke="rgba(0,0,0,0.11764705882352941)" d="M20 7h1" />
<path stroke="rgba(0,0,0,0.4980392156862745)" d="M6 8h1M6 9h1M6 10h1M6 11h1M6 12h1M6 13h1M6 15h1" />
<path stroke="#0c0100" d="M7 8h1M7 9h1M7 12h1M7 13h1" />
<path stroke="#280700" d="M8 8h1" />
<path stroke="#3c0e00" d="M9 8h1" />
<path stroke="#380d00" d="M10 8h1" />
<path stroke="#631b00" d="M11 8h1" />
<path stroke="#411000" d="M12 8h1" />
<path stroke="#3b0d00" d="M13 8h1" />
<path stroke="#671c00" d="M14 8h1" />
<path stroke="#792301" d="M15 8h1" />
<path stroke="#4e1300" d="M16 8h1" />
<path stroke="#5d1900" d="M17 8h1" />
<path stroke="#691d00" d="M18 8h1" />
<path stroke="#310b00" d="M19 8h1" />
<path stroke="rgba(5,0,0,0.5568627450980392)" d="M20 8h1" />
<path stroke="#250600" d="M8 9h1" />
<path stroke="#551600" d="M11 9h1" />
<path stroke="#180400" d="M12 9h1" />
<path stroke="#5e1900" d="M13 9h1" />
<path stroke="#792201" d="M14 9h1" />
<path stroke="#421000" d="M16 9h1" />
<path stroke="#240700" d="M17 9h1" />
<path stroke="#4c1200" d="M18 9h1" />
<path stroke="rgba(2,0,0,0.6470588235294118)" d="M21 9h1" />
<path stroke="#200500" d="M7 10h1M18 10h1" />
<path stroke="#100100" d="M8 10h1" />
<path stroke="#1b0400" d="M9 10h1" />
<path stroke="#1f0500" d="M10 10h1M9 11h1M20 12h1" />
<path stroke="#260700" d="M11 10h1M14 11h1" />
<path stroke="#270700" d="M12 10h1M11 11h1" />
<path stroke="#541500" d="M13 10h1" />
<path stroke="#2f0a00" d="M14 10h1" />
<path stroke="#481200" d="M15 10h1" />
<path stroke="#897061" d="M16 10h1" />
<path stroke="#7b6456" d="M17 10h1" />
<path stroke="#380c00" d="M19 10h1" />
<path stroke="rgba(22,3,0,0.9254901960784314)" d="M21 10h1" />
<path stroke="rgba(0,0,0,0.2549019607843137)" d="M22 10h1" />
<path stroke="#130200" d="M7 11h1" />
<path stroke="#140200" d="M8 11h1" />
<path stroke="#060000" d="M10 11h1" />
<path stroke="#1d0600" d="M12 11h1" />
<path stroke="#220600" d="M13 11h1" />
<path stroke="#a28675" d="M15 11h1" />
<path stroke="#f9d5ba" d="M16 11h2M15 12h1M17 12h2M17 13h1M17 14h1M17 15h1M13 16h1M17 16h1M13 17h4M7 25h1M7 26h1M7 27h1M7 28h1" />
<path stroke="#947b6c" d="M18 11h1" />
<path stroke="#170400" d="M19 11h1" />
<path stroke="#190500" d="M20 11h1" />
<path stroke="rgba(0,0,0,0.25098039215686274)" d="M21 11h1" />
<path stroke="#1c0601" d="M8 12h1" />
<path stroke="#895b45" d="M9 12h1" />
<path stroke="#c48161" d="M10 12h1" />
<path stroke="#0a0706" d="M11 12h1" />
<path stroke="#1e0601" d="M12 12h2" />
<path stroke="#947d6d" d="M14 12h1" />
<path stroke="#f8d4b8" d="M16 12h1" />
<path stroke="#7e6b5e" d="M19 12h1" />
<path stroke="rgba(1,0,0,0.7019607843137254)" d="M21 12h1M4 17h1" />
<path stroke="#38241b" d="M8 13h1M8 14h1" />
<path stroke="#e9ba9c" d="M9 13h1M9 14h1" />
<path stroke="#dfa788" d="M10 13h1" />
<path stroke="#e9b08b" d="M11 13h1" />
<path stroke="#836d5e" d="M12 13h1" />
<path stroke="#7a5a47" d="M13 13h1" />
<path stroke="#d39377" d="M14 13h1" />
<path stroke="#d09683" d="M15 13h1" />
<path stroke="#e5ad8b" d="M16 13h1" />
<path stroke="#f8d2b7" d="M18 13h1" />
<path stroke="#8c6d60" d="M19 13h1" />
<path stroke="rgba(8,5,6,0.6274509803921569)" d="M20 13h1" />
<path stroke="rgba(0,0,0,0.09411764705882353)" d="M6 14h1" />
<path stroke="rgba(13,1,0,0.9058823529411765)" d="M7 14h1" />
<path stroke="#f9d5b9" d="M10 14h1" />
<path stroke="#eebb99" d="M11 14h1M12 16h1" />
<path stroke="#f5ccae" d="M12 14h1" />
<path stroke="#ccaa8d" d="M13 14h1" />
<path stroke="#62bece" d="M14 14h1" />
<path stroke="#3e272c" d="M15 14h1" />
<path stroke="#85685e" d="M16 14h1" />
<path stroke="#efc6ad" d="M18 14h1" />
<path stroke="#673734" d="M19 14h1" />
<path stroke="rgba(42,26,34,0.11764705882352941)" d="M20 14h1M5 23h1M5 24h1M5 25h1M20 28h1M20 29h1" />
<path stroke="#1a0500" d="M7 15h1" />
<path stroke="#0e0100" d="M8 15h1" />
<path stroke="#7f4f3d" d="M9 15h1" />
<path stroke="#e7b8a0" d="M10 15h1" />
<path stroke="#e4a47c" d="M11 15h1M11 16h1M12 34h1" />
<path stroke="#f2c4a4" d="M12 15h1" />
<path stroke="#f8dac4" d="M13 15h1" />
<path stroke="#f3f4f3" d="M14 15h1" />
<path stroke="#2f2830" d="M15 15h1" />
<path stroke="#8699a8" d="M16 15h1" />
<path stroke="#e0bfa8" d="M18 15h1" />
<path stroke="rgba(38,24,32,0.4980392156862745)" d="M19 15h1M19 16h1" />
<path stroke="rgba(0,0,0,0.06666666666666667)" d="M5 16h1" />
<path stroke="rgba(14,3,0,0.788235294117647)" d="M6 16h1" />
<path stroke="#561600" d="M7 16h1" />
<path stroke="#0c0200" d="M8 16h1" />
<path stroke="#2b1210" d="M9 16h1" />
<path stroke="#9c463e" d="M10 16h1" />
<path stroke="#f7ddc9" d="M14 16h1" />
<path stroke="#a4988e" d="M15 16h1" />
<path stroke="#c0ab9c" d="M16 16h1" />
<path stroke="#d6a688" d="M18 16h1" />
<path stroke="rgba(43,8,0,0.9647058823529412)" d="M5 17h1" />
<path stroke="#5c1800" d="M6 17h1" />
<path stroke="#0f0400" d="M7 17h1" />
<path stroke="rgba(0,0,0,0.2980392156862745)" d="M8 17h1" />
<path stroke="#010000" d="M9 17h1" />
<path stroke="#301c22" d="M10 17h1" />
<path stroke="#b1614f" d="M11 17h1" />
<path stroke="#e0a07a" d="M12 17h1" />
<path stroke="#d99d7e" d="M17 17h1" />
<path stroke="rgba(46,30,36,0.8862745098039215)" d="M18 17h1" />
<path stroke="rgba(51,0,51,0.0196078431372549)" d="M19 17h1" />
<path stroke="rgba(5,0,0,0.6509803921568628)" d="M5 18h1" />
<path stroke="rgba(21,6,7,0.8274509803921568)" d="M6 18h1" />
<path stroke="#100a15" d="M7 18h1" />
<path stroke="#170b0d" d="M8 18h1" />
<path stroke="#5f2f40" d="M9 18h1" />
<path stroke="#a54751" d="M10 18h1" />
<path stroke="#79353b" d="M11 18h1" />
<path stroke="#93403c" d="M12 18h1" />
<path stroke="#bd725a" d="M13 18h1" />
<path stroke="#d2947d" d="M14 18h1" />
<path stroke="#d8a28e" d="M15 18h1" />
<path stroke="#b5755e" d="M16 18h1" />
<path stroke="#3f292d" d="M17 18h1" />
<path stroke="rgba(23,12,35,0.08627450980392157)" d="M5 19h1" />
<path stroke="rgba(97,44,73,0.8627450980392157)" d="M6 19h1" />
<path stroke="#b66270" d="M7 19h1" />
<path stroke="#c96979" d="M8 19h1" />
<path stroke="#f0718e" d="M9 19h1M14 22h1M15 25h1M14 26h2" />
<path stroke="#e06788" d="M10 19h1" />
<path stroke="#9d4369" d="M11 19h1" />
<path stroke="#4f2536" d="M12 19h1" />
<path stroke="#cc8567" d="M13 19h1" />
<path stroke="#be745a" d="M14 19h1" />
<path stroke="#41212c" d="M15 19h1" />
<path stroke="#aa4868" d="M16 19h1" />
<path stroke="#4d243f" d="M17 19h1" />
<path stroke="#25152a" d="M5 20h1" />
<path stroke="#bc607d" d="M6 20h1" />
<path stroke="#ed708d" d="M7 20h1" />
<path stroke="#ff8b9b" d="M8 20h1M17 22h1" />
<path stroke="#f67b93" d="M9 20h1" />
<path stroke="#e96c8b" d="M10 20h1" />
<path stroke="#d55e83" d="M11 20h1M11 23h1" />
<path stroke="#ce5a80" d="M12 20h1M12 24h1" />
<path stroke="#51333c" d="M13 20h1" />
<path stroke="#c48568" d="M14 20h1" />
<path stroke="#ce8967" d="M15 20h1" />
<path stroke="#6d3050" d="M16 20h1" />
<path stroke="#c6557d" d="M17 20h1" />
<path stroke="rgba(45,24,45,0.8980392156862745)" d="M18 20h1" />
<path stroke="rgba(17,17,34,0.058823529411764705)" d="M19 20h1" />
<path stroke="rgba(43,23,45,0.5568627450980392)" d="M5 21h1M6 22h1" />
<path stroke="#a3496a" d="M6 21h1" />
<path stroke="#d86184" d="M7 21h1M11 21h1" />
<path stroke="#e4728c" d="M8 21h1" />
<path stroke="#d06584" d="M9 21h1" />
<path stroke="#9b436d" d="M10 21h1" />
<path stroke="#f27991" d="M12 21h1" />
<path stroke="#df6986" d="M13 21h1" />
<path stroke="#964763" d="M14 21h1" />
<path stroke="#91605a" d="M15 21h1" />
<path stroke="#b55572" d="M16 21h1" />
<path stroke="#f57b93" d="M17 21h1" />
<path stroke="#c9637f" d="M18 21h1" />
<path stroke="rgba(26,16,34,0.4980392156862745)" d="M19 21h1M19 22h1" />
<path stroke="rgba(0,0,0,0.01568627450980392)" d="M5 22h1" />
<path stroke="#4e2540" d="M7 22h2" />
<path stroke="#49223f" d="M9 22h1" />
<path stroke="#ba4f78" d="M10 22h1" />
<path stroke="#dc6386" d="M11 22h1" />
<path stroke="#f38195" d="M12 22h1" />
<path stroke="#fb8497" d="M13 22h1" />
<path stroke="#dc6784" d="M15 22h1" />
<path stroke="#f57992" d="M16 22h1" />
<path stroke="#e47e8d" d="M18 22h1" />
<path stroke="#6a3b37" d="M6 23h1" />
<path stroke="#de9c76" d="M7 23h1" />
<path stroke="#cb8466" d="M8 23h1" />
<path stroke="#7f3851" d="M9 23h1" />
<path stroke="#c2527c" d="M10 23h1M15 23h1" />
<path stroke="#f07b92" d="M12 23h1" />
<path stroke="#ff8c9b" d="M13 23h1" />
<path stroke="#ef7790" d="M14 23h1" />
<path stroke="#d16083" d="M16 23h1" />
<path stroke="#df768d" d="M17 23h1" />
<path stroke="rgba(137,60,94,0.9686274509803922)" d="M18 23h1" />
<path stroke="rgba(27,16,35,0.3686274509803922)" d="M19 23h1" />
<path stroke="#855e4e" d="M6 24h1" />
<path stroke="#f0c0a0" d="M7 24h1" />
<path stroke="#aa6c55" d="M8 24h1" />
<path stroke="#4f263b" d="M9 24h1" />
<path stroke="#bd5079" d="M10 24h1" />
<path stroke="#8f3d62" d="M11 24h1" />
<path stroke="#d76586" d="M13 24h1" />
<path stroke="#ca5a80" d="M14 24h1" />
<path stroke="#de6587" d="M15 24h1" />
<path stroke="#b75374" d="M16 24h1" />
<path stroke="#46223e" d="M17 24h1" />
<path stroke="rgba(34,23,33,0.8823529411764706)" d="M18 24h1" />
<path stroke="#90776d" d="M6 25h1" />
<path stroke="#9f6952" d="M8 25h1" />
<path stroke="#351c30" d="M9 25h1" />
<path stroke="#bc4f78" d="M10 25h1" />
<path stroke="#8b3c60" d="M11 25h1" />
<path stroke="#44203b" d="M12 25h1" />
<path stroke="#4c2342" d="M13 25h1" />
<path stroke="#bc587a" d="M14 25h1" />
<path stroke="#c45b7d" d="M16 25h1" />
<path stroke="#311a33" d="M17 25h1" />
<path stroke="rgba(28,28,28,0.03529411764705882)" d="M18 25h1" />
<path stroke="rgba(51,29,35,0.49019607843137253)" d="M5 26h1M5 29h1" />
<path stroke="#a88073" d="M6 26h1" />
<path stroke="#a77259" d="M8 26h1" />
<path stroke="#2f1a29" d="M9 26h1" />
<path stroke="#311931" d="M10 26h1" />
<path stroke="#7b3656" d="M11 26h1" />
<path stroke="#d96683" d="M12 26h1" />
<path stroke="#ca577f" d="M13 26h1" />
<path stroke="#b75674" d="M16 26h1" />
<path stroke="#28162c" d="M17 26h1" />
<path stroke="rgba(39,25,32,0.8823529411764706)" d="M18 26h1" />
<path stroke="#3b2729" d="M5 27h1" />
<path stroke="#e7b395" d="M6 27h1" />
<path stroke="#e7ba9c" d="M8 27h1" />
<path stroke="#5c403a" d="M9 27h1" />
<path stroke="#833c39" d="M10 27h1" />
<path stroke="#bd886b" d="M11 27h1" />
<path stroke="#5b3742" d="M12 27h1" />
<path stroke="#3c1e34" d="M13 27h1" />
<path stroke="#432337" d="M14 27h2" />
<path stroke="#331a27" d="M16 27h1" />
<path stroke="#150907" d="M17 27h1" />
<path stroke="rgba(123,55,52,0.9764705882352941)" d="M18 27h1" />
<path stroke="rgba(40,25,32,0.403921568627451)" d="M19 27h1" />
<path stroke="#392427" d="M5 28h1" />
<path stroke="#dea78c" d="M6 28h1" />
<path stroke="#e2b19a" d="M8 28h1" />
<path stroke="#522c2c" d="M9 28h1" />
<path stroke="#1c0a02" d="M10 28h1" />
<path stroke="#1a0901" d="M11 28h1M14 28h1M13 32h1" />
<path stroke="#180801" d="M12 28h1" />
<path stroke="#1a0601" d="M13 28h1" />
<path stroke="#170801" d="M15 28h1" />
<path stroke="#200b02" d="M16 28h1" />
<path stroke="#3c1504" d="M17 28h1" />
<path stroke="#240e08" d="M18 28h1" />
<path stroke="#602d2e" d="M19 28h1" />
<path stroke="#9b695a" d="M6 29h1" />
<path stroke="#f6d0b4" d="M7 29h1" />
<path stroke="#f4ccb0" d="M8 29h1" />
<path stroke="#694f49" d="M9 29h1" />
<path stroke="#401705" d="M10 29h1M14 30h1" />
<path stroke="#351304" d="M11 29h1" />
<path stroke="#2c1003" d="M12 29h1" />
<path stroke="#350200" d="M13 29h1" />
<path stroke="#3b1504" d="M14 29h1" />
<path stroke="#260e02" d="M15 29h1" />
<path stroke="#371304" d="M16 29h1" />
<path stroke="#471906" d="M17 29h1" />
<path stroke="#4e1d0a" d="M18 29h1" />
<path stroke="#3a1c1d" d="M19 29h1" />
<path stroke="rgba(0,0,0,0.00392156862745098)" d="M5 30h1M20 30h1" />
<path stroke="rgba(44,29,35,0.5176470588235295)" d="M6 30h1" />
<path stroke="#2f2026" d="M7 30h2" />
<path stroke="#3a1a11" d="M9 30h1" />
<path stroke="#501d07" d="M10 30h1" />
<path stroke="#381404" d="M11 30h1" />
<path stroke="#2e1003" d="M12 30h1" />
<path stroke="#520200" d="M13 30h1" />
<path stroke="#270e02" d="M15 30h1" />
<path stroke="#664208" d="M16 30h1" />
<path stroke="#412d04" d="M17 30h1" />
<path stroke="#4d1c06" d="M18 30h1" />
<path stroke="rgba(21,8,2,0.5176470588235295)" d="M19 30h1" />
<path stroke="rgba(42,42,42,0.023529411764705882)" d="M5 31h1" />
<path stroke="rgba(49,29,29,0.20392156862745098)" d="M6 31h1" />
<path stroke="rgba(47,31,31,0.5490196078431373)" d="M7 31h1" />
<path stroke="#2e1f03" d="M8 31h1" />
<path stroke="#503006" d="M9 31h1" />
<path stroke="#260d02" d="M10 31h1" />
<path stroke="#593806" d="M11 31h1" />
<path stroke="#994d1d" d="M12 31h1" />
<path stroke="#2a0f03" d="M13 31h1" />
<path stroke="#694708" d="M14 31h1" />
<path stroke="#713416" d="M15 31h1" />
<path stroke="#321204" d="M16 31h1" />
<path stroke="#2e1103" d="M17 31h1" />
<path stroke="#3d1a14" d="M18 31h1" />
<path stroke="rgba(34,20,19,0.796078431372549)" d="M19 31h1" />
<path stroke="rgba(48,32,32,0.25098039215686274)" d="M20 31h1" />
<path stroke="rgba(47,34,34,0.14901960784313725)" d="M21 31h1" />
<path stroke="rgba(46,31,31,0.4549019607843137)" d="M5 32h1" />
<path stroke="rgba(47,32,32,0.596078431372549)" d="M6 32h1M5 33h1M21 33h2M5 34h1M21 34h2M5 35h1M21 35h2M5 36h1M21 36h1M6 37h1" />
<path stroke="rgba(45,32,32,0.7490196078431373)" d="M7 32h1" />
<path stroke="rgba(36,21,16,0.9098039215686274)" d="M8 32h1" />
<path stroke="rgba(36,20,15,0.9215686274509803)" d="M9 32h1" />
<path stroke="#190901" d="M10 32h1" />
<path stroke="#411806" d="M11 32h1" />
<path stroke="#441c0a" d="M12 32h1" />
<path stroke="#290f03" d="M14 32h1" />
<path stroke="#73312b" d="M15 32h1" />
<path stroke="#8d5240" d="M16 32h1" />
<path stroke="#381c1d" d="M17 32h1" />
<path stroke="rgba(67,36,39,0.984313725490196)" d="M18 32h1" />
<path stroke="rgba(45,31,33,0.8274509803921568)" d="M19 32h1" />
<path stroke="rgba(47,32,32,0.615686274509804)" d="M20 32h1" />
<path stroke="rgba(47,33,33,0.5529411764705883)" d="M21 32h1" />
<path stroke="rgba(46,33,33,0.15294117647058825)" d="M22 32h1" />
<path stroke="rgba(46,32,32,0.43529411764705883)" d="M4 33h1M4 34h1M4 35h1" />
<path stroke="rgba(46,32,32,0.7137254901960784)" d="M6 33h1M6 34h1M6 35h1" />
<path stroke="rgba(45,32,32,0.8352941176470589)" d="M7 33h3M18 33h3M7 34h3M16 34h5M7 35h2M16 35h5M8 36h1M17 36h3M8 37h1M17 37h2" />
<path stroke="#271920" d="M10 33h1M15 33h1M15 34h1" />
<path stroke="#301b1b" d="M11 33h1" />
<path stroke="#c18a67" d="M12 33h1" />
<path stroke="#d3906f" d="M13 33h1" />
<path stroke="#52282a" d="M14 33h1" />
<path stroke="rgba(40,26,32,0.9803921568627451)" d="M16 33h1" />
<path stroke="rgba(43,31,32,0.8745098039215686)" d="M17 33h1" />
<path stroke="#2c1c22" d="M10 34h1" />
<path stroke="#c77f63" d="M11 34h1" />
<path stroke="#c18164" d="M13 34h1" />
<path stroke="#3f2226" d="M14 34h1" />
<path stroke="rgba(46,41,41,0.9294117647058824)" d="M9 35h1" />
<path stroke="#4e4949" d="M10 35h1" />
<path stroke="#d6936f" d="M11 35h1" />
<path stroke="#f3c7a8" d="M12 35h1" />
<path stroke="#efc2a5" d="M13 35h1" />
<path stroke="#86695b" d="M14 35h1" />
<path stroke="#494748" d="M15 35h1" />
<path stroke="rgba(47,31,31,0.3176470588235294)" d="M4 36h1" />
<path stroke="rgba(47,32,32,0.6823529411764706)" d="M6 36h1" />
<path stroke="rgba(46,33,33,0.8274509803921568)" d="M7 36h1M17 38h1" />
<path stroke="rgba(46,41,41,0.9411764705882353)" d="M9 36h1" />
<path stroke="#4f4d4d" d="M10 36h1" />
<path stroke="#a27267" d="M11 36h1" />
<path stroke="#cbb09d" d="M12 36h1" />
<path stroke="#b5a090" d="M13 36h1" />
<path stroke="#858585" d="M14 36h1" />
<path stroke="#9a9a9a" d="M15 36h1" />
<path stroke="rgba(67,64,64,0.9411764705882353)" d="M16 36h1M16 37h1" />
<path stroke="rgba(46,32,32,0.7764705882352941)" d="M20 36h1" />
<path stroke="rgba(47,33,33,0.49019607843137253)" d="M22 36h1M21 37h1" />
<path stroke="rgba(47,31,31,0.2549019607843137)" d="M5 37h1" />
<path stroke="rgba(46,31,31,0.6705882352941176)" d="M7 37h1" />
<path stroke="rgba(46,35,35,0.8745098039215686)" d="M9 37h1" />
<path stroke="#4e4e4e" d="M10 37h1" />
<path stroke="#6d6d6d" d="M11 37h2" />
<path stroke="#707070" d="M13 37h1" />
<path stroke="#868686" d="M14 37h1" />
<path stroke="#7e7e7e" d="M15 37h1" />
<path stroke="rgba(46,32,32,0.7568627450980392)" d="M19 37h1" />
<path stroke="rgba(46,31,31,0.6039215686274509)" d="M20 37h1" />
<path stroke="rgba(43,28,28,0.07058823529411765)" d="M22 37h1" />
<path stroke="rgba(47,32,32,0.5058823529411764)" d="M7 38h1" />
<path stroke="rgba(47,31,31,0.6392156862745098)" d="M8 38h1" />
<path stroke="rgba(45,32,32,0.8196078431372549)" d="M9 38h1" />
<path stroke="rgba(45,33,33,0.8431372549019608)" d="M10 38h1" />
<path stroke="rgba(46,45,45,0.996078431372549)" d="M11 38h5" />
<path stroke="rgba(46,42,42,0.9372549019607843)" d="M16 38h1" />
<path stroke="rgba(45,32,32,0.7803921568627451)" d="M18 38h1" />
<path stroke="rgba(47,31,31,0.5764705882352941)" d="M19 38h1" />
<path stroke="rgba(45,30,30,0.06666666666666667)" d="M20 38h1" />
<path stroke="rgba(48,31,31,0.22745098039215686)" d="M9 39h1" />
<path stroke="rgba(46,33,33,0.4823529411764706)" d="M10 39h7" />
<path stroke="rgba(47,32,32,0.3803921568627451)" d="M17 39h1" />
</svg>