<svg xmlns="http://www.w3.org/2000/svg" viewBox="0 -0.5 26 43" shape-rendering="crispEdges">
<metadata>Made with Pixels to Svg https://codepen.io/shshaw/pen/XbxvNj</metadata>
<path stroke="rgba(0,0,0,0.22745098039215686)" d="M9 5h1" />
<path stroke="rgba(0,0,0,0.3764705882352941)" d="M10 5h1" />
<path stroke="#090100" d="M11 5h1" />
<path stroke="#150400" d="M12 5h1" />
<path stroke="#0d0200" d="M13 5h3M19 8h1M8 20h1" />
<path stroke="rgba(5,0,0,0.7725490196078432)" d="M16 5h1" />
<path stroke="rgba(0,0,0,0.34901960784313724)" d="M17 5h1" />
<path stroke="rgba(0,0,0,0.19607843137254902)" d="M8 6h1" />
<path stroke="rgba(20,3,0,0.9058823529411765)" d="M9 6h1" />
<path stroke="#2e0a00" d="M10 6h1M9 18h1" />
<path stroke="#290800" d="M11 6h1M12 15h1M14 18h1" />
<path stroke="#511400" d="M12 6h1" />
<path stroke="#340b00" d="M13 6h1" />
<path stroke="#300900" d="M14 6h1M16 15h1M11 17h1" />
<path stroke="#250600" d="M15 6h1M10 12h1M10 14h1M13 15h1" />
<path stroke="#1d0500" d="M16 6h1" />
<path stroke="#0f0200" d="M17 6h1" />
<path stroke="rgba(2,0,0,0.6431372549019608)" d="M18 6h1" />
<path stroke="rgba(0,0,0,0.10196078431372549)" d="M7 7h1" />
<path stroke="#060000" d="M8 7h1" />
<path stroke="#0f0100" d="M9 7h1M18 7h1" />
<path stroke="#280700" d="M10 7h1" />
<path stroke="#420f00" d="M11 7h1M17 15h1" />
<path stroke="#5a1700" d="M12 7h1" />
<path stroke="#541600" d="M13 7h1" />
<path stroke="#360b00" d="M14 7h1M16 7h1" />
<path stroke="#430f00" d="M15 7h1" />
<path stroke="#140200" d="M17 7h1" />
<path stroke="rgba(2,0,0,0.5568627450980392)" d="M19 7h1" />
<path stroke="rgba(0,0,0,0.01568627450980392)" d="M20 7h1" />
<path stroke="rgba(1,0,0,0.8823529411764706)" d="M7 8h1" />
<path stroke="#1c0400" d="M8 8h1M8 11h1" />
<path stroke="#1d0400" d="M9 8h1M9 9h1M13 14h1" />
<path stroke="#410e00" d="M10 8h1M18 14h1M15 16h1" />
<path stroke="#5c1800" d="M11 8h1M13 8h1" />
<path stroke="#611a00" d="M12 8h1" />
<path stroke="#471000" d="M14 8h1M10 15h1" />
<path stroke="#5e1900" d="M15 8h1M10 16h1M17 17h1" />
<path stroke="#451000" d="M16 8h1M16 10h1M17 11h1" />
<path stroke="#180300" d="M17 8h1M19 9h1M16 13h1" />
<path stroke="#230600" d="M18 8h1M12 12h1M10 13h1M17 14h1M8 19h1" />
<path stroke="rgba(0,0,0,0.11764705882352941)" d="M20 8h1M20 17h1" />
<path stroke="rgba(0,0,0,0.4470588235294118)" d="M6 9h1" />
<path stroke="rgba(11,1,0,0.9882352941176471)" d="M7 9h1" />
<path stroke="#1f0500" d="M8 9h1M9 15h1" />
<path stroke="#5d1800" d="M10 9h1M14 9h1" />
<path stroke="#782201" d="M11 9h1" />
<path stroke="#641b00" d="M12 9h1" />
<path stroke="#722001" d="M13 9h1" />
<path stroke="#762101" d="M15 9h1" />
<path stroke="#541500" d="M16 9h1" />
<path stroke="#2a0800" d="M17 9h1M13 13h1M15 15h1" />
<path stroke="#130200" d="M18 9h1" />
<path stroke="rgba(2,0,0,0.8980392156862745)" d="M20 9h1" />
<path stroke="rgba(0,0,0,0.4980392156862745)" d="M6 10h1" />
<path stroke="#1b0400" d="M7 10h1" />
<path stroke="#1a0400" d="M8 10h1M9 14h1M14 14h1" />
<path stroke="#390c00" d="M9 10h1M20 19h1" />
<path stroke="#6a1d01" d="M10 10h1" />
<path stroke="#661b00" d="M11 10h1" />
<path stroke="#461000" d="M12 10h1" />
<path stroke="#752101" d="M13 10h1M13 11h1" />
<path stroke="#4d1300" d="M14 10h1M14 16h1" />
<path stroke="#712001" d="M15 10h1" />
<path stroke="#310a00" d="M17 10h1M16 14h1" />
<path stroke="#290700" d="M18 10h1" />
<path stroke="#110200" d="M19 10h1M12 14h1" />
<path stroke="#020000" d="M20 10h1" />
<path stroke="rgba(26,16,20,0.4980392156862745)" d="M6 11h1" />
<path stroke="#080202" d="M7 11h1" />
<path stroke="#3a0c00" d="M9 11h1" />
<path stroke="#2e0900" d="M10 11h1" />
<path stroke="#441000" d="M11 11h1M19 19h1" />
<path stroke="#330a00" d="M12 11h1M11 12h1M9 13h1M15 13h1M12 16h1" />
<path stroke="#421000" d="M14 11h1" />
<path stroke="#4a1100" d="M15 11h1" />
<path stroke="#4e1300" d="M16 11h1" />
<path stroke="#531500" d="M18 11h1M9 17h1M10 18h1M18 18h1" />
<path stroke="#280900" d="M19 11h1" />
<path stroke="#170e12" d="M20 11h1" />
<path stroke="rgba(42,26,34,0.11764705882352941)" d="M5 12h1M5 13h1M5 14h1" />
<path stroke="#1a0d10" d="M6 12h1" />
<path stroke="#220600" d="M7 12h1" />
<path stroke="#481100" d="M8 12h1M17 16h1" />
<path stroke="#4a1200" d="M9 12h1M16 17h1M16 18h1" />
<path stroke="#581600" d="M13 12h1M12 17h1" />
<path stroke="#2f0900" d="M14 12h1M11 14h1M18 19h1" />
<path stroke="#3f0e00" d="M15 12h1" />
<path stroke="#2d0900" d="M16 12h1M18 12h1M17 13h1" />
<path stroke="#400e00" d="M17 12h1M10 17h1" />
<path stroke="#300c00" d="M19 12h1" />
<path stroke="#823833" d="M20 12h1" />
<path stroke="rgba(38,25,32,0.7294117647058823)" d="M21 12h1M21 13h1M21 14h1M21 23h1M21 24h1" />
<path stroke="#442f2a" d="M6 13h1" />
<path stroke="#2d0f06" d="M7 13h1" />
<path stroke="#400f00" d="M8 13h1M12 19h1" />
<path stroke="#190300" d="M11 13h1" />
<path stroke="#100100" d="M12 13h1" />
<path stroke="#170300" d="M14 13h1" />
<path stroke="#501400" d="M18 13h1" />
<path stroke="#290900" d="M19 13h1" />
<path stroke="#583d2e" d="M20 13h1" />
<path stroke="#8e7267" d="M6 14h1" />
<path stroke="#c08d6d" d="M7 14h1" />
<path stroke="#110300" d="M8 14h1M11 20h1" />
<path stroke="#240600" d="M15 14h1" />
<path stroke="#230800" d="M19 14h1" />
<path stroke="#d8b49a" d="M20 14h1" />
<path stroke="rgba(42,21,32,0.09411764705882353)" d="M5 15h1" />
<path stroke="rgba(89,43,44,0.9058823529411765)" d="M6 15h1" />
<path stroke="#ebc3ab" d="M7 15h1" />
<path stroke="#a67457" d="M8 15h1" />
<path stroke="#521400" d="M11 15h1" />
<path stroke="#300a00" d="M14 15h1" />
<path stroke="#270700" d="M18 15h1" />
<path stroke="#320a00" d="M19 15h1" />
<path stroke="#050100" d="M20 15h1" />
<path stroke="rgba(39,26,32,0.5882352941176471)" d="M21 15h1" />
<path stroke="rgba(38,24,33,0.21176470588235294)" d="M6 16h1" />
<path stroke="rgba(122,100,93,0.9333333333333333)" d="M7 16h1" />
<path stroke="#804538" d="M8 16h1" />
<path stroke="#2a0900" d="M9 16h1" />
<path stroke="#410f00" d="M11 16h1" />
<path stroke="#4c1200" d="M13 16h1M17 18h1" />
<path stroke="#380d00" d="M16 16h1" />
<path stroke="#340a00" d="M18 16h1" />
<path stroke="#200600" d="M19 16h1M15 20h1" />
<path stroke="rgba(4,0,0,0.49019607843137253)" d="M20 16h1" />
<path stroke="rgba(28,28,28,0.03529411764705882)" d="M7 17h1" />
<path stroke="#150502" d="M8 17h1" />
<path stroke="#691d01" d="M13 17h1" />
<path stroke="#551700" d="M14 17h1" />
<path stroke="#5f1900" d="M15 17h1" />
<path stroke="#3d0d00" d="M18 17h1M8 18h1" />
<path stroke="#120300" d="M19 17h1M17 19h1M8 21h1" />
<path stroke="rgba(0,0,0,0.17647058823529413)" d="M6 18h1" />
<path stroke="rgba(13,2,0,0.9215686274509803)" d="M7 18h1" />
<path stroke="#370c00" d="M11 18h1M7 19h1" />
<path stroke="#631b00" d="M12 18h1" />
<path stroke="#461100" d="M13 18h1" />
<path stroke="#6f1f01" d="M15 18h1" />
<path stroke="#3c0d00" d="M19 18h1" />
<path stroke="rgba(37,7,0,0.42745098039215684)" d="M20 18h1" />
<path stroke="rgba(0,0,0,0.08627450980392157)" d="M5 19h1" />
<path stroke="rgba(28,6,0,0.8627450980392157)" d="M6 19h1" />
<path stroke="#220700" d="M9 19h1" />
<path stroke="#2b0800" d="M10 19h1" />
<path stroke="#160400" d="M11 19h1M11 21h1M21 21h1" />
<path stroke="#230700" d="M13 19h1" />
<path stroke="#1a0500" d="M14 19h1" />
<path stroke="#471100" d="M15 19h1" />
<path stroke="#4a1300" d="M16 19h1" />
<path stroke="rgba(36,6,0,0.5333333333333333)" d="M21 19h1" />
<path stroke="#070204" d="M5 20h1" />
<path stroke="#200500" d="M6 20h2" />
<path stroke="#210500" d="M9 20h1" />
<path stroke="#1c0d10" d="M10 20h1" />
<path stroke="#350b00" d="M12 20h1" />
<path stroke="#422f23" d="M13 20h1" />
<path stroke="#70503d" d="M14 20h1" />
<path stroke="#280800" d="M16 20h1" />
<path stroke="#b05268" d="M17 20h1" />
<path stroke="#1d0e11" d="M18 20h1" />
<path stroke="#1f0b09" d="M19 20h1" />
<path stroke="#360c00" d="M20 20h1" />
<path stroke="#370b00" d="M21 20h1" />
<path stroke="#160300" d="M22 20h1" />
<path stroke="rgba(1,0,0,0.8470588235294118)" d="M23 20h1" />
<path stroke="#221426" d="M5 21h1" />
<path stroke="#6d3042" d="M6 21h1" />
<path stroke="#642a3f" d="M7 21h1" />
<path stroke="#461c28" d="M9 21h1" />
<path stroke="#e76d88" d="M10 21h1" />
<path stroke="#0a0200" d="M12 21h1" />
<path stroke="#90605a" d="M13 21h2M19 24h1" />
<path stroke="#793a48" d="M15 21h1" />
<path stroke="#361619" d="M16 21h1" />
<path stroke="#be5674" d="M17 21h1" />
<path stroke="#f1738f" d="M18 21h1" />
<path stroke="#ac5369" d="M19 21h1" />
<path stroke="#763746" d="M20 21h1" />
<path stroke="rgba(18,3,0,0.6705882352941176)" d="M22 21h1" />
<path stroke="rgba(36,23,41,0.2196078431372549)" d="M5 22h1" />
<path stroke="#7a3755" d="M6 22h1" />
<path stroke="#e66a8a" d="M7 22h1" />
<path stroke="#b65572" d="M8 22h1" />
<path stroke="#a1456d" d="M9 22h1" />
<path stroke="#fc8899" d="M10 22h1M15 22h1" />
<path stroke="#85484f" d="M11 22h1" />
<path stroke="#ad5165" d="M12 22h1" />
<path stroke="#db6784" d="M13 22h2" />
<path stroke="#eb808e" d="M16 22h1" />
<path stroke="#d16083" d="M17 22h1" />
<path stroke="#8d4168" d="M18 22h1" />
<path stroke="#ed6f8d" d="M19 22h1" />
<path stroke="#cb577f" d="M20 22h1" />
<path stroke="rgba(22,14,30,0.7607843137254902)" d="M21 22h1" />
<path stroke="rgba(0,0,0,0.0392156862745098)" d="M22 22h1" />
<path stroke="rgba(48,28,34,0.3568627450980392)" d="M5 23h1" />
<path stroke="#552f36" d="M6 23h1" />
<path stroke="#633944" d="M7 23h1" />
<path stroke="#4b2342" d="M8 23h1M8 24h1" />
<path stroke="#a54771" d="M9 23h1" />
<path stroke="#ee708d" d="M10 23h1M10 24h1" />
<path stroke="#d96787" d="M11 23h1" />
<path stroke="#fb8597" d="M12 23h1M15 23h1" />
<path stroke="#f0718e" d="M13 23h1M13 24h2M13 25h2M13 26h2M13 27h1" />
<path stroke="#f67c93" d="M14 23h1" />
<path stroke="#d15c82" d="M16 23h1M16 24h1" />
<path stroke="#ce5a80" d="M17 23h1" />
<path stroke="#6b3059" d="M18 23h1M18 24h1" />
<path stroke="#542f41" d="M19 23h1" />
<path stroke="#643a45" d="M20 23h1" />
<path stroke="#341e23" d="M5 24h1M18 26h1" />
<path stroke="#ba6e58" d="M6 24h1" />
<path stroke="#dc9a74" d="M7 24h1" />
<path stroke="#833a64" d="M9 24h1" />
<path stroke="#c8567e" d="M11 24h1" />
<path stroke="#ea6d8c" d="M12 24h1" />
<path stroke="#d35d82" d="M15 24h1" />
<path stroke="#a84b72" d="M17 24h1" />
<path stroke="#cf8968" d="M20 24h1" />
<path stroke="#3a2628" d="M5 25h1" />
<path stroke="#d89570" d="M6 25h1M10 34h1" />
<path stroke="#e4a47c" d="M7 25h1" />
<path stroke="#2c1925" d="M8 25h1" />
<path stroke="#5d2b4f" d="M9 25h1" />
<path stroke="#c1517b" d="M10 25h1M16 25h1" />
<path stroke="#c0507b" d="M11 25h1" />
<path stroke="#e66b8a" d="M12 25h1" />
<path stroke="#c0517b" d="M15 25h1" />
<path stroke="#853a64" d="M17 25h1" />
<path stroke="#472138" d="M18 25h1" />
<path stroke="#bf745d" d="M19 25h1" />
<path stroke="#e5a67e" d="M20 25h1M10 33h1" />
<path stroke="rgba(43,27,32,0.7411764705882353)" d="M21 25h1" />
<path stroke="rgba(0,0,0,0.011764705882352941)" d="M22 25h1" />
<path stroke="#382226" d="M5 26h1" />
<path stroke="#d29175" d="M6 26h1" />
<path stroke="#edb996" d="M7 26h1" />
<path stroke="#160a0a" d="M8 26h1" />
<path stroke="#27162b" d="M9 26h1" />
<path stroke="#7d3757" d="M10 26h1" />
<path stroke="#9f446e" d="M11 26h1" />
<path stroke="#d86585" d="M12 26h1" />
<path stroke="#76355f" d="M15 26h1" />
<path stroke="#a8476e" d="M16 26h1" />
<path stroke="#43203a" d="M17 26h1" />
<path stroke="#c98b7b" d="M19 26h1" />
<path stroke="#f9d5ba" d="M20 26h1M20 27h1" />
<path stroke="#8a4c41" d="M21 26h1M21 29h1" />
<path stroke="rgba(40,26,32,0.34901960784313724)" d="M22 26h1M22 27h1M22 28h1M22 29h1" />
<path stroke="rgba(49,28,35,0.28627450980392155)" d="M5 27h1" />
<path stroke="#895b4d" d="M6 27h1" />
<path stroke="#513a2e" d="M7 27h1" />
<path stroke="#341306" d="M8 27h1" />
<path stroke="#53200e" d="M9 27h1" />
<path stroke="#170a09" d="M10 27h1" />
<path stroke="#331b31" d="M11 27h1" />
<path stroke="#ab4b6f" d="M12 27h1" />
<path stroke="#da6285" d="M14 27h1" />
<path stroke="#311a31" d="M15 27h1" />
<path stroke="#2d1624" d="M16 27h1" />
<path stroke="#3a160b" d="M17 27h1" />
<path stroke="#392427" d="M18 27h1" />
<path stroke="#dea78b" d="M19 27h1" />
<path stroke="#ae7a60" d="M21 27h1M21 28h1" />
<path stroke="rgba(40,25,32,0.403921568627451)" d="M6 28h1" />
<path stroke="rgba(22,8,4,0.9764705882352941)" d="M7 28h1" />
<path stroke="#4b1d09" d="M8 28h1" />
<path stroke="#401705" d="M9 28h1" />
<path stroke="#762c0c" d="M10 28h1" />
<path stroke="#300701" d="M11 28h1" />
<path stroke="#230d17" d="M12 28h1" />
<path stroke="#2b161e" d="M13 28h1" />
<path stroke="#20121d" d="M14 28h1" />
<path stroke="#380101" d="M15 28h1" />
<path stroke="#2f1003" d="M16 28h1" />
<path stroke="#2e1819" d="M17 28h1" />
<path stroke="#b16455" d="M18 28h1" />
<path stroke="#f9d7be" d="M19 28h1" />
<path stroke="#faeae3" d="M20 28h1" />
<path stroke="rgba(46,29,29,0.17254901960784313)" d="M6 29h1" />
<path stroke="rgba(21,8,2,0.9215686274509803)" d="M7 29h1" />
<path stroke="#883c1a" d="M8 29h1" />
<path stroke="#311103" d="M9 29h1" />
<path stroke="#8b3b18" d="M10 29h1" />
<path stroke="#3d0701" d="M11 29h1" />
<path stroke="#300a02" d="M12 29h1" />
<path stroke="#722a0b" d="M13 29h1M13 30h1" />
<path stroke="#381404" d="M14 29h1" />
<path stroke="#4d0000" d="M15 29h1" />
<path stroke="#321203" d="M16 29h1" />
<path stroke="#311a19" d="M17 29h1" />
<path stroke="#ba6e5a" d="M18 29h1" />
<path stroke="#ddaf9f" d="M19 29h1" />
<path stroke="#f9dfcd" d="M20 29h1" />
<path stroke="rgba(47,31,31,0.5725490196078431)" d="M5 30h1" />
<path stroke="rgba(46,33,33,0.5843137254901961)" d="M6 30h1" />
<path stroke="rgba(22,8,3,0.9529411764705882)" d="M7 30h1" />
<path stroke="#726608" d="M8 30h1" />
<path stroke="#723216" d="M9 30h1" />
<path stroke="#782d0d" d="M10 30h1" />
<path stroke="#351204" d="M11 30h1" />
<path stroke="#853b1b" d="M12 30h1" />
<path stroke="#481a06" d="M14 30h1" />
<path stroke="#280d02" d="M15 30h1" />
<path stroke="#823818" d="M16 30h1" />
<path stroke="#331a19" d="M17 30h1" />
<path stroke="#412a2c" d="M18 30h1" />
<path stroke="#edbb9a" d="M19 30h1" />
<path stroke="#d39272" d="M20 30h1" />
<path stroke="rgba(44,28,32,0.8941176470588236)" d="M21 30h1" />
<path stroke="rgba(47,33,33,0.21176470588235294)" d="M22 30h1" />
<path stroke="rgba(43,28,28,0.07058823529411765)" d="M3 31h1" />
<path stroke="rgba(47,33,33,0.49019607843137253)" d="M4 31h1M3 32h1" />
<path stroke="rgba(47,32,32,0.596078431372549)" d="M5 31h1M21 31h2M4 32h1M21 32h2M3 33h2M21 33h3M3 34h2M21 34h3M3 35h2M21 35h3M21 36h2M5 37h1M21 37h1" />
<path stroke="rgba(47,31,31,0.6352941176470588)" d="M6 31h1M6 37h1" />
<path stroke="rgba(30,16,12,0.9098039215686274)" d="M7 31h1" />
<path stroke="#160904" d="M8 31h1" />
<path stroke="#421909" d="M9 31h1" />
<path stroke="#776108" d="M10 31h1" />
<path stroke="#2a0f03" d="M11 31h1" />
<path stroke="#602a13" d="M12 31h1" />
<path stroke="#825d0a" d="M13 31h1" />
<path stroke="#4a1b06" d="M14 31h1" />
<path stroke="#200b02" d="M15 31h1" />
<path stroke="#673909" d="M16 31h1" />
<path stroke="#492905" d="M17 31h1" />
<path stroke="#26181f" d="M18 31h1" />
<path stroke="rgba(37,23,27,0.9725490196078431)" d="M19 31h1" />
<path stroke="rgba(41,26,32,0.8705882352941177)" d="M20 31h1" />
<path stroke="rgba(46,31,31,0.19607843137254902)" d="M23 31h1" />
<path stroke="rgba(47,32,32,0.615686274509804)" d="M5 32h1M5 36h1" />
<path stroke="rgba(46,32,32,0.803921568627451)" d="M6 32h1M6 36h1" />
<path stroke="rgba(45,32,32,0.8352941176470589)" d="M7 32h1M6 33h3M19 33h2M6 34h2M19 34h2M6 35h2M19 35h2M7 36h1M18 36h2M18 37h1M14 38h2" />
<path stroke="rgba(38,25,25,0.9098039215686274)" d="M8 32h1" />
<path stroke="#5a2928" d="M9 32h1" />
<path stroke="#2a1308" d="M10 32h1" />
<path stroke="#b58e75" d="M11 32h1" />
<path stroke="#804035" d="M12 32h1" />
<path stroke="#2d1004" d="M13 32h1" />
<path stroke="#734c36" d="M14 32h1" />
<path stroke="#ac7a5b" d="M15 32h1" />
<path stroke="#754732" d="M16 32h1" />
<path stroke="#632921" d="M17 32h1" />
<path stroke="rgba(39,25,31,0.984313725490196)" d="M18 32h1" />
<path stroke="rgba(41,28,27,0.8588235294117647)" d="M19 32h1" />
<path stroke="rgba(46,32,32,0.7764705882352941)" d="M20 32h1M20 36h1" />
<path stroke="rgba(48,32,32,0.5882352941176471)" d="M23 32h1" />
<path stroke="rgba(48,32,32,0.25098039215686274)" d="M24 32h1" />
<path stroke="rgba(47,32,32,0.6235294117647059)" d="M5 33h1M5 34h1M5 35h1" />
<path stroke="rgba(41,28,32,0.9411764705882353)" d="M9 33h1" />
<path stroke="#eebc9b" d="M11 33h1" />
<path stroke="#a75448" d="M12 33h1" />
<path stroke="#271920" d="M13 33h1" />
<path stroke="#946955" d="M14 33h1M14 34h1" />
<path stroke="#f8d6bc" d="M15 33h1" />
<path stroke="#ebbea3" d="M16 33h1" />
<path stroke="#ac5c4d" d="M17 33h1" />
<path stroke="rgba(40,26,32,0.9803921568627451)" d="M18 33h1" />
<path stroke="rgba(46,32,32,0.34509803921568627)" d="M24 33h1M24 34h1M24 35h1M16 39h2" />
<path stroke="rgba(44,31,33,0.8588235294117647)" d="M8 34h1" />
<path stroke="rgba(78,40,41,0.9725490196078431)" d="M9 34h1" />
<path stroke="#d38f6c" d="M11 34h1" />
<path stroke="#743e38" d="M12 34h1" />
<path stroke="rgba(42,28,32,0.9333333333333333)" d="M13 34h1" />
<path stroke="#f9e9e3" d="M15 34h1" />
<path stroke="#fae4d7" d="M16 34h1" />
<path stroke="#d89b7c" d="M17 34h1" />
<path stroke="rgba(57,49,52,0.9803921568627451)" d="M18 34h1" />
<path stroke="rgba(67,36,39,0.984313725490196)" d="M8 35h1" />
<path stroke="#95403b" d="M9 35h1" />
<path stroke="#cd8766" d="M10 35h1" />
<path stroke="#e1a079" d="M11 35h1" />
<path stroke="#4b3331" d="M12 35h1" />
<path stroke="rgba(52,40,40,0.8666666666666667)" d="M13 35h1" />
<path stroke="#7c4a45" d="M14 35h1" />
<path stroke="#e4a986" d="M15 35h1" />
<path stroke="#dba997" d="M16 35h1" />
<path stroke="#6f534e" d="M17 35h1" />
<path stroke="rgba(49,48,48,0.9803921568627451)" d="M18 35h1" />
<path stroke="rgba(46,33,33,0.15294117647058825)" d="M3 36h1M4 37h1" />
<path stroke="rgba(47,33,33,0.5529411764705883)" d="M4 36h1" />
<path stroke="#513333" d="M8 36h1" />
<path stroke="#a75447" d="M9 36h1" />
<path stroke="#eab99b" d="M10 36h1" />
<path stroke="#f9d9c1" d="M11 36h1" />
<path stroke="#b66d5d" d="M12 36h1" />
<path stroke="rgba(40,28,34,0.9921568627450981)" d="M13 36h1" />
<path stroke="rgba(59,58,58,0.9803921568627451)" d="M14 36h1" />
<path stroke="#454545" d="M15 36h2" />
<path stroke="rgba(52,50,50,0.9686274509803922)" d="M17 36h1" />
<path stroke="rgba(48,31,31,0.4196078431372549)" d="M23 36h1" />
<path stroke="rgba(45,32,32,0.8156862745098039)" d="M7 37h1" />
<path stroke="#433a39" d="M8 37h1" />
<path stroke="#b17a5f" d="M9 37h1" />
<path stroke="#faece7" d="M10 37h1" />
<path stroke="#fae2d4" d="M11 37h1" />
<path stroke="#d59575" d="M12 37h1" />
<path stroke="rgba(40,26,32,0.9686274509803922)" d="M13 37h1" />
<path stroke="rgba(46,36,36,0.8666666666666667)" d="M14 37h1" />
<path stroke="rgba(46,38,38,0.8941176470588236)" d="M15 37h2" />
<path stroke="rgba(46,34,34,0.8509803921568627)" d="M17 37h1" />
<path stroke="rgba(46,32,32,0.7568627450980392)" d="M19 37h1" />
<path stroke="rgba(46,31,31,0.6039215686274509)" d="M20 37h1" />
<path stroke="rgba(47,32,32,0.3411764705882353)" d="M22 37h1" />
<path stroke="rgba(45,31,31,0.28627450980392155)" d="M6 38h1" />
<path stroke="rgba(47,31,31,0.5764705882352941)" d="M7 38h1M19 38h2" />
<path stroke="rgba(54,54,54,0.9725490196078431)" d="M8 38h1" />
<path stroke="#7c4642" d="M9 38h1" />
<path stroke="#dfa37d" d="M10 38h1" />
<path stroke="#e1b094" d="M11 38h1" />
<path stroke="#a04f44" d="M12 38h1" />
<path stroke="rgba(71,69,69,0.9686274509803922)" d="M13 38h1" />
<path stroke="rgba(46,33,33,0.8274509803921568)" d="M16 38h2" />
<path stroke="rgba(45,32,32,0.7803921568627451)" d="M18 38h1" />
<path stroke="rgba(45,45,45,0.1568627450980392)" d="M8 39h1" />
<path stroke="rgba(60,60,60,0.8509803921568627)" d="M9 39h1" />
<path stroke="#404040" d="M10 39h3" />
<path stroke="rgba(46,43,43,0.5607843137254902)" d="M13 39h1" />
<path stroke="rgba(46,33,33,0.4823529411764706)" d="M14 39h2" />
<path stroke="rgba(46,46,46,0.12941176470588237)" d="M9 40h1" />
<path stroke="rgba(46,46,46,0.19607843137254902)" d="M10 40h3" />
</svg>