<svg xmlns="http://www.w3.org/2000/svg" viewBox="0 -0.5 26 43" shape-rendering="crispEdges">
<metadata>Made with Pixels to Svg https://codepen.io/shshaw/pen/XbxvNj</metadata>
<path stroke="rgba(1,0,0,0.9647058823529412)" d="M10 4h6" />
<path stroke="rgba(8,2,0,0.5215686274509804)" d="M8 5h1" />
<path stroke="#130400" d="M9 5h1" />
<path stroke="#170300" d="M10 5h1M13 14h1" />
<path stroke="#3a0d00" d="M11 5h1M17 11h1" />
<path stroke="#330a00" d="M12 5h1M11 15h1" />
<path stroke="#260600" d="M13 5h1" />
<path stroke="#280700" d="M14 5h1" />
<path stroke="#160300" d="M15 5h1M8 14h1" />
<path stroke="#0a0100" d="M16 5h1" />
<path stroke="rgba(4,0,0,0.5215686274509804)" d="M17 5h1" />
<path stroke="rgba(2,0,0,0.6431372549019608)" d="M7 6h1M18 6h1" />
<path stroke="#0d0100" d="M8 6h1" />
<path stroke="#230600" d="M9 6h1M12 14h1" />
<path stroke="#390c00" d="M10 6h1M20 19h1" />
<path stroke="#4d1300" d="M11 6h1M14 15h1" />
<path stroke="#581700" d="M12 6h1M11 17h1" />
<path stroke="#290800" d="M13 6h1" />
<path stroke="#3c0d00" d="M14 6h1M18 14h1M13 16h1M18 17h1M12 18h1" />
<path stroke="#380c00" d="M15 6h1M17 13h1" />
<path stroke="#1c0400" d="M16 6h1M8 8h1M7 10h1M16 13h1" />
<path stroke="#0b0100" d="M17 6h1" />
<path stroke="rgba(0,0,0,0.4980392156862745)" d="M6 7h1M19 7h1M19 16h1" />
<path stroke="#0f0100" d="M7 7h1M18 7h1" />
<path stroke="#1f0500" d="M8 7h1M16 7h1M14 13h1M8 19h1" />
<path stroke="#2f0a00" d="M9 7h1M18 10h1" />
<path stroke="#451000" d="M10 7h1M15 7h1M16 10h1M17 16h1" />
<path stroke="#611a00" d="M11 7h1" />
<path stroke="#5f1900" d="M12 7h1" />
<path stroke="#430f00" d="M13 7h1" />
<path stroke="#521400" d="M14 7h1M18 18h1" />
<path stroke="#1e0500" d="M17 7h1M14 19h1" />
<path stroke="rgba(0,0,0,0.058823529411764705)" d="M5 8h1M20 8h1" />
<path stroke="rgba(5,0,0,0.7490196078431373)" d="M6 8h1M19 8h1" />
<path stroke="#210500" d="M7 8h1M18 8h1M9 13h1" />
<path stroke="#400f00" d="M9 8h1" />
<path stroke="#6d1e00" d="M10 8h1" />
<path stroke="#6f1f01" d="M11 8h1" />
<path stroke="#6a1d00" d="M12 8h1" />
<path stroke="#5c1800" d="M13 8h1" />
<path stroke="#601a00" d="M14 8h1" />
<path stroke="#601900" d="M15 8h1" />
<path stroke="#320a00" d="M16 8h1" />
<path stroke="#190300" d="M17 8h1" />
<path stroke="rgba(0,0,0,0.11764705882352941)" d="M5 9h1M20 9h1" />
<path stroke="#110300" d="M6 9h1" />
<path stroke="#130200" d="M7 9h1M11 13h1" />
<path stroke="#290700" d="M8 9h1M15 14h1" />
<path stroke="#631b01" d="M9 9h1M14 9h1" />
<path stroke="#792301" d="M10 9h1" />
<path stroke="#551600" d="M11 9h1M17 12h1" />
<path stroke="#701f01" d="M12 9h1M15 18h1" />
<path stroke="#5a1700" d="M13 9h1M16 16h1" />
<path stroke="#461000" d="M15 9h1M17 10h1" />
<path stroke="#360b00" d="M16 9h1M19 19h1" />
<path stroke="#220600" d="M17 9h1" />
<path stroke="#100100" d="M18 9h1M10 12h1" />
<path stroke="#070000" d="M19 9h1" />
<path stroke="rgba(8,8,8,0.11764705882352941)" d="M5 10h1M20 10h1" />
<path stroke="#0b0404" d="M6 10h1M19 10h1" />
<path stroke="#3b0c00" d="M8 10h1M16 14h1" />
<path stroke="#3b0d00" d="M9 10h1" />
<path stroke="#410e00" d="M10 10h1" />
<path stroke="#4a1200" d="M11 10h1M14 10h1" />
<path stroke="#6d1f01" d="M12 10h1" />
<path stroke="#581600" d="M13 10h1M10 14h1M10 15h1" />
<path stroke="#571600" d="M15 10h1" />
<path stroke="rgba(36,23,29,0.6941176470588235)" d="M5 11h1" />
<path stroke="#170705" d="M6 11h1" />
<path stroke="#2c0900" d="M7 11h1" />
<path stroke="#481100" d="M8 11h1M14 18h1" />
<path stroke="#2e0900" d="M9 11h1M15 11h1M14 14h1M17 14h1" />
<path stroke="#3f0e00" d="M10 11h1M10 17h1" />
<path stroke="#2a0800" d="M11 11h1M14 12h1" />
<path stroke="#5b1800" d="M12 11h1" />
<path stroke="#431000" d="M13 11h1" />
<path stroke="#340b00" d="M14 11h1M13 15h1" />
<path stroke="#471000" d="M16 11h1" />
<path stroke="#541600" d="M18 11h1" />
<path stroke="#391a19" d="M19 11h1" />
<path stroke="rgba(52,30,35,0.6941176470588235)" d="M20 11h1" />
<path stroke="#23171d" d="M5 12h1M20 12h1" />
<path stroke="#240a02" d="M6 12h1" />
<path stroke="#591700" d="M7 12h1" />
<path stroke="#2c0800" d="M8 12h1M6 19h1" />
<path stroke="#2d0900" d="M9 12h1M16 12h1M8 13h1" />
<path stroke="#1a0400" d="M11 12h1M13 13h1" />
<path stroke="#350b00" d="M12 12h1M15 16h1M7 18h1" />
<path stroke="#200500" d="M13 12h1M18 16h1M15 20h1" />
<path stroke="#110200" d="M15 12h1" />
<path stroke="#260700" d="M18 12h1" />
<path stroke="#160602" d="M19 12h1" />
<path stroke="#3e2c2e" d="M5 13h1M20 13h1" />
<path stroke="#a77f65" d="M6 13h1" />
<path stroke="#1e0b06" d="M7 13h1" />
<path stroke="#2f0900" d="M10 13h1M15 13h1M11 14h1M17 15h1" />
<path stroke="#150300" d="M12 13h1" />
<path stroke="#481200" d="M18 13h1" />
<path stroke="#775c4b" d="M19 13h1" />
<path stroke="#372126" d="M5 14h1" />
<path stroke="#d09581" d="M6 14h1" />
<path stroke="#c08d6d" d="M7 14h1" />
<path stroke="#310a00" d="M9 14h1" />
<path stroke="#261611" d="M19 14h1" />
<path stroke="#281b21" d="M20 14h1" />
<path stroke="rgba(42,21,32,0.09411764705882353)" d="M5 15h1" />
<path stroke="rgba(132,108,100,0.9058823529411765)" d="M6 15h1" />
<path stroke="#c47f64" d="M7 15h1" />
<path stroke="#120400" d="M8 15h1" />
<path stroke="#541500" d="M9 15h1M16 15h1M9 17h1" />
<path stroke="#400e00" d="M12 15h1M8 17h1" />
<path stroke="#250600" d="M15 15h1" />
<path stroke="#370c00" d="M18 15h1" />
<path stroke="rgba(17,2,0,0.9019607843137255)" d="M19 15h1" />
<path stroke="rgba(0,0,0,0.09411764705882353)" d="M20 15h1" />
<path stroke="rgba(38,24,33,0.21176470588235294)" d="M6 16h1" />
<path stroke="rgba(63,28,26,0.9333333333333333)" d="M7 16h1" />
<path stroke="#310b00" d="M8 16h1" />
<path stroke="#4f1300" d="M9 16h1" />
<path stroke="#300900" d="M10 16h1M11 19h1" />
<path stroke="#410f00" d="M11 16h1" />
<path stroke="#691d00" d="M12 16h1" />
<path stroke="#5e1900" d="M14 16h1M17 17h1" />
<path stroke="rgba(0,0,0,0.4823529411764706)" d="M6 17h1" />
<path stroke="rgba(54,12,0,0.996078431372549)" d="M7 17h1" />
<path stroke="#651b00" d="M12 17h1" />
<path stroke="#190400" d="M13 17h1" />
<path stroke="#621a01" d="M14 17h1" />
<path stroke="#420f00" d="M15 17h1" />
<path stroke="#4c1200" d="M16 17h1" />
<path stroke="rgba(34,6,0,0.4980392156862745)" d="M19 17h1" />
<path stroke="rgba(7,0,0,0.42745098039215684)" d="M5 18h1" />
<path stroke="#220700" d="M6 18h1" />
<path stroke="#180400" d="M8 18h1" />
<path stroke="#2b0900" d="M9 18h1" />
<path stroke="#290900" d="M10 18h1" />
<path stroke="#2b0a00" d="M11 18h1" />
<path stroke="#0b0200" d="M13 18h1" />
<path stroke="#210600" d="M16 18h1" />
<path stroke="#330b00" d="M17 18h1" />
<path stroke="#370b00" d="M19 18h1" />
<path stroke="rgba(37,7,0,0.42745098039215684)" d="M20 18h1" />
<path stroke="rgba(0,0,0,0.5333333333333333)" d="M4 19h1" />
<path stroke="#1d0500" d="M5 19h1" />
<path stroke="#0e0200" d="M7 19h1" />
<path stroke="#160400" d="M9 19h1" />
<path stroke="#020000" d="M10 19h1" />
<path stroke="#150400" d="M12 19h1M18 19h1" />
<path stroke="#896149" d="M13 19h1" />
<path stroke="#471100" d="M15 19h1" />
<path stroke="#401d24" d="M16 19h1" />
<path stroke="#36171c" d="M17 19h1" />
<path stroke="rgba(30,4,0,0.7294117647058823)" d="M21 19h1" />
<path stroke="rgba(5,0,0,0.7294117647058823)" d="M22 19h1" />
<path stroke="rgba(26,16,36,0.7294117647058823)" d="M4 20h1" />
<path stroke="#180a0f" d="M5 20h1" />
<path stroke="#1a0b10" d="M6 20h1M19 20h1" />
<path stroke="#1f0602" d="M7 20h1" />
<path stroke="#1e0604" d="M8 20h1" />
<path stroke="#a44d61" d="M9 20h1" />
<path stroke="#030000" d="M10 20h1" />
<path stroke="#240800" d="M11 20h1" />
<path stroke="#a9785e" d="M12 20h1" />
<path stroke="#d09474" d="M13 20h1" />
<path stroke="#68463a" d="M14 20h1" />
<path stroke="#652f3c" d="M16 20h1" />
<path stroke="#ef708d" d="M17 20h1" />
<path stroke="#e37a89" d="M18 20h1" />
<path stroke="#200602" d="M20 20h1" />
<path stroke="rgba(43,9,0,0.9686274509803922)" d="M21 20h1" />
<path stroke="rgba(0,0,0,0.30980392156862746)" d="M22 20h1" />
<path stroke="rgba(25,16,36,0.36470588235294116)" d="M4 21h1" />
<path stroke="#7a3755" d="M5 21h1" />
<path stroke="#d86184" d="M6 21h1M19 21h1" />
<path stroke="#843d4e" d="M7 21h1" />
<path stroke="#5d2843" d="M8 21h1" />
<path stroke="#e56f8c" d="M9 21h1" />
<path stroke="#7c434a" d="M10 21h1" />
<path stroke="#3e1a1e" d="M11 21h1" />
<path stroke="#91445e" d="M12 21h1" />
<path stroke="#964763" d="M13 21h1" />
<path stroke="#cf6780" d="M14 21h1" />
<path stroke="#854850" d="M15 21h1" />
<path stroke="#e46f8c" d="M16 21h1" />
<path stroke="#b55277" d="M17 21h1" />
<path stroke="#ed6f8d" d="M18 21h1" />
<path stroke="#351828" d="M20 21h1" />
<path stroke="rgba(21,12,16,0.7294117647058823)" d="M21 21h1" />
<path stroke="#2a1924" d="M5 22h1" />
<path stroke="#4f2541" d="M6 22h1M19 22h1" />
<path stroke="#522742" d="M7 22h1M18 22h1" />
<path stroke="#873b65" d="M8 22h1M17 22h1" />
<path stroke="#e16888" d="M9 22h1M16 22h1" />
<path stroke="#c9597f" d="M10 22h1" />
<path stroke="#ed8190" d="M11 22h1" />
<path stroke="#f27590" d="M12 22h2" />
<path stroke="#fe8b9a" d="M14 22h1" />
<path stroke="#ca5a80" d="M15 22h1" />
<path stroke="#af705c" d="M20 22h1" />
<path stroke="rgba(38,25,32,0.7294117647058823)" d="M21 22h1M4 23h1" />
<path stroke="#b46553" d="M5 23h1" />
<path stroke="#e1a079" d="M6 23h1" />
<path stroke="#502c3f" d="M7 23h1" />
<path stroke="#813963" d="M8 23h1M17 23h1" />
<path stroke="#d86385" d="M9 23h1M16 23h1" />
<path stroke="#c2527c" d="M10 23h1M15 23h1" />
<path stroke="#e96c8b" d="M11 23h1M14 23h1" />
<path stroke="#f0718e" d="M12 23h2M12 24h2M12 25h2" />
<path stroke="#442038" d="M18 23h1" />
<path stroke="#9c5547" d="M19 23h1" />
<path stroke="#e5aa87" d="M20 23h1" />
<path stroke="#84443c" d="M21 23h1" />
<path stroke="rgba(40,26,32,0.34901960784313724)" d="M22 23h1M22 24h1" />
<path stroke="rgba(40,26,31,0.22745098039215686)" d="M3 24h1" />
<path stroke="rgba(99,46,46,0.9058823529411765)" d="M4 24h1" />
<path stroke="#e2a27a" d="M5 24h1" />
<path stroke="#bf755c" d="M6 24h1" />
<path stroke="rgba(91,44,61,0.42745098039215684)" d="M7 24h1" />
<path stroke="#58284b" d="M8 24h1M17 24h1" />
<path stroke="#b04e75" d="M9 24h1M16 24h1" />
<path stroke="#c1517b" d="M10 24h1M15 24h1" />
<path stroke="#d55e83" d="M11 24h1M14 24h1" />
<path stroke="rgba(54,28,49,0.42745098039215684)" d="M18 24h1" />
<path stroke="#602d2e" d="M19 24h1" />
<path stroke="#eec4ab" d="M20 24h1" />
<path stroke="#b59990" d="M21 24h1" />
<path stroke="rgba(42,27,32,0.3764705882352941)" d="M3 25h1" />
<path stroke="#a26c56" d="M4 25h1" />
<path stroke="#edc4ab" d="M5 25h1" />
<path stroke="#5e2d2d" d="M6 25h1" />
<path stroke="rgba(33,20,26,0.15294117647058825)" d="M7 25h1" />
<path stroke="#231428" d="M8 25h1M17 25h1" />
<path stroke="#8e3d61" d="M9 25h1M16 25h1" />
<path stroke="#be507a" d="M10 25h1M15 25h1" />
<path stroke="#a74d72" d="M11 25h1M14 25h1" />
<path stroke="#341e22" d="M18 25h1" />
<path stroke="#c0765e" d="M19 25h1" />
<path stroke="#f7cfb3" d="M20 25h1" />
<path stroke="#dfae99" d="M21 25h1" />
<path stroke="#4f272a" d="M22 25h1" />
<path stroke="#5a3633" d="M3 26h1" />
<path stroke="#e8c2b2" d="M4 26h1" />
<path stroke="#e6c1a9" d="M5 26h1" />
<path stroke="#3f2226" d="M6 26h1" />
<path stroke="#160905" d="M7 26h1" />
<path stroke="#170d15" d="M8 26h1M17 26h1" />
<path stroke="#503836" d="M9 26h1M16 26h1" />
<path stroke="#793555" d="M10 26h1M15 26h1" />
<path stroke="#893f60" d="M11 26h1M14 26h1" />
<path stroke="#ec6e8c" d="M12 26h2" />
<path stroke="#2c190f" d="M18 26h1" />
<path stroke="#eebc9b" d="M19 26h1" />
<path stroke="#f9d5ba" d="M20 26h1M20 27h1M5 28h1" />
<path stroke="#e5bfb0" d="M21 26h1" />
<path stroke="#563130" d="M22 26h1" />
<path stroke="#694940" d="M3 27h1" />
<path stroke="#f4d5c4" d="M4 27h1" />
<path stroke="#f7d2b7" d="M5 27h1M15 36h1" />
<path stroke="#b5796c" d="M6 27h1" />
<path stroke="#2e1a1d" d="M7 27h1" />
<path stroke="#5d2209" d="M8 27h1M8 28h1" />
<path stroke="#402112" d="M9 27h1M16 27h1" />
<path stroke="#150907" d="M10 27h1M15 27h1" />
<path stroke="#25121a" d="M11 27h1M14 27h1" />
<path stroke="#412237" d="M12 27h2" />
<path stroke="#3c1505" d="M17 27h1" />
<path stroke="#250f05" d="M18 27h1" />
<path stroke="#9b7d69" d="M19 27h1" />
<path stroke="#e2b19a" d="M21 27h1" />
<path stroke="#522c2c" d="M22 27h1" />
<path stroke="#5d3a35" d="M3 28h1" />
<path stroke="#eabca1" d="M4 28h1" />
<path stroke="#e7b395" d="M6 28h1" />
<path stroke="#3b2729" d="M7 28h1" />
<path stroke="#5c2208" d="M9 28h1" />
<path stroke="#260c02" d="M10 28h1M15 28h1" />
<path stroke="#350501" d="M11 28h1" />
<path stroke="#69270a" d="M12 28h1M12 29h1" />
<path stroke="#3e1605" d="M13 28h1M16 29h1" />
<path stroke="#310501" d="M14 28h1" />
<path stroke="#371304" d="M16 28h1" />
<path stroke="#4c1c06" d="M17 28h1" />
<path stroke="#280e02" d="M18 28h1" />
<path stroke="#6a4835" d="M19 28h1" />
<path stroke="#cfac97" d="M20 28h1" />
<path stroke="rgba(141,93,75,0.9490196078431372)" d="M21 28h1" />
<path stroke="rgba(39,25,32,0.2823529411764706)" d="M22 28h1" />
<path stroke="rgba(66,36,39,0.6196078431372549)" d="M3 29h1" />
<path stroke="#ba8670" d="M4 29h1" />
<path stroke="#f8d2b6" d="M5 29h1" />
<path stroke="#a27161" d="M6 29h1" />
<path stroke="#2d1b21" d="M7 29h1" />
<path stroke="#3f1605" d="M8 29h1M10 30h1" />
<path stroke="#6b2c11" d="M9 29h1" />
<path stroke="#270c02" d="M10 29h1M15 29h1" />
<path stroke="#460501" d="M11 29h1" />
<path stroke="#4a1b06" d="M13 29h1" />
<path stroke="#3d0501" d="M14 29h1" />
<path stroke="#622409" d="M17 29h1" />
<path stroke="#451906" d="M18 29h1" />
<path stroke="rgba(25,13,10,0.7098039215686275)" d="M19 29h1" />
<path stroke="rgba(38,26,31,0.4235294117647059)" d="M20 29h1" />
<path stroke="rgba(39,26,32,0.30980392156862746)" d="M21 29h1" />
<path stroke="rgba(0,0,0,0.011764705882352941)" d="M3 30h1" />
<path stroke="rgba(45,28,35,0.7411764705882353)" d="M4 30h1" />
<path stroke="#2f2026" d="M5 30h1" />
<path stroke="#2b1c22" d="M6 30h1" />
<path stroke="#7e780c" d="M7 30h1" />
<path stroke="#451c0a" d="M8 30h1" />
<path stroke="#863614" d="M9 30h1" />
<path stroke="#58250f" d="M11 30h1" />
<path stroke="#7f3210" d="M12 30h1" />
<path stroke="#4f1d07" d="M13 30h1" />
<path stroke="#321103" d="M14 30h1" />
<path stroke="#964320" d="M15 30h1" />
<path stroke="#4c1b06" d="M16 30h1" />
<path stroke="#2f1003" d="M17 30h1" />
<path stroke="#7e7608" d="M18 30h1" />
<path stroke="rgba(29,16,13,0.788235294117647)" d="M19 30h1" />
<path stroke="rgba(45,30,30,0.06666666666666667)" d="M20 30h1M5 38h1M20 38h1" />
<path stroke="rgba(43,28,28,0.07058823529411765)" d="M3 31h1M22 31h1M3 37h1M22 37h1" />
<path stroke="rgba(47,33,33,0.49019607843137253)" d="M4 31h1M21 31h1M3 32h1M22 32h1M3 36h1M22 36h1M4 37h1M21 37h1" />
<path stroke="rgba(46,31,31,0.6039215686274509)" d="M5 31h1M5 37h1" />
<path stroke="rgba(36,22,20,0.8117647058823529)" d="M6 31h1" />
<path stroke="rgba(21,8,2,0.9921568627450981)" d="M7 31h1M18 31h1" />
<path stroke="rgba(44,20,9,0.9568627450980393)" d="M8 31h1" />
<path stroke="#6d4d08" d="M9 31h1" />
<path stroke="#311103" d="M10 31h1" />
<path stroke="#411b0b" d="M11 31h1" />
<path stroke="#825f0c" d="M12 31h1" />
<path stroke="#612409" d="M13 31h1" />
<path stroke="#270e02" d="M14 31h1" />
<path stroke="#541f08" d="M15 31h1" />
<path stroke="#694b08" d="M16 31h1" />
<path stroke="#3d1910" d="M17 31h1" />
<path stroke="rgba(35,21,18,0.7686274509803922)" d="M19 31h1" />
<path stroke="rgba(47,32,32,0.596078431372549)" d="M20 31h1M4 32h1M21 32h1M3 33h1M21 33h2M3 34h1M21 34h2M3 35h1M21 35h2M4 36h1M21 36h1M20 37h1" />
<path stroke="rgba(46,32,32,0.7764705882352941)" d="M5 32h1M5 36h1" />
<path stroke="rgba(45,32,32,0.8352941176470589)" d="M6 32h1M5 33h3M19 33h2M5 34h3M13 34h1M20 34h1M5 35h3M20 35h1M6 36h2M7 37h1M10 38h3" />
<path stroke="rgba(39,25,24,0.8745098039215686)" d="M7 32h1M18 32h1" />
<path stroke="rgba(38,25,30,0.9686274509803922)" d="M8 32h1" />
<path stroke="#24100a" d="M9 32h1" />
<path stroke="#9a644a" d="M10 32h2" />
<path stroke="#442111" d="M12 32h1" />
<path stroke="#240f07" d="M13 32h1" />
<path stroke="#522523" d="M14 32h1" />
<path stroke="#aa7759" d="M15 32h1" />
<path stroke="#604232" d="M16 32h1" />
<path stroke="#654441" d="M17 32h1" />
<path stroke="rgba(46,32,32,0.803921568627451)" d="M19 32h1" />
<path stroke="rgba(47,32,32,0.615686274509804)" d="M20 32h1M20 36h1" />
<path stroke="rgba(47,31,31,0.5725490196078431)" d="M2 33h1M23 33h1M2 34h1M23 34h1M2 35h1M23 35h1" />
<path stroke="rgba(45,32,32,0.7725490196078432)" d="M4 33h1M4 34h1M4 35h1" />
<path stroke="#462428" d="M8 33h1" />
<path stroke="#9f4941" d="M9 33h1" />
<path stroke="#d2906f" d="M10 33h1" />
<path stroke="#e4a67f" d="M11 33h1" />
<path stroke="#4b3331" d="M12 33h1" />
<path stroke="rgba(44,31,32,0.8627450980392157)" d="M13 33h1M13 35h1" />
<path stroke="rgba(98,46,46,0.9921568627450981)" d="M14 33h1M14 35h1" />
<path stroke="#ca8363" d="M15 33h1" />
<path stroke="#edbd9d" d="M16 33h1" />
<path stroke="#62413a" d="M17 33h1" />
<path stroke="rgba(45,32,32,0.8509803921568627)" d="M18 33h1" />
<path stroke="#4f3532" d="M8 34h1" />
<path stroke="#daa590" d="M9 34h1" />
<path stroke="#f9e0d0" d="M10 34h1" />
<path stroke="#e6b496" d="M11 34h1M11 35h1" />
<path stroke="#472e2d" d="M12 34h1M12 35h1" />
<path stroke="rgba(42,28,32,0.9294117647058824)" d="M14 34h1" />
<path stroke="#d1906d" d="M15 34h1" />
<path stroke="#d4906c" d="M16 34h1" />
<path stroke="#a75447" d="M17 34h1" />
<path stroke="rgba(91,44,45,0.9921568627450981)" d="M18 34h1" />
<path stroke="rgba(46,37,37,0.8745098039215686)" d="M19 34h1" />
<path stroke="#454040" d="M8 35h1" />
<path stroke="#b7a7a4" d="M9 35h1" />
<path stroke="#faebe5" d="M10 35h1" />
<path stroke="#f2caae" d="M15 35h1" />
<path stroke="#efbf9f" d="M16 35h1" />
<path stroke="#ac5b4d" d="M17 35h1" />
<path stroke="#8c403a" d="M18 35h1" />
<path stroke="rgba(46,39,39,0.9176470588235294)" d="M19 35h1" />
<path stroke="rgba(52,50,50,0.9686274509803922)" d="M8 36h1" />
<path stroke="#927460" d="M9 36h1" />
<path stroke="#c9ae9a" d="M10 36h1" />
<path stroke="#9a6252" d="M11 36h1" />
<path stroke="#514544" d="M12 36h1" />
<path stroke="rgba(44,31,32,0.8666666666666667)" d="M13 36h1" />
<path stroke="#865848" d="M14 36h1" />
<path stroke="#faece7" d="M16 36h1" />
<path stroke="#dda78d" d="M17 36h1" />
<path stroke="#956451" d="M18 36h1" />
<path stroke="rgba(59,53,53,0.8862745098039215)" d="M19 36h1" />
<path stroke="rgba(46,32,32,0.7568627450980392)" d="M6 37h1" />
<path stroke="rgba(46,34,34,0.8509803921568627)" d="M8 37h1" />
<path stroke="rgba(53,51,51,0.9607843137254902)" d="M9 37h1" />
<path stroke="#393939" d="M10 37h2" />
<path stroke="rgba(48,42,42,0.9137254901960784)" d="M12 37h1" />
<path stroke="rgba(50,38,39,0.8666666666666667)" d="M13 37h1" />
<path stroke="#7d4c45" d="M14 37h1" />
<path stroke="#da9f80" d="M15 37h1" />
<path stroke="#f5d2bc" d="M16 37h1" />
<path stroke="#c27c68" d="M17 37h1" />
<path stroke="#3e393b" d="M18 37h1" />
<path stroke="rgba(46,40,40,0.796078431372549)" d="M19 37h1" />
<path stroke="rgba(47,31,31,0.5764705882352941)" d="M6 38h2M19 38h1" />
<path stroke="rgba(46,32,32,0.8117647058823529)" d="M8 38h1" />
<path stroke="rgba(46,33,33,0.8274509803921568)" d="M9 38h1" />
<path stroke="rgba(45,35,35,0.8666666666666667)" d="M13 38h1" />
<path stroke="rgba(63,63,63,0.996078431372549)" d="M14 38h1" />
<path stroke="#4c4c4c" d="M15 38h3" />
<path stroke="rgba(46,45,45,0.9176470588235294)" d="M18 38h1" />
<path stroke="rgba(42,32,32,0.09411764705882353)" d="M8 39h1" />
<path stroke="rgba(46,32,32,0.34509803921568627)" d="M9 39h1" />
<path stroke="rgba(46,33,33,0.4823529411764706)" d="M10 39h4" />
<path stroke="rgba(47,41,41,0.5372549019607843)" d="M14 39h1" />
<path stroke="rgba(47,47,47,0.5764705882352941)" d="M15 39h3" />
</svg>